<svg xmlns="http://www.w3.org/2000/svg" width="504" height="54" viewBox="0 0 504 54" role="img" aria-label="Brand header" style="background:#000000"><rect width="100%" height="100%" fill="#000000"/><g font-family="ui-monospace, SFMono-Regular, Menlo, Consolas, monospace" font-size="14"><rect x="0" y="0" width="9" height="18" fill="#1c1c1c"/><rect x="9" y="0" width="9" height="18" fill="#1c1c1c"/><rect x="18" y="0" width="9" height="18" fill="#1c1c1c"/><rect x="27" y="0" width="9" height="18" fill="#1c1c1c"/><rect x="36" y="0" width="9" height="18" fill="#1c1c1c"/><rect x="45" y="0" width="9" height="18" fill="#1c1c1c"/><rect x="54" y="0" width="9" height="18" fill="#1c1c1c"/><rect x="63" y="0" width="9" height="18" fill="#1c1c1c"/><rect x="72" y="0" width="9" height="18" fill="#1c1c1c"/><rect x="81" y="0" width="9" height="18" fill="#1c1c1c"/><rect x="90" y="0" width="9" height="18" fill="#1c1c1c"/><rect x="99" y="0" width="9" height="18" fill="#1c1c1c"/><rect x="108" y="0" width="9" height="18" fill="#1c1c1c"/><rect x="117" y="0" width="9" height="18" fill="#1c1c1c"/><rect x="126" y="0" width="9" height="18" fill="#1c1c1c"/><rect x="135" y="0" width="9" height="18" fill="#1c1c1c"/><rect x="144" y="0" width="9" height="18" fill="#1c1c1c"/><rect x="153" y="0" width="9" height="18" fill="#1c1c1c"/><rect x="162" y="0" width="9" height="18" fill="#1c1c1c"/><rect x="171" y="0" width="9" height="18" fill="#1c1c1c"/><rect x="180" y="0" width="9" height="18" fill="#1c1c1c"/><rect x="189" y="0" width="9" height="18" fill="#1c1c1c"/><rect x="198" y="0" width="9" height="18" fill="#1c1c1c"/><rect x="207" y="0" width="9" height="18" fill="#1c1c1c"/><rect x="216" y="0" width="9" height="18" fill="#1c1c1c"/><rect x="225" y="0" width="9" height="18" fill="#1c1c1c"/><rect x="234" y="0" width="9" height="18" fill="#1c1c1c"/><rect x="243" y="0" width="9" height="18" fill="#1c1c1c"/><rect x="252" y="0" width="9" height="18" fill="#1c1c1c"/><rect x="261" y="0" width="9" height="18" fill="#1c1c1c"/><rect x="270" y="0" width="9" height="18" fill="#1c1c1c"/><rect x="279" y="0" width="9" height="18" fill="#1c1c1c"/><rect x="288" y="0" width="9" height="18" fill="#1c1c1c"/><rect x="297" y="0" width="9" height="18" fill="#1c1c1c"/><rect x="306" y="0" width="9" height="18" fill="#1c1c1c"/><rect x="315" y="0" width="9" height="18" fill="#1c1c1c"/><rect x="324" y="0" width="9" height="18" fill="#1c1c1c"/><rect x="333" y="0" width="9" height="18" fill="#1c1c1c"/><rect x="342" y="0" width="9" height="18" fill="#1c1c1c"/><rect x="351" y="0" width="9" height="18" fill="#1c1c1c"/><rect x="360" y="0" width="9" height="18" fill="#1c1c1c"/><rect x="369" y="0" width="9" height="18" fill="#1c1c1c"/><rect x="378" y="0" width="9" height="18" fill="#1c1c1c"/><rect x="387" y="0" width="9" height="18" fill="#1c1c1c"/><rect x="396" y="0" width="9" height="18" fill="#1c1c1c"/><rect x="405" y="0" width="9" height="18" fill="#1c1c1c"/><rect x="414" y="0" width="9" height="18" fill="#1c1c1c"/><rect x="423" y="0" width="9" height="18" fill="#1c1c1c"/><rect x="432" y="0" width="9" height="18" fill="#1c1c1c"/><rect x="441" y="0" width="9" height="18" fill="#1c1c1c"/><rect x="450" y="0" width="9" height="18" fill="#1c1c1c"/><rect x="459" y="0" width="9" height="18" fill="#1c1c1c"/><rect x="468" y="0" width="9" height="18" fill="#1c1c1c"/><rect x="477" y="0" width="9" height="18" fill="#1c1c1c"/><rect x="486" y="0" width="9" height="18" fill="#1c1c1c"/><rect x="495" y="0" width="9" height="18" fill="#1c1c1c"/><rect x="0" y="18" width="9" height="18" fill="#1c1c1c"/><rect x="9" y="18" width="9" height="18" fill="#00ff41"/><rect x="18" y="18" width="9" height="18" fill="#00ff41"/><text x="18" y="32" fill="#000000">j</text><rect x="27" y="18" width="9" height="18" fill="#00ff41"/><text x="27" y="32" fill="#000000">a</text><rect x="36" y="18" width="9" height="18" fill="#00ff41"/><text x="36" y="32" fill="#000000">c</text><rect x="45" y="18" width="9" height="18" fill="#00ff41"/><text x="45" y="32" fill="#000000">k</text><rect x="54" y="18" width="9" height="18" fill="#00ff41"/><text x="54" y="32" fill="#000000">i</text><rect x="63" y="18" width="9" height="18" fill="#00ff41"/><text x="63" y="32" fill="#000000">n</text><rect x="72" y="18" width="9" height="18" fill="#00ff41"/><text x="72" y="32" fill="#ffffff">❯</text><rect x="81" y="18" width="9" height="18" fill="#00ff41"/><text x="99" y="32" fill="#005012">·</text><text x="117" y="32" fill="#008c1e">C</text><text x="126" y="32" fill="#008c1e">o</text><text x="135" y="32" fill="#008c1e">n</text><text x="144" y="32" fill="#008c1e">s</text><text x="153" y="32" fill="#008c1e">o</text><text x="162" y="32" fill="#008c1e">l</text><text x="171" y="32" fill="#008c1e">e</text><text x="189" y="32" fill="#008c1e">·</text><text x="207" y="32" fill="#008c1e">w</text><text x="216" y="32" fill="#008c1e">o</text><text x="225" y="32" fill="#008c1e">r</text><text x="234" y="32" fill="#008c1e">k</text><text x="243" y="32" fill="#008c1e">s</text><text x="252" y="32" fill="#008c1e">p</text><text x="261" y="32" fill="#008c1e">a</text><text x="270" y="32" fill="#008c1e">c</text><text x="279" y="32" fill="#008c1e">e</text><text x="297" y="32" fill="#008c1e">e</text><text x="306" y="32" fill="#008c1e">d</text><text x="315" y="32" fill="#008c1e">i</text><text x="324" y="32" fill="#008c1e">t</text><text x="333" y="32" fill="#008c1e">o</text><text x="342" y="32" fill="#008c1e">r</text><rect x="495" y="18" width="9" height="18" fill="#1c1c1c"/><rect x="0" y="36" width="9" height="18" fill="#1c1c1c"/><rect x="9" y="36" width="9" height="18" fill="#1c1c1c"/><rect x="18" y="36" width="9" height="18" fill="#1c1c1c"/><rect x="27" y="36" width="9" height="18" fill="#1c1c1c"/><rect x="36" y="36" width="9" height="18" fill="#1c1c1c"/><rect x="45" y="36" width="9" height="18" fill="#1c1c1c"/><rect x="54" y="36" width="9" height="18" fill="#1c1c1c"/><rect x="63" y="36" width="9" height="18" fill="#1c1c1c"/><rect x="72" y="36" width="9" height="18" fill="#1c1c1c"/><rect x="81" y="36" width="9" height="18" fill="#1c1c1c"/><rect x="90" y="36" width="9" height="18" fill="#1c1c1c"/><rect x="99" y="36" width="9" height="18" fill="#1c1c1c"/><rect x="108" y="36" width="9" height="18" fill="#1c1c1c"/><rect x="117" y="36" width="9" height="18" fill="#1c1c1c"/><rect x="126" y="36" width="9" height="18" fill="#1c1c1c"/><rect x="135" y="36" width="9" height="18" fill="#1c1c1c"/><rect x="144" y="36" width="9" height="18" fill="#1c1c1c"/><rect x="153" y="36" width="9" height="18" fill="#1c1c1c"/><rect x="162" y="36" width="9" height="18" fill="#1c1c1c"/><rect x="171" y="36" width="9" height="18" fill="#1c1c1c"/><rect x="180" y="36" width="9" height="18" fill="#1c1c1c"/><rect x="189" y="36" width="9" height="18" fill="#1c1c1c"/><rect x="198" y="36" width="9" height="18" fill="#1c1c1c"/><rect x="207" y="36" width="9" height="18" fill="#1c1c1c"/><rect x="216" y="36" width="9" height="18" fill="#1c1c1c"/><rect x="225" y="36" width="9" height="18" fill="#1c1c1c"/><rect x="234" y="36" width="9" height="18" fill="#1c1c1c"/><rect x="243" y="36" width="9" height="18" fill="#1c1c1c"/><rect x="252" y="36" width="9" height="18" fill="#1c1c1c"/><rect x="261" y="36" width="9" height="18" fill="#1c1c1c"/><rect x="270" y="36" width="9" height="18" fill="#1c1c1c"/><rect x="279" y="36" width="9" height="18" fill="#1c1c1c"/><rect x="288" y="36" width="9" height="18" fill="#1c1c1c"/><rect x="297" y="36" width="9" height="18" fill="#1c1c1c"/><rect x="306" y="36" width="9" height="18" fill="#1c1c1c"/><rect x="315" y="36" width="9" height="18" fill="#1c1c1c"/><rect x="324" y="36" width="9" height="18" fill="#1c1c1c"/><rect x="333" y="36" width="9" height="18" fill="#1c1c1c"/><rect x="342" y="36" width="9" height="18" fill="#1c1c1c"/><rect x="351" y="36" width="9" height="18" fill="#1c1c1c"/><rect x="360" y="36" width="9" height="18" fill="#1c1c1c"/><rect x="369" y="36" width="9" height="18" fill="#1c1c1c"/><rect x="378" y="36" width="9" height="18" fill="#1c1c1c"/><rect x="387" y="36" width="9" height="18" fill="#1c1c1c"/><rect x="396" y="36" width="9" height="18" fill="#1c1c1c"/><rect x="405" y="36" width="9" height="18" fill="#1c1c1c"/><rect x="414" y="36" width="9" height="18" fill="#1c1c1c"/><rect x="423" y="36" width="9" height="18" fill="#1c1c1c"/><rect x="432" y="36" width="9" height="18" fill="#1c1c1c"/><rect x="441" y="36" width="9" height="18" fill="#1c1c1c"/><rect x="450" y="36" width="9" height="18" fill="#1c1c1c"/><rect x="459" y="36" width="9" height="18" fill="#1c1c1c"/><rect x="468" y="36" width="9" height="18" fill="#1c1c1c"/><rect x="477" y="36" width="9" height="18" fill="#1c1c1c"/><rect x="486" y="36" width="9" height="18" fill="#1c1c1c"/><rect x="495" y="36" width="9" height="18" fill="#1c1c1c"/></g></svg>
