<svg xmlns="http://www.w3.org/2000/svg" width="504" height="90" viewBox="0 0 504 90" role="img" aria-label="Button strip" style="background:#000000"><rect width="100%" height="100%" fill="#000000"/><g font-family="ui-monospace, SFMono-Regular, Menlo, Consolas, monospace" font-size="14"><rect x="0" y="0" width="9" height="18" fill="#1c1c1c"/><rect x="9" y="0" width="9" height="18" fill="#1c1c1c"/><rect x="18" y="0" width="9" height="18" fill="#1c1c1c"/><rect x="27" y="0" width="9" height="18" fill="#1c1c1c"/><rect x="36" y="0" width="9" height="18" fill="#1c1c1c"/><rect x="45" y="0" width="9" height="18" fill="#1c1c1c"/><rect x="54" y="0" width="9" height="18" fill="#1c1c1c"/><rect x="63" y="0" width="9" height="18" fill="#1c1c1c"/><rect x="72" y="0" width="9" height="18" fill="#1c1c1c"/><rect x="81" y="0" width="9" height="18" fill="#1c1c1c"/><rect x="90" y="0" width="9" height="18" fill="#1c1c1c"/><rect x="99" y="0" width="9" height="18" fill="#1c1c1c"/><rect x="108" y="0" width="9" height="18" fill="#1c1c1c"/><rect x="117" y="0" width="9" height="18" fill="#1c1c1c"/><rect x="126" y="0" width="9" height="18" fill="#1c1c1c"/><rect x="135" y="0" width="9" height="18" fill="#1c1c1c"/><rect x="144" y="0" width="9" height="18" fill="#1c1c1c"/><rect x="153" y="0" width="9" height="18" fill="#1c1c1c"/><rect x="162" y="0" width="9" height="18" fill="#1c1c1c"/><rect x="171" y="0" width="9" height="18" fill="#1c1c1c"/><rect x="180" y="0" width="9" height="18" fill="#1c1c1c"/><rect x="189" y="0" width="9" height="18" fill="#1c1c1c"/><rect x="198" y="0" width="9" height="18" fill="#1c1c1c"/><rect x="207" y="0" width="9" height="18" fill="#1c1c1c"/><rect x="216" y="0" width="9" height="18" fill="#1c1c1c"/><rect x="225" y="0" width="9" height="18" fill="#1c1c1c"/><rect x="234" y="0" width="9" height="18" fill="#1c1c1c"/><rect x="243" y="0" width="9" height="18" fill="#1c1c1c"/><rect x="252" y="0" width="9" height="18" fill="#1c1c1c"/><rect x="261" y="0" width="9" height="18" fill="#1c1c1c"/><rect x="270" y="0" width="9" height="18" fill="#1c1c1c"/><rect x="279" y="0" width="9" height="18" fill="#1c1c1c"/><rect x="288" y="0" width="9" height="18" fill="#1c1c1c"/><rect x="297" y="0" width="9" height="18" fill="#1c1c1c"/><rect x="306" y="0" width="9" height="18" fill="#1c1c1c"/><rect x="315" y="0" width="9" height="18" fill="#1c1c1c"/><rect x="324" y="0" width="9" height="18" fill="#1c1c1c"/><rect x="333" y="0" width="9" height="18" fill="#1c1c1c"/><rect x="342" y="0" width="9" height="18" fill="#1c1c1c"/><rect x="351" y="0" width="9" height="18" fill="#1c1c1c"/><rect x="360" y="0" width="9" height="18" fill="#1c1c1c"/><rect x="369" y="0" width="9" height="18" fill="#1c1c1c"/><rect x="378" y="0" width="9" height="18" fill="#1c1c1c"/><rect x="387" y="0" width="9" height="18" fill="#1c1c1c"/><rect x="396" y="0" width="9" height="18" fill="#1c1c1c"/><rect x="405" y="0" width="9" height="18" fill="#1c1c1c"/><rect x="414" y="0" width="9" height="18" fill="#1c1c1c"/><rect x="423" y="0" width="9" height="18" fill="#1c1c1c"/><rect x="432" y="0" width="9" height="18" fill="#1c1c1c"/><rect x="441" y="0" width="9" height="18" fill="#1c1c1c"/><rect x="450" y="0" width="9" height="18" fill="#1c1c1c"/><rect x="459" y="0" width="9" height="18" fill="#1c1c1c"/><rect x="468" y="0" width="9" height="18" fill="#1c1c1c"/><rect x="477" y="0" width="9" height="18" fill="#1c1c1c"/><rect x="486" y="0" width="9" height="18" fill="#1c1c1c"/><rect x="495" y="0" width="9" height="18" fill="#1c1c1c"/><rect x="0" y="18" width="9" height="18" fill="#1c1c1c"/><rect x="495" y="18" width="9" height="18" fill="#1c1c1c"/><rect x="0" y="36" width="9" height="18" fill="#1c1c1c"/><rect x="18" y="36" width="9" height="18" fill="#ffffff"/><rect x="27" y="36" width="9" height="18" fill="#ffffff"/><rect x="36" y="36" width="9" height="18" fill="#ffffff"/><text x="36" y="50" fill="#000000">S</text><rect x="45" y="36" width="9" height="18" fill="#ffffff"/><text x="45" y="50" fill="#000000">a</text><rect x="54" y="36" width="9" height="18" fill="#ffffff"/><text x="54" y="50" fill="#000000">v</text><rect x="63" y="36" width="9" height="18" fill="#ffffff"/><text x="63" y="50" fill="#000000">e</text><rect x="72" y="36" width="9" height="18" fill="#ffffff"/><rect x="81" y="36" width="9" height="18" fill="#ffffff"/><text x="144" y="50" fill="#00ff41">D</text><text x="153" y="50" fill="#00ff41">i</text><text x="162" y="50" fill="#00ff41">s</text><text x="171" y="50" fill="#00ff41">c</text><text x="180" y="50" fill="#00ff41">a</text><text x="189" y="50" fill="#00ff41">r</text><text x="198" y="50" fill="#00ff41">d</text><text x="279" y="50" fill="#005012">L</text><text x="288" y="50" fill="#005012">a</text><text x="297" y="50" fill="#005012">u</text><text x="306" y="50" fill="#005012">n</text><text x="315" y="50" fill="#005012">c</text><text x="324" y="50" fill="#005012">h</text><text x="405" y="50" fill="#00ff41">C</text><text x="414" y="50" fill="#00ff41">a</text><text x="423" y="50" fill="#00ff41">n</text><text x="432" y="50" fill="#00ff41">c</text><text x="441" y="50" fill="#00ff41">e</text><text x="450" y="50" fill="#00ff41">l</text><rect x="495" y="36" width="9" height="18" fill="#1c1c1c"/><rect x="0" y="54" width="9" height="18" fill="#1c1c1c"/><rect x="495" y="54" width="9" height="18" fill="#1c1c1c"/><rect x="0" y="72" width="9" height="18" fill="#1c1c1c"/><rect x="9" y="72" width="9" height="18" fill="#1c1c1c"/><rect x="18" y="72" width="9" height="18" fill="#1c1c1c"/><rect x="27" y="72" width="9" height="18" fill="#1c1c1c"/><rect x="36" y="72" width="9" height="18" fill="#1c1c1c"/><rect x="45" y="72" width="9" height="18" fill="#1c1c1c"/><rect x="54" y="72" width="9" height="18" fill="#1c1c1c"/><rect x="63" y="72" width="9" height="18" fill="#1c1c1c"/><rect x="72" y="72" width="9" height="18" fill="#1c1c1c"/><rect x="81" y="72" width="9" height="18" fill="#1c1c1c"/><rect x="90" y="72" width="9" height="18" fill="#1c1c1c"/><rect x="99" y="72" width="9" height="18" fill="#1c1c1c"/><rect x="108" y="72" width="9" height="18" fill="#1c1c1c"/><rect x="117" y="72" width="9" height="18" fill="#1c1c1c"/><rect x="126" y="72" width="9" height="18" fill="#1c1c1c"/><rect x="135" y="72" width="9" height="18" fill="#1c1c1c"/><rect x="144" y="72" width="9" height="18" fill="#1c1c1c"/><rect x="153" y="72" width="9" height="18" fill="#1c1c1c"/><rect x="162" y="72" width="9" height="18" fill="#1c1c1c"/><rect x="171" y="72" width="9" height="18" fill="#1c1c1c"/><rect x="180" y="72" width="9" height="18" fill="#1c1c1c"/><rect x="189" y="72" width="9" height="18" fill="#1c1c1c"/><rect x="198" y="72" width="9" height="18" fill="#1c1c1c"/><rect x="207" y="72" width="9" height="18" fill="#1c1c1c"/><rect x="216" y="72" width="9" height="18" fill="#1c1c1c"/><rect x="225" y="72" width="9" height="18" fill="#1c1c1c"/><rect x="234" y="72" width="9" height="18" fill="#1c1c1c"/><rect x="243" y="72" width="9" height="18" fill="#1c1c1c"/><rect x="252" y="72" width="9" height="18" fill="#1c1c1c"/><rect x="261" y="72" width="9" height="18" fill="#1c1c1c"/><rect x="270" y="72" width="9" height="18" fill="#1c1c1c"/><rect x="279" y="72" width="9" height="18" fill="#1c1c1c"/><rect x="288" y="72" width="9" height="18" fill="#1c1c1c"/><rect x="297" y="72" width="9" height="18" fill="#1c1c1c"/><rect x="306" y="72" width="9" height="18" fill="#1c1c1c"/><rect x="315" y="72" width="9" height="18" fill="#1c1c1c"/><rect x="324" y="72" width="9" height="18" fill="#1c1c1c"/><rect x="333" y="72" width="9" height="18" fill="#1c1c1c"/><rect x="342" y="72" width="9" height="18" fill="#1c1c1c"/><rect x="351" y="72" width="9" height="18" fill="#1c1c1c"/><rect x="360" y="72" width="9" height="18" fill="#1c1c1c"/><rect x="369" y="72" width="9" height="18" fill="#1c1c1c"/><rect x="378" y="72" width="9" height="18" fill="#1c1c1c"/><rect x="387" y="72" width="9" height="18" fill="#1c1c1c"/><rect x="396" y="72" width="9" height="18" fill="#1c1c1c"/><rect x="405" y="72" width="9" height="18" fill="#1c1c1c"/><rect x="414" y="72" width="9" height="18" fill="#1c1c1c"/><rect x="423" y="72" width="9" height="18" fill="#1c1c1c"/><rect x="432" y="72" width="9" height="18" fill="#1c1c1c"/><rect x="441" y="72" width="9" height="18" fill="#1c1c1c"/><rect x="450" y="72" width="9" height="18" fill="#1c1c1c"/><rect x="459" y="72" width="9" height="18" fill="#1c1c1c"/><rect x="468" y="72" width="9" height="18" fill="#1c1c1c"/><rect x="477" y="72" width="9" height="18" fill="#1c1c1c"/><rect x="486" y="72" width="9" height="18" fill="#1c1c1c"/><rect x="495" y="72" width="9" height="18" fill="#1c1c1c"/></g></svg>
