<svg xmlns="http://www.w3.org/2000/svg" width="666" height="252" viewBox="0 0 666 252" role="img" aria-label="Debug info" style="background:#000000"><rect width="100%" height="100%" fill="#000000"/><g font-family="ui-monospace, SFMono-Regular, Menlo, Consolas, monospace" font-size="14"><rect x="0" y="0" width="9" height="18" fill="#1c1c1c"/><rect x="9" y="0" width="9" height="18" fill="#1c1c1c"/><rect x="18" y="0" width="9" height="18" fill="#1c1c1c"/><rect x="27" y="0" width="9" height="18" fill="#1c1c1c"/><rect x="36" y="0" width="9" height="18" fill="#1c1c1c"/><rect x="45" y="0" width="9" height="18" fill="#1c1c1c"/><rect x="54" y="0" width="9" height="18" fill="#1c1c1c"/><rect x="63" y="0" width="9" height="18" fill="#1c1c1c"/><rect x="72" y="0" width="9" height="18" fill="#1c1c1c"/><rect x="81" y="0" width="9" height="18" fill="#1c1c1c"/><rect x="90" y="0" width="9" height="18" fill="#1c1c1c"/><rect x="99" y="0" width="9" height="18" fill="#1c1c1c"/><rect x="108" y="0" width="9" height="18" fill="#1c1c1c"/><rect x="117" y="0" width="9" height="18" fill="#1c1c1c"/><rect x="126" y="0" width="9" height="18" fill="#1c1c1c"/><rect x="135" y="0" width="9" height="18" fill="#1c1c1c"/><rect x="144" y="0" width="9" height="18" fill="#1c1c1c"/><rect x="153" y="0" width="9" height="18" fill="#1c1c1c"/><rect x="162" y="0" width="9" height="18" fill="#1c1c1c"/><rect x="171" y="0" width="9" height="18" fill="#1c1c1c"/><rect x="180" y="0" width="9" height="18" fill="#1c1c1c"/><rect x="189" y="0" width="9" height="18" fill="#1c1c1c"/><rect x="198" y="0" width="9" height="18" fill="#1c1c1c"/><rect x="207" y="0" width="9" height="18" fill="#1c1c1c"/><rect x="216" y="0" width="9" height="18" fill="#1c1c1c"/><rect x="225" y="0" width="9" height="18" fill="#1c1c1c"/><rect x="234" y="0" width="9" height="18" fill="#1c1c1c"/><rect x="243" y="0" width="9" height="18" fill="#1c1c1c"/><rect x="252" y="0" width="9" height="18" fill="#1c1c1c"/><rect x="261" y="0" width="9" height="18" fill="#1c1c1c"/><rect x="270" y="0" width="9" height="18" fill="#1c1c1c"/><rect x="279" y="0" width="9" height="18" fill="#1c1c1c"/><rect x="288" y="0" width="9" height="18" fill="#1c1c1c"/><rect x="297" y="0" width="9" height="18" fill="#1c1c1c"/><rect x="306" y="0" width="9" height="18" fill="#1c1c1c"/><rect x="315" y="0" width="9" height="18" fill="#1c1c1c"/><rect x="324" y="0" width="9" height="18" fill="#1c1c1c"/><rect x="333" y="0" width="9" height="18" fill="#1c1c1c"/><rect x="342" y="0" width="9" height="18" fill="#1c1c1c"/><rect x="351" y="0" width="9" height="18" fill="#1c1c1c"/><rect x="360" y="0" width="9" height="18" fill="#1c1c1c"/><rect x="369" y="0" width="9" height="18" fill="#1c1c1c"/><rect x="378" y="0" width="9" height="18" fill="#1c1c1c"/><rect x="387" y="0" width="9" height="18" fill="#1c1c1c"/><rect x="396" y="0" width="9" height="18" fill="#1c1c1c"/><rect x="405" y="0" width="9" height="18" fill="#1c1c1c"/><rect x="414" y="0" width="9" height="18" fill="#1c1c1c"/><rect x="423" y="0" width="9" height="18" fill="#1c1c1c"/><rect x="432" y="0" width="9" height="18" fill="#1c1c1c"/><rect x="441" y="0" width="9" height="18" fill="#1c1c1c"/><rect x="450" y="0" width="9" height="18" fill="#1c1c1c"/><rect x="459" y="0" width="9" height="18" fill="#1c1c1c"/><rect x="468" y="0" width="9" height="18" fill="#1c1c1c"/><rect x="477" y="0" width="9" height="18" fill="#1c1c1c"/><rect x="486" y="0" width="9" height="18" fill="#1c1c1c"/><rect x="495" y="0" width="9" height="18" fill="#1c1c1c"/><rect x="504" y="0" width="9" height="18" fill="#1c1c1c"/><rect x="513" y="0" width="9" height="18" fill="#1c1c1c"/><rect x="522" y="0" width="9" height="18" fill="#1c1c1c"/><rect x="531" y="0" width="9" height="18" fill="#1c1c1c"/><rect x="540" y="0" width="9" height="18" fill="#1c1c1c"/><rect x="549" y="0" width="9" height="18" fill="#1c1c1c"/><rect x="558" y="0" width="9" height="18" fill="#1c1c1c"/><rect x="567" y="0" width="9" height="18" fill="#1c1c1c"/><rect x="576" y="0" width="9" height="18" fill="#1c1c1c"/><rect x="585" y="0" width="9" height="18" fill="#1c1c1c"/><rect x="594" y="0" width="9" height="18" fill="#1c1c1c"/><rect x="603" y="0" width="9" height="18" fill="#1c1c1c"/><rect x="612" y="0" width="9" height="18" fill="#1c1c1c"/><rect x="621" y="0" width="9" height="18" fill="#1c1c1c"/><rect x="630" y="0" width="9" height="18" fill="#1c1c1c"/><rect x="639" y="0" width="9" height="18" fill="#1c1c1c"/><rect x="648" y="0" width="9" height="18" fill="#1c1c1c"/><rect x="657" y="0" width="9" height="18" fill="#1c1c1c"/><rect x="0" y="18" width="9" height="18" fill="#1c1c1c"/><text x="9" y="32" fill="#00ff41">┌</text><text x="27" y="32" fill="#ffffff">D</text><text x="36" y="32" fill="#ffffff">e</text><text x="45" y="32" fill="#ffffff">b</text><text x="54" y="32" fill="#ffffff">u</text><text x="63" y="32" fill="#ffffff">g</text><text x="81" y="32" fill="#ffffff">i</text><text x="90" y="32" fill="#ffffff">n</text><text x="99" y="32" fill="#ffffff">f</text><text x="108" y="32" fill="#ffffff">o</text><text x="126" y="32" fill="#00ff41">─</text><text x="135" y="32" fill="#00ff41">─</text><text x="144" y="32" fill="#00ff41">─</text><text x="153" y="32" fill="#00ff41">─</text><text x="162" y="32" fill="#00ff41">─</text><text x="171" y="32" fill="#00ff41">─</text><text x="180" y="32" fill="#00ff41">─</text><text x="189" y="32" fill="#00ff41">─</text><text x="198" y="32" fill="#00ff41">─</text><text x="207" y="32" fill="#00ff41">─</text><text x="216" y="32" fill="#00ff41">─</text><text x="225" y="32" fill="#00ff41">─</text><text x="234" y="32" fill="#00ff41">─</text><text x="243" y="32" fill="#00ff41">─</text><text x="252" y="32" fill="#00ff41">─</text><text x="261" y="32" fill="#00ff41">─</text><text x="270" y="32" fill="#00ff41">─</text><text x="279" y="32" fill="#00ff41">─</text><text x="288" y="32" fill="#00ff41">─</text><text x="297" y="32" fill="#00ff41">─</text><text x="306" y="32" fill="#00ff41">─</text><text x="315" y="32" fill="#00ff41">─</text><text x="324" y="32" fill="#00ff41">─</text><text x="333" y="32" fill="#00ff41">─</text><text x="342" y="32" fill="#00ff41">─</text><text x="351" y="32" fill="#00ff41">─</text><text x="360" y="32" fill="#00ff41">─</text><text x="369" y="32" fill="#00ff41">─</text><text x="378" y="32" fill="#00ff41">─</text><text x="387" y="32" fill="#00ff41">─</text><text x="396" y="32" fill="#00ff41">─</text><text x="405" y="32" fill="#00ff41">─</text><text x="414" y="32" fill="#00ff41">─</text><text x="423" y="32" fill="#00ff41">─</text><text x="432" y="32" fill="#00ff41">─</text><text x="441" y="32" fill="#00ff41">─</text><text x="450" y="32" fill="#00ff41">─</text><text x="459" y="32" fill="#00ff41">─</text><text x="468" y="32" fill="#00ff41">─</text><text x="477" y="32" fill="#00ff41">─</text><text x="486" y="32" fill="#00ff41">─</text><text x="495" y="32" fill="#00ff41">─</text><text x="504" y="32" fill="#00ff41">─</text><text x="513" y="32" fill="#00ff41">─</text><text x="522" y="32" fill="#00ff41">─</text><text x="531" y="32" fill="#00ff41">─</text><text x="540" y="32" fill="#00ff41">─</text><text x="549" y="32" fill="#00ff41">─</text><text x="558" y="32" fill="#00ff41">─</text><text x="567" y="32" fill="#00ff41">─</text><text x="576" y="32" fill="#00ff41">─</text><text x="585" y="32" fill="#00ff41">─</text><text x="594" y="32" fill="#00ff41">─</text><text x="603" y="32" fill="#00ff41">─</text><text x="612" y="32" fill="#00ff41">─</text><text x="621" y="32" fill="#00ff41">─</text><text x="630" y="32" fill="#00ff41">─</text><text x="639" y="32" fill="#00ff41">─</text><text x="648" y="32" fill="#00ff41">┐</text><rect x="657" y="18" width="9" height="18" fill="#1c1c1c"/><rect x="0" y="36" width="9" height="18" fill="#1c1c1c"/><text x="9" y="50" fill="#00ff41">│</text><text x="648" y="50" fill="#00ff41">│</text><rect x="657" y="36" width="9" height="18" fill="#1c1c1c"/><rect x="0" y="54" width="9" height="18" fill="#1c1c1c"/><text x="9" y="68" fill="#00ff41">│</text><text x="36" y="68" fill="#008c1e">R</text><text x="45" y="68" fill="#008c1e">u</text><text x="54" y="68" fill="#008c1e">n</text><text x="72" y="68" fill="#008c1e">I</text><text x="81" y="68" fill="#008c1e">D</text><text x="180" y="68" fill="#005012">:</text><text x="198" y="68" fill="#ffffff">j</text><text x="207" y="68" fill="#ffffff">k</text><text x="216" y="68" fill="#ffffff">-</text><text x="225" y="68" fill="#ffffff">r</text><text x="234" y="68" fill="#ffffff">u</text><text x="243" y="68" fill="#ffffff">n</text><text x="252" y="68" fill="#ffffff">-</text><text x="261" y="68" fill="#ffffff">c</text><text x="270" y="68" fill="#ffffff">c</text><text x="279" y="68" fill="#ffffff">5</text><text x="288" y="68" fill="#ffffff">f</text><text x="297" y="68" fill="#ffffff">f</text><text x="306" y="68" fill="#ffffff">2</text><text x="333" y="68" fill="#ffffff">⧉</text><text x="648" y="68" fill="#00ff41">│</text><rect x="657" y="54" width="9" height="18" fill="#1c1c1c"/><rect x="0" y="72" width="9" height="18" fill="#1c1c1c"/><text x="9" y="86" fill="#00ff41">│</text><text x="36" y="86" fill="#008c1e">C</text><text x="45" y="86" fill="#008c1e">o</text><text x="54" y="86" fill="#008c1e">n</text><text x="63" y="86" fill="#008c1e">t</text><text x="72" y="86" fill="#008c1e">a</text><text x="81" y="86" fill="#008c1e">i</text><text x="90" y="86" fill="#008c1e">n</text><text x="99" y="86" fill="#008c1e">e</text><text x="108" y="86" fill="#008c1e">r</text><text x="126" y="86" fill="#008c1e">I</text><text x="135" y="86" fill="#008c1e">D</text><text x="180" y="86" fill="#005012">:</text><text x="198" y="86" fill="#ffffff">j</text><text x="207" y="86" fill="#ffffff">k</text><text x="216" y="86" fill="#ffffff">-</text><text x="225" y="86" fill="#ffffff">s</text><text x="234" y="86" fill="#ffffff">k</text><text x="243" y="86" fill="#ffffff">7</text><text x="252" y="86" fill="#ffffff">6</text><text x="261" y="86" fill="#ffffff">z</text><text x="270" y="86" fill="#ffffff">d</text><text x="279" y="86" fill="#ffffff">a</text><text x="288" y="86" fill="#ffffff">t</text><text x="297" y="86" fill="#ffffff">-</text><text x="306" y="86" fill="#ffffff">t</text><text x="315" y="86" fill="#ffffff">h</text><text x="324" y="86" fill="#ffffff">e</text><text x="333" y="86" fill="#ffffff">a</text><text x="342" y="86" fill="#ffffff">r</text><text x="351" y="86" fill="#ffffff">c</text><text x="360" y="86" fill="#ffffff">h</text><text x="369" y="86" fill="#ffffff">i</text><text x="378" y="86" fill="#ffffff">t</text><text x="387" y="86" fill="#ffffff">e</text><text x="396" y="86" fill="#ffffff">c</text><text x="405" y="86" fill="#ffffff">t</text><text x="432" y="86" fill="#ffffff">⧉</text><text x="648" y="86" fill="#00ff41">│</text><rect x="657" y="72" width="9" height="18" fill="#1c1c1c"/><rect x="0" y="90" width="9" height="18" fill="#1c1c1c"/><text x="9" y="104" fill="#00ff41">│</text><text x="36" y="104" fill="#008c1e">j</text><text x="45" y="104" fill="#008c1e">a</text><text x="54" y="104" fill="#008c1e">c</text><text x="63" y="104" fill="#008c1e">k</text><text x="72" y="104" fill="#008c1e">i</text><text x="81" y="104" fill="#008c1e">n</text><text x="99" y="104" fill="#008c1e">v</text><text x="108" y="104" fill="#008c1e">e</text><text x="117" y="104" fill="#008c1e">r</text><text x="126" y="104" fill="#008c1e">s</text><text x="135" y="104" fill="#008c1e">i</text><text x="144" y="104" fill="#008c1e">o</text><text x="153" y="104" fill="#008c1e">n</text><text x="180" y="104" fill="#005012">:</text><text x="198" y="104" fill="#ffffff">0</text><text x="207" y="104" fill="#ffffff">.</text><text x="216" y="104" fill="#ffffff">6</text><text x="225" y="104" fill="#ffffff">.</text><text x="234" y="104" fill="#ffffff">0</text><text x="243" y="104" fill="#ffffff">-</text><text x="252" y="104" fill="#ffffff">d</text><text x="261" y="104" fill="#ffffff">e</text><text x="270" y="104" fill="#ffffff">v</text><text x="648" y="104" fill="#00ff41">│</text><rect x="657" y="90" width="9" height="18" fill="#1c1c1c"/><rect x="0" y="108" width="9" height="18" fill="#1c1c1c"/><text x="9" y="122" fill="#00ff41">│</text><text x="36" y="122" fill="#008c1e">j</text><text x="45" y="122" fill="#008c1e">a</text><text x="54" y="122" fill="#008c1e">c</text><text x="63" y="122" fill="#008c1e">k</text><text x="72" y="122" fill="#008c1e">i</text><text x="81" y="122" fill="#008c1e">n</text><text x="90" y="122" fill="#008c1e">-</text><text x="99" y="122" fill="#008c1e">c</text><text x="108" y="122" fill="#008c1e">a</text><text x="117" y="122" fill="#008c1e">p</text><text x="126" y="122" fill="#008c1e">s</text><text x="135" y="122" fill="#008c1e">u</text><text x="144" y="122" fill="#008c1e">l</text><text x="153" y="122" fill="#008c1e">e</text><text x="180" y="122" fill="#005012">:</text><text x="198" y="122" fill="#ffffff">0</text><text x="207" y="122" fill="#ffffff">.</text><text x="216" y="122" fill="#ffffff">6</text><text x="225" y="122" fill="#ffffff">.</text><text x="234" y="122" fill="#ffffff">0</text><text x="243" y="122" fill="#ffffff">-</text><text x="252" y="122" fill="#ffffff">d</text><text x="261" y="122" fill="#ffffff">e</text><text x="270" y="122" fill="#ffffff">v</text><text x="279" y="122" fill="#ffffff">+</text><text x="288" y="122" fill="#ffffff">4</text><text x="297" y="122" fill="#ffffff">4</text><text x="306" y="122" fill="#ffffff">4</text><text x="315" y="122" fill="#ffffff">0</text><text x="324" y="122" fill="#ffffff">0</text><text x="333" y="122" fill="#ffffff">4</text><text x="342" y="122" fill="#ffffff">b</text><text x="648" y="122" fill="#00ff41">│</text><rect x="657" y="108" width="9" height="18" fill="#1c1c1c"/><rect x="0" y="126" width="9" height="18" fill="#1c1c1c"/><text x="9" y="140" fill="#00ff41">│</text><text x="36" y="140" fill="#008c1e">R</text><text x="45" y="140" fill="#008c1e">o</text><text x="54" y="140" fill="#008c1e">l</text><text x="63" y="140" fill="#008c1e">e</text><text x="180" y="140" fill="#005012">:</text><text x="198" y="140" fill="#ffffff">t</text><text x="207" y="140" fill="#ffffff">h</text><text x="216" y="140" fill="#ffffff">e</text><text x="225" y="140" fill="#ffffff">-</text><text x="234" y="140" fill="#ffffff">a</text><text x="243" y="140" fill="#ffffff">r</text><text x="252" y="140" fill="#ffffff">c</text><text x="261" y="140" fill="#ffffff">h</text><text x="270" y="140" fill="#ffffff">i</text><text x="279" y="140" fill="#ffffff">t</text><text x="288" y="140" fill="#ffffff">e</text><text x="297" y="140" fill="#ffffff">c</text><text x="306" y="140" fill="#ffffff">t</text><text x="648" y="140" fill="#00ff41">│</text><rect x="657" y="126" width="9" height="18" fill="#1c1c1c"/><rect x="0" y="144" width="9" height="18" fill="#1c1c1c"/><text x="9" y="158" fill="#00ff41">│</text><text x="36" y="158" fill="#008c1e">A</text><text x="45" y="158" fill="#008c1e">g</text><text x="54" y="158" fill="#008c1e">e</text><text x="63" y="158" fill="#008c1e">n</text><text x="72" y="158" fill="#008c1e">t</text><text x="180" y="158" fill="#005012">:</text><text x="198" y="158" fill="#ffffff">c</text><text x="207" y="158" fill="#ffffff">l</text><text x="216" y="158" fill="#ffffff">a</text><text x="225" y="158" fill="#ffffff">u</text><text x="234" y="158" fill="#ffffff">d</text><text x="243" y="158" fill="#ffffff">e</text><text x="648" y="158" fill="#00ff41">│</text><rect x="657" y="144" width="9" height="18" fill="#1c1c1c"/><rect x="0" y="162" width="9" height="18" fill="#1c1c1c"/><text x="9" y="176" fill="#00ff41">│</text><text x="36" y="176" fill="#008c1e">T</text><text x="45" y="176" fill="#008c1e">a</text><text x="54" y="176" fill="#008c1e">r</text><text x="63" y="176" fill="#008c1e">g</text><text x="72" y="176" fill="#008c1e">e</text><text x="81" y="176" fill="#008c1e">t</text><text x="180" y="176" fill="#005012">:</text><text x="198" y="176" fill="#ffffff">/</text><text x="207" y="176" fill="#ffffff">U</text><text x="216" y="176" fill="#ffffff">s</text><text x="225" y="176" fill="#ffffff">e</text><text x="234" y="176" fill="#ffffff">r</text><text x="243" y="176" fill="#ffffff">s</text><text x="252" y="176" fill="#ffffff">/</text><text x="261" y="176" fill="#ffffff">j</text><text x="270" y="176" fill="#ffffff">a</text><text x="279" y="176" fill="#ffffff">c</text><text x="288" y="176" fill="#ffffff">k</text><text x="297" y="176" fill="#ffffff">i</text><text x="306" y="176" fill="#ffffff">n</text><text x="315" y="176" fill="#ffffff">/</text><text x="324" y="176" fill="#ffffff">P</text><text x="333" y="176" fill="#ffffff">r</text><text x="342" y="176" fill="#ffffff">o</text><text x="351" y="176" fill="#ffffff">j</text><text x="360" y="176" fill="#ffffff">e</text><text x="369" y="176" fill="#ffffff">c</text><text x="378" y="176" fill="#ffffff">t</text><text x="387" y="176" fill="#ffffff">s</text><text x="396" y="176" fill="#ffffff">/</text><text x="405" y="176" fill="#ffffff">j</text><text x="414" y="176" fill="#ffffff">a</text><text x="423" y="176" fill="#ffffff">c</text><text x="432" y="176" fill="#ffffff">k</text><text x="441" y="176" fill="#ffffff">i</text><text x="450" y="176" fill="#ffffff">n</text><text x="648" y="176" fill="#00ff41">│</text><rect x="657" y="162" width="9" height="18" fill="#1c1c1c"/><rect x="0" y="180" width="9" height="18" fill="#1c1c1c"/><text x="9" y="194" fill="#00ff41">│</text><text x="36" y="194" fill="#008c1e">D</text><text x="45" y="194" fill="#008c1e">i</text><text x="54" y="194" fill="#008c1e">a</text><text x="63" y="194" fill="#008c1e">g</text><text x="72" y="194" fill="#008c1e">n</text><text x="81" y="194" fill="#008c1e">o</text><text x="90" y="194" fill="#008c1e">s</text><text x="99" y="194" fill="#008c1e">t</text><text x="108" y="194" fill="#008c1e">i</text><text x="117" y="194" fill="#008c1e">c</text><text x="126" y="194" fill="#008c1e">s</text><text x="144" y="194" fill="#008c1e">l</text><text x="153" y="194" fill="#008c1e">o</text><text x="162" y="194" fill="#008c1e">g</text><text x="180" y="194" fill="#005012">:</text><text x="198" y="194" fill="#ffffff">/</text><text x="207" y="194" fill="#ffffff">U</text><text x="216" y="194" fill="#ffffff">s</text><text x="225" y="194" fill="#ffffff">e</text><text x="234" y="194" fill="#ffffff">r</text><text x="243" y="194" fill="#ffffff">s</text><text x="252" y="194" fill="#ffffff">/</text><text x="261" y="194" fill="#ffffff">j</text><text x="270" y="194" fill="#ffffff">a</text><text x="279" y="194" fill="#ffffff">c</text><text x="288" y="194" fill="#ffffff">k</text><text x="297" y="194" fill="#ffffff">i</text><text x="306" y="194" fill="#ffffff">n</text><text x="315" y="194" fill="#ffffff">/</text><text x="324" y="194" fill="#ffffff">.</text><text x="333" y="194" fill="#ffffff">j</text><text x="342" y="194" fill="#ffffff">a</text><text x="351" y="194" fill="#ffffff">c</text><text x="360" y="194" fill="#ffffff">k</text><text x="369" y="194" fill="#ffffff">i</text><text x="378" y="194" fill="#ffffff">n</text><text x="387" y="194" fill="#ffffff">/</text><text x="396" y="194" fill="#ffffff">d</text><text x="405" y="194" fill="#ffffff">a</text><text x="414" y="194" fill="#ffffff">t</text><text x="423" y="194" fill="#ffffff">a</text><text x="432" y="194" fill="#ffffff">/</text><text x="441" y="194" fill="#ffffff">d</text><text x="450" y="194" fill="#ffffff">i</text><text x="459" y="194" fill="#ffffff">a</text><text x="468" y="194" fill="#ffffff">g</text><text x="477" y="194" fill="#ffffff">n</text><text x="486" y="194" fill="#ffffff">o</text><text x="495" y="194" fill="#ffffff">s</text><text x="504" y="194" fill="#ffffff">t</text><text x="513" y="194" fill="#ffffff">i</text><text x="522" y="194" fill="#ffffff">c</text><text x="531" y="194" fill="#ffffff">s</text><text x="540" y="194" fill="#ffffff">/</text><text x="549" y="194" fill="#ffffff">r</text><text x="558" y="194" fill="#ffffff">u</text><text x="567" y="194" fill="#ffffff">n</text><text x="576" y="194" fill="#ffffff">s</text><text x="585" y="194" fill="#ffffff">/</text><text x="594" y="194" fill="#ffffff">j</text><text x="603" y="194" fill="#ffffff">k</text><text x="612" y="194" fill="#ffffff">-</text><text x="621" y="194" fill="#ffffff">r</text><text x="630" y="194" fill="#ffffff">u</text><text x="639" y="194" fill="#ffffff">n</text><text x="648" y="194" fill="#00ff41">│</text><rect x="657" y="180" width="9" height="18" fill="#1c1c1c"/><rect x="0" y="198" width="9" height="18" fill="#1c1c1c"/><text x="9" y="212" fill="#00ff41">│</text><text x="648" y="212" fill="#00ff41">│</text><rect x="657" y="198" width="9" height="18" fill="#1c1c1c"/><rect x="0" y="216" width="9" height="18" fill="#1c1c1c"/><text x="9" y="230" fill="#00ff41">└</text><text x="18" y="230" fill="#00ff41">━</text><text x="27" y="230" fill="#00ff41">━</text><text x="36" y="230" fill="#00ff41">━</text><text x="45" y="230" fill="#00ff41">━</text><text x="54" y="230" fill="#00ff41">━</text><text x="63" y="230" fill="#00ff41">━</text><text x="72" y="230" fill="#00ff41">━</text><text x="81" y="230" fill="#00ff41">━</text><text x="90" y="230" fill="#00ff41">━</text><text x="99" y="230" fill="#00ff41">━</text><text x="108" y="230" fill="#00ff41">━</text><text x="117" y="230" fill="#00ff41">━</text><text x="126" y="230" fill="#00ff41">━</text><text x="135" y="230" fill="#00ff41">━</text><text x="144" y="230" fill="#00ff41">━</text><text x="153" y="230" fill="#00ff41">━</text><text x="162" y="230" fill="#00ff41">━</text><text x="171" y="230" fill="#00ff41">━</text><text x="180" y="230" fill="#00ff41">━</text><text x="189" y="230" fill="#00ff41">━</text><text x="198" y="230" fill="#00ff41">━</text><text x="207" y="230" fill="#00ff41">━</text><text x="216" y="230" fill="#00ff41">━</text><text x="225" y="230" fill="#00ff41">━</text><text x="234" y="230" fill="#00ff41">━</text><text x="243" y="230" fill="#00ff41">━</text><text x="252" y="230" fill="#00ff41">━</text><text x="261" y="230" fill="#00ff41">━</text><text x="270" y="230" fill="#00ff41">━</text><text x="279" y="230" fill="#00ff41">━</text><text x="288" y="230" fill="#00ff41">━</text><text x="297" y="230" fill="#00ff41">━</text><text x="306" y="230" fill="#00ff41">━</text><text x="315" y="230" fill="#00ff41">━</text><text x="324" y="230" fill="#00ff41">━</text><text x="333" y="230" fill="#00ff41">━</text><text x="342" y="230" fill="#00ff41">━</text><text x="351" y="230" fill="#00ff41">━</text><text x="360" y="230" fill="#00ff41">━</text><text x="369" y="230" fill="#00ff41">━</text><text x="378" y="230" fill="#00ff41">━</text><text x="387" y="230" fill="#00ff41">━</text><text x="396" y="230" fill="#00ff41">━</text><text x="405" y="230" fill="#00ff41">━</text><text x="414" y="230" fill="#00ff41">━</text><text x="423" y="230" fill="#00ff41">━</text><text x="432" y="230" fill="#00ff41">━</text><text x="441" y="230" fill="#00ff41">━</text><text x="450" y="230" fill="#00ff41">━</text><text x="459" y="230" fill="#00ff41">━</text><text x="468" y="230" fill="#00ff41">━</text><text x="477" y="230" fill="#00ff41">━</text><text x="486" y="230" fill="#00ff41">━</text><text x="495" y="230" fill="#00ff41">━</text><text x="504" y="230" fill="#00ff41">━</text><text x="513" y="230" fill="#00ff41">━</text><text x="522" y="230" fill="#00ff41">━</text><text x="531" y="230" fill="#005012">·</text><text x="540" y="230" fill="#005012">·</text><text x="549" y="230" fill="#005012">·</text><text x="558" y="230" fill="#005012">·</text><text x="567" y="230" fill="#005012">·</text><text x="576" y="230" fill="#005012">·</text><text x="585" y="230" fill="#005012">·</text><text x="594" y="230" fill="#005012">·</text><text x="603" y="230" fill="#005012">·</text><text x="612" y="230" fill="#005012">·</text><text x="621" y="230" fill="#005012">·</text><text x="630" y="230" fill="#005012">·</text><text x="639" y="230" fill="#005012">·</text><text x="648" y="230" fill="#00ff41">┘</text><rect x="657" y="216" width="9" height="18" fill="#1c1c1c"/><rect x="0" y="234" width="9" height="18" fill="#1c1c1c"/><rect x="9" y="234" width="9" height="18" fill="#1c1c1c"/><rect x="18" y="234" width="9" height="18" fill="#1c1c1c"/><rect x="27" y="234" width="9" height="18" fill="#1c1c1c"/><rect x="36" y="234" width="9" height="18" fill="#1c1c1c"/><rect x="45" y="234" width="9" height="18" fill="#1c1c1c"/><rect x="54" y="234" width="9" height="18" fill="#1c1c1c"/><rect x="63" y="234" width="9" height="18" fill="#1c1c1c"/><rect x="72" y="234" width="9" height="18" fill="#1c1c1c"/><rect x="81" y="234" width="9" height="18" fill="#1c1c1c"/><rect x="90" y="234" width="9" height="18" fill="#1c1c1c"/><rect x="99" y="234" width="9" height="18" fill="#1c1c1c"/><rect x="108" y="234" width="9" height="18" fill="#1c1c1c"/><rect x="117" y="234" width="9" height="18" fill="#1c1c1c"/><rect x="126" y="234" width="9" height="18" fill="#1c1c1c"/><rect x="135" y="234" width="9" height="18" fill="#1c1c1c"/><rect x="144" y="234" width="9" height="18" fill="#1c1c1c"/><rect x="153" y="234" width="9" height="18" fill="#1c1c1c"/><rect x="162" y="234" width="9" height="18" fill="#1c1c1c"/><rect x="171" y="234" width="9" height="18" fill="#1c1c1c"/><rect x="180" y="234" width="9" height="18" fill="#1c1c1c"/><rect x="189" y="234" width="9" height="18" fill="#1c1c1c"/><rect x="198" y="234" width="9" height="18" fill="#1c1c1c"/><rect x="207" y="234" width="9" height="18" fill="#1c1c1c"/><rect x="216" y="234" width="9" height="18" fill="#1c1c1c"/><rect x="225" y="234" width="9" height="18" fill="#1c1c1c"/><rect x="234" y="234" width="9" height="18" fill="#1c1c1c"/><rect x="243" y="234" width="9" height="18" fill="#1c1c1c"/><rect x="252" y="234" width="9" height="18" fill="#1c1c1c"/><rect x="261" y="234" width="9" height="18" fill="#1c1c1c"/><rect x="270" y="234" width="9" height="18" fill="#1c1c1c"/><rect x="279" y="234" width="9" height="18" fill="#1c1c1c"/><rect x="288" y="234" width="9" height="18" fill="#1c1c1c"/><rect x="297" y="234" width="9" height="18" fill="#1c1c1c"/><rect x="306" y="234" width="9" height="18" fill="#1c1c1c"/><rect x="315" y="234" width="9" height="18" fill="#1c1c1c"/><rect x="324" y="234" width="9" height="18" fill="#1c1c1c"/><rect x="333" y="234" width="9" height="18" fill="#1c1c1c"/><rect x="342" y="234" width="9" height="18" fill="#1c1c1c"/><rect x="351" y="234" width="9" height="18" fill="#1c1c1c"/><rect x="360" y="234" width="9" height="18" fill="#1c1c1c"/><rect x="369" y="234" width="9" height="18" fill="#1c1c1c"/><rect x="378" y="234" width="9" height="18" fill="#1c1c1c"/><rect x="387" y="234" width="9" height="18" fill="#1c1c1c"/><rect x="396" y="234" width="9" height="18" fill="#1c1c1c"/><rect x="405" y="234" width="9" height="18" fill="#1c1c1c"/><rect x="414" y="234" width="9" height="18" fill="#1c1c1c"/><rect x="423" y="234" width="9" height="18" fill="#1c1c1c"/><rect x="432" y="234" width="9" height="18" fill="#1c1c1c"/><rect x="441" y="234" width="9" height="18" fill="#1c1c1c"/><rect x="450" y="234" width="9" height="18" fill="#1c1c1c"/><rect x="459" y="234" width="9" height="18" fill="#1c1c1c"/><rect x="468" y="234" width="9" height="18" fill="#1c1c1c"/><rect x="477" y="234" width="9" height="18" fill="#1c1c1c"/><rect x="486" y="234" width="9" height="18" fill="#1c1c1c"/><rect x="495" y="234" width="9" height="18" fill="#1c1c1c"/><rect x="504" y="234" width="9" height="18" fill="#1c1c1c"/><rect x="513" y="234" width="9" height="18" fill="#1c1c1c"/><rect x="522" y="234" width="9" height="18" fill="#1c1c1c"/><rect x="531" y="234" width="9" height="18" fill="#1c1c1c"/><rect x="540" y="234" width="9" height="18" fill="#1c1c1c"/><rect x="549" y="234" width="9" height="18" fill="#1c1c1c"/><rect x="558" y="234" width="9" height="18" fill="#1c1c1c"/><rect x="567" y="234" width="9" height="18" fill="#1c1c1c"/><rect x="576" y="234" width="9" height="18" fill="#1c1c1c"/><rect x="585" y="234" width="9" height="18" fill="#1c1c1c"/><rect x="594" y="234" width="9" height="18" fill="#1c1c1c"/><rect x="603" y="234" width="9" height="18" fill="#1c1c1c"/><rect x="612" y="234" width="9" height="18" fill="#1c1c1c"/><rect x="621" y="234" width="9" height="18" fill="#1c1c1c"/><rect x="630" y="234" width="9" height="18" fill="#1c1c1c"/><rect x="639" y="234" width="9" height="18" fill="#1c1c1c"/><rect x="648" y="234" width="9" height="18" fill="#1c1c1c"/><rect x="657" y="234" width="9" height="18" fill="#1c1c1c"/></g></svg>
