<svg xmlns="http://www.w3.org/2000/svg" width="684" height="234" viewBox="0 0 684 234" role="img" aria-label="Diff view side-by-side" style="background:#000000"><rect width="100%" height="100%" fill="#000000"/><g font-family="ui-monospace, SFMono-Regular, Menlo, Consolas, monospace" font-size="14"><rect x="0" y="0" width="9" height="18" fill="#1c1c1c"/><rect x="9" y="0" width="9" height="18" fill="#1c1c1c"/><rect x="18" y="0" width="9" height="18" fill="#1c1c1c"/><rect x="27" y="0" width="9" height="18" fill="#1c1c1c"/><rect x="36" y="0" width="9" height="18" fill="#1c1c1c"/><rect x="45" y="0" width="9" height="18" fill="#1c1c1c"/><rect x="54" y="0" width="9" height="18" fill="#1c1c1c"/><rect x="63" y="0" width="9" height="18" fill="#1c1c1c"/><rect x="72" y="0" width="9" height="18" fill="#1c1c1c"/><rect x="81" y="0" width="9" height="18" fill="#1c1c1c"/><rect x="90" y="0" width="9" height="18" fill="#1c1c1c"/><rect x="99" y="0" width="9" height="18" fill="#1c1c1c"/><rect x="108" y="0" width="9" height="18" fill="#1c1c1c"/><rect x="117" y="0" width="9" height="18" fill="#1c1c1c"/><rect x="126" y="0" width="9" height="18" fill="#1c1c1c"/><rect x="135" y="0" width="9" height="18" fill="#1c1c1c"/><rect x="144" y="0" width="9" height="18" fill="#1c1c1c"/><rect x="153" y="0" width="9" height="18" fill="#1c1c1c"/><rect x="162" y="0" width="9" height="18" fill="#1c1c1c"/><rect x="171" y="0" width="9" height="18" fill="#1c1c1c"/><rect x="180" y="0" width="9" height="18" fill="#1c1c1c"/><rect x="189" y="0" width="9" height="18" fill="#1c1c1c"/><rect x="198" y="0" width="9" height="18" fill="#1c1c1c"/><rect x="207" y="0" width="9" height="18" fill="#1c1c1c"/><rect x="216" y="0" width="9" height="18" fill="#1c1c1c"/><rect x="225" y="0" width="9" height="18" fill="#1c1c1c"/><rect x="234" y="0" width="9" height="18" fill="#1c1c1c"/><rect x="243" y="0" width="9" height="18" fill="#1c1c1c"/><rect x="252" y="0" width="9" height="18" fill="#1c1c1c"/><rect x="261" y="0" width="9" height="18" fill="#1c1c1c"/><rect x="270" y="0" width="9" height="18" fill="#1c1c1c"/><rect x="279" y="0" width="9" height="18" fill="#1c1c1c"/><rect x="288" y="0" width="9" height="18" fill="#1c1c1c"/><rect x="297" y="0" width="9" height="18" fill="#1c1c1c"/><rect x="306" y="0" width="9" height="18" fill="#1c1c1c"/><rect x="315" y="0" width="9" height="18" fill="#1c1c1c"/><rect x="324" y="0" width="9" height="18" fill="#1c1c1c"/><rect x="333" y="0" width="9" height="18" fill="#1c1c1c"/><rect x="342" y="0" width="9" height="18" fill="#1c1c1c"/><rect x="351" y="0" width="9" height="18" fill="#1c1c1c"/><rect x="360" y="0" width="9" height="18" fill="#1c1c1c"/><rect x="369" y="0" width="9" height="18" fill="#1c1c1c"/><rect x="378" y="0" width="9" height="18" fill="#1c1c1c"/><rect x="387" y="0" width="9" height="18" fill="#1c1c1c"/><rect x="396" y="0" width="9" height="18" fill="#1c1c1c"/><rect x="405" y="0" width="9" height="18" fill="#1c1c1c"/><rect x="414" y="0" width="9" height="18" fill="#1c1c1c"/><rect x="423" y="0" width="9" height="18" fill="#1c1c1c"/><rect x="432" y="0" width="9" height="18" fill="#1c1c1c"/><rect x="441" y="0" width="9" height="18" fill="#1c1c1c"/><rect x="450" y="0" width="9" height="18" fill="#1c1c1c"/><rect x="459" y="0" width="9" height="18" fill="#1c1c1c"/><rect x="468" y="0" width="9" height="18" fill="#1c1c1c"/><rect x="477" y="0" width="9" height="18" fill="#1c1c1c"/><rect x="486" y="0" width="9" height="18" fill="#1c1c1c"/><rect x="495" y="0" width="9" height="18" fill="#1c1c1c"/><rect x="504" y="0" width="9" height="18" fill="#1c1c1c"/><rect x="513" y="0" width="9" height="18" fill="#1c1c1c"/><rect x="522" y="0" width="9" height="18" fill="#1c1c1c"/><rect x="531" y="0" width="9" height="18" fill="#1c1c1c"/><rect x="540" y="0" width="9" height="18" fill="#1c1c1c"/><rect x="549" y="0" width="9" height="18" fill="#1c1c1c"/><rect x="558" y="0" width="9" height="18" fill="#1c1c1c"/><rect x="567" y="0" width="9" height="18" fill="#1c1c1c"/><rect x="576" y="0" width="9" height="18" fill="#1c1c1c"/><rect x="585" y="0" width="9" height="18" fill="#1c1c1c"/><rect x="594" y="0" width="9" height="18" fill="#1c1c1c"/><rect x="603" y="0" width="9" height="18" fill="#1c1c1c"/><rect x="612" y="0" width="9" height="18" fill="#1c1c1c"/><rect x="621" y="0" width="9" height="18" fill="#1c1c1c"/><rect x="630" y="0" width="9" height="18" fill="#1c1c1c"/><rect x="639" y="0" width="9" height="18" fill="#1c1c1c"/><rect x="648" y="0" width="9" height="18" fill="#1c1c1c"/><rect x="657" y="0" width="9" height="18" fill="#1c1c1c"/><rect x="666" y="0" width="9" height="18" fill="#1c1c1c"/><rect x="675" y="0" width="9" height="18" fill="#1c1c1c"/><rect x="0" y="18" width="9" height="18" fill="#1c1c1c"/><text x="9" y="32" fill="#005012">┌</text><text x="18" y="32" fill="#005012">─</text><text x="27" y="32" fill="#005012">─</text><text x="36" y="32" fill="#005012">─</text><text x="45" y="32" fill="#005012">─</text><text x="54" y="32" fill="#005012">─</text><text x="63" y="32" fill="#005012">─</text><text x="72" y="32" fill="#005012">─</text><text x="81" y="32" fill="#005012">─</text><text x="90" y="32" fill="#005012">─</text><text x="99" y="32" fill="#005012">─</text><text x="108" y="32" fill="#005012">─</text><text x="117" y="32" fill="#005012">─</text><text x="126" y="32" fill="#005012">─</text><text x="135" y="32" fill="#005012">─</text><text x="144" y="32" fill="#005012">─</text><text x="153" y="32" fill="#005012">─</text><text x="162" y="32" fill="#005012">─</text><text x="171" y="32" fill="#005012">─</text><text x="180" y="32" fill="#005012">─</text><text x="189" y="32" fill="#005012">─</text><text x="198" y="32" fill="#005012">─</text><text x="207" y="32" fill="#005012">─</text><text x="216" y="32" fill="#005012">─</text><text x="225" y="32" fill="#005012">─</text><text x="234" y="32" fill="#005012">─</text><text x="243" y="32" fill="#005012">─</text><text x="252" y="32" fill="#005012">─</text><text x="261" y="32" fill="#005012">─</text><text x="270" y="32" fill="#005012">─</text><text x="279" y="32" fill="#005012">─</text><text x="288" y="32" fill="#005012">─</text><text x="297" y="32" fill="#005012">─</text><text x="306" y="32" fill="#005012">─</text><text x="315" y="32" fill="#005012">─</text><text x="324" y="32" fill="#005012">─</text><text x="333" y="32" fill="#005012">┐</text><text x="342" y="32" fill="#005012">┌</text><text x="351" y="32" fill="#005012">─</text><text x="360" y="32" fill="#005012">─</text><text x="369" y="32" fill="#005012">─</text><text x="378" y="32" fill="#005012">─</text><text x="387" y="32" fill="#005012">─</text><text x="396" y="32" fill="#005012">─</text><text x="405" y="32" fill="#005012">─</text><text x="414" y="32" fill="#005012">─</text><text x="423" y="32" fill="#005012">─</text><text x="432" y="32" fill="#005012">─</text><text x="441" y="32" fill="#005012">─</text><text x="450" y="32" fill="#005012">─</text><text x="459" y="32" fill="#005012">─</text><text x="468" y="32" fill="#005012">─</text><text x="477" y="32" fill="#005012">─</text><text x="486" y="32" fill="#005012">─</text><text x="495" y="32" fill="#005012">─</text><text x="504" y="32" fill="#005012">─</text><text x="513" y="32" fill="#005012">─</text><text x="522" y="32" fill="#005012">─</text><text x="531" y="32" fill="#005012">─</text><text x="540" y="32" fill="#005012">─</text><text x="549" y="32" fill="#005012">─</text><text x="558" y="32" fill="#005012">─</text><text x="567" y="32" fill="#005012">─</text><text x="576" y="32" fill="#005012">─</text><text x="585" y="32" fill="#005012">─</text><text x="594" y="32" fill="#005012">─</text><text x="603" y="32" fill="#005012">─</text><text x="612" y="32" fill="#005012">─</text><text x="621" y="32" fill="#005012">─</text><text x="630" y="32" fill="#005012">─</text><text x="639" y="32" fill="#005012">─</text><text x="648" y="32" fill="#005012">─</text><text x="657" y="32" fill="#005012">─</text><text x="666" y="32" fill="#005012">┐</text><rect x="675" y="18" width="9" height="18" fill="#1c1c1c"/><rect x="0" y="36" width="9" height="18" fill="#1c1c1c"/><text x="9" y="50" fill="#005012">│</text><text x="27" y="50" fill="#00ff41">b</text><text x="36" y="50" fill="#00ff41">e</text><text x="45" y="50" fill="#00ff41">f</text><text x="54" y="50" fill="#00ff41">o</text><text x="63" y="50" fill="#00ff41">r</text><text x="72" y="50" fill="#00ff41">e</text><text x="333" y="50" fill="#005012">│</text><text x="342" y="50" fill="#005012">│</text><text x="360" y="50" fill="#00ff41">a</text><text x="369" y="50" fill="#00ff41">f</text><text x="378" y="50" fill="#00ff41">t</text><text x="387" y="50" fill="#00ff41">e</text><text x="396" y="50" fill="#00ff41">r</text><text x="666" y="50" fill="#005012">│</text><rect x="675" y="36" width="9" height="18" fill="#1c1c1c"/><rect x="0" y="54" width="9" height="18" fill="#1c1c1c"/><text x="9" y="68" fill="#005012">│</text><text x="18" y="68" fill="#005012">─</text><text x="27" y="68" fill="#005012">─</text><text x="36" y="68" fill="#005012">─</text><text x="45" y="68" fill="#005012">─</text><text x="54" y="68" fill="#005012">─</text><text x="63" y="68" fill="#005012">─</text><text x="72" y="68" fill="#005012">─</text><text x="81" y="68" fill="#005012">─</text><text x="90" y="68" fill="#005012">─</text><text x="99" y="68" fill="#005012">─</text><text x="108" y="68" fill="#005012">─</text><text x="117" y="68" fill="#005012">─</text><text x="126" y="68" fill="#005012">─</text><text x="135" y="68" fill="#005012">─</text><text x="144" y="68" fill="#005012">─</text><text x="153" y="68" fill="#005012">─</text><text x="162" y="68" fill="#005012">─</text><text x="171" y="68" fill="#005012">─</text><text x="180" y="68" fill="#005012">─</text><text x="189" y="68" fill="#005012">─</text><text x="198" y="68" fill="#005012">─</text><text x="207" y="68" fill="#005012">─</text><text x="216" y="68" fill="#005012">─</text><text x="225" y="68" fill="#005012">─</text><text x="234" y="68" fill="#005012">─</text><text x="243" y="68" fill="#005012">─</text><text x="252" y="68" fill="#005012">─</text><text x="261" y="68" fill="#005012">─</text><text x="270" y="68" fill="#005012">─</text><text x="279" y="68" fill="#005012">─</text><text x="288" y="68" fill="#005012">─</text><text x="297" y="68" fill="#005012">─</text><text x="306" y="68" fill="#005012">─</text><text x="315" y="68" fill="#005012">─</text><text x="324" y="68" fill="#005012">─</text><text x="333" y="68" fill="#005012">│</text><text x="342" y="68" fill="#005012">│</text><text x="351" y="68" fill="#005012">─</text><text x="360" y="68" fill="#005012">─</text><text x="369" y="68" fill="#005012">─</text><text x="378" y="68" fill="#005012">─</text><text x="387" y="68" fill="#005012">─</text><text x="396" y="68" fill="#005012">─</text><text x="405" y="68" fill="#005012">─</text><text x="414" y="68" fill="#005012">─</text><text x="423" y="68" fill="#005012">─</text><text x="432" y="68" fill="#005012">─</text><text x="441" y="68" fill="#005012">─</text><text x="450" y="68" fill="#005012">─</text><text x="459" y="68" fill="#005012">─</text><text x="468" y="68" fill="#005012">─</text><text x="477" y="68" fill="#005012">─</text><text x="486" y="68" fill="#005012">─</text><text x="495" y="68" fill="#005012">─</text><text x="504" y="68" fill="#005012">─</text><text x="513" y="68" fill="#005012">─</text><text x="522" y="68" fill="#005012">─</text><text x="531" y="68" fill="#005012">─</text><text x="540" y="68" fill="#005012">─</text><text x="549" y="68" fill="#005012">─</text><text x="558" y="68" fill="#005012">─</text><text x="567" y="68" fill="#005012">─</text><text x="576" y="68" fill="#005012">─</text><text x="585" y="68" fill="#005012">─</text><text x="594" y="68" fill="#005012">─</text><text x="603" y="68" fill="#005012">─</text><text x="612" y="68" fill="#005012">─</text><text x="621" y="68" fill="#005012">─</text><text x="630" y="68" fill="#005012">─</text><text x="639" y="68" fill="#005012">─</text><text x="648" y="68" fill="#005012">─</text><text x="657" y="68" fill="#005012">─</text><text x="666" y="68" fill="#005012">│</text><rect x="675" y="54" width="9" height="18" fill="#1c1c1c"/><rect x="0" y="72" width="9" height="18" fill="#1c1c1c"/><text x="9" y="86" fill="#005012">│</text><text x="36" y="86" fill="#00ff41">r</text><text x="45" y="86" fill="#00ff41">o</text><text x="54" y="86" fill="#00ff41">l</text><text x="63" y="86" fill="#00ff41">e</text><text x="72" y="86" fill="#00ff41">s</text><text x="81" y="86" fill="#00ff41">:</text><text x="333" y="86" fill="#005012">│</text><text x="342" y="86" fill="#005012">│</text><text x="369" y="86" fill="#00ff41">r</text><text x="378" y="86" fill="#00ff41">o</text><text x="387" y="86" fill="#00ff41">l</text><text x="396" y="86" fill="#00ff41">e</text><text x="405" y="86" fill="#00ff41">s</text><text x="414" y="86" fill="#00ff41">:</text><text x="666" y="86" fill="#005012">│</text><rect x="675" y="72" width="9" height="18" fill="#1c1c1c"/><rect x="0" y="90" width="9" height="18" fill="#1c1c1c"/><text x="9" y="104" fill="#005012">│</text><text x="54" y="104" fill="#00ff41">a</text><text x="63" y="104" fill="#00ff41">r</text><text x="72" y="104" fill="#00ff41">c</text><text x="81" y="104" fill="#00ff41">h</text><text x="90" y="104" fill="#00ff41">i</text><text x="99" y="104" fill="#00ff41">t</text><text x="108" y="104" fill="#00ff41">e</text><text x="117" y="104" fill="#00ff41">c</text><text x="126" y="104" fill="#00ff41">t</text><text x="135" y="104" fill="#00ff41">:</text><text x="333" y="104" fill="#005012">│</text><text x="342" y="104" fill="#005012">│</text><text x="387" y="104" fill="#00ff41">a</text><text x="396" y="104" fill="#00ff41">r</text><text x="405" y="104" fill="#00ff41">c</text><text x="414" y="104" fill="#00ff41">h</text><text x="423" y="104" fill="#00ff41">i</text><text x="432" y="104" fill="#00ff41">t</text><text x="441" y="104" fill="#00ff41">e</text><text x="450" y="104" fill="#00ff41">c</text><text x="459" y="104" fill="#00ff41">t</text><text x="468" y="104" fill="#00ff41">:</text><text x="666" y="104" fill="#005012">│</text><rect x="675" y="90" width="9" height="18" fill="#1c1c1c"/><rect x="0" y="108" width="9" height="18" fill="#1c1c1c"/><text x="9" y="122" fill="#005012">│</text><text x="72" y="122" fill="#00ff41">a</text><text x="81" y="122" fill="#00ff41">g</text><text x="90" y="122" fill="#00ff41">e</text><text x="99" y="122" fill="#00ff41">n</text><text x="108" y="122" fill="#00ff41">t</text><text x="117" y="122" fill="#00ff41">:</text><text x="135" y="122" fill="#00ff41">c</text><text x="144" y="122" fill="#00ff41">l</text><text x="153" y="122" fill="#00ff41">a</text><text x="162" y="122" fill="#00ff41">u</text><text x="171" y="122" fill="#00ff41">d</text><text x="180" y="122" fill="#00ff41">e</text><text x="333" y="122" fill="#005012">│</text><text x="342" y="122" fill="#005012">│</text><text x="405" y="122" fill="#00ff41">a</text><text x="414" y="122" fill="#00ff41">g</text><text x="423" y="122" fill="#00ff41">e</text><text x="432" y="122" fill="#00ff41">n</text><text x="441" y="122" fill="#00ff41">t</text><text x="450" y="122" fill="#00ff41">:</text><text x="468" y="122" fill="#00ff41">c</text><text x="477" y="122" fill="#00ff41">l</text><text x="486" y="122" fill="#00ff41">a</text><text x="495" y="122" fill="#00ff41">u</text><text x="504" y="122" fill="#00ff41">d</text><text x="513" y="122" fill="#00ff41">e</text><text x="666" y="122" fill="#005012">│</text><rect x="675" y="108" width="9" height="18" fill="#1c1c1c"/><rect x="0" y="126" width="9" height="18" fill="#1c1c1c"/><text x="9" y="140" fill="#005012">│</text><rect x="18" y="126" width="9" height="18" fill="#ffffff"/><text x="18" y="140" fill="#ff5e7a">-</text><rect x="27" y="126" width="9" height="18" fill="#ffffff"/><rect x="36" y="126" width="9" height="18" fill="#ffffff"/><rect x="45" y="126" width="9" height="18" fill="#ffffff"/><rect x="54" y="126" width="9" height="18" fill="#ffffff"/><rect x="63" y="126" width="9" height="18" fill="#ffffff"/><rect x="72" y="126" width="9" height="18" fill="#ffffff"/><text x="72" y="140" fill="#ff5e7a">t</text><rect x="81" y="126" width="9" height="18" fill="#ffffff"/><text x="81" y="140" fill="#ff5e7a">r</text><rect x="90" y="126" width="9" height="18" fill="#ffffff"/><text x="90" y="140" fill="#ff5e7a">u</text><rect x="99" y="126" width="9" height="18" fill="#ffffff"/><text x="99" y="140" fill="#ff5e7a">s</text><rect x="108" y="126" width="9" height="18" fill="#ffffff"/><text x="108" y="140" fill="#ff5e7a">t</text><rect x="117" y="126" width="9" height="18" fill="#ffffff"/><text x="117" y="140" fill="#ff5e7a">:</text><rect x="126" y="126" width="9" height="18" fill="#ffffff"/><rect x="135" y="126" width="9" height="18" fill="#ffffff"/><text x="135" y="140" fill="#ff5e7a">p</text><rect x="144" y="126" width="9" height="18" fill="#ffffff"/><text x="144" y="140" fill="#ff5e7a">r</text><rect x="153" y="126" width="9" height="18" fill="#ffffff"/><text x="153" y="140" fill="#ff5e7a">o</text><rect x="162" y="126" width="9" height="18" fill="#ffffff"/><text x="162" y="140" fill="#ff5e7a">m</text><rect x="171" y="126" width="9" height="18" fill="#ffffff"/><text x="171" y="140" fill="#ff5e7a">p</text><rect x="180" y="126" width="9" height="18" fill="#ffffff"/><text x="180" y="140" fill="#ff5e7a">t</text><text x="333" y="140" fill="#005012">│</text><text x="342" y="140" fill="#005012">│</text><rect x="351" y="126" width="9" height="18" fill="#ffffff"/><text x="351" y="140" fill="#00ff41">+</text><rect x="360" y="126" width="9" height="18" fill="#ffffff"/><rect x="369" y="126" width="9" height="18" fill="#ffffff"/><rect x="378" y="126" width="9" height="18" fill="#ffffff"/><rect x="387" y="126" width="9" height="18" fill="#ffffff"/><rect x="396" y="126" width="9" height="18" fill="#ffffff"/><rect x="405" y="126" width="9" height="18" fill="#ffffff"/><text x="405" y="140" fill="#00ff41">t</text><rect x="414" y="126" width="9" height="18" fill="#ffffff"/><text x="414" y="140" fill="#00ff41">r</text><rect x="423" y="126" width="9" height="18" fill="#ffffff"/><text x="423" y="140" fill="#00ff41">u</text><rect x="432" y="126" width="9" height="18" fill="#ffffff"/><text x="432" y="140" fill="#00ff41">s</text><rect x="441" y="126" width="9" height="18" fill="#ffffff"/><text x="441" y="140" fill="#00ff41">t</text><rect x="450" y="126" width="9" height="18" fill="#ffffff"/><text x="450" y="140" fill="#00ff41">:</text><rect x="459" y="126" width="9" height="18" fill="#ffffff"/><rect x="468" y="126" width="9" height="18" fill="#ffffff"/><text x="468" y="140" fill="#00ff41">f</text><rect x="477" y="126" width="9" height="18" fill="#ffffff"/><text x="477" y="140" fill="#00ff41">u</text><rect x="486" y="126" width="9" height="18" fill="#ffffff"/><text x="486" y="140" fill="#00ff41">l</text><rect x="495" y="126" width="9" height="18" fill="#ffffff"/><text x="495" y="140" fill="#00ff41">l</text><text x="666" y="140" fill="#005012">│</text><rect x="675" y="126" width="9" height="18" fill="#1c1c1c"/><rect x="0" y="144" width="9" height="18" fill="#1c1c1c"/><text x="9" y="158" fill="#005012">│</text><text x="36" y="158" fill="#00ff41">e</text><text x="45" y="158" fill="#00ff41">n</text><text x="54" y="158" fill="#00ff41">v</text><text x="63" y="158" fill="#00ff41">:</text><text x="333" y="158" fill="#005012">│</text><text x="342" y="158" fill="#005012">│</text><text x="369" y="158" fill="#00ff41">e</text><text x="378" y="158" fill="#00ff41">n</text><text x="387" y="158" fill="#00ff41">v</text><text x="396" y="158" fill="#00ff41">:</text><text x="666" y="158" fill="#005012">│</text><rect x="675" y="144" width="9" height="18" fill="#1c1c1c"/><rect x="0" y="162" width="9" height="18" fill="#1c1c1c"/><text x="9" y="176" fill="#005012">│</text><rect x="18" y="162" width="9" height="18" fill="#ffffff"/><text x="18" y="176" fill="#ff5e7a">-</text><rect x="27" y="162" width="9" height="18" fill="#ffffff"/><rect x="36" y="162" width="9" height="18" fill="#ffffff"/><rect x="45" y="162" width="9" height="18" fill="#ffffff"/><rect x="54" y="162" width="9" height="18" fill="#ffffff"/><text x="54" y="176" fill="#ff5e7a">J</text><rect x="63" y="162" width="9" height="18" fill="#ffffff"/><text x="63" y="176" fill="#ff5e7a">A</text><rect x="72" y="162" width="9" height="18" fill="#ffffff"/><text x="72" y="176" fill="#ff5e7a">C</text><rect x="81" y="162" width="9" height="18" fill="#ffffff"/><text x="81" y="176" fill="#ff5e7a">K</text><rect x="90" y="162" width="9" height="18" fill="#ffffff"/><text x="90" y="176" fill="#ff5e7a">I</text><rect x="99" y="162" width="9" height="18" fill="#ffffff"/><text x="99" y="176" fill="#ff5e7a">N</text><rect x="108" y="162" width="9" height="18" fill="#ffffff"/><text x="108" y="176" fill="#ff5e7a">_</text><rect x="117" y="162" width="9" height="18" fill="#ffffff"/><text x="117" y="176" fill="#ff5e7a">D</text><rect x="126" y="162" width="9" height="18" fill="#ffffff"/><text x="126" y="176" fill="#ff5e7a">E</text><rect x="135" y="162" width="9" height="18" fill="#ffffff"/><text x="135" y="176" fill="#ff5e7a">B</text><rect x="144" y="162" width="9" height="18" fill="#ffffff"/><text x="144" y="176" fill="#ff5e7a">U</text><rect x="153" y="162" width="9" height="18" fill="#ffffff"/><text x="153" y="176" fill="#ff5e7a">G</text><rect x="162" y="162" width="9" height="18" fill="#ffffff"/><text x="162" y="176" fill="#ff5e7a">:</text><rect x="171" y="162" width="9" height="18" fill="#ffffff"/><rect x="180" y="162" width="9" height="18" fill="#ffffff"/><text x="180" y="176" fill="#ff5e7a">&quot;</text><rect x="189" y="162" width="9" height="18" fill="#ffffff"/><text x="189" y="176" fill="#ff5e7a">0</text><rect x="198" y="162" width="9" height="18" fill="#ffffff"/><text x="198" y="176" fill="#ff5e7a">&quot;</text><text x="333" y="176" fill="#005012">│</text><text x="342" y="176" fill="#005012">│</text><rect x="351" y="162" width="9" height="18" fill="#ffffff"/><text x="351" y="176" fill="#00ff41">+</text><rect x="360" y="162" width="9" height="18" fill="#ffffff"/><rect x="369" y="162" width="9" height="18" fill="#ffffff"/><rect x="378" y="162" width="9" height="18" fill="#ffffff"/><rect x="387" y="162" width="9" height="18" fill="#ffffff"/><text x="387" y="176" fill="#00ff41">J</text><rect x="396" y="162" width="9" height="18" fill="#ffffff"/><text x="396" y="176" fill="#00ff41">A</text><rect x="405" y="162" width="9" height="18" fill="#ffffff"/><text x="405" y="176" fill="#00ff41">C</text><rect x="414" y="162" width="9" height="18" fill="#ffffff"/><text x="414" y="176" fill="#00ff41">K</text><rect x="423" y="162" width="9" height="18" fill="#ffffff"/><text x="423" y="176" fill="#00ff41">I</text><rect x="432" y="162" width="9" height="18" fill="#ffffff"/><text x="432" y="176" fill="#00ff41">N</text><rect x="441" y="162" width="9" height="18" fill="#ffffff"/><text x="441" y="176" fill="#00ff41">_</text><rect x="450" y="162" width="9" height="18" fill="#ffffff"/><text x="450" y="176" fill="#00ff41">D</text><rect x="459" y="162" width="9" height="18" fill="#ffffff"/><text x="459" y="176" fill="#00ff41">E</text><rect x="468" y="162" width="9" height="18" fill="#ffffff"/><text x="468" y="176" fill="#00ff41">B</text><rect x="477" y="162" width="9" height="18" fill="#ffffff"/><text x="477" y="176" fill="#00ff41">U</text><rect x="486" y="162" width="9" height="18" fill="#ffffff"/><text x="486" y="176" fill="#00ff41">G</text><rect x="495" y="162" width="9" height="18" fill="#ffffff"/><text x="495" y="176" fill="#00ff41">:</text><rect x="504" y="162" width="9" height="18" fill="#ffffff"/><rect x="513" y="162" width="9" height="18" fill="#ffffff"/><text x="513" y="176" fill="#00ff41">&quot;</text><rect x="522" y="162" width="9" height="18" fill="#ffffff"/><text x="522" y="176" fill="#00ff41">1</text><rect x="531" y="162" width="9" height="18" fill="#ffffff"/><text x="531" y="176" fill="#00ff41">&quot;</text><text x="666" y="176" fill="#005012">│</text><rect x="675" y="162" width="9" height="18" fill="#1c1c1c"/><rect x="0" y="180" width="9" height="18" fill="#1c1c1c"/><text x="9" y="194" fill="#005012">│</text><text x="333" y="194" fill="#005012">│</text><text x="342" y="194" fill="#005012">│</text><text x="666" y="194" fill="#005012">│</text><rect x="675" y="180" width="9" height="18" fill="#1c1c1c"/><rect x="0" y="198" width="9" height="18" fill="#1c1c1c"/><text x="9" y="212" fill="#005012">└</text><text x="18" y="212" fill="#00ff41">━</text><text x="27" y="212" fill="#00ff41">━</text><text x="36" y="212" fill="#00ff41">━</text><text x="45" y="212" fill="#00ff41">━</text><text x="54" y="212" fill="#00ff41">━</text><text x="63" y="212" fill="#00ff41">━</text><text x="72" y="212" fill="#00ff41">━</text><text x="81" y="212" fill="#00ff41">━</text><text x="90" y="212" fill="#00ff41">━</text><text x="99" y="212" fill="#00ff41">━</text><text x="108" y="212" fill="#00ff41">━</text><text x="117" y="212" fill="#00ff41">━</text><text x="126" y="212" fill="#00ff41">━</text><text x="135" y="212" fill="#00ff41">━</text><text x="144" y="212" fill="#00ff41">━</text><text x="153" y="212" fill="#00ff41">━</text><text x="162" y="212" fill="#005012">·</text><text x="171" y="212" fill="#005012">·</text><text x="180" y="212" fill="#005012">·</text><text x="189" y="212" fill="#005012">·</text><text x="198" y="212" fill="#005012">·</text><text x="207" y="212" fill="#005012">·</text><text x="216" y="212" fill="#005012">·</text><text x="225" y="212" fill="#005012">·</text><text x="234" y="212" fill="#005012">·</text><text x="243" y="212" fill="#005012">·</text><text x="252" y="212" fill="#005012">·</text><text x="261" y="212" fill="#005012">·</text><text x="270" y="212" fill="#005012">·</text><text x="279" y="212" fill="#005012">·</text><text x="288" y="212" fill="#005012">·</text><text x="297" y="212" fill="#005012">·</text><text x="306" y="212" fill="#005012">·</text><text x="315" y="212" fill="#005012">·</text><text x="324" y="212" fill="#005012">·</text><text x="333" y="212" fill="#005012">┘</text><text x="342" y="212" fill="#005012">└</text><text x="351" y="212" fill="#00ff41">━</text><text x="360" y="212" fill="#00ff41">━</text><text x="369" y="212" fill="#00ff41">━</text><text x="378" y="212" fill="#00ff41">━</text><text x="387" y="212" fill="#00ff41">━</text><text x="396" y="212" fill="#00ff41">━</text><text x="405" y="212" fill="#00ff41">━</text><text x="414" y="212" fill="#00ff41">━</text><text x="423" y="212" fill="#00ff41">━</text><text x="432" y="212" fill="#00ff41">━</text><text x="441" y="212" fill="#00ff41">━</text><text x="450" y="212" fill="#00ff41">━</text><text x="459" y="212" fill="#00ff41">━</text><text x="468" y="212" fill="#00ff41">━</text><text x="477" y="212" fill="#00ff41">━</text><text x="486" y="212" fill="#00ff41">━</text><text x="495" y="212" fill="#005012">·</text><text x="504" y="212" fill="#005012">·</text><text x="513" y="212" fill="#005012">·</text><text x="522" y="212" fill="#005012">·</text><text x="531" y="212" fill="#005012">·</text><text x="540" y="212" fill="#005012">·</text><text x="549" y="212" fill="#005012">·</text><text x="558" y="212" fill="#005012">·</text><text x="567" y="212" fill="#005012">·</text><text x="576" y="212" fill="#005012">·</text><text x="585" y="212" fill="#005012">·</text><text x="594" y="212" fill="#005012">·</text><text x="603" y="212" fill="#005012">·</text><text x="612" y="212" fill="#005012">·</text><text x="621" y="212" fill="#005012">·</text><text x="630" y="212" fill="#005012">·</text><text x="639" y="212" fill="#005012">·</text><text x="648" y="212" fill="#005012">·</text><text x="657" y="212" fill="#005012">·</text><text x="666" y="212" fill="#005012">┘</text><rect x="675" y="198" width="9" height="18" fill="#1c1c1c"/><rect x="0" y="216" width="9" height="18" fill="#1c1c1c"/><rect x="9" y="216" width="9" height="18" fill="#1c1c1c"/><rect x="18" y="216" width="9" height="18" fill="#1c1c1c"/><rect x="27" y="216" width="9" height="18" fill="#1c1c1c"/><rect x="36" y="216" width="9" height="18" fill="#1c1c1c"/><rect x="45" y="216" width="9" height="18" fill="#1c1c1c"/><rect x="54" y="216" width="9" height="18" fill="#1c1c1c"/><rect x="63" y="216" width="9" height="18" fill="#1c1c1c"/><rect x="72" y="216" width="9" height="18" fill="#1c1c1c"/><rect x="81" y="216" width="9" height="18" fill="#1c1c1c"/><rect x="90" y="216" width="9" height="18" fill="#1c1c1c"/><rect x="99" y="216" width="9" height="18" fill="#1c1c1c"/><rect x="108" y="216" width="9" height="18" fill="#1c1c1c"/><rect x="117" y="216" width="9" height="18" fill="#1c1c1c"/><rect x="126" y="216" width="9" height="18" fill="#1c1c1c"/><rect x="135" y="216" width="9" height="18" fill="#1c1c1c"/><rect x="144" y="216" width="9" height="18" fill="#1c1c1c"/><rect x="153" y="216" width="9" height="18" fill="#1c1c1c"/><rect x="162" y="216" width="9" height="18" fill="#1c1c1c"/><rect x="171" y="216" width="9" height="18" fill="#1c1c1c"/><rect x="180" y="216" width="9" height="18" fill="#1c1c1c"/><rect x="189" y="216" width="9" height="18" fill="#1c1c1c"/><rect x="198" y="216" width="9" height="18" fill="#1c1c1c"/><rect x="207" y="216" width="9" height="18" fill="#1c1c1c"/><rect x="216" y="216" width="9" height="18" fill="#1c1c1c"/><rect x="225" y="216" width="9" height="18" fill="#1c1c1c"/><rect x="234" y="216" width="9" height="18" fill="#1c1c1c"/><rect x="243" y="216" width="9" height="18" fill="#1c1c1c"/><rect x="252" y="216" width="9" height="18" fill="#1c1c1c"/><rect x="261" y="216" width="9" height="18" fill="#1c1c1c"/><rect x="270" y="216" width="9" height="18" fill="#1c1c1c"/><rect x="279" y="216" width="9" height="18" fill="#1c1c1c"/><rect x="288" y="216" width="9" height="18" fill="#1c1c1c"/><rect x="297" y="216" width="9" height="18" fill="#1c1c1c"/><rect x="306" y="216" width="9" height="18" fill="#1c1c1c"/><rect x="315" y="216" width="9" height="18" fill="#1c1c1c"/><rect x="324" y="216" width="9" height="18" fill="#1c1c1c"/><rect x="333" y="216" width="9" height="18" fill="#1c1c1c"/><rect x="342" y="216" width="9" height="18" fill="#1c1c1c"/><rect x="351" y="216" width="9" height="18" fill="#1c1c1c"/><rect x="360" y="216" width="9" height="18" fill="#1c1c1c"/><rect x="369" y="216" width="9" height="18" fill="#1c1c1c"/><rect x="378" y="216" width="9" height="18" fill="#1c1c1c"/><rect x="387" y="216" width="9" height="18" fill="#1c1c1c"/><rect x="396" y="216" width="9" height="18" fill="#1c1c1c"/><rect x="405" y="216" width="9" height="18" fill="#1c1c1c"/><rect x="414" y="216" width="9" height="18" fill="#1c1c1c"/><rect x="423" y="216" width="9" height="18" fill="#1c1c1c"/><rect x="432" y="216" width="9" height="18" fill="#1c1c1c"/><rect x="441" y="216" width="9" height="18" fill="#1c1c1c"/><rect x="450" y="216" width="9" height="18" fill="#1c1c1c"/><rect x="459" y="216" width="9" height="18" fill="#1c1c1c"/><rect x="468" y="216" width="9" height="18" fill="#1c1c1c"/><rect x="477" y="216" width="9" height="18" fill="#1c1c1c"/><rect x="486" y="216" width="9" height="18" fill="#1c1c1c"/><rect x="495" y="216" width="9" height="18" fill="#1c1c1c"/><rect x="504" y="216" width="9" height="18" fill="#1c1c1c"/><rect x="513" y="216" width="9" height="18" fill="#1c1c1c"/><rect x="522" y="216" width="9" height="18" fill="#1c1c1c"/><rect x="531" y="216" width="9" height="18" fill="#1c1c1c"/><rect x="540" y="216" width="9" height="18" fill="#1c1c1c"/><rect x="549" y="216" width="9" height="18" fill="#1c1c1c"/><rect x="558" y="216" width="9" height="18" fill="#1c1c1c"/><rect x="567" y="216" width="9" height="18" fill="#1c1c1c"/><rect x="576" y="216" width="9" height="18" fill="#1c1c1c"/><rect x="585" y="216" width="9" height="18" fill="#1c1c1c"/><rect x="594" y="216" width="9" height="18" fill="#1c1c1c"/><rect x="603" y="216" width="9" height="18" fill="#1c1c1c"/><rect x="612" y="216" width="9" height="18" fill="#1c1c1c"/><rect x="621" y="216" width="9" height="18" fill="#1c1c1c"/><rect x="630" y="216" width="9" height="18" fill="#1c1c1c"/><rect x="639" y="216" width="9" height="18" fill="#1c1c1c"/><rect x="648" y="216" width="9" height="18" fill="#1c1c1c"/><rect x="657" y="216" width="9" height="18" fill="#1c1c1c"/><rect x="666" y="216" width="9" height="18" fill="#1c1c1c"/><rect x="675" y="216" width="9" height="18" fill="#1c1c1c"/></g></svg>
