<svg xmlns="http://www.w3.org/2000/svg" width="558" height="216" viewBox="0 0 558 216" role="img" aria-label="Diff view — single pane added" style="background:#000000"><rect width="100%" height="100%" fill="#000000"/><g font-family="ui-monospace, SFMono-Regular, Menlo, Consolas, monospace" font-size="14"><rect x="0" y="0" width="9" height="18" fill="#1c1c1c"/><rect x="9" y="0" width="9" height="18" fill="#1c1c1c"/><rect x="18" y="0" width="9" height="18" fill="#1c1c1c"/><rect x="27" y="0" width="9" height="18" fill="#1c1c1c"/><rect x="36" y="0" width="9" height="18" fill="#1c1c1c"/><rect x="45" y="0" width="9" height="18" fill="#1c1c1c"/><rect x="54" y="0" width="9" height="18" fill="#1c1c1c"/><rect x="63" y="0" width="9" height="18" fill="#1c1c1c"/><rect x="72" y="0" width="9" height="18" fill="#1c1c1c"/><rect x="81" y="0" width="9" height="18" fill="#1c1c1c"/><rect x="90" y="0" width="9" height="18" fill="#1c1c1c"/><rect x="99" y="0" width="9" height="18" fill="#1c1c1c"/><rect x="108" y="0" width="9" height="18" fill="#1c1c1c"/><rect x="117" y="0" width="9" height="18" fill="#1c1c1c"/><rect x="126" y="0" width="9" height="18" fill="#1c1c1c"/><rect x="135" y="0" width="9" height="18" fill="#1c1c1c"/><rect x="144" y="0" width="9" height="18" fill="#1c1c1c"/><rect x="153" y="0" width="9" height="18" fill="#1c1c1c"/><rect x="162" y="0" width="9" height="18" fill="#1c1c1c"/><rect x="171" y="0" width="9" height="18" fill="#1c1c1c"/><rect x="180" y="0" width="9" height="18" fill="#1c1c1c"/><rect x="189" y="0" width="9" height="18" fill="#1c1c1c"/><rect x="198" y="0" width="9" height="18" fill="#1c1c1c"/><rect x="207" y="0" width="9" height="18" fill="#1c1c1c"/><rect x="216" y="0" width="9" height="18" fill="#1c1c1c"/><rect x="225" y="0" width="9" height="18" fill="#1c1c1c"/><rect x="234" y="0" width="9" height="18" fill="#1c1c1c"/><rect x="243" y="0" width="9" height="18" fill="#1c1c1c"/><rect x="252" y="0" width="9" height="18" fill="#1c1c1c"/><rect x="261" y="0" width="9" height="18" fill="#1c1c1c"/><rect x="270" y="0" width="9" height="18" fill="#1c1c1c"/><rect x="279" y="0" width="9" height="18" fill="#1c1c1c"/><rect x="288" y="0" width="9" height="18" fill="#1c1c1c"/><rect x="297" y="0" width="9" height="18" fill="#1c1c1c"/><rect x="306" y="0" width="9" height="18" fill="#1c1c1c"/><rect x="315" y="0" width="9" height="18" fill="#1c1c1c"/><rect x="324" y="0" width="9" height="18" fill="#1c1c1c"/><rect x="333" y="0" width="9" height="18" fill="#1c1c1c"/><rect x="342" y="0" width="9" height="18" fill="#1c1c1c"/><rect x="351" y="0" width="9" height="18" fill="#1c1c1c"/><rect x="360" y="0" width="9" height="18" fill="#1c1c1c"/><rect x="369" y="0" width="9" height="18" fill="#1c1c1c"/><rect x="378" y="0" width="9" height="18" fill="#1c1c1c"/><rect x="387" y="0" width="9" height="18" fill="#1c1c1c"/><rect x="396" y="0" width="9" height="18" fill="#1c1c1c"/><rect x="405" y="0" width="9" height="18" fill="#1c1c1c"/><rect x="414" y="0" width="9" height="18" fill="#1c1c1c"/><rect x="423" y="0" width="9" height="18" fill="#1c1c1c"/><rect x="432" y="0" width="9" height="18" fill="#1c1c1c"/><rect x="441" y="0" width="9" height="18" fill="#1c1c1c"/><rect x="450" y="0" width="9" height="18" fill="#1c1c1c"/><rect x="459" y="0" width="9" height="18" fill="#1c1c1c"/><rect x="468" y="0" width="9" height="18" fill="#1c1c1c"/><rect x="477" y="0" width="9" height="18" fill="#1c1c1c"/><rect x="486" y="0" width="9" height="18" fill="#1c1c1c"/><rect x="495" y="0" width="9" height="18" fill="#1c1c1c"/><rect x="504" y="0" width="9" height="18" fill="#1c1c1c"/><rect x="513" y="0" width="9" height="18" fill="#1c1c1c"/><rect x="522" y="0" width="9" height="18" fill="#1c1c1c"/><rect x="531" y="0" width="9" height="18" fill="#1c1c1c"/><rect x="540" y="0" width="9" height="18" fill="#1c1c1c"/><rect x="549" y="0" width="9" height="18" fill="#1c1c1c"/><rect x="0" y="18" width="9" height="18" fill="#1c1c1c"/><text x="9" y="32" fill="#00ff41">┌</text><text x="27" y="32" fill="#ffffff">s</text><text x="36" y="32" fill="#ffffff">r</text><text x="45" y="32" fill="#ffffff">c</text><text x="54" y="32" fill="#ffffff">/</text><text x="63" y="32" fill="#ffffff">n</text><text x="72" y="32" fill="#ffffff">e</text><text x="81" y="32" fill="#ffffff">w</text><text x="90" y="32" fill="#ffffff">_</text><text x="99" y="32" fill="#ffffff">f</text><text x="108" y="32" fill="#ffffff">e</text><text x="117" y="32" fill="#ffffff">a</text><text x="126" y="32" fill="#ffffff">t</text><text x="135" y="32" fill="#ffffff">u</text><text x="144" y="32" fill="#ffffff">r</text><text x="153" y="32" fill="#ffffff">e</text><text x="162" y="32" fill="#ffffff">.</text><text x="171" y="32" fill="#ffffff">r</text><text x="180" y="32" fill="#ffffff">s</text><text x="198" y="32" fill="#00ff41">─</text><text x="207" y="32" fill="#00ff41">─</text><text x="216" y="32" fill="#00ff41">─</text><text x="225" y="32" fill="#00ff41">─</text><text x="234" y="32" fill="#00ff41">─</text><text x="243" y="32" fill="#00ff41">─</text><text x="252" y="32" fill="#00ff41">─</text><text x="261" y="32" fill="#00ff41">─</text><text x="270" y="32" fill="#00ff41">─</text><text x="279" y="32" fill="#00ff41">─</text><text x="288" y="32" fill="#00ff41">─</text><text x="297" y="32" fill="#00ff41">─</text><text x="306" y="32" fill="#00ff41">─</text><text x="315" y="32" fill="#00ff41">─</text><text x="324" y="32" fill="#00ff41">─</text><text x="333" y="32" fill="#00ff41">─</text><text x="342" y="32" fill="#00ff41">─</text><text x="351" y="32" fill="#00ff41">─</text><text x="360" y="32" fill="#00ff41">─</text><text x="369" y="32" fill="#00ff41">─</text><text x="378" y="32" fill="#00ff41">─</text><text x="387" y="32" fill="#00ff41">─</text><text x="396" y="32" fill="#00ff41">─</text><text x="405" y="32" fill="#00ff41">─</text><text x="414" y="32" fill="#00ff41">─</text><text x="423" y="32" fill="#00ff41">─</text><text x="432" y="32" fill="#00ff41">─</text><text x="441" y="32" fill="#00ff41">─</text><text x="450" y="32" fill="#00ff41">─</text><text x="459" y="32" fill="#00ff41">─</text><text x="468" y="32" fill="#00ff41">─</text><text x="477" y="32" fill="#00ff41">─</text><text x="486" y="32" fill="#00ff41">─</text><text x="495" y="32" fill="#00ff41">─</text><text x="504" y="32" fill="#00ff41">─</text><text x="513" y="32" fill="#00ff41">─</text><text x="522" y="32" fill="#00ff41">─</text><text x="531" y="32" fill="#00ff41">─</text><text x="540" y="32" fill="#00ff41">┐</text><rect x="549" y="18" width="9" height="18" fill="#1c1c1c"/><rect x="0" y="36" width="9" height="18" fill="#1c1c1c"/><text x="9" y="50" fill="#00ff41">│</text><rect x="18" y="36" width="9" height="18" fill="#ffffff"/><text x="18" y="50" fill="#00ff41">+</text><rect x="27" y="36" width="9" height="18" fill="#ffffff"/><rect x="36" y="36" width="9" height="18" fill="#ffffff"/><text x="36" y="50" fill="#00ff41">u</text><rect x="45" y="36" width="9" height="18" fill="#ffffff"/><text x="45" y="50" fill="#00ff41">s</text><rect x="54" y="36" width="9" height="18" fill="#ffffff"/><text x="54" y="50" fill="#00ff41">e</text><rect x="63" y="36" width="9" height="18" fill="#ffffff"/><rect x="72" y="36" width="9" height="18" fill="#ffffff"/><text x="72" y="50" fill="#00ff41">s</text><rect x="81" y="36" width="9" height="18" fill="#ffffff"/><text x="81" y="50" fill="#00ff41">t</text><rect x="90" y="36" width="9" height="18" fill="#ffffff"/><text x="90" y="50" fill="#00ff41">d</text><rect x="99" y="36" width="9" height="18" fill="#ffffff"/><text x="99" y="50" fill="#00ff41">:</text><rect x="108" y="36" width="9" height="18" fill="#ffffff"/><text x="108" y="50" fill="#00ff41">:</text><rect x="117" y="36" width="9" height="18" fill="#ffffff"/><text x="117" y="50" fill="#00ff41">c</text><rect x="126" y="36" width="9" height="18" fill="#ffffff"/><text x="126" y="50" fill="#00ff41">o</text><rect x="135" y="36" width="9" height="18" fill="#ffffff"/><text x="135" y="50" fill="#00ff41">l</text><rect x="144" y="36" width="9" height="18" fill="#ffffff"/><text x="144" y="50" fill="#00ff41">l</text><rect x="153" y="36" width="9" height="18" fill="#ffffff"/><text x="153" y="50" fill="#00ff41">e</text><rect x="162" y="36" width="9" height="18" fill="#ffffff"/><text x="162" y="50" fill="#00ff41">c</text><rect x="171" y="36" width="9" height="18" fill="#ffffff"/><text x="171" y="50" fill="#00ff41">t</text><rect x="180" y="36" width="9" height="18" fill="#ffffff"/><text x="180" y="50" fill="#00ff41">i</text><rect x="189" y="36" width="9" height="18" fill="#ffffff"/><text x="189" y="50" fill="#00ff41">o</text><rect x="198" y="36" width="9" height="18" fill="#ffffff"/><text x="198" y="50" fill="#00ff41">n</text><rect x="207" y="36" width="9" height="18" fill="#ffffff"/><text x="207" y="50" fill="#00ff41">s</text><rect x="216" y="36" width="9" height="18" fill="#ffffff"/><text x="216" y="50" fill="#00ff41">:</text><rect x="225" y="36" width="9" height="18" fill="#ffffff"/><text x="225" y="50" fill="#00ff41">:</text><rect x="234" y="36" width="9" height="18" fill="#ffffff"/><text x="234" y="50" fill="#00ff41">H</text><rect x="243" y="36" width="9" height="18" fill="#ffffff"/><text x="243" y="50" fill="#00ff41">a</text><rect x="252" y="36" width="9" height="18" fill="#ffffff"/><text x="252" y="50" fill="#00ff41">s</text><rect x="261" y="36" width="9" height="18" fill="#ffffff"/><text x="261" y="50" fill="#00ff41">h</text><rect x="270" y="36" width="9" height="18" fill="#ffffff"/><text x="270" y="50" fill="#00ff41">M</text><rect x="279" y="36" width="9" height="18" fill="#ffffff"/><text x="279" y="50" fill="#00ff41">a</text><rect x="288" y="36" width="9" height="18" fill="#ffffff"/><text x="288" y="50" fill="#00ff41">p</text><rect x="297" y="36" width="9" height="18" fill="#ffffff"/><text x="297" y="50" fill="#00ff41">;</text><text x="540" y="50" fill="#00ff41">│</text><rect x="549" y="36" width="9" height="18" fill="#1c1c1c"/><rect x="0" y="54" width="9" height="18" fill="#1c1c1c"/><text x="9" y="68" fill="#00ff41">│</text><rect x="18" y="54" width="9" height="18" fill="#ffffff"/><text x="18" y="68" fill="#00ff41">+</text><rect x="27" y="54" width="9" height="18" fill="#ffffff"/><text x="540" y="68" fill="#00ff41">│</text><rect x="549" y="54" width="9" height="18" fill="#1c1c1c"/><rect x="0" y="72" width="9" height="18" fill="#1c1c1c"/><text x="9" y="86" fill="#00ff41">│</text><rect x="18" y="72" width="9" height="18" fill="#ffffff"/><text x="18" y="86" fill="#00ff41">+</text><rect x="27" y="72" width="9" height="18" fill="#ffffff"/><rect x="36" y="72" width="9" height="18" fill="#ffffff"/><text x="36" y="86" fill="#00ff41">p</text><rect x="45" y="72" width="9" height="18" fill="#ffffff"/><text x="45" y="86" fill="#00ff41">u</text><rect x="54" y="72" width="9" height="18" fill="#ffffff"/><text x="54" y="86" fill="#00ff41">b</text><rect x="63" y="72" width="9" height="18" fill="#ffffff"/><rect x="72" y="72" width="9" height="18" fill="#ffffff"/><text x="72" y="86" fill="#00ff41">f</text><rect x="81" y="72" width="9" height="18" fill="#ffffff"/><text x="81" y="86" fill="#00ff41">n</text><rect x="90" y="72" width="9" height="18" fill="#ffffff"/><rect x="99" y="72" width="9" height="18" fill="#ffffff"/><text x="99" y="86" fill="#00ff41">n</text><rect x="108" y="72" width="9" height="18" fill="#ffffff"/><text x="108" y="86" fill="#00ff41">e</text><rect x="117" y="72" width="9" height="18" fill="#ffffff"/><text x="117" y="86" fill="#00ff41">w</text><rect x="126" y="72" width="9" height="18" fill="#ffffff"/><text x="126" y="86" fill="#00ff41">_</text><rect x="135" y="72" width="9" height="18" fill="#ffffff"/><text x="135" y="86" fill="#00ff41">f</text><rect x="144" y="72" width="9" height="18" fill="#ffffff"/><text x="144" y="86" fill="#00ff41">e</text><rect x="153" y="72" width="9" height="18" fill="#ffffff"/><text x="153" y="86" fill="#00ff41">a</text><rect x="162" y="72" width="9" height="18" fill="#ffffff"/><text x="162" y="86" fill="#00ff41">t</text><rect x="171" y="72" width="9" height="18" fill="#ffffff"/><text x="171" y="86" fill="#00ff41">u</text><rect x="180" y="72" width="9" height="18" fill="#ffffff"/><text x="180" y="86" fill="#00ff41">r</text><rect x="189" y="72" width="9" height="18" fill="#ffffff"/><text x="189" y="86" fill="#00ff41">e</text><rect x="198" y="72" width="9" height="18" fill="#ffffff"/><text x="198" y="86" fill="#00ff41">(</text><rect x="207" y="72" width="9" height="18" fill="#ffffff"/><text x="207" y="86" fill="#00ff41">)</text><rect x="216" y="72" width="9" height="18" fill="#ffffff"/><rect x="225" y="72" width="9" height="18" fill="#ffffff"/><text x="225" y="86" fill="#00ff41">-</text><rect x="234" y="72" width="9" height="18" fill="#ffffff"/><text x="234" y="86" fill="#00ff41">&gt;</text><rect x="243" y="72" width="9" height="18" fill="#ffffff"/><rect x="252" y="72" width="9" height="18" fill="#ffffff"/><text x="252" y="86" fill="#00ff41">H</text><rect x="261" y="72" width="9" height="18" fill="#ffffff"/><text x="261" y="86" fill="#00ff41">a</text><rect x="270" y="72" width="9" height="18" fill="#ffffff"/><text x="270" y="86" fill="#00ff41">s</text><rect x="279" y="72" width="9" height="18" fill="#ffffff"/><text x="279" y="86" fill="#00ff41">h</text><rect x="288" y="72" width="9" height="18" fill="#ffffff"/><text x="288" y="86" fill="#00ff41">M</text><rect x="297" y="72" width="9" height="18" fill="#ffffff"/><text x="297" y="86" fill="#00ff41">a</text><rect x="306" y="72" width="9" height="18" fill="#ffffff"/><text x="306" y="86" fill="#00ff41">p</text><rect x="315" y="72" width="9" height="18" fill="#ffffff"/><text x="315" y="86" fill="#00ff41">&lt;</text><rect x="324" y="72" width="9" height="18" fill="#ffffff"/><text x="324" y="86" fill="#00ff41">S</text><rect x="333" y="72" width="9" height="18" fill="#ffffff"/><text x="333" y="86" fill="#00ff41">t</text><rect x="342" y="72" width="9" height="18" fill="#ffffff"/><text x="342" y="86" fill="#00ff41">r</text><rect x="351" y="72" width="9" height="18" fill="#ffffff"/><text x="351" y="86" fill="#00ff41">i</text><rect x="360" y="72" width="9" height="18" fill="#ffffff"/><text x="360" y="86" fill="#00ff41">n</text><rect x="369" y="72" width="9" height="18" fill="#ffffff"/><text x="369" y="86" fill="#00ff41">g</text><rect x="378" y="72" width="9" height="18" fill="#ffffff"/><text x="378" y="86" fill="#00ff41">,</text><rect x="387" y="72" width="9" height="18" fill="#ffffff"/><rect x="396" y="72" width="9" height="18" fill="#ffffff"/><text x="396" y="86" fill="#00ff41">u</text><rect x="405" y="72" width="9" height="18" fill="#ffffff"/><text x="405" y="86" fill="#00ff41">3</text><rect x="414" y="72" width="9" height="18" fill="#ffffff"/><text x="414" y="86" fill="#00ff41">2</text><rect x="423" y="72" width="9" height="18" fill="#ffffff"/><text x="423" y="86" fill="#00ff41">&gt;</text><rect x="432" y="72" width="9" height="18" fill="#ffffff"/><rect x="441" y="72" width="9" height="18" fill="#ffffff"/><text x="441" y="86" fill="#00ff41">{</text><text x="540" y="86" fill="#00ff41">│</text><rect x="549" y="72" width="9" height="18" fill="#1c1c1c"/><rect x="0" y="90" width="9" height="18" fill="#1c1c1c"/><text x="9" y="104" fill="#00ff41">│</text><rect x="18" y="90" width="9" height="18" fill="#ffffff"/><text x="18" y="104" fill="#00ff41">+</text><rect x="27" y="90" width="9" height="18" fill="#ffffff"/><rect x="36" y="90" width="9" height="18" fill="#ffffff"/><rect x="45" y="90" width="9" height="18" fill="#ffffff"/><rect x="54" y="90" width="9" height="18" fill="#ffffff"/><rect x="63" y="90" width="9" height="18" fill="#ffffff"/><rect x="72" y="90" width="9" height="18" fill="#ffffff"/><text x="72" y="104" fill="#00ff41">H</text><rect x="81" y="90" width="9" height="18" fill="#ffffff"/><text x="81" y="104" fill="#00ff41">a</text><rect x="90" y="90" width="9" height="18" fill="#ffffff"/><text x="90" y="104" fill="#00ff41">s</text><rect x="99" y="90" width="9" height="18" fill="#ffffff"/><text x="99" y="104" fill="#00ff41">h</text><rect x="108" y="90" width="9" height="18" fill="#ffffff"/><text x="108" y="104" fill="#00ff41">M</text><rect x="117" y="90" width="9" height="18" fill="#ffffff"/><text x="117" y="104" fill="#00ff41">a</text><rect x="126" y="90" width="9" height="18" fill="#ffffff"/><text x="126" y="104" fill="#00ff41">p</text><rect x="135" y="90" width="9" height="18" fill="#ffffff"/><text x="135" y="104" fill="#00ff41">:</text><rect x="144" y="90" width="9" height="18" fill="#ffffff"/><text x="144" y="104" fill="#00ff41">:</text><rect x="153" y="90" width="9" height="18" fill="#ffffff"/><text x="153" y="104" fill="#00ff41">n</text><rect x="162" y="90" width="9" height="18" fill="#ffffff"/><text x="162" y="104" fill="#00ff41">e</text><rect x="171" y="90" width="9" height="18" fill="#ffffff"/><text x="171" y="104" fill="#00ff41">w</text><rect x="180" y="90" width="9" height="18" fill="#ffffff"/><text x="180" y="104" fill="#00ff41">(</text><rect x="189" y="90" width="9" height="18" fill="#ffffff"/><text x="189" y="104" fill="#00ff41">)</text><text x="540" y="104" fill="#00ff41">│</text><rect x="549" y="90" width="9" height="18" fill="#1c1c1c"/><rect x="0" y="108" width="9" height="18" fill="#1c1c1c"/><text x="9" y="122" fill="#00ff41">│</text><rect x="18" y="108" width="9" height="18" fill="#ffffff"/><text x="18" y="122" fill="#00ff41">+</text><rect x="27" y="108" width="9" height="18" fill="#ffffff"/><rect x="36" y="108" width="9" height="18" fill="#ffffff"/><text x="36" y="122" fill="#00ff41">}</text><text x="540" y="122" fill="#00ff41">│</text><rect x="549" y="108" width="9" height="18" fill="#1c1c1c"/><rect x="0" y="126" width="9" height="18" fill="#1c1c1c"/><text x="9" y="140" fill="#00ff41">│</text><text x="540" y="140" fill="#00ff41">│</text><rect x="549" y="126" width="9" height="18" fill="#1c1c1c"/><rect x="0" y="144" width="9" height="18" fill="#1c1c1c"/><text x="9" y="158" fill="#00ff41">│</text><text x="540" y="158" fill="#00ff41">│</text><rect x="549" y="144" width="9" height="18" fill="#1c1c1c"/><rect x="0" y="162" width="9" height="18" fill="#1c1c1c"/><text x="9" y="176" fill="#00ff41">│</text><text x="540" y="176" fill="#00ff41">│</text><rect x="549" y="162" width="9" height="18" fill="#1c1c1c"/><rect x="0" y="180" width="9" height="18" fill="#1c1c1c"/><text x="9" y="194" fill="#00ff41">└</text><text x="18" y="194" fill="#00ff41">─</text><text x="27" y="194" fill="#00ff41">─</text><text x="36" y="194" fill="#00ff41">─</text><text x="45" y="194" fill="#00ff41">─</text><text x="54" y="194" fill="#00ff41">─</text><text x="63" y="194" fill="#00ff41">─</text><text x="72" y="194" fill="#00ff41">─</text><text x="81" y="194" fill="#00ff41">─</text><text x="90" y="194" fill="#00ff41">─</text><text x="99" y="194" fill="#00ff41">─</text><text x="108" y="194" fill="#00ff41">─</text><text x="117" y="194" fill="#00ff41">─</text><text x="126" y="194" fill="#00ff41">─</text><text x="135" y="194" fill="#00ff41">─</text><text x="144" y="194" fill="#00ff41">─</text><text x="153" y="194" fill="#00ff41">─</text><text x="162" y="194" fill="#00ff41">─</text><text x="171" y="194" fill="#00ff41">─</text><text x="180" y="194" fill="#00ff41">─</text><text x="189" y="194" fill="#00ff41">─</text><text x="198" y="194" fill="#00ff41">─</text><text x="207" y="194" fill="#00ff41">─</text><text x="216" y="194" fill="#00ff41">─</text><text x="225" y="194" fill="#00ff41">─</text><text x="234" y="194" fill="#00ff41">─</text><text x="243" y="194" fill="#00ff41">─</text><text x="252" y="194" fill="#00ff41">─</text><text x="261" y="194" fill="#00ff41">─</text><text x="270" y="194" fill="#00ff41">─</text><text x="279" y="194" fill="#00ff41">─</text><text x="288" y="194" fill="#00ff41">─</text><text x="297" y="194" fill="#00ff41">─</text><text x="306" y="194" fill="#00ff41">─</text><text x="315" y="194" fill="#00ff41">─</text><text x="324" y="194" fill="#00ff41">─</text><text x="333" y="194" fill="#00ff41">─</text><text x="342" y="194" fill="#00ff41">─</text><text x="351" y="194" fill="#00ff41">─</text><text x="360" y="194" fill="#00ff41">─</text><text x="369" y="194" fill="#00ff41">─</text><text x="378" y="194" fill="#00ff41">─</text><text x="387" y="194" fill="#00ff41">─</text><text x="396" y="194" fill="#00ff41">─</text><text x="405" y="194" fill="#00ff41">─</text><text x="414" y="194" fill="#00ff41">─</text><text x="423" y="194" fill="#00ff41">─</text><text x="432" y="194" fill="#00ff41">─</text><text x="441" y="194" fill="#00ff41">─</text><text x="450" y="194" fill="#00ff41">─</text><text x="459" y="194" fill="#00ff41">─</text><text x="468" y="194" fill="#00ff41">─</text><text x="477" y="194" fill="#00ff41">─</text><text x="486" y="194" fill="#00ff41">─</text><text x="495" y="194" fill="#00ff41">─</text><text x="504" y="194" fill="#00ff41">─</text><text x="513" y="194" fill="#00ff41">─</text><text x="522" y="194" fill="#00ff41">─</text><text x="531" y="194" fill="#00ff41">─</text><text x="540" y="194" fill="#00ff41">┘</text><rect x="549" y="180" width="9" height="18" fill="#1c1c1c"/><rect x="0" y="198" width="9" height="18" fill="#1c1c1c"/><rect x="9" y="198" width="9" height="18" fill="#1c1c1c"/><rect x="18" y="198" width="9" height="18" fill="#1c1c1c"/><rect x="27" y="198" width="9" height="18" fill="#1c1c1c"/><rect x="36" y="198" width="9" height="18" fill="#1c1c1c"/><rect x="45" y="198" width="9" height="18" fill="#1c1c1c"/><rect x="54" y="198" width="9" height="18" fill="#1c1c1c"/><rect x="63" y="198" width="9" height="18" fill="#1c1c1c"/><rect x="72" y="198" width="9" height="18" fill="#1c1c1c"/><rect x="81" y="198" width="9" height="18" fill="#1c1c1c"/><rect x="90" y="198" width="9" height="18" fill="#1c1c1c"/><rect x="99" y="198" width="9" height="18" fill="#1c1c1c"/><rect x="108" y="198" width="9" height="18" fill="#1c1c1c"/><rect x="117" y="198" width="9" height="18" fill="#1c1c1c"/><rect x="126" y="198" width="9" height="18" fill="#1c1c1c"/><rect x="135" y="198" width="9" height="18" fill="#1c1c1c"/><rect x="144" y="198" width="9" height="18" fill="#1c1c1c"/><rect x="153" y="198" width="9" height="18" fill="#1c1c1c"/><rect x="162" y="198" width="9" height="18" fill="#1c1c1c"/><rect x="171" y="198" width="9" height="18" fill="#1c1c1c"/><rect x="180" y="198" width="9" height="18" fill="#1c1c1c"/><rect x="189" y="198" width="9" height="18" fill="#1c1c1c"/><rect x="198" y="198" width="9" height="18" fill="#1c1c1c"/><rect x="207" y="198" width="9" height="18" fill="#1c1c1c"/><rect x="216" y="198" width="9" height="18" fill="#1c1c1c"/><rect x="225" y="198" width="9" height="18" fill="#1c1c1c"/><rect x="234" y="198" width="9" height="18" fill="#1c1c1c"/><rect x="243" y="198" width="9" height="18" fill="#1c1c1c"/><rect x="252" y="198" width="9" height="18" fill="#1c1c1c"/><rect x="261" y="198" width="9" height="18" fill="#1c1c1c"/><rect x="270" y="198" width="9" height="18" fill="#1c1c1c"/><rect x="279" y="198" width="9" height="18" fill="#1c1c1c"/><rect x="288" y="198" width="9" height="18" fill="#1c1c1c"/><rect x="297" y="198" width="9" height="18" fill="#1c1c1c"/><rect x="306" y="198" width="9" height="18" fill="#1c1c1c"/><rect x="315" y="198" width="9" height="18" fill="#1c1c1c"/><rect x="324" y="198" width="9" height="18" fill="#1c1c1c"/><rect x="333" y="198" width="9" height="18" fill="#1c1c1c"/><rect x="342" y="198" width="9" height="18" fill="#1c1c1c"/><rect x="351" y="198" width="9" height="18" fill="#1c1c1c"/><rect x="360" y="198" width="9" height="18" fill="#1c1c1c"/><rect x="369" y="198" width="9" height="18" fill="#1c1c1c"/><rect x="378" y="198" width="9" height="18" fill="#1c1c1c"/><rect x="387" y="198" width="9" height="18" fill="#1c1c1c"/><rect x="396" y="198" width="9" height="18" fill="#1c1c1c"/><rect x="405" y="198" width="9" height="18" fill="#1c1c1c"/><rect x="414" y="198" width="9" height="18" fill="#1c1c1c"/><rect x="423" y="198" width="9" height="18" fill="#1c1c1c"/><rect x="432" y="198" width="9" height="18" fill="#1c1c1c"/><rect x="441" y="198" width="9" height="18" fill="#1c1c1c"/><rect x="450" y="198" width="9" height="18" fill="#1c1c1c"/><rect x="459" y="198" width="9" height="18" fill="#1c1c1c"/><rect x="468" y="198" width="9" height="18" fill="#1c1c1c"/><rect x="477" y="198" width="9" height="18" fill="#1c1c1c"/><rect x="486" y="198" width="9" height="18" fill="#1c1c1c"/><rect x="495" y="198" width="9" height="18" fill="#1c1c1c"/><rect x="504" y="198" width="9" height="18" fill="#1c1c1c"/><rect x="513" y="198" width="9" height="18" fill="#1c1c1c"/><rect x="522" y="198" width="9" height="18" fill="#1c1c1c"/><rect x="531" y="198" width="9" height="18" fill="#1c1c1c"/><rect x="540" y="198" width="9" height="18" fill="#1c1c1c"/><rect x="549" y="198" width="9" height="18" fill="#1c1c1c"/></g></svg>
