<svg xmlns="http://www.w3.org/2000/svg" width="738" height="324" viewBox="0 0 738 324" role="img" aria-label="Diff view — side by side" style="background:#000000"><rect width="100%" height="100%" fill="#000000"/><g font-family="ui-monospace, SFMono-Regular, Menlo, Consolas, monospace" font-size="14"><rect x="0" y="0" width="9" height="18" fill="#1c1c1c"/><rect x="9" y="0" width="9" height="18" fill="#1c1c1c"/><rect x="18" y="0" width="9" height="18" fill="#1c1c1c"/><rect x="27" y="0" width="9" height="18" fill="#1c1c1c"/><rect x="36" y="0" width="9" height="18" fill="#1c1c1c"/><rect x="45" y="0" width="9" height="18" fill="#1c1c1c"/><rect x="54" y="0" width="9" height="18" fill="#1c1c1c"/><rect x="63" y="0" width="9" height="18" fill="#1c1c1c"/><rect x="72" y="0" width="9" height="18" fill="#1c1c1c"/><rect x="81" y="0" width="9" height="18" fill="#1c1c1c"/><rect x="90" y="0" width="9" height="18" fill="#1c1c1c"/><rect x="99" y="0" width="9" height="18" fill="#1c1c1c"/><rect x="108" y="0" width="9" height="18" fill="#1c1c1c"/><rect x="117" y="0" width="9" height="18" fill="#1c1c1c"/><rect x="126" y="0" width="9" height="18" fill="#1c1c1c"/><rect x="135" y="0" width="9" height="18" fill="#1c1c1c"/><rect x="144" y="0" width="9" height="18" fill="#1c1c1c"/><rect x="153" y="0" width="9" height="18" fill="#1c1c1c"/><rect x="162" y="0" width="9" height="18" fill="#1c1c1c"/><rect x="171" y="0" width="9" height="18" fill="#1c1c1c"/><rect x="180" y="0" width="9" height="18" fill="#1c1c1c"/><rect x="189" y="0" width="9" height="18" fill="#1c1c1c"/><rect x="198" y="0" width="9" height="18" fill="#1c1c1c"/><rect x="207" y="0" width="9" height="18" fill="#1c1c1c"/><rect x="216" y="0" width="9" height="18" fill="#1c1c1c"/><rect x="225" y="0" width="9" height="18" fill="#1c1c1c"/><rect x="234" y="0" width="9" height="18" fill="#1c1c1c"/><rect x="243" y="0" width="9" height="18" fill="#1c1c1c"/><rect x="252" y="0" width="9" height="18" fill="#1c1c1c"/><rect x="261" y="0" width="9" height="18" fill="#1c1c1c"/><rect x="270" y="0" width="9" height="18" fill="#1c1c1c"/><rect x="279" y="0" width="9" height="18" fill="#1c1c1c"/><rect x="288" y="0" width="9" height="18" fill="#1c1c1c"/><rect x="297" y="0" width="9" height="18" fill="#1c1c1c"/><rect x="306" y="0" width="9" height="18" fill="#1c1c1c"/><rect x="315" y="0" width="9" height="18" fill="#1c1c1c"/><rect x="324" y="0" width="9" height="18" fill="#1c1c1c"/><rect x="333" y="0" width="9" height="18" fill="#1c1c1c"/><rect x="342" y="0" width="9" height="18" fill="#1c1c1c"/><rect x="351" y="0" width="9" height="18" fill="#1c1c1c"/><rect x="360" y="0" width="9" height="18" fill="#1c1c1c"/><rect x="369" y="0" width="9" height="18" fill="#1c1c1c"/><rect x="378" y="0" width="9" height="18" fill="#1c1c1c"/><rect x="387" y="0" width="9" height="18" fill="#1c1c1c"/><rect x="396" y="0" width="9" height="18" fill="#1c1c1c"/><rect x="405" y="0" width="9" height="18" fill="#1c1c1c"/><rect x="414" y="0" width="9" height="18" fill="#1c1c1c"/><rect x="423" y="0" width="9" height="18" fill="#1c1c1c"/><rect x="432" y="0" width="9" height="18" fill="#1c1c1c"/><rect x="441" y="0" width="9" height="18" fill="#1c1c1c"/><rect x="450" y="0" width="9" height="18" fill="#1c1c1c"/><rect x="459" y="0" width="9" height="18" fill="#1c1c1c"/><rect x="468" y="0" width="9" height="18" fill="#1c1c1c"/><rect x="477" y="0" width="9" height="18" fill="#1c1c1c"/><rect x="486" y="0" width="9" height="18" fill="#1c1c1c"/><rect x="495" y="0" width="9" height="18" fill="#1c1c1c"/><rect x="504" y="0" width="9" height="18" fill="#1c1c1c"/><rect x="513" y="0" width="9" height="18" fill="#1c1c1c"/><rect x="522" y="0" width="9" height="18" fill="#1c1c1c"/><rect x="531" y="0" width="9" height="18" fill="#1c1c1c"/><rect x="540" y="0" width="9" height="18" fill="#1c1c1c"/><rect x="549" y="0" width="9" height="18" fill="#1c1c1c"/><rect x="558" y="0" width="9" height="18" fill="#1c1c1c"/><rect x="567" y="0" width="9" height="18" fill="#1c1c1c"/><rect x="576" y="0" width="9" height="18" fill="#1c1c1c"/><rect x="585" y="0" width="9" height="18" fill="#1c1c1c"/><rect x="594" y="0" width="9" height="18" fill="#1c1c1c"/><rect x="603" y="0" width="9" height="18" fill="#1c1c1c"/><rect x="612" y="0" width="9" height="18" fill="#1c1c1c"/><rect x="621" y="0" width="9" height="18" fill="#1c1c1c"/><rect x="630" y="0" width="9" height="18" fill="#1c1c1c"/><rect x="639" y="0" width="9" height="18" fill="#1c1c1c"/><rect x="648" y="0" width="9" height="18" fill="#1c1c1c"/><rect x="657" y="0" width="9" height="18" fill="#1c1c1c"/><rect x="666" y="0" width="9" height="18" fill="#1c1c1c"/><rect x="675" y="0" width="9" height="18" fill="#1c1c1c"/><rect x="684" y="0" width="9" height="18" fill="#1c1c1c"/><rect x="693" y="0" width="9" height="18" fill="#1c1c1c"/><rect x="702" y="0" width="9" height="18" fill="#1c1c1c"/><rect x="711" y="0" width="9" height="18" fill="#1c1c1c"/><rect x="720" y="0" width="9" height="18" fill="#1c1c1c"/><rect x="729" y="0" width="9" height="18" fill="#1c1c1c"/><rect x="0" y="18" width="9" height="18" fill="#1c1c1c"/><text x="9" y="32" fill="#005012">┌</text><text x="18" y="32" fill="#005012">─</text><text x="27" y="32" fill="#005012">─</text><text x="36" y="32" fill="#005012">─</text><text x="45" y="32" fill="#005012">─</text><text x="54" y="32" fill="#005012">─</text><text x="63" y="32" fill="#005012">─</text><text x="72" y="32" fill="#005012">─</text><text x="81" y="32" fill="#005012">─</text><text x="90" y="32" fill="#005012">─</text><text x="99" y="32" fill="#005012">─</text><text x="108" y="32" fill="#005012">─</text><text x="117" y="32" fill="#005012">─</text><text x="126" y="32" fill="#005012">─</text><text x="135" y="32" fill="#005012">─</text><text x="144" y="32" fill="#005012">─</text><text x="153" y="32" fill="#005012">─</text><text x="162" y="32" fill="#005012">─</text><text x="171" y="32" fill="#005012">─</text><text x="180" y="32" fill="#005012">─</text><text x="189" y="32" fill="#005012">─</text><text x="198" y="32" fill="#005012">─</text><text x="207" y="32" fill="#005012">─</text><text x="216" y="32" fill="#005012">─</text><text x="225" y="32" fill="#005012">─</text><text x="234" y="32" fill="#005012">─</text><text x="243" y="32" fill="#005012">─</text><text x="252" y="32" fill="#005012">─</text><text x="261" y="32" fill="#005012">─</text><text x="270" y="32" fill="#005012">─</text><text x="279" y="32" fill="#005012">─</text><text x="288" y="32" fill="#005012">─</text><text x="297" y="32" fill="#005012">─</text><text x="306" y="32" fill="#005012">─</text><text x="315" y="32" fill="#005012">─</text><text x="324" y="32" fill="#005012">─</text><text x="333" y="32" fill="#005012">─</text><text x="342" y="32" fill="#005012">─</text><text x="351" y="32" fill="#005012">─</text><text x="360" y="32" fill="#005012">┐</text><text x="369" y="32" fill="#005012">┌</text><text x="378" y="32" fill="#005012">─</text><text x="387" y="32" fill="#005012">─</text><text x="396" y="32" fill="#005012">─</text><text x="405" y="32" fill="#005012">─</text><text x="414" y="32" fill="#005012">─</text><text x="423" y="32" fill="#005012">─</text><text x="432" y="32" fill="#005012">─</text><text x="441" y="32" fill="#005012">─</text><text x="450" y="32" fill="#005012">─</text><text x="459" y="32" fill="#005012">─</text><text x="468" y="32" fill="#005012">─</text><text x="477" y="32" fill="#005012">─</text><text x="486" y="32" fill="#005012">─</text><text x="495" y="32" fill="#005012">─</text><text x="504" y="32" fill="#005012">─</text><text x="513" y="32" fill="#005012">─</text><text x="522" y="32" fill="#005012">─</text><text x="531" y="32" fill="#005012">─</text><text x="540" y="32" fill="#005012">─</text><text x="549" y="32" fill="#005012">─</text><text x="558" y="32" fill="#005012">─</text><text x="567" y="32" fill="#005012">─</text><text x="576" y="32" fill="#005012">─</text><text x="585" y="32" fill="#005012">─</text><text x="594" y="32" fill="#005012">─</text><text x="603" y="32" fill="#005012">─</text><text x="612" y="32" fill="#005012">─</text><text x="621" y="32" fill="#005012">─</text><text x="630" y="32" fill="#005012">─</text><text x="639" y="32" fill="#005012">─</text><text x="648" y="32" fill="#005012">─</text><text x="657" y="32" fill="#005012">─</text><text x="666" y="32" fill="#005012">─</text><text x="675" y="32" fill="#005012">─</text><text x="684" y="32" fill="#005012">─</text><text x="693" y="32" fill="#005012">─</text><text x="702" y="32" fill="#005012">─</text><text x="711" y="32" fill="#005012">─</text><text x="720" y="32" fill="#005012">┐</text><rect x="729" y="18" width="9" height="18" fill="#1c1c1c"/><rect x="0" y="36" width="9" height="18" fill="#1c1c1c"/><text x="9" y="50" fill="#005012">│</text><text x="27" y="50" fill="#00ff41">b</text><text x="36" y="50" fill="#00ff41">e</text><text x="45" y="50" fill="#00ff41">f</text><text x="54" y="50" fill="#00ff41">o</text><text x="63" y="50" fill="#00ff41">r</text><text x="72" y="50" fill="#00ff41">e</text><text x="90" y="50" fill="#00ff41">(</text><text x="99" y="50" fill="#00ff41">H</text><text x="108" y="50" fill="#00ff41">E</text><text x="117" y="50" fill="#00ff41">A</text><text x="126" y="50" fill="#00ff41">D</text><text x="135" y="50" fill="#00ff41">)</text><text x="360" y="50" fill="#005012">│</text><text x="369" y="50" fill="#005012">│</text><text x="387" y="50" fill="#00ff41">a</text><text x="396" y="50" fill="#00ff41">f</text><text x="405" y="50" fill="#00ff41">t</text><text x="414" y="50" fill="#00ff41">e</text><text x="423" y="50" fill="#00ff41">r</text><text x="441" y="50" fill="#00ff41">(</text><text x="450" y="50" fill="#00ff41">w</text><text x="459" y="50" fill="#00ff41">o</text><text x="468" y="50" fill="#00ff41">r</text><text x="477" y="50" fill="#00ff41">k</text><text x="486" y="50" fill="#00ff41">i</text><text x="495" y="50" fill="#00ff41">n</text><text x="504" y="50" fill="#00ff41">g</text><text x="513" y="50" fill="#00ff41">)</text><text x="720" y="50" fill="#005012">│</text><rect x="729" y="36" width="9" height="18" fill="#1c1c1c"/><rect x="0" y="54" width="9" height="18" fill="#1c1c1c"/><text x="9" y="68" fill="#005012">│</text><text x="18" y="68" fill="#005012">─</text><text x="27" y="68" fill="#005012">─</text><text x="36" y="68" fill="#005012">─</text><text x="45" y="68" fill="#005012">─</text><text x="54" y="68" fill="#005012">─</text><text x="63" y="68" fill="#005012">─</text><text x="72" y="68" fill="#005012">─</text><text x="81" y="68" fill="#005012">─</text><text x="90" y="68" fill="#005012">─</text><text x="99" y="68" fill="#005012">─</text><text x="108" y="68" fill="#005012">─</text><text x="117" y="68" fill="#005012">─</text><text x="126" y="68" fill="#005012">─</text><text x="135" y="68" fill="#005012">─</text><text x="144" y="68" fill="#005012">─</text><text x="153" y="68" fill="#005012">─</text><text x="162" y="68" fill="#005012">─</text><text x="171" y="68" fill="#005012">─</text><text x="180" y="68" fill="#005012">─</text><text x="189" y="68" fill="#005012">─</text><text x="198" y="68" fill="#005012">─</text><text x="207" y="68" fill="#005012">─</text><text x="216" y="68" fill="#005012">─</text><text x="225" y="68" fill="#005012">─</text><text x="234" y="68" fill="#005012">─</text><text x="243" y="68" fill="#005012">─</text><text x="252" y="68" fill="#005012">─</text><text x="261" y="68" fill="#005012">─</text><text x="270" y="68" fill="#005012">─</text><text x="279" y="68" fill="#005012">─</text><text x="288" y="68" fill="#005012">─</text><text x="297" y="68" fill="#005012">─</text><text x="306" y="68" fill="#005012">─</text><text x="315" y="68" fill="#005012">─</text><text x="324" y="68" fill="#005012">─</text><text x="333" y="68" fill="#005012">─</text><text x="342" y="68" fill="#005012">─</text><text x="351" y="68" fill="#005012">─</text><text x="360" y="68" fill="#005012">│</text><text x="369" y="68" fill="#005012">│</text><text x="378" y="68" fill="#005012">─</text><text x="387" y="68" fill="#005012">─</text><text x="396" y="68" fill="#005012">─</text><text x="405" y="68" fill="#005012">─</text><text x="414" y="68" fill="#005012">─</text><text x="423" y="68" fill="#005012">─</text><text x="432" y="68" fill="#005012">─</text><text x="441" y="68" fill="#005012">─</text><text x="450" y="68" fill="#005012">─</text><text x="459" y="68" fill="#005012">─</text><text x="468" y="68" fill="#005012">─</text><text x="477" y="68" fill="#005012">─</text><text x="486" y="68" fill="#005012">─</text><text x="495" y="68" fill="#005012">─</text><text x="504" y="68" fill="#005012">─</text><text x="513" y="68" fill="#005012">─</text><text x="522" y="68" fill="#005012">─</text><text x="531" y="68" fill="#005012">─</text><text x="540" y="68" fill="#005012">─</text><text x="549" y="68" fill="#005012">─</text><text x="558" y="68" fill="#005012">─</text><text x="567" y="68" fill="#005012">─</text><text x="576" y="68" fill="#005012">─</text><text x="585" y="68" fill="#005012">─</text><text x="594" y="68" fill="#005012">─</text><text x="603" y="68" fill="#005012">─</text><text x="612" y="68" fill="#005012">─</text><text x="621" y="68" fill="#005012">─</text><text x="630" y="68" fill="#005012">─</text><text x="639" y="68" fill="#005012">─</text><text x="648" y="68" fill="#005012">─</text><text x="657" y="68" fill="#005012">─</text><text x="666" y="68" fill="#005012">─</text><text x="675" y="68" fill="#005012">─</text><text x="684" y="68" fill="#005012">─</text><text x="693" y="68" fill="#005012">─</text><text x="702" y="68" fill="#005012">─</text><text x="711" y="68" fill="#005012">─</text><text x="720" y="68" fill="#005012">│</text><rect x="729" y="54" width="9" height="18" fill="#1c1c1c"/><rect x="0" y="72" width="9" height="18" fill="#1c1c1c"/><text x="9" y="86" fill="#005012">│</text><rect x="18" y="72" width="9" height="18" fill="#ffffff"/><text x="18" y="86" fill="#ff0000">-</text><rect x="27" y="72" width="9" height="18" fill="#ffffff"/><rect x="36" y="72" width="9" height="18" fill="#ffffff"/><text x="36" y="86" fill="#ff0000">f</text><rect x="45" y="72" width="9" height="18" fill="#ffffff"/><text x="45" y="86" fill="#ff0000">n</text><rect x="54" y="72" width="9" height="18" fill="#ffffff"/><rect x="63" y="72" width="9" height="18" fill="#ffffff"/><text x="63" y="86" fill="#ff0000">g</text><rect x="72" y="72" width="9" height="18" fill="#ffffff"/><text x="72" y="86" fill="#ff0000">r</text><rect x="81" y="72" width="9" height="18" fill="#ffffff"/><text x="81" y="86" fill="#ff0000">e</text><rect x="90" y="72" width="9" height="18" fill="#ffffff"/><text x="90" y="86" fill="#ff0000">e</text><rect x="99" y="72" width="9" height="18" fill="#ffffff"/><text x="99" y="86" fill="#ff0000">t</text><rect x="108" y="72" width="9" height="18" fill="#ffffff"/><text x="108" y="86" fill="#ff0000">(</text><rect x="117" y="72" width="9" height="18" fill="#ffffff"/><text x="117" y="86" fill="#ff0000">n</text><rect x="126" y="72" width="9" height="18" fill="#ffffff"/><text x="126" y="86" fill="#ff0000">a</text><rect x="135" y="72" width="9" height="18" fill="#ffffff"/><text x="135" y="86" fill="#ff0000">m</text><rect x="144" y="72" width="9" height="18" fill="#ffffff"/><text x="144" y="86" fill="#ff0000">e</text><rect x="153" y="72" width="9" height="18" fill="#ffffff"/><text x="153" y="86" fill="#ff0000">:</text><rect x="162" y="72" width="9" height="18" fill="#ffffff"/><rect x="171" y="72" width="9" height="18" fill="#ffffff"/><text x="171" y="86" fill="#ff0000">&amp;</text><rect x="180" y="72" width="9" height="18" fill="#ffffff"/><text x="180" y="86" fill="#ff0000">s</text><rect x="189" y="72" width="9" height="18" fill="#ffffff"/><text x="189" y="86" fill="#ff0000">t</text><rect x="198" y="72" width="9" height="18" fill="#ffffff"/><text x="198" y="86" fill="#ff0000">r</text><rect x="207" y="72" width="9" height="18" fill="#ffffff"/><text x="207" y="86" fill="#ff0000">)</text><rect x="216" y="72" width="9" height="18" fill="#ffffff"/><rect x="225" y="72" width="9" height="18" fill="#ffffff"/><text x="225" y="86" fill="#ff0000">{</text><text x="360" y="86" fill="#005012">│</text><text x="369" y="86" fill="#005012">│</text><rect x="378" y="72" width="9" height="18" fill="#ffffff"/><text x="378" y="86" fill="#00ff41">+</text><rect x="387" y="72" width="9" height="18" fill="#ffffff"/><rect x="396" y="72" width="9" height="18" fill="#ffffff"/><text x="396" y="86" fill="#00ff41">f</text><rect x="405" y="72" width="9" height="18" fill="#ffffff"/><text x="405" y="86" fill="#00ff41">n</text><rect x="414" y="72" width="9" height="18" fill="#ffffff"/><rect x="423" y="72" width="9" height="18" fill="#ffffff"/><text x="423" y="86" fill="#00ff41">g</text><rect x="432" y="72" width="9" height="18" fill="#ffffff"/><text x="432" y="86" fill="#00ff41">r</text><rect x="441" y="72" width="9" height="18" fill="#ffffff"/><text x="441" y="86" fill="#00ff41">e</text><rect x="450" y="72" width="9" height="18" fill="#ffffff"/><text x="450" y="86" fill="#00ff41">e</text><rect x="459" y="72" width="9" height="18" fill="#ffffff"/><text x="459" y="86" fill="#00ff41">t</text><rect x="468" y="72" width="9" height="18" fill="#ffffff"/><text x="468" y="86" fill="#00ff41">(</text><rect x="477" y="72" width="9" height="18" fill="#ffffff"/><text x="477" y="86" fill="#00ff41">n</text><rect x="486" y="72" width="9" height="18" fill="#ffffff"/><text x="486" y="86" fill="#00ff41">a</text><rect x="495" y="72" width="9" height="18" fill="#ffffff"/><text x="495" y="86" fill="#00ff41">m</text><rect x="504" y="72" width="9" height="18" fill="#ffffff"/><text x="504" y="86" fill="#00ff41">e</text><rect x="513" y="72" width="9" height="18" fill="#ffffff"/><text x="513" y="86" fill="#00ff41">:</text><rect x="522" y="72" width="9" height="18" fill="#ffffff"/><rect x="531" y="72" width="9" height="18" fill="#ffffff"/><text x="531" y="86" fill="#00ff41">&amp;</text><rect x="540" y="72" width="9" height="18" fill="#ffffff"/><text x="540" y="86" fill="#00ff41">s</text><rect x="549" y="72" width="9" height="18" fill="#ffffff"/><text x="549" y="86" fill="#00ff41">t</text><rect x="558" y="72" width="9" height="18" fill="#ffffff"/><text x="558" y="86" fill="#00ff41">r</text><rect x="567" y="72" width="9" height="18" fill="#ffffff"/><text x="567" y="86" fill="#00ff41">)</text><rect x="576" y="72" width="9" height="18" fill="#ffffff"/><rect x="585" y="72" width="9" height="18" fill="#ffffff"/><text x="585" y="86" fill="#00ff41">-</text><rect x="594" y="72" width="9" height="18" fill="#ffffff"/><text x="594" y="86" fill="#00ff41">&gt;</text><rect x="603" y="72" width="9" height="18" fill="#ffffff"/><rect x="612" y="72" width="9" height="18" fill="#ffffff"/><text x="612" y="86" fill="#00ff41">S</text><rect x="621" y="72" width="9" height="18" fill="#ffffff"/><text x="621" y="86" fill="#00ff41">t</text><rect x="630" y="72" width="9" height="18" fill="#ffffff"/><text x="630" y="86" fill="#00ff41">r</text><rect x="639" y="72" width="9" height="18" fill="#ffffff"/><text x="639" y="86" fill="#00ff41">i</text><rect x="648" y="72" width="9" height="18" fill="#ffffff"/><text x="648" y="86" fill="#00ff41">n</text><rect x="657" y="72" width="9" height="18" fill="#ffffff"/><text x="657" y="86" fill="#00ff41">g</text><rect x="666" y="72" width="9" height="18" fill="#ffffff"/><rect x="675" y="72" width="9" height="18" fill="#ffffff"/><text x="675" y="86" fill="#00ff41">{</text><text x="720" y="86" fill="#005012">│</text><rect x="729" y="72" width="9" height="18" fill="#1c1c1c"/><rect x="0" y="90" width="9" height="18" fill="#1c1c1c"/><text x="9" y="104" fill="#005012">│</text><rect x="18" y="90" width="9" height="18" fill="#ffffff"/><text x="18" y="104" fill="#ff0000">-</text><rect x="27" y="90" width="9" height="18" fill="#ffffff"/><rect x="36" y="90" width="9" height="18" fill="#ffffff"/><rect x="45" y="90" width="9" height="18" fill="#ffffff"/><rect x="54" y="90" width="9" height="18" fill="#ffffff"/><rect x="63" y="90" width="9" height="18" fill="#ffffff"/><rect x="72" y="90" width="9" height="18" fill="#ffffff"/><text x="72" y="104" fill="#ff0000">p</text><rect x="81" y="90" width="9" height="18" fill="#ffffff"/><text x="81" y="104" fill="#ff0000">r</text><rect x="90" y="90" width="9" height="18" fill="#ffffff"/><text x="90" y="104" fill="#ff0000">i</text><rect x="99" y="90" width="9" height="18" fill="#ffffff"/><text x="99" y="104" fill="#ff0000">n</text><rect x="108" y="90" width="9" height="18" fill="#ffffff"/><text x="108" y="104" fill="#ff0000">t</text><rect x="117" y="90" width="9" height="18" fill="#ffffff"/><text x="117" y="104" fill="#ff0000">l</text><rect x="126" y="90" width="9" height="18" fill="#ffffff"/><text x="126" y="104" fill="#ff0000">n</text><rect x="135" y="90" width="9" height="18" fill="#ffffff"/><text x="135" y="104" fill="#ff0000">!</text><rect x="144" y="90" width="9" height="18" fill="#ffffff"/><text x="144" y="104" fill="#ff0000">(</text><rect x="153" y="90" width="9" height="18" fill="#ffffff"/><text x="153" y="104" fill="#ff0000">&quot;</text><rect x="162" y="90" width="9" height="18" fill="#ffffff"/><text x="162" y="104" fill="#ff0000">H</text><rect x="171" y="90" width="9" height="18" fill="#ffffff"/><text x="171" y="104" fill="#ff0000">e</text><rect x="180" y="90" width="9" height="18" fill="#ffffff"/><text x="180" y="104" fill="#ff0000">l</text><rect x="189" y="90" width="9" height="18" fill="#ffffff"/><text x="189" y="104" fill="#ff0000">l</text><rect x="198" y="90" width="9" height="18" fill="#ffffff"/><text x="198" y="104" fill="#ff0000">o</text><rect x="207" y="90" width="9" height="18" fill="#ffffff"/><text x="207" y="104" fill="#ff0000">,</text><rect x="216" y="90" width="9" height="18" fill="#ffffff"/><rect x="225" y="90" width="9" height="18" fill="#ffffff"/><text x="225" y="104" fill="#ff0000">{</text><rect x="234" y="90" width="9" height="18" fill="#ffffff"/><text x="234" y="104" fill="#ff0000">n</text><rect x="243" y="90" width="9" height="18" fill="#ffffff"/><text x="243" y="104" fill="#ff0000">a</text><rect x="252" y="90" width="9" height="18" fill="#ffffff"/><text x="252" y="104" fill="#ff0000">m</text><rect x="261" y="90" width="9" height="18" fill="#ffffff"/><text x="261" y="104" fill="#ff0000">e</text><rect x="270" y="90" width="9" height="18" fill="#ffffff"/><text x="270" y="104" fill="#ff0000">}</text><rect x="279" y="90" width="9" height="18" fill="#ffffff"/><text x="279" y="104" fill="#ff0000">!</text><rect x="288" y="90" width="9" height="18" fill="#ffffff"/><text x="288" y="104" fill="#ff0000">&quot;</text><rect x="297" y="90" width="9" height="18" fill="#ffffff"/><text x="297" y="104" fill="#ff0000">)</text><rect x="306" y="90" width="9" height="18" fill="#ffffff"/><text x="306" y="104" fill="#ff0000">;</text><text x="360" y="104" fill="#005012">│</text><text x="369" y="104" fill="#005012">│</text><rect x="378" y="90" width="9" height="18" fill="#ffffff"/><text x="378" y="104" fill="#00ff41">+</text><rect x="387" y="90" width="9" height="18" fill="#ffffff"/><rect x="396" y="90" width="9" height="18" fill="#ffffff"/><rect x="405" y="90" width="9" height="18" fill="#ffffff"/><rect x="414" y="90" width="9" height="18" fill="#ffffff"/><rect x="423" y="90" width="9" height="18" fill="#ffffff"/><rect x="432" y="90" width="9" height="18" fill="#ffffff"/><text x="432" y="104" fill="#00ff41">f</text><rect x="441" y="90" width="9" height="18" fill="#ffffff"/><text x="441" y="104" fill="#00ff41">o</text><rect x="450" y="90" width="9" height="18" fill="#ffffff"/><text x="450" y="104" fill="#00ff41">r</text><rect x="459" y="90" width="9" height="18" fill="#ffffff"/><text x="459" y="104" fill="#00ff41">m</text><rect x="468" y="90" width="9" height="18" fill="#ffffff"/><text x="468" y="104" fill="#00ff41">a</text><rect x="477" y="90" width="9" height="18" fill="#ffffff"/><text x="477" y="104" fill="#00ff41">t</text><rect x="486" y="90" width="9" height="18" fill="#ffffff"/><text x="486" y="104" fill="#00ff41">!</text><rect x="495" y="90" width="9" height="18" fill="#ffffff"/><text x="495" y="104" fill="#00ff41">(</text><rect x="504" y="90" width="9" height="18" fill="#ffffff"/><text x="504" y="104" fill="#00ff41">&quot;</text><rect x="513" y="90" width="9" height="18" fill="#ffffff"/><text x="513" y="104" fill="#00ff41">H</text><rect x="522" y="90" width="9" height="18" fill="#ffffff"/><text x="522" y="104" fill="#00ff41">e</text><rect x="531" y="90" width="9" height="18" fill="#ffffff"/><text x="531" y="104" fill="#00ff41">l</text><rect x="540" y="90" width="9" height="18" fill="#ffffff"/><text x="540" y="104" fill="#00ff41">l</text><rect x="549" y="90" width="9" height="18" fill="#ffffff"/><text x="549" y="104" fill="#00ff41">o</text><rect x="558" y="90" width="9" height="18" fill="#ffffff"/><text x="558" y="104" fill="#00ff41">,</text><rect x="567" y="90" width="9" height="18" fill="#ffffff"/><rect x="576" y="90" width="9" height="18" fill="#ffffff"/><text x="576" y="104" fill="#00ff41">{</text><rect x="585" y="90" width="9" height="18" fill="#ffffff"/><text x="585" y="104" fill="#00ff41">n</text><rect x="594" y="90" width="9" height="18" fill="#ffffff"/><text x="594" y="104" fill="#00ff41">a</text><rect x="603" y="90" width="9" height="18" fill="#ffffff"/><text x="603" y="104" fill="#00ff41">m</text><rect x="612" y="90" width="9" height="18" fill="#ffffff"/><text x="612" y="104" fill="#00ff41">e</text><rect x="621" y="90" width="9" height="18" fill="#ffffff"/><text x="621" y="104" fill="#00ff41">}</text><rect x="630" y="90" width="9" height="18" fill="#ffffff"/><text x="630" y="104" fill="#00ff41">!</text><rect x="639" y="90" width="9" height="18" fill="#ffffff"/><text x="639" y="104" fill="#00ff41">&quot;</text><rect x="648" y="90" width="9" height="18" fill="#ffffff"/><text x="648" y="104" fill="#00ff41">)</text><text x="720" y="104" fill="#005012">│</text><rect x="729" y="90" width="9" height="18" fill="#1c1c1c"/><rect x="0" y="108" width="9" height="18" fill="#1c1c1c"/><text x="9" y="122" fill="#005012">│</text><rect x="18" y="108" width="9" height="18" fill="#ffffff"/><text x="18" y="122" fill="#ff0000">-</text><rect x="27" y="108" width="9" height="18" fill="#ffffff"/><rect x="36" y="108" width="9" height="18" fill="#ffffff"/><rect x="45" y="108" width="9" height="18" fill="#ffffff"/><rect x="54" y="108" width="9" height="18" fill="#ffffff"/><rect x="63" y="108" width="9" height="18" fill="#ffffff"/><rect x="72" y="108" width="9" height="18" fill="#ffffff"/><text x="72" y="122" fill="#ff0000">/</text><rect x="81" y="108" width="9" height="18" fill="#ffffff"/><text x="81" y="122" fill="#ff0000">/</text><rect x="90" y="108" width="9" height="18" fill="#ffffff"/><rect x="99" y="108" width="9" height="18" fill="#ffffff"/><text x="99" y="122" fill="#ff0000">o</text><rect x="108" y="108" width="9" height="18" fill="#ffffff"/><text x="108" y="122" fill="#ff0000">l</text><rect x="117" y="108" width="9" height="18" fill="#ffffff"/><text x="117" y="122" fill="#ff0000">d</text><rect x="126" y="108" width="9" height="18" fill="#ffffff"/><rect x="135" y="108" width="9" height="18" fill="#ffffff"/><text x="135" y="122" fill="#ff0000">c</text><rect x="144" y="108" width="9" height="18" fill="#ffffff"/><text x="144" y="122" fill="#ff0000">o</text><rect x="153" y="108" width="9" height="18" fill="#ffffff"/><text x="153" y="122" fill="#ff0000">m</text><rect x="162" y="108" width="9" height="18" fill="#ffffff"/><text x="162" y="122" fill="#ff0000">m</text><rect x="171" y="108" width="9" height="18" fill="#ffffff"/><text x="171" y="122" fill="#ff0000">e</text><rect x="180" y="108" width="9" height="18" fill="#ffffff"/><text x="180" y="122" fill="#ff0000">n</text><rect x="189" y="108" width="9" height="18" fill="#ffffff"/><text x="189" y="122" fill="#ff0000">t</text><text x="360" y="122" fill="#005012">│</text><text x="369" y="122" fill="#005012">│</text><text x="378" y="122" fill="#005012">~</text><text x="720" y="122" fill="#005012">│</text><rect x="729" y="108" width="9" height="18" fill="#1c1c1c"/><rect x="0" y="126" width="9" height="18" fill="#1c1c1c"/><text x="9" y="140" fill="#005012">│</text><text x="36" y="140" fill="#00ff41">}</text><text x="360" y="140" fill="#005012">│</text><text x="369" y="140" fill="#005012">│</text><text x="396" y="140" fill="#00ff41">}</text><text x="720" y="140" fill="#005012">│</text><rect x="729" y="126" width="9" height="18" fill="#1c1c1c"/><rect x="0" y="144" width="9" height="18" fill="#1c1c1c"/><text x="9" y="158" fill="#005012">│</text><text x="360" y="158" fill="#005012">│</text><text x="369" y="158" fill="#005012">│</text><text x="720" y="158" fill="#005012">│</text><rect x="729" y="144" width="9" height="18" fill="#1c1c1c"/><rect x="0" y="162" width="9" height="18" fill="#1c1c1c"/><text x="9" y="176" fill="#005012">│</text><text x="360" y="176" fill="#005012">│</text><text x="369" y="176" fill="#005012">│</text><text x="720" y="176" fill="#005012">│</text><rect x="729" y="162" width="9" height="18" fill="#1c1c1c"/><rect x="0" y="180" width="9" height="18" fill="#1c1c1c"/><text x="9" y="194" fill="#005012">│</text><text x="360" y="194" fill="#005012">│</text><text x="369" y="194" fill="#005012">│</text><text x="720" y="194" fill="#005012">│</text><rect x="729" y="180" width="9" height="18" fill="#1c1c1c"/><rect x="0" y="198" width="9" height="18" fill="#1c1c1c"/><text x="9" y="212" fill="#005012">│</text><text x="360" y="212" fill="#005012">│</text><text x="369" y="212" fill="#005012">│</text><text x="720" y="212" fill="#005012">│</text><rect x="729" y="198" width="9" height="18" fill="#1c1c1c"/><rect x="0" y="216" width="9" height="18" fill="#1c1c1c"/><text x="9" y="230" fill="#005012">│</text><text x="360" y="230" fill="#005012">│</text><text x="369" y="230" fill="#005012">│</text><text x="720" y="230" fill="#005012">│</text><rect x="729" y="216" width="9" height="18" fill="#1c1c1c"/><rect x="0" y="234" width="9" height="18" fill="#1c1c1c"/><text x="9" y="248" fill="#005012">│</text><text x="360" y="248" fill="#005012">│</text><text x="369" y="248" fill="#005012">│</text><text x="720" y="248" fill="#005012">│</text><rect x="729" y="234" width="9" height="18" fill="#1c1c1c"/><rect x="0" y="252" width="9" height="18" fill="#1c1c1c"/><text x="9" y="266" fill="#005012">│</text><text x="360" y="266" fill="#005012">│</text><text x="369" y="266" fill="#005012">│</text><text x="720" y="266" fill="#005012">│</text><rect x="729" y="252" width="9" height="18" fill="#1c1c1c"/><rect x="0" y="270" width="9" height="18" fill="#1c1c1c"/><text x="9" y="284" fill="#005012">│</text><text x="360" y="284" fill="#005012">│</text><text x="369" y="284" fill="#005012">│</text><text x="720" y="284" fill="#005012">│</text><rect x="729" y="270" width="9" height="18" fill="#1c1c1c"/><rect x="0" y="288" width="9" height="18" fill="#1c1c1c"/><text x="9" y="302" fill="#005012">└</text><text x="18" y="302" fill="#00ff41">━</text><text x="27" y="302" fill="#00ff41">━</text><text x="36" y="302" fill="#00ff41">━</text><text x="45" y="302" fill="#00ff41">━</text><text x="54" y="302" fill="#00ff41">━</text><text x="63" y="302" fill="#00ff41">━</text><text x="72" y="302" fill="#00ff41">━</text><text x="81" y="302" fill="#00ff41">━</text><text x="90" y="302" fill="#00ff41">━</text><text x="99" y="302" fill="#00ff41">━</text><text x="108" y="302" fill="#00ff41">━</text><text x="117" y="302" fill="#00ff41">━</text><text x="126" y="302" fill="#00ff41">━</text><text x="135" y="302" fill="#00ff41">━</text><text x="144" y="302" fill="#00ff41">━</text><text x="153" y="302" fill="#00ff41">━</text><text x="162" y="302" fill="#00ff41">━</text><text x="171" y="302" fill="#00ff41">━</text><text x="180" y="302" fill="#005012">·</text><text x="189" y="302" fill="#005012">·</text><text x="198" y="302" fill="#005012">·</text><text x="207" y="302" fill="#005012">·</text><text x="216" y="302" fill="#005012">·</text><text x="225" y="302" fill="#005012">·</text><text x="234" y="302" fill="#005012">·</text><text x="243" y="302" fill="#005012">·</text><text x="252" y="302" fill="#005012">·</text><text x="261" y="302" fill="#005012">·</text><text x="270" y="302" fill="#005012">·</text><text x="279" y="302" fill="#005012">·</text><text x="288" y="302" fill="#005012">·</text><text x="297" y="302" fill="#005012">·</text><text x="306" y="302" fill="#005012">·</text><text x="315" y="302" fill="#005012">·</text><text x="324" y="302" fill="#005012">·</text><text x="333" y="302" fill="#005012">·</text><text x="342" y="302" fill="#005012">·</text><text x="351" y="302" fill="#005012">·</text><text x="360" y="302" fill="#005012">┘</text><text x="369" y="302" fill="#005012">└</text><text x="378" y="302" fill="#00ff41">━</text><text x="387" y="302" fill="#00ff41">━</text><text x="396" y="302" fill="#00ff41">━</text><text x="405" y="302" fill="#00ff41">━</text><text x="414" y="302" fill="#00ff41">━</text><text x="423" y="302" fill="#00ff41">━</text><text x="432" y="302" fill="#00ff41">━</text><text x="441" y="302" fill="#00ff41">━</text><text x="450" y="302" fill="#00ff41">━</text><text x="459" y="302" fill="#00ff41">━</text><text x="468" y="302" fill="#00ff41">━</text><text x="477" y="302" fill="#00ff41">━</text><text x="486" y="302" fill="#00ff41">━</text><text x="495" y="302" fill="#00ff41">━</text><text x="504" y="302" fill="#00ff41">━</text><text x="513" y="302" fill="#00ff41">━</text><text x="522" y="302" fill="#00ff41">━</text><text x="531" y="302" fill="#00ff41">━</text><text x="540" y="302" fill="#005012">·</text><text x="549" y="302" fill="#005012">·</text><text x="558" y="302" fill="#005012">·</text><text x="567" y="302" fill="#005012">·</text><text x="576" y="302" fill="#005012">·</text><text x="585" y="302" fill="#005012">·</text><text x="594" y="302" fill="#005012">·</text><text x="603" y="302" fill="#005012">·</text><text x="612" y="302" fill="#005012">·</text><text x="621" y="302" fill="#005012">·</text><text x="630" y="302" fill="#005012">·</text><text x="639" y="302" fill="#005012">·</text><text x="648" y="302" fill="#005012">·</text><text x="657" y="302" fill="#005012">·</text><text x="666" y="302" fill="#005012">·</text><text x="675" y="302" fill="#005012">·</text><text x="684" y="302" fill="#005012">·</text><text x="693" y="302" fill="#005012">·</text><text x="702" y="302" fill="#005012">·</text><text x="711" y="302" fill="#005012">·</text><text x="720" y="302" fill="#005012">┘</text><rect x="729" y="288" width="9" height="18" fill="#1c1c1c"/><rect x="0" y="306" width="9" height="18" fill="#1c1c1c"/><rect x="9" y="306" width="9" height="18" fill="#1c1c1c"/><rect x="18" y="306" width="9" height="18" fill="#1c1c1c"/><rect x="27" y="306" width="9" height="18" fill="#1c1c1c"/><rect x="36" y="306" width="9" height="18" fill="#1c1c1c"/><rect x="45" y="306" width="9" height="18" fill="#1c1c1c"/><rect x="54" y="306" width="9" height="18" fill="#1c1c1c"/><rect x="63" y="306" width="9" height="18" fill="#1c1c1c"/><rect x="72" y="306" width="9" height="18" fill="#1c1c1c"/><rect x="81" y="306" width="9" height="18" fill="#1c1c1c"/><rect x="90" y="306" width="9" height="18" fill="#1c1c1c"/><rect x="99" y="306" width="9" height="18" fill="#1c1c1c"/><rect x="108" y="306" width="9" height="18" fill="#1c1c1c"/><rect x="117" y="306" width="9" height="18" fill="#1c1c1c"/><rect x="126" y="306" width="9" height="18" fill="#1c1c1c"/><rect x="135" y="306" width="9" height="18" fill="#1c1c1c"/><rect x="144" y="306" width="9" height="18" fill="#1c1c1c"/><rect x="153" y="306" width="9" height="18" fill="#1c1c1c"/><rect x="162" y="306" width="9" height="18" fill="#1c1c1c"/><rect x="171" y="306" width="9" height="18" fill="#1c1c1c"/><rect x="180" y="306" width="9" height="18" fill="#1c1c1c"/><rect x="189" y="306" width="9" height="18" fill="#1c1c1c"/><rect x="198" y="306" width="9" height="18" fill="#1c1c1c"/><rect x="207" y="306" width="9" height="18" fill="#1c1c1c"/><rect x="216" y="306" width="9" height="18" fill="#1c1c1c"/><rect x="225" y="306" width="9" height="18" fill="#1c1c1c"/><rect x="234" y="306" width="9" height="18" fill="#1c1c1c"/><rect x="243" y="306" width="9" height="18" fill="#1c1c1c"/><rect x="252" y="306" width="9" height="18" fill="#1c1c1c"/><rect x="261" y="306" width="9" height="18" fill="#1c1c1c"/><rect x="270" y="306" width="9" height="18" fill="#1c1c1c"/><rect x="279" y="306" width="9" height="18" fill="#1c1c1c"/><rect x="288" y="306" width="9" height="18" fill="#1c1c1c"/><rect x="297" y="306" width="9" height="18" fill="#1c1c1c"/><rect x="306" y="306" width="9" height="18" fill="#1c1c1c"/><rect x="315" y="306" width="9" height="18" fill="#1c1c1c"/><rect x="324" y="306" width="9" height="18" fill="#1c1c1c"/><rect x="333" y="306" width="9" height="18" fill="#1c1c1c"/><rect x="342" y="306" width="9" height="18" fill="#1c1c1c"/><rect x="351" y="306" width="9" height="18" fill="#1c1c1c"/><rect x="360" y="306" width="9" height="18" fill="#1c1c1c"/><rect x="369" y="306" width="9" height="18" fill="#1c1c1c"/><rect x="378" y="306" width="9" height="18" fill="#1c1c1c"/><rect x="387" y="306" width="9" height="18" fill="#1c1c1c"/><rect x="396" y="306" width="9" height="18" fill="#1c1c1c"/><rect x="405" y="306" width="9" height="18" fill="#1c1c1c"/><rect x="414" y="306" width="9" height="18" fill="#1c1c1c"/><rect x="423" y="306" width="9" height="18" fill="#1c1c1c"/><rect x="432" y="306" width="9" height="18" fill="#1c1c1c"/><rect x="441" y="306" width="9" height="18" fill="#1c1c1c"/><rect x="450" y="306" width="9" height="18" fill="#1c1c1c"/><rect x="459" y="306" width="9" height="18" fill="#1c1c1c"/><rect x="468" y="306" width="9" height="18" fill="#1c1c1c"/><rect x="477" y="306" width="9" height="18" fill="#1c1c1c"/><rect x="486" y="306" width="9" height="18" fill="#1c1c1c"/><rect x="495" y="306" width="9" height="18" fill="#1c1c1c"/><rect x="504" y="306" width="9" height="18" fill="#1c1c1c"/><rect x="513" y="306" width="9" height="18" fill="#1c1c1c"/><rect x="522" y="306" width="9" height="18" fill="#1c1c1c"/><rect x="531" y="306" width="9" height="18" fill="#1c1c1c"/><rect x="540" y="306" width="9" height="18" fill="#1c1c1c"/><rect x="549" y="306" width="9" height="18" fill="#1c1c1c"/><rect x="558" y="306" width="9" height="18" fill="#1c1c1c"/><rect x="567" y="306" width="9" height="18" fill="#1c1c1c"/><rect x="576" y="306" width="9" height="18" fill="#1c1c1c"/><rect x="585" y="306" width="9" height="18" fill="#1c1c1c"/><rect x="594" y="306" width="9" height="18" fill="#1c1c1c"/><rect x="603" y="306" width="9" height="18" fill="#1c1c1c"/><rect x="612" y="306" width="9" height="18" fill="#1c1c1c"/><rect x="621" y="306" width="9" height="18" fill="#1c1c1c"/><rect x="630" y="306" width="9" height="18" fill="#1c1c1c"/><rect x="639" y="306" width="9" height="18" fill="#1c1c1c"/><rect x="648" y="306" width="9" height="18" fill="#1c1c1c"/><rect x="657" y="306" width="9" height="18" fill="#1c1c1c"/><rect x="666" y="306" width="9" height="18" fill="#1c1c1c"/><rect x="675" y="306" width="9" height="18" fill="#1c1c1c"/><rect x="684" y="306" width="9" height="18" fill="#1c1c1c"/><rect x="693" y="306" width="9" height="18" fill="#1c1c1c"/><rect x="702" y="306" width="9" height="18" fill="#1c1c1c"/><rect x="711" y="306" width="9" height="18" fill="#1c1c1c"/><rect x="720" y="306" width="9" height="18" fill="#1c1c1c"/><rect x="729" y="306" width="9" height="18" fill="#1c1c1c"/></g></svg>
