<svg xmlns="http://www.w3.org/2000/svg" width="666" height="234" viewBox="0 0 666 234" role="img" aria-label="Error dialog rows" style="background:#000000"><rect width="100%" height="100%" fill="#000000"/><g font-family="ui-monospace, SFMono-Regular, Menlo, Consolas, monospace" font-size="14"><rect x="0" y="0" width="9" height="18" fill="#1c1c1c"/><rect x="9" y="0" width="9" height="18" fill="#1c1c1c"/><rect x="18" y="0" width="9" height="18" fill="#1c1c1c"/><rect x="27" y="0" width="9" height="18" fill="#1c1c1c"/><rect x="36" y="0" width="9" height="18" fill="#1c1c1c"/><rect x="45" y="0" width="9" height="18" fill="#1c1c1c"/><rect x="54" y="0" width="9" height="18" fill="#1c1c1c"/><rect x="63" y="0" width="9" height="18" fill="#1c1c1c"/><rect x="72" y="0" width="9" height="18" fill="#1c1c1c"/><rect x="81" y="0" width="9" height="18" fill="#1c1c1c"/><rect x="90" y="0" width="9" height="18" fill="#1c1c1c"/><rect x="99" y="0" width="9" height="18" fill="#1c1c1c"/><rect x="108" y="0" width="9" height="18" fill="#1c1c1c"/><rect x="117" y="0" width="9" height="18" fill="#1c1c1c"/><rect x="126" y="0" width="9" height="18" fill="#1c1c1c"/><rect x="135" y="0" width="9" height="18" fill="#1c1c1c"/><rect x="144" y="0" width="9" height="18" fill="#1c1c1c"/><rect x="153" y="0" width="9" height="18" fill="#1c1c1c"/><rect x="162" y="0" width="9" height="18" fill="#1c1c1c"/><rect x="171" y="0" width="9" height="18" fill="#1c1c1c"/><rect x="180" y="0" width="9" height="18" fill="#1c1c1c"/><rect x="189" y="0" width="9" height="18" fill="#1c1c1c"/><rect x="198" y="0" width="9" height="18" fill="#1c1c1c"/><rect x="207" y="0" width="9" height="18" fill="#1c1c1c"/><rect x="216" y="0" width="9" height="18" fill="#1c1c1c"/><rect x="225" y="0" width="9" height="18" fill="#1c1c1c"/><rect x="234" y="0" width="9" height="18" fill="#1c1c1c"/><rect x="243" y="0" width="9" height="18" fill="#1c1c1c"/><rect x="252" y="0" width="9" height="18" fill="#1c1c1c"/><rect x="261" y="0" width="9" height="18" fill="#1c1c1c"/><rect x="270" y="0" width="9" height="18" fill="#1c1c1c"/><rect x="279" y="0" width="9" height="18" fill="#1c1c1c"/><rect x="288" y="0" width="9" height="18" fill="#1c1c1c"/><rect x="297" y="0" width="9" height="18" fill="#1c1c1c"/><rect x="306" y="0" width="9" height="18" fill="#1c1c1c"/><rect x="315" y="0" width="9" height="18" fill="#1c1c1c"/><rect x="324" y="0" width="9" height="18" fill="#1c1c1c"/><rect x="333" y="0" width="9" height="18" fill="#1c1c1c"/><rect x="342" y="0" width="9" height="18" fill="#1c1c1c"/><rect x="351" y="0" width="9" height="18" fill="#1c1c1c"/><rect x="360" y="0" width="9" height="18" fill="#1c1c1c"/><rect x="369" y="0" width="9" height="18" fill="#1c1c1c"/><rect x="378" y="0" width="9" height="18" fill="#1c1c1c"/><rect x="387" y="0" width="9" height="18" fill="#1c1c1c"/><rect x="396" y="0" width="9" height="18" fill="#1c1c1c"/><rect x="405" y="0" width="9" height="18" fill="#1c1c1c"/><rect x="414" y="0" width="9" height="18" fill="#1c1c1c"/><rect x="423" y="0" width="9" height="18" fill="#1c1c1c"/><rect x="432" y="0" width="9" height="18" fill="#1c1c1c"/><rect x="441" y="0" width="9" height="18" fill="#1c1c1c"/><rect x="450" y="0" width="9" height="18" fill="#1c1c1c"/><rect x="459" y="0" width="9" height="18" fill="#1c1c1c"/><rect x="468" y="0" width="9" height="18" fill="#1c1c1c"/><rect x="477" y="0" width="9" height="18" fill="#1c1c1c"/><rect x="486" y="0" width="9" height="18" fill="#1c1c1c"/><rect x="495" y="0" width="9" height="18" fill="#1c1c1c"/><rect x="504" y="0" width="9" height="18" fill="#1c1c1c"/><rect x="513" y="0" width="9" height="18" fill="#1c1c1c"/><rect x="522" y="0" width="9" height="18" fill="#1c1c1c"/><rect x="531" y="0" width="9" height="18" fill="#1c1c1c"/><rect x="540" y="0" width="9" height="18" fill="#1c1c1c"/><rect x="549" y="0" width="9" height="18" fill="#1c1c1c"/><rect x="558" y="0" width="9" height="18" fill="#1c1c1c"/><rect x="567" y="0" width="9" height="18" fill="#1c1c1c"/><rect x="576" y="0" width="9" height="18" fill="#1c1c1c"/><rect x="585" y="0" width="9" height="18" fill="#1c1c1c"/><rect x="594" y="0" width="9" height="18" fill="#1c1c1c"/><rect x="603" y="0" width="9" height="18" fill="#1c1c1c"/><rect x="612" y="0" width="9" height="18" fill="#1c1c1c"/><rect x="621" y="0" width="9" height="18" fill="#1c1c1c"/><rect x="630" y="0" width="9" height="18" fill="#1c1c1c"/><rect x="639" y="0" width="9" height="18" fill="#1c1c1c"/><rect x="648" y="0" width="9" height="18" fill="#1c1c1c"/><rect x="657" y="0" width="9" height="18" fill="#1c1c1c"/><rect x="0" y="18" width="9" height="18" fill="#1c1c1c"/><rect x="657" y="18" width="9" height="18" fill="#1c1c1c"/><rect x="0" y="36" width="9" height="18" fill="#1c1c1c"/><text x="18" y="50" fill="#ff5e7a">┌</text><text x="36" y="50" fill="#ff5e7a">L</text><text x="45" y="50" fill="#ff5e7a">a</text><text x="54" y="50" fill="#ff5e7a">u</text><text x="63" y="50" fill="#ff5e7a">n</text><text x="72" y="50" fill="#ff5e7a">c</text><text x="81" y="50" fill="#ff5e7a">h</text><text x="99" y="50" fill="#ff5e7a">f</text><text x="108" y="50" fill="#ff5e7a">a</text><text x="117" y="50" fill="#ff5e7a">i</text><text x="126" y="50" fill="#ff5e7a">l</text><text x="135" y="50" fill="#ff5e7a">e</text><text x="144" y="50" fill="#ff5e7a">d</text><text x="162" y="50" fill="#ff5e7a">─</text><text x="171" y="50" fill="#ff5e7a">─</text><text x="180" y="50" fill="#ff5e7a">─</text><text x="189" y="50" fill="#ff5e7a">─</text><text x="198" y="50" fill="#ff5e7a">─</text><text x="207" y="50" fill="#ff5e7a">─</text><text x="216" y="50" fill="#ff5e7a">─</text><text x="225" y="50" fill="#ff5e7a">─</text><text x="234" y="50" fill="#ff5e7a">─</text><text x="243" y="50" fill="#ff5e7a">─</text><text x="252" y="50" fill="#ff5e7a">─</text><text x="261" y="50" fill="#ff5e7a">─</text><text x="270" y="50" fill="#ff5e7a">─</text><text x="279" y="50" fill="#ff5e7a">─</text><text x="288" y="50" fill="#ff5e7a">─</text><text x="297" y="50" fill="#ff5e7a">─</text><text x="306" y="50" fill="#ff5e7a">─</text><text x="315" y="50" fill="#ff5e7a">─</text><text x="324" y="50" fill="#ff5e7a">─</text><text x="333" y="50" fill="#ff5e7a">─</text><text x="342" y="50" fill="#ff5e7a">─</text><text x="351" y="50" fill="#ff5e7a">─</text><text x="360" y="50" fill="#ff5e7a">─</text><text x="369" y="50" fill="#ff5e7a">─</text><text x="378" y="50" fill="#ff5e7a">─</text><text x="387" y="50" fill="#ff5e7a">─</text><text x="396" y="50" fill="#ff5e7a">─</text><text x="405" y="50" fill="#ff5e7a">─</text><text x="414" y="50" fill="#ff5e7a">─</text><text x="423" y="50" fill="#ff5e7a">─</text><text x="432" y="50" fill="#ff5e7a">─</text><text x="441" y="50" fill="#ff5e7a">─</text><text x="450" y="50" fill="#ff5e7a">─</text><text x="459" y="50" fill="#ff5e7a">─</text><text x="468" y="50" fill="#ff5e7a">─</text><text x="477" y="50" fill="#ff5e7a">─</text><text x="486" y="50" fill="#ff5e7a">─</text><text x="495" y="50" fill="#ff5e7a">─</text><text x="504" y="50" fill="#ff5e7a">─</text><text x="513" y="50" fill="#ff5e7a">─</text><text x="522" y="50" fill="#ff5e7a">─</text><text x="531" y="50" fill="#ff5e7a">─</text><text x="540" y="50" fill="#ff5e7a">─</text><text x="549" y="50" fill="#ff5e7a">─</text><text x="558" y="50" fill="#ff5e7a">─</text><text x="567" y="50" fill="#ff5e7a">─</text><text x="576" y="50" fill="#ff5e7a">─</text><text x="585" y="50" fill="#ff5e7a">─</text><text x="594" y="50" fill="#ff5e7a">─</text><text x="603" y="50" fill="#ff5e7a">─</text><text x="612" y="50" fill="#ff5e7a">─</text><text x="621" y="50" fill="#ff5e7a">─</text><text x="630" y="50" fill="#ff5e7a">─</text><text x="639" y="50" fill="#ff5e7a">┐</text><rect x="657" y="36" width="9" height="18" fill="#1c1c1c"/><rect x="0" y="54" width="9" height="18" fill="#1c1c1c"/><text x="18" y="68" fill="#ff5e7a">│</text><text x="639" y="68" fill="#ff5e7a">│</text><rect x="657" y="54" width="9" height="18" fill="#1c1c1c"/><rect x="0" y="72" width="9" height="18" fill="#1c1c1c"/><text x="18" y="86" fill="#ff5e7a">│</text><text x="27" y="86" fill="#ffffff">D</text><text x="36" y="86" fill="#ffffff">e</text><text x="45" y="86" fill="#ffffff">r</text><text x="54" y="86" fill="#ffffff">i</text><text x="63" y="86" fill="#ffffff">v</text><text x="72" y="86" fill="#ffffff">e</text><text x="81" y="86" fill="#ffffff">d</text><text x="99" y="86" fill="#ffffff">i</text><text x="108" y="86" fill="#ffffff">m</text><text x="117" y="86" fill="#ffffff">a</text><text x="126" y="86" fill="#ffffff">g</text><text x="135" y="86" fill="#ffffff">e</text><text x="153" y="86" fill="#ffffff">b</text><text x="162" y="86" fill="#ffffff">u</text><text x="171" y="86" fill="#ffffff">i</text><text x="180" y="86" fill="#ffffff">l</text><text x="189" y="86" fill="#ffffff">d</text><text x="207" y="86" fill="#ffffff">f</text><text x="216" y="86" fill="#ffffff">a</text><text x="225" y="86" fill="#ffffff">i</text><text x="234" y="86" fill="#ffffff">l</text><text x="243" y="86" fill="#ffffff">e</text><text x="252" y="86" fill="#ffffff">d</text><text x="261" y="86" fill="#ffffff">.</text><text x="639" y="86" fill="#ff5e7a">│</text><rect x="657" y="72" width="9" height="18" fill="#1c1c1c"/><rect x="0" y="90" width="9" height="18" fill="#1c1c1c"/><text x="18" y="104" fill="#ff5e7a">│</text><text x="45" y="104" fill="#008c1e">R</text><text x="54" y="104" fill="#008c1e">u</text><text x="63" y="104" fill="#008c1e">n</text><text x="81" y="104" fill="#008c1e">I</text><text x="90" y="104" fill="#008c1e">D</text><text x="99" y="104" fill="#005012">:</text><text x="117" y="104" fill="#ffffff">j</text><text x="126" y="104" fill="#ffffff">k</text><text x="135" y="104" fill="#ffffff">-</text><text x="144" y="104" fill="#ffffff">r</text><text x="153" y="104" fill="#ffffff">u</text><text x="162" y="104" fill="#ffffff">n</text><text x="171" y="104" fill="#ffffff">-</text><text x="180" y="104" fill="#ffffff">3</text><text x="189" y="104" fill="#ffffff">d</text><text x="198" y="104" fill="#ffffff">7</text><text x="207" y="104" fill="#ffffff">e</text><text x="216" y="104" fill="#ffffff">2</text><text x="225" y="104" fill="#ffffff">3</text><text x="639" y="104" fill="#ff5e7a">│</text><rect x="657" y="90" width="9" height="18" fill="#1c1c1c"/><rect x="0" y="108" width="9" height="18" fill="#1c1c1c"/><text x="18" y="122" fill="#ff5e7a">│</text><text x="45" y="122" fill="#008c1e">D</text><text x="54" y="122" fill="#008c1e">i</text><text x="63" y="122" fill="#008c1e">a</text><text x="72" y="122" fill="#008c1e">g</text><text x="81" y="122" fill="#008c1e">n</text><text x="90" y="122" fill="#008c1e">o</text><text x="99" y="122" fill="#008c1e">s</text><text x="108" y="122" fill="#008c1e">t</text><text x="117" y="122" fill="#008c1e">i</text><text x="126" y="122" fill="#008c1e">c</text><text x="135" y="122" fill="#008c1e">s</text><text x="144" y="122" fill="#005012">:</text><text x="162" y="122" fill="#ffffff">/</text><text x="171" y="122" fill="#ffffff">t</text><text x="180" y="122" fill="#ffffff">m</text><text x="189" y="122" fill="#ffffff">p</text><text x="198" y="122" fill="#ffffff">/</text><text x="207" y="122" fill="#ffffff">j</text><text x="216" y="122" fill="#ffffff">a</text><text x="225" y="122" fill="#ffffff">c</text><text x="234" y="122" fill="#ffffff">k</text><text x="243" y="122" fill="#ffffff">i</text><text x="252" y="122" fill="#ffffff">n</text><text x="261" y="122" fill="#ffffff">/</text><text x="270" y="122" fill="#ffffff">j</text><text x="279" y="122" fill="#ffffff">k</text><text x="288" y="122" fill="#ffffff">-</text><text x="297" y="122" fill="#ffffff">r</text><text x="306" y="122" fill="#ffffff">u</text><text x="315" y="122" fill="#ffffff">n</text><text x="324" y="122" fill="#ffffff">-</text><text x="333" y="122" fill="#ffffff">3</text><text x="342" y="122" fill="#ffffff">d</text><text x="351" y="122" fill="#ffffff">7</text><text x="360" y="122" fill="#ffffff">e</text><text x="369" y="122" fill="#ffffff">2</text><text x="378" y="122" fill="#ffffff">3</text><text x="387" y="122" fill="#ffffff">.</text><text x="396" y="122" fill="#ffffff">j</text><text x="405" y="122" fill="#ffffff">s</text><text x="414" y="122" fill="#ffffff">o</text><text x="423" y="122" fill="#ffffff">n</text><text x="432" y="122" fill="#ffffff">l</text><text x="639" y="122" fill="#ff5e7a">│</text><rect x="657" y="108" width="9" height="18" fill="#1c1c1c"/><rect x="0" y="126" width="9" height="18" fill="#1c1c1c"/><text x="18" y="140" fill="#ff5e7a">│</text><text x="639" y="140" fill="#ff5e7a">│</text><rect x="657" y="126" width="9" height="18" fill="#1c1c1c"/><rect x="0" y="144" width="9" height="18" fill="#1c1c1c"/><text x="18" y="158" fill="#ff5e7a">│</text><rect x="306" y="144" width="9" height="18" fill="#ffffff"/><rect x="315" y="144" width="9" height="18" fill="#ffffff"/><rect x="324" y="144" width="9" height="18" fill="#ffffff"/><text x="324" y="158" fill="#000000">O</text><rect x="333" y="144" width="9" height="18" fill="#ffffff"/><text x="333" y="158" fill="#000000">K</text><rect x="342" y="144" width="9" height="18" fill="#ffffff"/><rect x="351" y="144" width="9" height="18" fill="#ffffff"/><text x="639" y="158" fill="#ff5e7a">│</text><rect x="657" y="144" width="9" height="18" fill="#1c1c1c"/><rect x="0" y="162" width="9" height="18" fill="#1c1c1c"/><text x="18" y="176" fill="#ff5e7a">│</text><text x="639" y="176" fill="#ff5e7a">│</text><rect x="657" y="162" width="9" height="18" fill="#1c1c1c"/><rect x="0" y="180" width="9" height="18" fill="#1c1c1c"/><text x="18" y="194" fill="#ff5e7a">└</text><text x="27" y="194" fill="#ff5e7a">─</text><text x="36" y="194" fill="#ff5e7a">─</text><text x="45" y="194" fill="#ff5e7a">─</text><text x="54" y="194" fill="#ff5e7a">─</text><text x="63" y="194" fill="#ff5e7a">─</text><text x="72" y="194" fill="#ff5e7a">─</text><text x="81" y="194" fill="#ff5e7a">─</text><text x="90" y="194" fill="#ff5e7a">─</text><text x="99" y="194" fill="#ff5e7a">─</text><text x="108" y="194" fill="#ff5e7a">─</text><text x="117" y="194" fill="#ff5e7a">─</text><text x="126" y="194" fill="#ff5e7a">─</text><text x="135" y="194" fill="#ff5e7a">─</text><text x="144" y="194" fill="#ff5e7a">─</text><text x="153" y="194" fill="#ff5e7a">─</text><text x="162" y="194" fill="#ff5e7a">─</text><text x="171" y="194" fill="#ff5e7a">─</text><text x="180" y="194" fill="#ff5e7a">─</text><text x="189" y="194" fill="#ff5e7a">─</text><text x="198" y="194" fill="#ff5e7a">─</text><text x="207" y="194" fill="#ff5e7a">─</text><text x="216" y="194" fill="#ff5e7a">─</text><text x="225" y="194" fill="#ff5e7a">─</text><text x="234" y="194" fill="#ff5e7a">─</text><text x="243" y="194" fill="#ff5e7a">─</text><text x="252" y="194" fill="#ff5e7a">─</text><text x="261" y="194" fill="#ff5e7a">─</text><text x="270" y="194" fill="#ff5e7a">─</text><text x="279" y="194" fill="#ff5e7a">─</text><text x="288" y="194" fill="#ff5e7a">─</text><text x="297" y="194" fill="#ff5e7a">─</text><text x="306" y="194" fill="#ff5e7a">─</text><text x="315" y="194" fill="#ff5e7a">─</text><text x="324" y="194" fill="#ff5e7a">─</text><text x="333" y="194" fill="#ff5e7a">─</text><text x="342" y="194" fill="#ff5e7a">─</text><text x="351" y="194" fill="#ff5e7a">─</text><text x="360" y="194" fill="#ff5e7a">─</text><text x="369" y="194" fill="#ff5e7a">─</text><text x="378" y="194" fill="#ff5e7a">─</text><text x="387" y="194" fill="#ff5e7a">─</text><text x="396" y="194" fill="#ff5e7a">─</text><text x="405" y="194" fill="#ff5e7a">─</text><text x="414" y="194" fill="#ff5e7a">─</text><text x="423" y="194" fill="#ff5e7a">─</text><text x="432" y="194" fill="#ff5e7a">─</text><text x="441" y="194" fill="#ff5e7a">─</text><text x="450" y="194" fill="#ff5e7a">─</text><text x="459" y="194" fill="#ff5e7a">─</text><text x="468" y="194" fill="#ff5e7a">─</text><text x="477" y="194" fill="#ff5e7a">─</text><text x="486" y="194" fill="#ff5e7a">─</text><text x="495" y="194" fill="#ff5e7a">─</text><text x="504" y="194" fill="#ff5e7a">─</text><text x="513" y="194" fill="#ff5e7a">─</text><text x="522" y="194" fill="#ff5e7a">─</text><text x="531" y="194" fill="#ff5e7a">─</text><text x="540" y="194" fill="#ff5e7a">─</text><text x="549" y="194" fill="#ff5e7a">─</text><text x="558" y="194" fill="#ff5e7a">─</text><text x="567" y="194" fill="#ff5e7a">─</text><text x="576" y="194" fill="#ff5e7a">─</text><text x="585" y="194" fill="#ff5e7a">─</text><text x="594" y="194" fill="#ff5e7a">─</text><text x="603" y="194" fill="#ff5e7a">─</text><text x="612" y="194" fill="#ff5e7a">─</text><text x="621" y="194" fill="#ff5e7a">─</text><text x="630" y="194" fill="#ff5e7a">─</text><text x="639" y="194" fill="#ff5e7a">┘</text><rect x="657" y="180" width="9" height="18" fill="#1c1c1c"/><rect x="0" y="198" width="9" height="18" fill="#1c1c1c"/><rect x="657" y="198" width="9" height="18" fill="#1c1c1c"/><rect x="0" y="216" width="9" height="18" fill="#1c1c1c"/><rect x="9" y="216" width="9" height="18" fill="#1c1c1c"/><rect x="18" y="216" width="9" height="18" fill="#1c1c1c"/><rect x="27" y="216" width="9" height="18" fill="#1c1c1c"/><rect x="36" y="216" width="9" height="18" fill="#1c1c1c"/><rect x="45" y="216" width="9" height="18" fill="#1c1c1c"/><rect x="54" y="216" width="9" height="18" fill="#1c1c1c"/><rect x="63" y="216" width="9" height="18" fill="#1c1c1c"/><rect x="72" y="216" width="9" height="18" fill="#1c1c1c"/><rect x="81" y="216" width="9" height="18" fill="#1c1c1c"/><rect x="90" y="216" width="9" height="18" fill="#1c1c1c"/><rect x="99" y="216" width="9" height="18" fill="#1c1c1c"/><rect x="108" y="216" width="9" height="18" fill="#1c1c1c"/><rect x="117" y="216" width="9" height="18" fill="#1c1c1c"/><rect x="126" y="216" width="9" height="18" fill="#1c1c1c"/><rect x="135" y="216" width="9" height="18" fill="#1c1c1c"/><rect x="144" y="216" width="9" height="18" fill="#1c1c1c"/><rect x="153" y="216" width="9" height="18" fill="#1c1c1c"/><rect x="162" y="216" width="9" height="18" fill="#1c1c1c"/><rect x="171" y="216" width="9" height="18" fill="#1c1c1c"/><rect x="180" y="216" width="9" height="18" fill="#1c1c1c"/><rect x="189" y="216" width="9" height="18" fill="#1c1c1c"/><rect x="198" y="216" width="9" height="18" fill="#1c1c1c"/><rect x="207" y="216" width="9" height="18" fill="#1c1c1c"/><rect x="216" y="216" width="9" height="18" fill="#1c1c1c"/><rect x="225" y="216" width="9" height="18" fill="#1c1c1c"/><rect x="234" y="216" width="9" height="18" fill="#1c1c1c"/><rect x="243" y="216" width="9" height="18" fill="#1c1c1c"/><rect x="252" y="216" width="9" height="18" fill="#1c1c1c"/><rect x="261" y="216" width="9" height="18" fill="#1c1c1c"/><rect x="270" y="216" width="9" height="18" fill="#1c1c1c"/><rect x="279" y="216" width="9" height="18" fill="#1c1c1c"/><rect x="288" y="216" width="9" height="18" fill="#1c1c1c"/><rect x="297" y="216" width="9" height="18" fill="#1c1c1c"/><rect x="306" y="216" width="9" height="18" fill="#1c1c1c"/><rect x="315" y="216" width="9" height="18" fill="#1c1c1c"/><rect x="324" y="216" width="9" height="18" fill="#1c1c1c"/><rect x="333" y="216" width="9" height="18" fill="#1c1c1c"/><rect x="342" y="216" width="9" height="18" fill="#1c1c1c"/><rect x="351" y="216" width="9" height="18" fill="#1c1c1c"/><rect x="360" y="216" width="9" height="18" fill="#1c1c1c"/><rect x="369" y="216" width="9" height="18" fill="#1c1c1c"/><rect x="378" y="216" width="9" height="18" fill="#1c1c1c"/><rect x="387" y="216" width="9" height="18" fill="#1c1c1c"/><rect x="396" y="216" width="9" height="18" fill="#1c1c1c"/><rect x="405" y="216" width="9" height="18" fill="#1c1c1c"/><rect x="414" y="216" width="9" height="18" fill="#1c1c1c"/><rect x="423" y="216" width="9" height="18" fill="#1c1c1c"/><rect x="432" y="216" width="9" height="18" fill="#1c1c1c"/><rect x="441" y="216" width="9" height="18" fill="#1c1c1c"/><rect x="450" y="216" width="9" height="18" fill="#1c1c1c"/><rect x="459" y="216" width="9" height="18" fill="#1c1c1c"/><rect x="468" y="216" width="9" height="18" fill="#1c1c1c"/><rect x="477" y="216" width="9" height="18" fill="#1c1c1c"/><rect x="486" y="216" width="9" height="18" fill="#1c1c1c"/><rect x="495" y="216" width="9" height="18" fill="#1c1c1c"/><rect x="504" y="216" width="9" height="18" fill="#1c1c1c"/><rect x="513" y="216" width="9" height="18" fill="#1c1c1c"/><rect x="522" y="216" width="9" height="18" fill="#1c1c1c"/><rect x="531" y="216" width="9" height="18" fill="#1c1c1c"/><rect x="540" y="216" width="9" height="18" fill="#1c1c1c"/><rect x="549" y="216" width="9" height="18" fill="#1c1c1c"/><rect x="558" y="216" width="9" height="18" fill="#1c1c1c"/><rect x="567" y="216" width="9" height="18" fill="#1c1c1c"/><rect x="576" y="216" width="9" height="18" fill="#1c1c1c"/><rect x="585" y="216" width="9" height="18" fill="#1c1c1c"/><rect x="594" y="216" width="9" height="18" fill="#1c1c1c"/><rect x="603" y="216" width="9" height="18" fill="#1c1c1c"/><rect x="612" y="216" width="9" height="18" fill="#1c1c1c"/><rect x="621" y="216" width="9" height="18" fill="#1c1c1c"/><rect x="630" y="216" width="9" height="18" fill="#1c1c1c"/><rect x="639" y="216" width="9" height="18" fill="#1c1c1c"/><rect x="648" y="216" width="9" height="18" fill="#1c1c1c"/><rect x="657" y="216" width="9" height="18" fill="#1c1c1c"/></g></svg>
