<svg xmlns="http://www.w3.org/2000/svg" width="504" height="144" viewBox="0 0 504 144" role="img" aria-label="Panel unfocused" style="background:#000000"><rect width="100%" height="100%" fill="#000000"/><g font-family="ui-monospace, SFMono-Regular, Menlo, Consolas, monospace" font-size="14"><rect x="0" y="0" width="9" height="18" fill="#1c1c1c"/><rect x="9" y="0" width="9" height="18" fill="#1c1c1c"/><rect x="18" y="0" width="9" height="18" fill="#1c1c1c"/><rect x="27" y="0" width="9" height="18" fill="#1c1c1c"/><rect x="36" y="0" width="9" height="18" fill="#1c1c1c"/><rect x="45" y="0" width="9" height="18" fill="#1c1c1c"/><rect x="54" y="0" width="9" height="18" fill="#1c1c1c"/><rect x="63" y="0" width="9" height="18" fill="#1c1c1c"/><rect x="72" y="0" width="9" height="18" fill="#1c1c1c"/><rect x="81" y="0" width="9" height="18" fill="#1c1c1c"/><rect x="90" y="0" width="9" height="18" fill="#1c1c1c"/><rect x="99" y="0" width="9" height="18" fill="#1c1c1c"/><rect x="108" y="0" width="9" height="18" fill="#1c1c1c"/><rect x="117" y="0" width="9" height="18" fill="#1c1c1c"/><rect x="126" y="0" width="9" height="18" fill="#1c1c1c"/><rect x="135" y="0" width="9" height="18" fill="#1c1c1c"/><rect x="144" y="0" width="9" height="18" fill="#1c1c1c"/><rect x="153" y="0" width="9" height="18" fill="#1c1c1c"/><rect x="162" y="0" width="9" height="18" fill="#1c1c1c"/><rect x="171" y="0" width="9" height="18" fill="#1c1c1c"/><rect x="180" y="0" width="9" height="18" fill="#1c1c1c"/><rect x="189" y="0" width="9" height="18" fill="#1c1c1c"/><rect x="198" y="0" width="9" height="18" fill="#1c1c1c"/><rect x="207" y="0" width="9" height="18" fill="#1c1c1c"/><rect x="216" y="0" width="9" height="18" fill="#1c1c1c"/><rect x="225" y="0" width="9" height="18" fill="#1c1c1c"/><rect x="234" y="0" width="9" height="18" fill="#1c1c1c"/><rect x="243" y="0" width="9" height="18" fill="#1c1c1c"/><rect x="252" y="0" width="9" height="18" fill="#1c1c1c"/><rect x="261" y="0" width="9" height="18" fill="#1c1c1c"/><rect x="270" y="0" width="9" height="18" fill="#1c1c1c"/><rect x="279" y="0" width="9" height="18" fill="#1c1c1c"/><rect x="288" y="0" width="9" height="18" fill="#1c1c1c"/><rect x="297" y="0" width="9" height="18" fill="#1c1c1c"/><rect x="306" y="0" width="9" height="18" fill="#1c1c1c"/><rect x="315" y="0" width="9" height="18" fill="#1c1c1c"/><rect x="324" y="0" width="9" height="18" fill="#1c1c1c"/><rect x="333" y="0" width="9" height="18" fill="#1c1c1c"/><rect x="342" y="0" width="9" height="18" fill="#1c1c1c"/><rect x="351" y="0" width="9" height="18" fill="#1c1c1c"/><rect x="360" y="0" width="9" height="18" fill="#1c1c1c"/><rect x="369" y="0" width="9" height="18" fill="#1c1c1c"/><rect x="378" y="0" width="9" height="18" fill="#1c1c1c"/><rect x="387" y="0" width="9" height="18" fill="#1c1c1c"/><rect x="396" y="0" width="9" height="18" fill="#1c1c1c"/><rect x="405" y="0" width="9" height="18" fill="#1c1c1c"/><rect x="414" y="0" width="9" height="18" fill="#1c1c1c"/><rect x="423" y="0" width="9" height="18" fill="#1c1c1c"/><rect x="432" y="0" width="9" height="18" fill="#1c1c1c"/><rect x="441" y="0" width="9" height="18" fill="#1c1c1c"/><rect x="450" y="0" width="9" height="18" fill="#1c1c1c"/><rect x="459" y="0" width="9" height="18" fill="#1c1c1c"/><rect x="468" y="0" width="9" height="18" fill="#1c1c1c"/><rect x="477" y="0" width="9" height="18" fill="#1c1c1c"/><rect x="486" y="0" width="9" height="18" fill="#1c1c1c"/><rect x="495" y="0" width="9" height="18" fill="#1c1c1c"/><rect x="0" y="18" width="9" height="18" fill="#1c1c1c"/><text x="9" y="32" fill="#005012">┌</text><text x="27" y="32" fill="#ffffff">S</text><text x="36" y="32" fill="#ffffff">e</text><text x="45" y="32" fill="#ffffff">t</text><text x="54" y="32" fill="#ffffff">t</text><text x="63" y="32" fill="#ffffff">i</text><text x="72" y="32" fill="#ffffff">n</text><text x="81" y="32" fill="#ffffff">g</text><text x="90" y="32" fill="#ffffff">s</text><text x="108" y="32" fill="#005012">─</text><text x="117" y="32" fill="#005012">─</text><text x="126" y="32" fill="#005012">─</text><text x="135" y="32" fill="#005012">─</text><text x="144" y="32" fill="#005012">─</text><text x="153" y="32" fill="#005012">─</text><text x="162" y="32" fill="#005012">─</text><text x="171" y="32" fill="#005012">─</text><text x="180" y="32" fill="#005012">─</text><text x="189" y="32" fill="#005012">─</text><text x="198" y="32" fill="#005012">─</text><text x="207" y="32" fill="#005012">─</text><text x="216" y="32" fill="#005012">─</text><text x="225" y="32" fill="#005012">─</text><text x="234" y="32" fill="#005012">─</text><text x="243" y="32" fill="#005012">─</text><text x="252" y="32" fill="#005012">─</text><text x="261" y="32" fill="#005012">─</text><text x="270" y="32" fill="#005012">─</text><text x="279" y="32" fill="#005012">─</text><text x="288" y="32" fill="#005012">─</text><text x="297" y="32" fill="#005012">─</text><text x="306" y="32" fill="#005012">─</text><text x="315" y="32" fill="#005012">─</text><text x="324" y="32" fill="#005012">─</text><text x="333" y="32" fill="#005012">─</text><text x="342" y="32" fill="#005012">─</text><text x="351" y="32" fill="#005012">─</text><text x="360" y="32" fill="#005012">─</text><text x="369" y="32" fill="#005012">─</text><text x="378" y="32" fill="#005012">─</text><text x="387" y="32" fill="#005012">─</text><text x="396" y="32" fill="#005012">─</text><text x="405" y="32" fill="#005012">─</text><text x="414" y="32" fill="#005012">─</text><text x="423" y="32" fill="#005012">─</text><text x="432" y="32" fill="#005012">─</text><text x="441" y="32" fill="#005012">─</text><text x="450" y="32" fill="#005012">─</text><text x="459" y="32" fill="#005012">─</text><text x="468" y="32" fill="#005012">─</text><text x="477" y="32" fill="#005012">─</text><text x="486" y="32" fill="#005012">┐</text><rect x="495" y="18" width="9" height="18" fill="#1c1c1c"/><rect x="0" y="36" width="9" height="18" fill="#1c1c1c"/><text x="9" y="50" fill="#005012">│</text><text x="27" y="50" fill="#008c1e">C</text><text x="36" y="50" fill="#008c1e">o</text><text x="45" y="50" fill="#008c1e">-</text><text x="54" y="50" fill="#008c1e">a</text><text x="63" y="50" fill="#008c1e">u</text><text x="72" y="50" fill="#008c1e">t</text><text x="81" y="50" fill="#008c1e">h</text><text x="90" y="50" fill="#008c1e">o</text><text x="99" y="50" fill="#008c1e">r</text><text x="117" y="50" fill="#008c1e">t</text><text x="126" y="50" fill="#008c1e">r</text><text x="135" y="50" fill="#008c1e">a</text><text x="144" y="50" fill="#008c1e">i</text><text x="153" y="50" fill="#008c1e">l</text><text x="162" y="50" fill="#008c1e">e</text><text x="171" y="50" fill="#008c1e">r</text><text x="198" y="50" fill="#008c1e">e</text><text x="207" y="50" fill="#008c1e">n</text><text x="216" y="50" fill="#008c1e">a</text><text x="225" y="50" fill="#008c1e">b</text><text x="234" y="50" fill="#008c1e">l</text><text x="243" y="50" fill="#008c1e">e</text><text x="252" y="50" fill="#008c1e">d</text><text x="486" y="50" fill="#005012">│</text><rect x="495" y="36" width="9" height="18" fill="#1c1c1c"/><rect x="0" y="54" width="9" height="18" fill="#1c1c1c"/><text x="9" y="68" fill="#005012">│</text><text x="486" y="68" fill="#005012">│</text><rect x="495" y="54" width="9" height="18" fill="#1c1c1c"/><rect x="0" y="72" width="9" height="18" fill="#1c1c1c"/><text x="9" y="86" fill="#005012">│</text><text x="486" y="86" fill="#005012">│</text><rect x="495" y="72" width="9" height="18" fill="#1c1c1c"/><rect x="0" y="90" width="9" height="18" fill="#1c1c1c"/><text x="9" y="104" fill="#005012">│</text><text x="486" y="104" fill="#005012">│</text><rect x="495" y="90" width="9" height="18" fill="#1c1c1c"/><rect x="0" y="108" width="9" height="18" fill="#1c1c1c"/><text x="9" y="122" fill="#005012">└</text><text x="18" y="122" fill="#005012">─</text><text x="27" y="122" fill="#005012">─</text><text x="36" y="122" fill="#005012">─</text><text x="45" y="122" fill="#005012">─</text><text x="54" y="122" fill="#005012">─</text><text x="63" y="122" fill="#005012">─</text><text x="72" y="122" fill="#005012">─</text><text x="81" y="122" fill="#005012">─</text><text x="90" y="122" fill="#005012">─</text><text x="99" y="122" fill="#005012">─</text><text x="108" y="122" fill="#005012">─</text><text x="117" y="122" fill="#005012">─</text><text x="126" y="122" fill="#005012">─</text><text x="135" y="122" fill="#005012">─</text><text x="144" y="122" fill="#005012">─</text><text x="153" y="122" fill="#005012">─</text><text x="162" y="122" fill="#005012">─</text><text x="171" y="122" fill="#005012">─</text><text x="180" y="122" fill="#005012">─</text><text x="189" y="122" fill="#005012">─</text><text x="198" y="122" fill="#005012">─</text><text x="207" y="122" fill="#005012">─</text><text x="216" y="122" fill="#005012">─</text><text x="225" y="122" fill="#005012">─</text><text x="234" y="122" fill="#005012">─</text><text x="243" y="122" fill="#005012">─</text><text x="252" y="122" fill="#005012">─</text><text x="261" y="122" fill="#005012">─</text><text x="270" y="122" fill="#005012">─</text><text x="279" y="122" fill="#005012">─</text><text x="288" y="122" fill="#005012">─</text><text x="297" y="122" fill="#005012">─</text><text x="306" y="122" fill="#005012">─</text><text x="315" y="122" fill="#005012">─</text><text x="324" y="122" fill="#005012">─</text><text x="333" y="122" fill="#005012">─</text><text x="342" y="122" fill="#005012">─</text><text x="351" y="122" fill="#005012">─</text><text x="360" y="122" fill="#005012">─</text><text x="369" y="122" fill="#005012">─</text><text x="378" y="122" fill="#005012">─</text><text x="387" y="122" fill="#005012">─</text><text x="396" y="122" fill="#005012">─</text><text x="405" y="122" fill="#005012">─</text><text x="414" y="122" fill="#005012">─</text><text x="423" y="122" fill="#005012">─</text><text x="432" y="122" fill="#005012">─</text><text x="441" y="122" fill="#005012">─</text><text x="450" y="122" fill="#005012">─</text><text x="459" y="122" fill="#005012">─</text><text x="468" y="122" fill="#005012">─</text><text x="477" y="122" fill="#005012">─</text><text x="486" y="122" fill="#005012">┘</text><rect x="495" y="108" width="9" height="18" fill="#1c1c1c"/><rect x="0" y="126" width="9" height="18" fill="#1c1c1c"/><rect x="9" y="126" width="9" height="18" fill="#1c1c1c"/><rect x="18" y="126" width="9" height="18" fill="#1c1c1c"/><rect x="27" y="126" width="9" height="18" fill="#1c1c1c"/><rect x="36" y="126" width="9" height="18" fill="#1c1c1c"/><rect x="45" y="126" width="9" height="18" fill="#1c1c1c"/><rect x="54" y="126" width="9" height="18" fill="#1c1c1c"/><rect x="63" y="126" width="9" height="18" fill="#1c1c1c"/><rect x="72" y="126" width="9" height="18" fill="#1c1c1c"/><rect x="81" y="126" width="9" height="18" fill="#1c1c1c"/><rect x="90" y="126" width="9" height="18" fill="#1c1c1c"/><rect x="99" y="126" width="9" height="18" fill="#1c1c1c"/><rect x="108" y="126" width="9" height="18" fill="#1c1c1c"/><rect x="117" y="126" width="9" height="18" fill="#1c1c1c"/><rect x="126" y="126" width="9" height="18" fill="#1c1c1c"/><rect x="135" y="126" width="9" height="18" fill="#1c1c1c"/><rect x="144" y="126" width="9" height="18" fill="#1c1c1c"/><rect x="153" y="126" width="9" height="18" fill="#1c1c1c"/><rect x="162" y="126" width="9" height="18" fill="#1c1c1c"/><rect x="171" y="126" width="9" height="18" fill="#1c1c1c"/><rect x="180" y="126" width="9" height="18" fill="#1c1c1c"/><rect x="189" y="126" width="9" height="18" fill="#1c1c1c"/><rect x="198" y="126" width="9" height="18" fill="#1c1c1c"/><rect x="207" y="126" width="9" height="18" fill="#1c1c1c"/><rect x="216" y="126" width="9" height="18" fill="#1c1c1c"/><rect x="225" y="126" width="9" height="18" fill="#1c1c1c"/><rect x="234" y="126" width="9" height="18" fill="#1c1c1c"/><rect x="243" y="126" width="9" height="18" fill="#1c1c1c"/><rect x="252" y="126" width="9" height="18" fill="#1c1c1c"/><rect x="261" y="126" width="9" height="18" fill="#1c1c1c"/><rect x="270" y="126" width="9" height="18" fill="#1c1c1c"/><rect x="279" y="126" width="9" height="18" fill="#1c1c1c"/><rect x="288" y="126" width="9" height="18" fill="#1c1c1c"/><rect x="297" y="126" width="9" height="18" fill="#1c1c1c"/><rect x="306" y="126" width="9" height="18" fill="#1c1c1c"/><rect x="315" y="126" width="9" height="18" fill="#1c1c1c"/><rect x="324" y="126" width="9" height="18" fill="#1c1c1c"/><rect x="333" y="126" width="9" height="18" fill="#1c1c1c"/><rect x="342" y="126" width="9" height="18" fill="#1c1c1c"/><rect x="351" y="126" width="9" height="18" fill="#1c1c1c"/><rect x="360" y="126" width="9" height="18" fill="#1c1c1c"/><rect x="369" y="126" width="9" height="18" fill="#1c1c1c"/><rect x="378" y="126" width="9" height="18" fill="#1c1c1c"/><rect x="387" y="126" width="9" height="18" fill="#1c1c1c"/><rect x="396" y="126" width="9" height="18" fill="#1c1c1c"/><rect x="405" y="126" width="9" height="18" fill="#1c1c1c"/><rect x="414" y="126" width="9" height="18" fill="#1c1c1c"/><rect x="423" y="126" width="9" height="18" fill="#1c1c1c"/><rect x="432" y="126" width="9" height="18" fill="#1c1c1c"/><rect x="441" y="126" width="9" height="18" fill="#1c1c1c"/><rect x="450" y="126" width="9" height="18" fill="#1c1c1c"/><rect x="459" y="126" width="9" height="18" fill="#1c1c1c"/><rect x="468" y="126" width="9" height="18" fill="#1c1c1c"/><rect x="477" y="126" width="9" height="18" fill="#1c1c1c"/><rect x="486" y="126" width="9" height="18" fill="#1c1c1c"/><rect x="495" y="126" width="9" height="18" fill="#1c1c1c"/></g></svg>
