<svg xmlns="http://www.w3.org/2000/svg" width="594" height="198" viewBox="0 0 594 198" role="img" aria-label="Scrollable panel" style="background:#000000"><rect width="100%" height="100%" fill="#000000"/><g font-family="ui-monospace, SFMono-Regular, Menlo, Consolas, monospace" font-size="14"><rect x="0" y="0" width="9" height="18" fill="#1c1c1c"/><rect x="9" y="0" width="9" height="18" fill="#1c1c1c"/><rect x="18" y="0" width="9" height="18" fill="#1c1c1c"/><rect x="27" y="0" width="9" height="18" fill="#1c1c1c"/><rect x="36" y="0" width="9" height="18" fill="#1c1c1c"/><rect x="45" y="0" width="9" height="18" fill="#1c1c1c"/><rect x="54" y="0" width="9" height="18" fill="#1c1c1c"/><rect x="63" y="0" width="9" height="18" fill="#1c1c1c"/><rect x="72" y="0" width="9" height="18" fill="#1c1c1c"/><rect x="81" y="0" width="9" height="18" fill="#1c1c1c"/><rect x="90" y="0" width="9" height="18" fill="#1c1c1c"/><rect x="99" y="0" width="9" height="18" fill="#1c1c1c"/><rect x="108" y="0" width="9" height="18" fill="#1c1c1c"/><rect x="117" y="0" width="9" height="18" fill="#1c1c1c"/><rect x="126" y="0" width="9" height="18" fill="#1c1c1c"/><rect x="135" y="0" width="9" height="18" fill="#1c1c1c"/><rect x="144" y="0" width="9" height="18" fill="#1c1c1c"/><rect x="153" y="0" width="9" height="18" fill="#1c1c1c"/><rect x="162" y="0" width="9" height="18" fill="#1c1c1c"/><rect x="171" y="0" width="9" height="18" fill="#1c1c1c"/><rect x="180" y="0" width="9" height="18" fill="#1c1c1c"/><rect x="189" y="0" width="9" height="18" fill="#1c1c1c"/><rect x="198" y="0" width="9" height="18" fill="#1c1c1c"/><rect x="207" y="0" width="9" height="18" fill="#1c1c1c"/><rect x="216" y="0" width="9" height="18" fill="#1c1c1c"/><rect x="225" y="0" width="9" height="18" fill="#1c1c1c"/><rect x="234" y="0" width="9" height="18" fill="#1c1c1c"/><rect x="243" y="0" width="9" height="18" fill="#1c1c1c"/><rect x="252" y="0" width="9" height="18" fill="#1c1c1c"/><rect x="261" y="0" width="9" height="18" fill="#1c1c1c"/><rect x="270" y="0" width="9" height="18" fill="#1c1c1c"/><rect x="279" y="0" width="9" height="18" fill="#1c1c1c"/><rect x="288" y="0" width="9" height="18" fill="#1c1c1c"/><rect x="297" y="0" width="9" height="18" fill="#1c1c1c"/><rect x="306" y="0" width="9" height="18" fill="#1c1c1c"/><rect x="315" y="0" width="9" height="18" fill="#1c1c1c"/><rect x="324" y="0" width="9" height="18" fill="#1c1c1c"/><rect x="333" y="0" width="9" height="18" fill="#1c1c1c"/><rect x="342" y="0" width="9" height="18" fill="#1c1c1c"/><rect x="351" y="0" width="9" height="18" fill="#1c1c1c"/><rect x="360" y="0" width="9" height="18" fill="#1c1c1c"/><rect x="369" y="0" width="9" height="18" fill="#1c1c1c"/><rect x="378" y="0" width="9" height="18" fill="#1c1c1c"/><rect x="387" y="0" width="9" height="18" fill="#1c1c1c"/><rect x="396" y="0" width="9" height="18" fill="#1c1c1c"/><rect x="405" y="0" width="9" height="18" fill="#1c1c1c"/><rect x="414" y="0" width="9" height="18" fill="#1c1c1c"/><rect x="423" y="0" width="9" height="18" fill="#1c1c1c"/><rect x="432" y="0" width="9" height="18" fill="#1c1c1c"/><rect x="441" y="0" width="9" height="18" fill="#1c1c1c"/><rect x="450" y="0" width="9" height="18" fill="#1c1c1c"/><rect x="459" y="0" width="9" height="18" fill="#1c1c1c"/><rect x="468" y="0" width="9" height="18" fill="#1c1c1c"/><rect x="477" y="0" width="9" height="18" fill="#1c1c1c"/><rect x="486" y="0" width="9" height="18" fill="#1c1c1c"/><rect x="495" y="0" width="9" height="18" fill="#1c1c1c"/><rect x="504" y="0" width="9" height="18" fill="#1c1c1c"/><rect x="513" y="0" width="9" height="18" fill="#1c1c1c"/><rect x="522" y="0" width="9" height="18" fill="#1c1c1c"/><rect x="531" y="0" width="9" height="18" fill="#1c1c1c"/><rect x="540" y="0" width="9" height="18" fill="#1c1c1c"/><rect x="549" y="0" width="9" height="18" fill="#1c1c1c"/><rect x="558" y="0" width="9" height="18" fill="#1c1c1c"/><rect x="567" y="0" width="9" height="18" fill="#1c1c1c"/><rect x="576" y="0" width="9" height="18" fill="#1c1c1c"/><rect x="585" y="0" width="9" height="18" fill="#1c1c1c"/><rect x="0" y="18" width="9" height="18" fill="#1c1c1c"/><text x="9" y="32" fill="#00ff41">┌</text><text x="27" y="32" fill="#ffffff">G</text><text x="36" y="32" fill="#ffffff">l</text><text x="45" y="32" fill="#ffffff">o</text><text x="54" y="32" fill="#ffffff">b</text><text x="63" y="32" fill="#ffffff">a</text><text x="72" y="32" fill="#ffffff">l</text><text x="90" y="32" fill="#ffffff">m</text><text x="99" y="32" fill="#ffffff">o</text><text x="108" y="32" fill="#ffffff">u</text><text x="117" y="32" fill="#ffffff">n</text><text x="126" y="32" fill="#ffffff">t</text><text x="135" y="32" fill="#ffffff">s</text><text x="153" y="32" fill="#00ff41">─</text><text x="162" y="32" fill="#00ff41">─</text><text x="171" y="32" fill="#00ff41">─</text><text x="180" y="32" fill="#00ff41">─</text><text x="189" y="32" fill="#00ff41">─</text><text x="198" y="32" fill="#00ff41">─</text><text x="207" y="32" fill="#00ff41">─</text><text x="216" y="32" fill="#00ff41">─</text><text x="225" y="32" fill="#00ff41">─</text><text x="234" y="32" fill="#00ff41">─</text><text x="243" y="32" fill="#00ff41">─</text><text x="252" y="32" fill="#00ff41">─</text><text x="261" y="32" fill="#00ff41">─</text><text x="270" y="32" fill="#00ff41">─</text><text x="279" y="32" fill="#00ff41">─</text><text x="288" y="32" fill="#00ff41">─</text><text x="297" y="32" fill="#00ff41">─</text><text x="306" y="32" fill="#00ff41">─</text><text x="315" y="32" fill="#00ff41">─</text><text x="324" y="32" fill="#00ff41">─</text><text x="333" y="32" fill="#00ff41">─</text><text x="342" y="32" fill="#00ff41">─</text><text x="351" y="32" fill="#00ff41">─</text><text x="360" y="32" fill="#00ff41">─</text><text x="369" y="32" fill="#00ff41">─</text><text x="378" y="32" fill="#00ff41">─</text><text x="387" y="32" fill="#00ff41">─</text><text x="396" y="32" fill="#00ff41">─</text><text x="405" y="32" fill="#00ff41">─</text><text x="414" y="32" fill="#00ff41">─</text><text x="423" y="32" fill="#00ff41">─</text><text x="432" y="32" fill="#00ff41">─</text><text x="441" y="32" fill="#00ff41">─</text><text x="450" y="32" fill="#00ff41">─</text><text x="459" y="32" fill="#00ff41">─</text><text x="468" y="32" fill="#00ff41">─</text><text x="477" y="32" fill="#00ff41">─</text><text x="486" y="32" fill="#00ff41">─</text><text x="495" y="32" fill="#00ff41">─</text><text x="504" y="32" fill="#00ff41">─</text><text x="513" y="32" fill="#00ff41">─</text><text x="522" y="32" fill="#00ff41">─</text><text x="531" y="32" fill="#00ff41">─</text><text x="540" y="32" fill="#00ff41">─</text><text x="549" y="32" fill="#00ff41">─</text><text x="558" y="32" fill="#00ff41">─</text><text x="567" y="32" fill="#00ff41">─</text><text x="576" y="32" fill="#00ff41">┐</text><rect x="585" y="18" width="9" height="18" fill="#1c1c1c"/><rect x="0" y="36" width="9" height="18" fill="#1c1c1c"/><text x="9" y="50" fill="#00ff41">│</text><text x="18" y="50" fill="#00ff41">r</text><text x="27" y="50" fill="#00ff41">e</text><text x="36" y="50" fill="#00ff41">p</text><text x="45" y="50" fill="#00ff41">o</text><text x="189" y="50" fill="#00ff41">/</text><text x="198" y="50" fill="#00ff41">w</text><text x="207" y="50" fill="#00ff41">o</text><text x="216" y="50" fill="#00ff41">r</text><text x="225" y="50" fill="#00ff41">k</text><text x="234" y="50" fill="#00ff41">s</text><text x="243" y="50" fill="#00ff41">p</text><text x="252" y="50" fill="#00ff41">a</text><text x="261" y="50" fill="#00ff41">c</text><text x="270" y="50" fill="#00ff41">e</text><text x="279" y="50" fill="#00ff41">/</text><text x="288" y="50" fill="#00ff41">j</text><text x="297" y="50" fill="#00ff41">a</text><text x="306" y="50" fill="#00ff41">c</text><text x="315" y="50" fill="#00ff41">k</text><text x="324" y="50" fill="#00ff41">i</text><text x="333" y="50" fill="#00ff41">n</text><text x="342" y="50" fill="#00ff41">-</text><text x="351" y="50" fill="#00ff41">p</text><text x="360" y="50" fill="#00ff41">r</text><text x="369" y="50" fill="#00ff41">o</text><text x="378" y="50" fill="#00ff41">j</text><text x="387" y="50" fill="#00ff41">e</text><text x="396" y="50" fill="#00ff41">c</text><text x="405" y="50" fill="#00ff41">t</text><text x="414" y="50" fill="#00ff41">/</text><text x="423" y="50" fill="#00ff41">j</text><text x="432" y="50" fill="#00ff41">a</text><text x="441" y="50" fill="#00ff41">c</text><text x="450" y="50" fill="#00ff41">k</text><text x="459" y="50" fill="#00ff41">i</text><text x="468" y="50" fill="#00ff41">n</text><text x="576" y="50" fill="#00ff41">┃</text><rect x="585" y="36" width="9" height="18" fill="#1c1c1c"/><rect x="0" y="54" width="9" height="18" fill="#1c1c1c"/><text x="9" y="68" fill="#00ff41">│</text><text x="18" y="68" fill="#00ff41">g</text><text x="27" y="68" fill="#00ff41">i</text><text x="36" y="68" fill="#00ff41">t</text><text x="45" y="68" fill="#00ff41">h</text><text x="54" y="68" fill="#00ff41">u</text><text x="63" y="68" fill="#00ff41">b</text><text x="72" y="68" fill="#00ff41">-</text><text x="81" y="68" fill="#00ff41">c</text><text x="90" y="68" fill="#00ff41">l</text><text x="99" y="68" fill="#00ff41">i</text><text x="189" y="68" fill="#00ff41">/</text><text x="198" y="68" fill="#00ff41">j</text><text x="207" y="68" fill="#00ff41">a</text><text x="216" y="68" fill="#00ff41">c</text><text x="225" y="68" fill="#00ff41">k</text><text x="234" y="68" fill="#00ff41">i</text><text x="243" y="68" fill="#00ff41">n</text><text x="252" y="68" fill="#00ff41">/</text><text x="261" y="68" fill="#00ff41">h</text><text x="270" y="68" fill="#00ff41">o</text><text x="279" y="68" fill="#00ff41">s</text><text x="288" y="68" fill="#00ff41">t</text><text x="297" y="68" fill="#00ff41">/</text><text x="306" y="68" fill="#00ff41">c</text><text x="315" y="68" fill="#00ff41">o</text><text x="324" y="68" fill="#00ff41">n</text><text x="333" y="68" fill="#00ff41">f</text><text x="342" y="68" fill="#00ff41">i</text><text x="351" y="68" fill="#00ff41">g</text><text x="360" y="68" fill="#00ff41">/</text><text x="369" y="68" fill="#00ff41">g</text><text x="378" y="68" fill="#00ff41">h</text><text x="576" y="68" fill="#00ff41">┃</text><rect x="585" y="54" width="9" height="18" fill="#1c1c1c"/><rect x="0" y="72" width="9" height="18" fill="#1c1c1c"/><text x="9" y="86" fill="#00ff41">│</text><text x="18" y="86" fill="#00ff41">c</text><text x="27" y="86" fill="#00ff41">o</text><text x="36" y="86" fill="#00ff41">d</text><text x="45" y="86" fill="#00ff41">e</text><text x="54" y="86" fill="#00ff41">x</text><text x="189" y="86" fill="#00ff41">/</text><text x="198" y="86" fill="#00ff41">j</text><text x="207" y="86" fill="#00ff41">a</text><text x="216" y="86" fill="#00ff41">c</text><text x="225" y="86" fill="#00ff41">k</text><text x="234" y="86" fill="#00ff41">i</text><text x="243" y="86" fill="#00ff41">n</text><text x="252" y="86" fill="#00ff41">/</text><text x="261" y="86" fill="#00ff41">c</text><text x="270" y="86" fill="#00ff41">o</text><text x="279" y="86" fill="#00ff41">d</text><text x="288" y="86" fill="#00ff41">e</text><text x="297" y="86" fill="#00ff41">x</text><text x="576" y="86" fill="#00ff41">┃</text><rect x="585" y="72" width="9" height="18" fill="#1c1c1c"/><rect x="0" y="90" width="9" height="18" fill="#1c1c1c"/><text x="9" y="104" fill="#00ff41">│</text><text x="18" y="104" fill="#00ff41">c</text><text x="27" y="104" fill="#00ff41">l</text><text x="36" y="104" fill="#00ff41">a</text><text x="45" y="104" fill="#00ff41">u</text><text x="54" y="104" fill="#00ff41">d</text><text x="63" y="104" fill="#00ff41">e</text><text x="189" y="104" fill="#00ff41">/</text><text x="198" y="104" fill="#00ff41">j</text><text x="207" y="104" fill="#00ff41">a</text><text x="216" y="104" fill="#00ff41">c</text><text x="225" y="104" fill="#00ff41">k</text><text x="234" y="104" fill="#00ff41">i</text><text x="243" y="104" fill="#00ff41">n</text><text x="252" y="104" fill="#00ff41">/</text><text x="261" y="104" fill="#00ff41">c</text><text x="270" y="104" fill="#00ff41">l</text><text x="279" y="104" fill="#00ff41">a</text><text x="288" y="104" fill="#00ff41">u</text><text x="297" y="104" fill="#00ff41">d</text><text x="306" y="104" fill="#00ff41">e</text><text x="576" y="104" fill="#00ff41">┃</text><rect x="585" y="90" width="9" height="18" fill="#1c1c1c"/><rect x="0" y="108" width="9" height="18" fill="#1c1c1c"/><text x="9" y="122" fill="#00ff41">│</text><text x="18" y="122" fill="#00ff41">c</text><text x="27" y="122" fill="#00ff41">a</text><text x="36" y="122" fill="#00ff41">c</text><text x="45" y="122" fill="#00ff41">h</text><text x="54" y="122" fill="#00ff41">e</text><text x="189" y="122" fill="#00ff41">/</text><text x="198" y="122" fill="#00ff41">j</text><text x="207" y="122" fill="#00ff41">a</text><text x="216" y="122" fill="#00ff41">c</text><text x="225" y="122" fill="#00ff41">k</text><text x="234" y="122" fill="#00ff41">i</text><text x="243" y="122" fill="#00ff41">n</text><text x="252" y="122" fill="#00ff41">/</text><text x="261" y="122" fill="#00ff41">h</text><text x="270" y="122" fill="#00ff41">o</text><text x="279" y="122" fill="#00ff41">s</text><text x="288" y="122" fill="#00ff41">t</text><text x="297" y="122" fill="#00ff41">/</text><text x="306" y="122" fill="#00ff41">c</text><text x="315" y="122" fill="#00ff41">a</text><text x="324" y="122" fill="#00ff41">c</text><text x="333" y="122" fill="#00ff41">h</text><text x="342" y="122" fill="#00ff41">e</text><text x="351" y="122" fill="#00ff41">/</text><text x="360" y="122" fill="#00ff41">c</text><text x="369" y="122" fill="#00ff41">a</text><text x="378" y="122" fill="#00ff41">r</text><text x="387" y="122" fill="#00ff41">g</text><text x="396" y="122" fill="#00ff41">o</text><text x="576" y="122" fill="#00ff41">┃</text><rect x="585" y="108" width="9" height="18" fill="#1c1c1c"/><rect x="0" y="126" width="9" height="18" fill="#1c1c1c"/><text x="9" y="140" fill="#00ff41">│</text><text x="18" y="140" fill="#00ff41">s</text><text x="27" y="140" fill="#00ff41">o</text><text x="36" y="140" fill="#00ff41">c</text><text x="45" y="140" fill="#00ff41">k</text><text x="54" y="140" fill="#00ff41">e</text><text x="63" y="140" fill="#00ff41">t</text><text x="189" y="140" fill="#00ff41">/</text><text x="198" y="140" fill="#00ff41">j</text><text x="207" y="140" fill="#00ff41">a</text><text x="216" y="140" fill="#00ff41">c</text><text x="225" y="140" fill="#00ff41">k</text><text x="234" y="140" fill="#00ff41">i</text><text x="243" y="140" fill="#00ff41">n</text><text x="252" y="140" fill="#00ff41">/</text><text x="261" y="140" fill="#00ff41">r</text><text x="270" y="140" fill="#00ff41">u</text><text x="279" y="140" fill="#00ff41">n</text><text x="288" y="140" fill="#00ff41">/</text><text x="297" y="140" fill="#00ff41">j</text><text x="306" y="140" fill="#00ff41">a</text><text x="315" y="140" fill="#00ff41">c</text><text x="324" y="140" fill="#00ff41">k</text><text x="333" y="140" fill="#00ff41">i</text><text x="342" y="140" fill="#00ff41">n</text><text x="351" y="140" fill="#00ff41">.</text><text x="360" y="140" fill="#00ff41">s</text><text x="369" y="140" fill="#00ff41">o</text><text x="378" y="140" fill="#00ff41">c</text><text x="387" y="140" fill="#00ff41">k</text><text x="576" y="140" fill="#005012">·</text><rect x="585" y="126" width="9" height="18" fill="#1c1c1c"/><rect x="0" y="144" width="9" height="18" fill="#1c1c1c"/><text x="9" y="158" fill="#00ff41">│</text><text x="18" y="158" fill="#00ff41">r</text><text x="27" y="158" fill="#00ff41">o</text><text x="36" y="158" fill="#00ff41">l</text><text x="45" y="158" fill="#00ff41">e</text><text x="54" y="158" fill="#00ff41">-</text><text x="63" y="158" fill="#00ff41">m</text><text x="72" y="158" fill="#00ff41">a</text><text x="81" y="158" fill="#00ff41">n</text><text x="90" y="158" fill="#00ff41">i</text><text x="99" y="158" fill="#00ff41">f</text><text x="108" y="158" fill="#00ff41">e</text><text x="117" y="158" fill="#00ff41">s</text><text x="126" y="158" fill="#00ff41">t</text><text x="189" y="158" fill="#00ff41">/</text><text x="198" y="158" fill="#00ff41">w</text><text x="207" y="158" fill="#00ff41">o</text><text x="216" y="158" fill="#00ff41">r</text><text x="225" y="158" fill="#00ff41">k</text><text x="234" y="158" fill="#00ff41">s</text><text x="243" y="158" fill="#00ff41">p</text><text x="252" y="158" fill="#00ff41">a</text><text x="261" y="158" fill="#00ff41">c</text><text x="270" y="158" fill="#00ff41">e</text><text x="279" y="158" fill="#00ff41">/</text><text x="288" y="158" fill="#00ff41">j</text><text x="297" y="158" fill="#00ff41">a</text><text x="306" y="158" fill="#00ff41">c</text><text x="315" y="158" fill="#00ff41">k</text><text x="324" y="158" fill="#00ff41">i</text><text x="333" y="158" fill="#00ff41">n</text><text x="342" y="158" fill="#00ff41">.</text><text x="351" y="158" fill="#00ff41">r</text><text x="360" y="158" fill="#00ff41">o</text><text x="369" y="158" fill="#00ff41">l</text><text x="378" y="158" fill="#00ff41">e</text><text x="387" y="158" fill="#00ff41">.</text><text x="396" y="158" fill="#00ff41">t</text><text x="405" y="158" fill="#00ff41">o</text><text x="414" y="158" fill="#00ff41">m</text><text x="423" y="158" fill="#00ff41">l</text><text x="576" y="158" fill="#005012">·</text><rect x="585" y="144" width="9" height="18" fill="#1c1c1c"/><rect x="0" y="162" width="9" height="18" fill="#1c1c1c"/><text x="9" y="176" fill="#00ff41">└</text><text x="18" y="176" fill="#00ff41">━</text><text x="27" y="176" fill="#00ff41">━</text><text x="36" y="176" fill="#00ff41">━</text><text x="45" y="176" fill="#00ff41">━</text><text x="54" y="176" fill="#00ff41">━</text><text x="63" y="176" fill="#00ff41">━</text><text x="72" y="176" fill="#00ff41">━</text><text x="81" y="176" fill="#00ff41">━</text><text x="90" y="176" fill="#00ff41">━</text><text x="99" y="176" fill="#00ff41">━</text><text x="108" y="176" fill="#00ff41">━</text><text x="117" y="176" fill="#00ff41">━</text><text x="126" y="176" fill="#00ff41">━</text><text x="135" y="176" fill="#00ff41">━</text><text x="144" y="176" fill="#00ff41">━</text><text x="153" y="176" fill="#00ff41">━</text><text x="162" y="176" fill="#00ff41">━</text><text x="171" y="176" fill="#00ff41">━</text><text x="180" y="176" fill="#00ff41">━</text><text x="189" y="176" fill="#00ff41">━</text><text x="198" y="176" fill="#00ff41">━</text><text x="207" y="176" fill="#00ff41">━</text><text x="216" y="176" fill="#00ff41">━</text><text x="225" y="176" fill="#00ff41">━</text><text x="234" y="176" fill="#00ff41">━</text><text x="243" y="176" fill="#00ff41">━</text><text x="252" y="176" fill="#00ff41">━</text><text x="261" y="176" fill="#00ff41">━</text><text x="270" y="176" fill="#00ff41">━</text><text x="279" y="176" fill="#00ff41">━</text><text x="288" y="176" fill="#00ff41">━</text><text x="297" y="176" fill="#00ff41">━</text><text x="306" y="176" fill="#00ff41">━</text><text x="315" y="176" fill="#00ff41">━</text><text x="324" y="176" fill="#00ff41">━</text><text x="333" y="176" fill="#00ff41">━</text><text x="342" y="176" fill="#00ff41">━</text><text x="351" y="176" fill="#00ff41">━</text><text x="360" y="176" fill="#00ff41">━</text><text x="369" y="176" fill="#00ff41">━</text><text x="378" y="176" fill="#00ff41">━</text><text x="387" y="176" fill="#00ff41">━</text><text x="396" y="176" fill="#00ff41">━</text><text x="405" y="176" fill="#00ff41">━</text><text x="414" y="176" fill="#00ff41">━</text><text x="423" y="176" fill="#00ff41">━</text><text x="432" y="176" fill="#00ff41">━</text><text x="441" y="176" fill="#00ff41">━</text><text x="450" y="176" fill="#00ff41">━</text><text x="459" y="176" fill="#00ff41">━</text><text x="468" y="176" fill="#00ff41">━</text><text x="477" y="176" fill="#005012">·</text><text x="486" y="176" fill="#005012">·</text><text x="495" y="176" fill="#005012">·</text><text x="504" y="176" fill="#005012">·</text><text x="513" y="176" fill="#005012">·</text><text x="522" y="176" fill="#005012">·</text><text x="531" y="176" fill="#005012">·</text><text x="540" y="176" fill="#005012">·</text><text x="549" y="176" fill="#005012">·</text><text x="558" y="176" fill="#005012">·</text><text x="567" y="176" fill="#005012">·</text><text x="576" y="176" fill="#00ff41">┘</text><rect x="585" y="162" width="9" height="18" fill="#1c1c1c"/><rect x="0" y="180" width="9" height="18" fill="#1c1c1c"/><rect x="9" y="180" width="9" height="18" fill="#1c1c1c"/><rect x="18" y="180" width="9" height="18" fill="#1c1c1c"/><rect x="27" y="180" width="9" height="18" fill="#1c1c1c"/><rect x="36" y="180" width="9" height="18" fill="#1c1c1c"/><rect x="45" y="180" width="9" height="18" fill="#1c1c1c"/><rect x="54" y="180" width="9" height="18" fill="#1c1c1c"/><rect x="63" y="180" width="9" height="18" fill="#1c1c1c"/><rect x="72" y="180" width="9" height="18" fill="#1c1c1c"/><rect x="81" y="180" width="9" height="18" fill="#1c1c1c"/><rect x="90" y="180" width="9" height="18" fill="#1c1c1c"/><rect x="99" y="180" width="9" height="18" fill="#1c1c1c"/><rect x="108" y="180" width="9" height="18" fill="#1c1c1c"/><rect x="117" y="180" width="9" height="18" fill="#1c1c1c"/><rect x="126" y="180" width="9" height="18" fill="#1c1c1c"/><rect x="135" y="180" width="9" height="18" fill="#1c1c1c"/><rect x="144" y="180" width="9" height="18" fill="#1c1c1c"/><rect x="153" y="180" width="9" height="18" fill="#1c1c1c"/><rect x="162" y="180" width="9" height="18" fill="#1c1c1c"/><rect x="171" y="180" width="9" height="18" fill="#1c1c1c"/><rect x="180" y="180" width="9" height="18" fill="#1c1c1c"/><rect x="189" y="180" width="9" height="18" fill="#1c1c1c"/><rect x="198" y="180" width="9" height="18" fill="#1c1c1c"/><rect x="207" y="180" width="9" height="18" fill="#1c1c1c"/><rect x="216" y="180" width="9" height="18" fill="#1c1c1c"/><rect x="225" y="180" width="9" height="18" fill="#1c1c1c"/><rect x="234" y="180" width="9" height="18" fill="#1c1c1c"/><rect x="243" y="180" width="9" height="18" fill="#1c1c1c"/><rect x="252" y="180" width="9" height="18" fill="#1c1c1c"/><rect x="261" y="180" width="9" height="18" fill="#1c1c1c"/><rect x="270" y="180" width="9" height="18" fill="#1c1c1c"/><rect x="279" y="180" width="9" height="18" fill="#1c1c1c"/><rect x="288" y="180" width="9" height="18" fill="#1c1c1c"/><rect x="297" y="180" width="9" height="18" fill="#1c1c1c"/><rect x="306" y="180" width="9" height="18" fill="#1c1c1c"/><rect x="315" y="180" width="9" height="18" fill="#1c1c1c"/><rect x="324" y="180" width="9" height="18" fill="#1c1c1c"/><rect x="333" y="180" width="9" height="18" fill="#1c1c1c"/><rect x="342" y="180" width="9" height="18" fill="#1c1c1c"/><rect x="351" y="180" width="9" height="18" fill="#1c1c1c"/><rect x="360" y="180" width="9" height="18" fill="#1c1c1c"/><rect x="369" y="180" width="9" height="18" fill="#1c1c1c"/><rect x="378" y="180" width="9" height="18" fill="#1c1c1c"/><rect x="387" y="180" width="9" height="18" fill="#1c1c1c"/><rect x="396" y="180" width="9" height="18" fill="#1c1c1c"/><rect x="405" y="180" width="9" height="18" fill="#1c1c1c"/><rect x="414" y="180" width="9" height="18" fill="#1c1c1c"/><rect x="423" y="180" width="9" height="18" fill="#1c1c1c"/><rect x="432" y="180" width="9" height="18" fill="#1c1c1c"/><rect x="441" y="180" width="9" height="18" fill="#1c1c1c"/><rect x="450" y="180" width="9" height="18" fill="#1c1c1c"/><rect x="459" y="180" width="9" height="18" fill="#1c1c1c"/><rect x="468" y="180" width="9" height="18" fill="#1c1c1c"/><rect x="477" y="180" width="9" height="18" fill="#1c1c1c"/><rect x="486" y="180" width="9" height="18" fill="#1c1c1c"/><rect x="495" y="180" width="9" height="18" fill="#1c1c1c"/><rect x="504" y="180" width="9" height="18" fill="#1c1c1c"/><rect x="513" y="180" width="9" height="18" fill="#1c1c1c"/><rect x="522" y="180" width="9" height="18" fill="#1c1c1c"/><rect x="531" y="180" width="9" height="18" fill="#1c1c1c"/><rect x="540" y="180" width="9" height="18" fill="#1c1c1c"/><rect x="549" y="180" width="9" height="18" fill="#1c1c1c"/><rect x="558" y="180" width="9" height="18" fill="#1c1c1c"/><rect x="567" y="180" width="9" height="18" fill="#1c1c1c"/><rect x="576" y="180" width="9" height="18" fill="#1c1c1c"/><rect x="585" y="180" width="9" height="18" fill="#1c1c1c"/></g></svg>
