<svg xmlns="http://www.w3.org/2000/svg" width="666" height="54" viewBox="0 0 666 54" role="img" aria-label="Status footer" style="background:#000000"><rect width="100%" height="100%" fill="#000000"/><g font-family="ui-monospace, SFMono-Regular, Menlo, Consolas, monospace" font-size="14"><rect x="0" y="0" width="9" height="18" fill="#1c1c1c"/><rect x="9" y="0" width="9" height="18" fill="#1c1c1c"/><rect x="18" y="0" width="9" height="18" fill="#1c1c1c"/><rect x="27" y="0" width="9" height="18" fill="#1c1c1c"/><rect x="36" y="0" width="9" height="18" fill="#1c1c1c"/><rect x="45" y="0" width="9" height="18" fill="#1c1c1c"/><rect x="54" y="0" width="9" height="18" fill="#1c1c1c"/><rect x="63" y="0" width="9" height="18" fill="#1c1c1c"/><rect x="72" y="0" width="9" height="18" fill="#1c1c1c"/><rect x="81" y="0" width="9" height="18" fill="#1c1c1c"/><rect x="90" y="0" width="9" height="18" fill="#1c1c1c"/><rect x="99" y="0" width="9" height="18" fill="#1c1c1c"/><rect x="108" y="0" width="9" height="18" fill="#1c1c1c"/><rect x="117" y="0" width="9" height="18" fill="#1c1c1c"/><rect x="126" y="0" width="9" height="18" fill="#1c1c1c"/><rect x="135" y="0" width="9" height="18" fill="#1c1c1c"/><rect x="144" y="0" width="9" height="18" fill="#1c1c1c"/><rect x="153" y="0" width="9" height="18" fill="#1c1c1c"/><rect x="162" y="0" width="9" height="18" fill="#1c1c1c"/><rect x="171" y="0" width="9" height="18" fill="#1c1c1c"/><rect x="180" y="0" width="9" height="18" fill="#1c1c1c"/><rect x="189" y="0" width="9" height="18" fill="#1c1c1c"/><rect x="198" y="0" width="9" height="18" fill="#1c1c1c"/><rect x="207" y="0" width="9" height="18" fill="#1c1c1c"/><rect x="216" y="0" width="9" height="18" fill="#1c1c1c"/><rect x="225" y="0" width="9" height="18" fill="#1c1c1c"/><rect x="234" y="0" width="9" height="18" fill="#1c1c1c"/><rect x="243" y="0" width="9" height="18" fill="#1c1c1c"/><rect x="252" y="0" width="9" height="18" fill="#1c1c1c"/><rect x="261" y="0" width="9" height="18" fill="#1c1c1c"/><rect x="270" y="0" width="9" height="18" fill="#1c1c1c"/><rect x="279" y="0" width="9" height="18" fill="#1c1c1c"/><rect x="288" y="0" width="9" height="18" fill="#1c1c1c"/><rect x="297" y="0" width="9" height="18" fill="#1c1c1c"/><rect x="306" y="0" width="9" height="18" fill="#1c1c1c"/><rect x="315" y="0" width="9" height="18" fill="#1c1c1c"/><rect x="324" y="0" width="9" height="18" fill="#1c1c1c"/><rect x="333" y="0" width="9" height="18" fill="#1c1c1c"/><rect x="342" y="0" width="9" height="18" fill="#1c1c1c"/><rect x="351" y="0" width="9" height="18" fill="#1c1c1c"/><rect x="360" y="0" width="9" height="18" fill="#1c1c1c"/><rect x="369" y="0" width="9" height="18" fill="#1c1c1c"/><rect x="378" y="0" width="9" height="18" fill="#1c1c1c"/><rect x="387" y="0" width="9" height="18" fill="#1c1c1c"/><rect x="396" y="0" width="9" height="18" fill="#1c1c1c"/><rect x="405" y="0" width="9" height="18" fill="#1c1c1c"/><rect x="414" y="0" width="9" height="18" fill="#1c1c1c"/><rect x="423" y="0" width="9" height="18" fill="#1c1c1c"/><rect x="432" y="0" width="9" height="18" fill="#1c1c1c"/><rect x="441" y="0" width="9" height="18" fill="#1c1c1c"/><rect x="450" y="0" width="9" height="18" fill="#1c1c1c"/><rect x="459" y="0" width="9" height="18" fill="#1c1c1c"/><rect x="468" y="0" width="9" height="18" fill="#1c1c1c"/><rect x="477" y="0" width="9" height="18" fill="#1c1c1c"/><rect x="486" y="0" width="9" height="18" fill="#1c1c1c"/><rect x="495" y="0" width="9" height="18" fill="#1c1c1c"/><rect x="504" y="0" width="9" height="18" fill="#1c1c1c"/><rect x="513" y="0" width="9" height="18" fill="#1c1c1c"/><rect x="522" y="0" width="9" height="18" fill="#1c1c1c"/><rect x="531" y="0" width="9" height="18" fill="#1c1c1c"/><rect x="540" y="0" width="9" height="18" fill="#1c1c1c"/><rect x="549" y="0" width="9" height="18" fill="#1c1c1c"/><rect x="558" y="0" width="9" height="18" fill="#1c1c1c"/><rect x="567" y="0" width="9" height="18" fill="#1c1c1c"/><rect x="576" y="0" width="9" height="18" fill="#1c1c1c"/><rect x="585" y="0" width="9" height="18" fill="#1c1c1c"/><rect x="594" y="0" width="9" height="18" fill="#1c1c1c"/><rect x="603" y="0" width="9" height="18" fill="#1c1c1c"/><rect x="612" y="0" width="9" height="18" fill="#1c1c1c"/><rect x="621" y="0" width="9" height="18" fill="#1c1c1c"/><rect x="630" y="0" width="9" height="18" fill="#1c1c1c"/><rect x="639" y="0" width="9" height="18" fill="#1c1c1c"/><rect x="648" y="0" width="9" height="18" fill="#1c1c1c"/><rect x="657" y="0" width="9" height="18" fill="#1c1c1c"/><rect x="0" y="18" width="9" height="18" fill="#1c1c1c"/><rect x="9" y="18" width="9" height="18" fill="#ffffff"/><rect x="18" y="18" width="9" height="18" fill="#ffffff"/><text x="18" y="32" fill="#0050b4">B</text><rect x="27" y="18" width="9" height="18" fill="#ffffff"/><text x="27" y="32" fill="#0050b4">u</text><rect x="36" y="18" width="9" height="18" fill="#ffffff"/><text x="36" y="32" fill="#0050b4">i</text><rect x="45" y="18" width="9" height="18" fill="#ffffff"/><text x="45" y="32" fill="#0050b4">l</text><rect x="54" y="18" width="9" height="18" fill="#ffffff"/><text x="54" y="32" fill="#0050b4">d</text><rect x="63" y="18" width="9" height="18" fill="#ffffff"/><text x="63" y="32" fill="#0050b4">i</text><rect x="72" y="18" width="9" height="18" fill="#ffffff"/><text x="72" y="32" fill="#0050b4">n</text><rect x="81" y="18" width="9" height="18" fill="#ffffff"/><text x="81" y="32" fill="#0050b4">g</text><rect x="90" y="18" width="9" height="18" fill="#ffffff"/><rect x="99" y="18" width="9" height="18" fill="#ffffff"/><text x="99" y="32" fill="#0050b4">r</text><rect x="108" y="18" width="9" height="18" fill="#ffffff"/><text x="108" y="32" fill="#0050b4">o</text><rect x="117" y="18" width="9" height="18" fill="#ffffff"/><text x="117" y="32" fill="#0050b4">l</text><rect x="126" y="18" width="9" height="18" fill="#ffffff"/><text x="126" y="32" fill="#0050b4">e</text><rect x="135" y="18" width="9" height="18" fill="#ffffff"/><rect x="144" y="18" width="9" height="18" fill="#ffffff"/><text x="144" y="32" fill="#0050b4">i</text><rect x="153" y="18" width="9" height="18" fill="#ffffff"/><text x="153" y="32" fill="#0050b4">m</text><rect x="162" y="18" width="9" height="18" fill="#ffffff"/><text x="162" y="32" fill="#0050b4">a</text><rect x="171" y="18" width="9" height="18" fill="#ffffff"/><text x="171" y="32" fill="#0050b4">g</text><rect x="180" y="18" width="9" height="18" fill="#ffffff"/><text x="180" y="32" fill="#0050b4">e</text><rect x="189" y="18" width="9" height="18" fill="#ffffff"/><text x="189" y="32" fill="#0050b4">:</text><rect x="198" y="18" width="9" height="18" fill="#ffffff"/><rect x="207" y="18" width="9" height="18" fill="#ffffff"/><text x="207" y="32" fill="#0050b4">r</text><rect x="216" y="18" width="9" height="18" fill="#ffffff"/><text x="216" y="32" fill="#0050b4">u</text><rect x="225" y="18" width="9" height="18" fill="#ffffff"/><text x="225" y="32" fill="#0050b4">s</text><rect x="234" y="18" width="9" height="18" fill="#ffffff"/><text x="234" y="32" fill="#0050b4">t</text><rect x="243" y="18" width="9" height="18" fill="#ffffff"/><text x="243" y="32" fill="#0050b4">-</text><rect x="252" y="18" width="9" height="18" fill="#ffffff"/><text x="252" y="32" fill="#0050b4">d</text><rect x="261" y="18" width="9" height="18" fill="#ffffff"/><text x="261" y="32" fill="#0050b4">e</text><rect x="270" y="18" width="9" height="18" fill="#ffffff"/><text x="270" y="32" fill="#0050b4">v</text><rect x="279" y="18" width="9" height="18" fill="#ffffff"/><rect x="288" y="18" width="9" height="18" fill="#ffffff"/><rect x="297" y="18" width="9" height="18" fill="#ffffff"/><rect x="306" y="18" width="9" height="18" fill="#ffffff"/><rect x="315" y="18" width="9" height="18" fill="#ffffff"/><rect x="324" y="18" width="9" height="18" fill="#ffffff"/><rect x="333" y="18" width="9" height="18" fill="#ffffff"/><rect x="342" y="18" width="9" height="18" fill="#ffffff"/><rect x="351" y="18" width="9" height="18" fill="#ffffff"/><rect x="360" y="18" width="9" height="18" fill="#ffffff"/><rect x="369" y="18" width="9" height="18" fill="#ffffff"/><rect x="378" y="18" width="9" height="18" fill="#ffffff"/><rect x="387" y="18" width="9" height="18" fill="#ffffff"/><rect x="396" y="18" width="9" height="18" fill="#ffffff"/><rect x="405" y="18" width="9" height="18" fill="#ffffff"/><rect x="414" y="18" width="9" height="18" fill="#ffffff"/><rect x="423" y="18" width="9" height="18" fill="#ffffff"/><rect x="432" y="18" width="9" height="18" fill="#ffffff"/><rect x="441" y="18" width="9" height="18" fill="#ffffff"/><text x="441" y="32" fill="#0050b4">s</text><rect x="450" y="18" width="9" height="18" fill="#ffffff"/><text x="450" y="32" fill="#0050b4">7</text><rect x="459" y="18" width="9" height="18" fill="#ffffff"/><text x="459" y="32" fill="#0050b4">f</text><rect x="468" y="18" width="9" height="18" fill="#ffffff"/><text x="468" y="32" fill="#0050b4">8</text><rect x="477" y="18" width="9" height="18" fill="#ffffff"/><text x="477" y="32" fill="#0050b4">a</text><rect x="486" y="18" width="9" height="18" fill="#ffffff"/><text x="486" y="32" fill="#0050b4">2</text><rect x="495" y="18" width="9" height="18" fill="#ffffff"/><text x="495" y="32" fill="#0050b4">c</text><rect x="504" y="18" width="9" height="18" fill="#ffffff"/><text x="504" y="32" fill="#0050b4">1</text><rect x="513" y="18" width="9" height="18" fill="#ffffff"/><rect x="522" y="18" width="9" height="18" fill="#ff5e7a"/><rect x="531" y="18" width="9" height="18" fill="#ff5e7a"/><text x="531" y="32" fill="#ffffff">j</text><rect x="540" y="18" width="9" height="18" fill="#ff5e7a"/><text x="540" y="32" fill="#ffffff">k</text><rect x="549" y="18" width="9" height="18" fill="#ff5e7a"/><text x="549" y="32" fill="#ffffff">-</text><rect x="558" y="18" width="9" height="18" fill="#ff5e7a"/><text x="558" y="32" fill="#ffffff">r</text><rect x="567" y="18" width="9" height="18" fill="#ff5e7a"/><text x="567" y="32" fill="#ffffff">u</text><rect x="576" y="18" width="9" height="18" fill="#ff5e7a"/><text x="576" y="32" fill="#ffffff">n</text><rect x="585" y="18" width="9" height="18" fill="#ff5e7a"/><text x="585" y="32" fill="#ffffff">-</text><rect x="594" y="18" width="9" height="18" fill="#ff5e7a"/><text x="594" y="32" fill="#ffffff">3</text><rect x="603" y="18" width="9" height="18" fill="#ff5e7a"/><text x="603" y="32" fill="#ffffff">d</text><rect x="612" y="18" width="9" height="18" fill="#ff5e7a"/><text x="612" y="32" fill="#ffffff">7</text><rect x="621" y="18" width="9" height="18" fill="#ff5e7a"/><text x="621" y="32" fill="#ffffff">e</text><rect x="630" y="18" width="9" height="18" fill="#ff5e7a"/><text x="630" y="32" fill="#ffffff">2</text><rect x="639" y="18" width="9" height="18" fill="#ff5e7a"/><text x="639" y="32" fill="#ffffff">3</text><rect x="648" y="18" width="9" height="18" fill="#ff5e7a"/><rect x="657" y="18" width="9" height="18" fill="#1c1c1c"/><rect x="0" y="36" width="9" height="18" fill="#1c1c1c"/><rect x="9" y="36" width="9" height="18" fill="#1c1c1c"/><rect x="18" y="36" width="9" height="18" fill="#1c1c1c"/><rect x="27" y="36" width="9" height="18" fill="#1c1c1c"/><rect x="36" y="36" width="9" height="18" fill="#1c1c1c"/><rect x="45" y="36" width="9" height="18" fill="#1c1c1c"/><rect x="54" y="36" width="9" height="18" fill="#1c1c1c"/><rect x="63" y="36" width="9" height="18" fill="#1c1c1c"/><rect x="72" y="36" width="9" height="18" fill="#1c1c1c"/><rect x="81" y="36" width="9" height="18" fill="#1c1c1c"/><rect x="90" y="36" width="9" height="18" fill="#1c1c1c"/><rect x="99" y="36" width="9" height="18" fill="#1c1c1c"/><rect x="108" y="36" width="9" height="18" fill="#1c1c1c"/><rect x="117" y="36" width="9" height="18" fill="#1c1c1c"/><rect x="126" y="36" width="9" height="18" fill="#1c1c1c"/><rect x="135" y="36" width="9" height="18" fill="#1c1c1c"/><rect x="144" y="36" width="9" height="18" fill="#1c1c1c"/><rect x="153" y="36" width="9" height="18" fill="#1c1c1c"/><rect x="162" y="36" width="9" height="18" fill="#1c1c1c"/><rect x="171" y="36" width="9" height="18" fill="#1c1c1c"/><rect x="180" y="36" width="9" height="18" fill="#1c1c1c"/><rect x="189" y="36" width="9" height="18" fill="#1c1c1c"/><rect x="198" y="36" width="9" height="18" fill="#1c1c1c"/><rect x="207" y="36" width="9" height="18" fill="#1c1c1c"/><rect x="216" y="36" width="9" height="18" fill="#1c1c1c"/><rect x="225" y="36" width="9" height="18" fill="#1c1c1c"/><rect x="234" y="36" width="9" height="18" fill="#1c1c1c"/><rect x="243" y="36" width="9" height="18" fill="#1c1c1c"/><rect x="252" y="36" width="9" height="18" fill="#1c1c1c"/><rect x="261" y="36" width="9" height="18" fill="#1c1c1c"/><rect x="270" y="36" width="9" height="18" fill="#1c1c1c"/><rect x="279" y="36" width="9" height="18" fill="#1c1c1c"/><rect x="288" y="36" width="9" height="18" fill="#1c1c1c"/><rect x="297" y="36" width="9" height="18" fill="#1c1c1c"/><rect x="306" y="36" width="9" height="18" fill="#1c1c1c"/><rect x="315" y="36" width="9" height="18" fill="#1c1c1c"/><rect x="324" y="36" width="9" height="18" fill="#1c1c1c"/><rect x="333" y="36" width="9" height="18" fill="#1c1c1c"/><rect x="342" y="36" width="9" height="18" fill="#1c1c1c"/><rect x="351" y="36" width="9" height="18" fill="#1c1c1c"/><rect x="360" y="36" width="9" height="18" fill="#1c1c1c"/><rect x="369" y="36" width="9" height="18" fill="#1c1c1c"/><rect x="378" y="36" width="9" height="18" fill="#1c1c1c"/><rect x="387" y="36" width="9" height="18" fill="#1c1c1c"/><rect x="396" y="36" width="9" height="18" fill="#1c1c1c"/><rect x="405" y="36" width="9" height="18" fill="#1c1c1c"/><rect x="414" y="36" width="9" height="18" fill="#1c1c1c"/><rect x="423" y="36" width="9" height="18" fill="#1c1c1c"/><rect x="432" y="36" width="9" height="18" fill="#1c1c1c"/><rect x="441" y="36" width="9" height="18" fill="#1c1c1c"/><rect x="450" y="36" width="9" height="18" fill="#1c1c1c"/><rect x="459" y="36" width="9" height="18" fill="#1c1c1c"/><rect x="468" y="36" width="9" height="18" fill="#1c1c1c"/><rect x="477" y="36" width="9" height="18" fill="#1c1c1c"/><rect x="486" y="36" width="9" height="18" fill="#1c1c1c"/><rect x="495" y="36" width="9" height="18" fill="#1c1c1c"/><rect x="504" y="36" width="9" height="18" fill="#1c1c1c"/><rect x="513" y="36" width="9" height="18" fill="#1c1c1c"/><rect x="522" y="36" width="9" height="18" fill="#1c1c1c"/><rect x="531" y="36" width="9" height="18" fill="#1c1c1c"/><rect x="540" y="36" width="9" height="18" fill="#1c1c1c"/><rect x="549" y="36" width="9" height="18" fill="#1c1c1c"/><rect x="558" y="36" width="9" height="18" fill="#1c1c1c"/><rect x="567" y="36" width="9" height="18" fill="#1c1c1c"/><rect x="576" y="36" width="9" height="18" fill="#1c1c1c"/><rect x="585" y="36" width="9" height="18" fill="#1c1c1c"/><rect x="594" y="36" width="9" height="18" fill="#1c1c1c"/><rect x="603" y="36" width="9" height="18" fill="#1c1c1c"/><rect x="612" y="36" width="9" height="18" fill="#1c1c1c"/><rect x="621" y="36" width="9" height="18" fill="#1c1c1c"/><rect x="630" y="36" width="9" height="18" fill="#1c1c1c"/><rect x="639" y="36" width="9" height="18" fill="#1c1c1c"/><rect x="648" y="36" width="9" height="18" fill="#1c1c1c"/><rect x="657" y="36" width="9" height="18" fill="#1c1c1c"/></g></svg>
