<svg xmlns="http://www.w3.org/2000/svg" width="540" height="72" viewBox="0 0 540 72" role="img" aria-label="Tab strip" style="background:#000000"><rect width="100%" height="100%" fill="#000000"/><g font-family="ui-monospace, SFMono-Regular, Menlo, Consolas, monospace" font-size="14"><rect x="0" y="0" width="9" height="18" fill="#1c1c1c"/><rect x="9" y="0" width="9" height="18" fill="#1c1c1c"/><rect x="18" y="0" width="9" height="18" fill="#1c1c1c"/><rect x="27" y="0" width="9" height="18" fill="#1c1c1c"/><rect x="36" y="0" width="9" height="18" fill="#1c1c1c"/><rect x="45" y="0" width="9" height="18" fill="#1c1c1c"/><rect x="54" y="0" width="9" height="18" fill="#1c1c1c"/><rect x="63" y="0" width="9" height="18" fill="#1c1c1c"/><rect x="72" y="0" width="9" height="18" fill="#1c1c1c"/><rect x="81" y="0" width="9" height="18" fill="#1c1c1c"/><rect x="90" y="0" width="9" height="18" fill="#1c1c1c"/><rect x="99" y="0" width="9" height="18" fill="#1c1c1c"/><rect x="108" y="0" width="9" height="18" fill="#1c1c1c"/><rect x="117" y="0" width="9" height="18" fill="#1c1c1c"/><rect x="126" y="0" width="9" height="18" fill="#1c1c1c"/><rect x="135" y="0" width="9" height="18" fill="#1c1c1c"/><rect x="144" y="0" width="9" height="18" fill="#1c1c1c"/><rect x="153" y="0" width="9" height="18" fill="#1c1c1c"/><rect x="162" y="0" width="9" height="18" fill="#1c1c1c"/><rect x="171" y="0" width="9" height="18" fill="#1c1c1c"/><rect x="180" y="0" width="9" height="18" fill="#1c1c1c"/><rect x="189" y="0" width="9" height="18" fill="#1c1c1c"/><rect x="198" y="0" width="9" height="18" fill="#1c1c1c"/><rect x="207" y="0" width="9" height="18" fill="#1c1c1c"/><rect x="216" y="0" width="9" height="18" fill="#1c1c1c"/><rect x="225" y="0" width="9" height="18" fill="#1c1c1c"/><rect x="234" y="0" width="9" height="18" fill="#1c1c1c"/><rect x="243" y="0" width="9" height="18" fill="#1c1c1c"/><rect x="252" y="0" width="9" height="18" fill="#1c1c1c"/><rect x="261" y="0" width="9" height="18" fill="#1c1c1c"/><rect x="270" y="0" width="9" height="18" fill="#1c1c1c"/><rect x="279" y="0" width="9" height="18" fill="#1c1c1c"/><rect x="288" y="0" width="9" height="18" fill="#1c1c1c"/><rect x="297" y="0" width="9" height="18" fill="#1c1c1c"/><rect x="306" y="0" width="9" height="18" fill="#1c1c1c"/><rect x="315" y="0" width="9" height="18" fill="#1c1c1c"/><rect x="324" y="0" width="9" height="18" fill="#1c1c1c"/><rect x="333" y="0" width="9" height="18" fill="#1c1c1c"/><rect x="342" y="0" width="9" height="18" fill="#1c1c1c"/><rect x="351" y="0" width="9" height="18" fill="#1c1c1c"/><rect x="360" y="0" width="9" height="18" fill="#1c1c1c"/><rect x="369" y="0" width="9" height="18" fill="#1c1c1c"/><rect x="378" y="0" width="9" height="18" fill="#1c1c1c"/><rect x="387" y="0" width="9" height="18" fill="#1c1c1c"/><rect x="396" y="0" width="9" height="18" fill="#1c1c1c"/><rect x="405" y="0" width="9" height="18" fill="#1c1c1c"/><rect x="414" y="0" width="9" height="18" fill="#1c1c1c"/><rect x="423" y="0" width="9" height="18" fill="#1c1c1c"/><rect x="432" y="0" width="9" height="18" fill="#1c1c1c"/><rect x="441" y="0" width="9" height="18" fill="#1c1c1c"/><rect x="450" y="0" width="9" height="18" fill="#1c1c1c"/><rect x="459" y="0" width="9" height="18" fill="#1c1c1c"/><rect x="468" y="0" width="9" height="18" fill="#1c1c1c"/><rect x="477" y="0" width="9" height="18" fill="#1c1c1c"/><rect x="486" y="0" width="9" height="18" fill="#1c1c1c"/><rect x="495" y="0" width="9" height="18" fill="#1c1c1c"/><rect x="504" y="0" width="9" height="18" fill="#1c1c1c"/><rect x="513" y="0" width="9" height="18" fill="#1c1c1c"/><rect x="522" y="0" width="9" height="18" fill="#1c1c1c"/><rect x="531" y="0" width="9" height="18" fill="#1c1c1c"/><rect x="0" y="18" width="9" height="18" fill="#1c1c1c"/><rect x="9" y="18" width="9" height="18" fill="#ffffff"/><rect x="18" y="18" width="9" height="18" fill="#ffffff"/><text x="18" y="32" fill="#ffffff">G</text><rect x="27" y="18" width="9" height="18" fill="#ffffff"/><text x="27" y="32" fill="#ffffff">e</text><rect x="36" y="18" width="9" height="18" fill="#ffffff"/><text x="36" y="32" fill="#ffffff">n</text><rect x="45" y="18" width="9" height="18" fill="#ffffff"/><text x="45" y="32" fill="#ffffff">e</text><rect x="54" y="18" width="9" height="18" fill="#ffffff"/><text x="54" y="32" fill="#ffffff">r</text><rect x="63" y="18" width="9" height="18" fill="#ffffff"/><text x="63" y="32" fill="#ffffff">a</text><rect x="72" y="18" width="9" height="18" fill="#ffffff"/><text x="72" y="32" fill="#ffffff">l</text><rect x="81" y="18" width="9" height="18" fill="#ffffff"/><rect x="99" y="18" width="9" height="18" fill="#ffffff"/><rect x="108" y="18" width="9" height="18" fill="#ffffff"/><text x="108" y="32" fill="#ffffff">M</text><rect x="117" y="18" width="9" height="18" fill="#ffffff"/><text x="117" y="32" fill="#ffffff">o</text><rect x="126" y="18" width="9" height="18" fill="#ffffff"/><text x="126" y="32" fill="#ffffff">u</text><rect x="135" y="18" width="9" height="18" fill="#ffffff"/><text x="135" y="32" fill="#ffffff">n</text><rect x="144" y="18" width="9" height="18" fill="#ffffff"/><text x="144" y="32" fill="#ffffff">t</text><rect x="153" y="18" width="9" height="18" fill="#ffffff"/><text x="153" y="32" fill="#ffffff">s</text><rect x="162" y="18" width="9" height="18" fill="#ffffff"/><rect x="180" y="18" width="9" height="18" fill="#ffffff"/><rect x="189" y="18" width="9" height="18" fill="#ffffff"/><text x="189" y="32" fill="#ffffff">R</text><rect x="198" y="18" width="9" height="18" fill="#ffffff"/><text x="198" y="32" fill="#ffffff">o</text><rect x="207" y="18" width="9" height="18" fill="#ffffff"/><text x="207" y="32" fill="#ffffff">l</text><rect x="216" y="18" width="9" height="18" fill="#ffffff"/><text x="216" y="32" fill="#ffffff">e</text><rect x="225" y="18" width="9" height="18" fill="#ffffff"/><text x="225" y="32" fill="#ffffff">s</text><rect x="234" y="18" width="9" height="18" fill="#ffffff"/><rect x="252" y="18" width="9" height="18" fill="#ffffff"/><rect x="261" y="18" width="9" height="18" fill="#ffffff"/><text x="261" y="32" fill="#ffffff">S</text><rect x="270" y="18" width="9" height="18" fill="#ffffff"/><text x="270" y="32" fill="#ffffff">e</text><rect x="279" y="18" width="9" height="18" fill="#ffffff"/><text x="279" y="32" fill="#ffffff">c</text><rect x="288" y="18" width="9" height="18" fill="#ffffff"/><text x="288" y="32" fill="#ffffff">r</text><rect x="297" y="18" width="9" height="18" fill="#ffffff"/><text x="297" y="32" fill="#ffffff">e</text><rect x="306" y="18" width="9" height="18" fill="#ffffff"/><text x="306" y="32" fill="#ffffff">t</text><rect x="315" y="18" width="9" height="18" fill="#ffffff"/><text x="315" y="32" fill="#ffffff">s</text><rect x="324" y="18" width="9" height="18" fill="#ffffff"/><rect x="531" y="18" width="9" height="18" fill="#1c1c1c"/><rect x="0" y="36" width="9" height="18" fill="#1c1c1c"/><text x="9" y="50" fill="#00ff41">━</text><text x="18" y="50" fill="#00ff41">━</text><text x="27" y="50" fill="#00ff41">━</text><text x="36" y="50" fill="#00ff41">━</text><text x="45" y="50" fill="#00ff41">━</text><text x="54" y="50" fill="#00ff41">━</text><text x="63" y="50" fill="#00ff41">━</text><text x="72" y="50" fill="#00ff41">━</text><text x="81" y="50" fill="#00ff41">━</text><rect x="531" y="36" width="9" height="18" fill="#1c1c1c"/><rect x="0" y="54" width="9" height="18" fill="#1c1c1c"/><rect x="9" y="54" width="9" height="18" fill="#1c1c1c"/><rect x="18" y="54" width="9" height="18" fill="#1c1c1c"/><rect x="27" y="54" width="9" height="18" fill="#1c1c1c"/><rect x="36" y="54" width="9" height="18" fill="#1c1c1c"/><rect x="45" y="54" width="9" height="18" fill="#1c1c1c"/><rect x="54" y="54" width="9" height="18" fill="#1c1c1c"/><rect x="63" y="54" width="9" height="18" fill="#1c1c1c"/><rect x="72" y="54" width="9" height="18" fill="#1c1c1c"/><rect x="81" y="54" width="9" height="18" fill="#1c1c1c"/><rect x="90" y="54" width="9" height="18" fill="#1c1c1c"/><rect x="99" y="54" width="9" height="18" fill="#1c1c1c"/><rect x="108" y="54" width="9" height="18" fill="#1c1c1c"/><rect x="117" y="54" width="9" height="18" fill="#1c1c1c"/><rect x="126" y="54" width="9" height="18" fill="#1c1c1c"/><rect x="135" y="54" width="9" height="18" fill="#1c1c1c"/><rect x="144" y="54" width="9" height="18" fill="#1c1c1c"/><rect x="153" y="54" width="9" height="18" fill="#1c1c1c"/><rect x="162" y="54" width="9" height="18" fill="#1c1c1c"/><rect x="171" y="54" width="9" height="18" fill="#1c1c1c"/><rect x="180" y="54" width="9" height="18" fill="#1c1c1c"/><rect x="189" y="54" width="9" height="18" fill="#1c1c1c"/><rect x="198" y="54" width="9" height="18" fill="#1c1c1c"/><rect x="207" y="54" width="9" height="18" fill="#1c1c1c"/><rect x="216" y="54" width="9" height="18" fill="#1c1c1c"/><rect x="225" y="54" width="9" height="18" fill="#1c1c1c"/><rect x="234" y="54" width="9" height="18" fill="#1c1c1c"/><rect x="243" y="54" width="9" height="18" fill="#1c1c1c"/><rect x="252" y="54" width="9" height="18" fill="#1c1c1c"/><rect x="261" y="54" width="9" height="18" fill="#1c1c1c"/><rect x="270" y="54" width="9" height="18" fill="#1c1c1c"/><rect x="279" y="54" width="9" height="18" fill="#1c1c1c"/><rect x="288" y="54" width="9" height="18" fill="#1c1c1c"/><rect x="297" y="54" width="9" height="18" fill="#1c1c1c"/><rect x="306" y="54" width="9" height="18" fill="#1c1c1c"/><rect x="315" y="54" width="9" height="18" fill="#1c1c1c"/><rect x="324" y="54" width="9" height="18" fill="#1c1c1c"/><rect x="333" y="54" width="9" height="18" fill="#1c1c1c"/><rect x="342" y="54" width="9" height="18" fill="#1c1c1c"/><rect x="351" y="54" width="9" height="18" fill="#1c1c1c"/><rect x="360" y="54" width="9" height="18" fill="#1c1c1c"/><rect x="369" y="54" width="9" height="18" fill="#1c1c1c"/><rect x="378" y="54" width="9" height="18" fill="#1c1c1c"/><rect x="387" y="54" width="9" height="18" fill="#1c1c1c"/><rect x="396" y="54" width="9" height="18" fill="#1c1c1c"/><rect x="405" y="54" width="9" height="18" fill="#1c1c1c"/><rect x="414" y="54" width="9" height="18" fill="#1c1c1c"/><rect x="423" y="54" width="9" height="18" fill="#1c1c1c"/><rect x="432" y="54" width="9" height="18" fill="#1c1c1c"/><rect x="441" y="54" width="9" height="18" fill="#1c1c1c"/><rect x="450" y="54" width="9" height="18" fill="#1c1c1c"/><rect x="459" y="54" width="9" height="18" fill="#1c1c1c"/><rect x="468" y="54" width="9" height="18" fill="#1c1c1c"/><rect x="477" y="54" width="9" height="18" fill="#1c1c1c"/><rect x="486" y="54" width="9" height="18" fill="#1c1c1c"/><rect x="495" y="54" width="9" height="18" fill="#1c1c1c"/><rect x="504" y="54" width="9" height="18" fill="#1c1c1c"/><rect x="513" y="54" width="9" height="18" fill="#1c1c1c"/><rect x="522" y="54" width="9" height="18" fill="#1c1c1c"/><rect x="531" y="54" width="9" height="18" fill="#1c1c1c"/></g></svg>
