<svg xmlns="http://www.w3.org/2000/svg" width="504" height="180" viewBox="0 0 504 180" role="img" aria-label="Toast" style="background:#000000"><rect width="100%" height="100%" fill="#000000"/><g font-family="ui-monospace, SFMono-Regular, Menlo, Consolas, monospace" font-size="14"><rect x="0" y="0" width="9" height="18" fill="#1c1c1c"/><rect x="9" y="0" width="9" height="18" fill="#1c1c1c"/><rect x="18" y="0" width="9" height="18" fill="#1c1c1c"/><rect x="27" y="0" width="9" height="18" fill="#1c1c1c"/><rect x="36" y="0" width="9" height="18" fill="#1c1c1c"/><rect x="45" y="0" width="9" height="18" fill="#1c1c1c"/><rect x="54" y="0" width="9" height="18" fill="#1c1c1c"/><rect x="63" y="0" width="9" height="18" fill="#1c1c1c"/><rect x="72" y="0" width="9" height="18" fill="#1c1c1c"/><rect x="81" y="0" width="9" height="18" fill="#1c1c1c"/><rect x="90" y="0" width="9" height="18" fill="#1c1c1c"/><rect x="99" y="0" width="9" height="18" fill="#1c1c1c"/><rect x="108" y="0" width="9" height="18" fill="#1c1c1c"/><rect x="117" y="0" width="9" height="18" fill="#1c1c1c"/><rect x="126" y="0" width="9" height="18" fill="#1c1c1c"/><rect x="135" y="0" width="9" height="18" fill="#1c1c1c"/><rect x="144" y="0" width="9" height="18" fill="#1c1c1c"/><rect x="153" y="0" width="9" height="18" fill="#1c1c1c"/><rect x="162" y="0" width="9" height="18" fill="#1c1c1c"/><rect x="171" y="0" width="9" height="18" fill="#1c1c1c"/><rect x="180" y="0" width="9" height="18" fill="#1c1c1c"/><rect x="189" y="0" width="9" height="18" fill="#1c1c1c"/><rect x="198" y="0" width="9" height="18" fill="#1c1c1c"/><rect x="207" y="0" width="9" height="18" fill="#1c1c1c"/><rect x="216" y="0" width="9" height="18" fill="#1c1c1c"/><rect x="225" y="0" width="9" height="18" fill="#1c1c1c"/><rect x="234" y="0" width="9" height="18" fill="#1c1c1c"/><rect x="243" y="0" width="9" height="18" fill="#1c1c1c"/><rect x="252" y="0" width="9" height="18" fill="#1c1c1c"/><rect x="261" y="0" width="9" height="18" fill="#1c1c1c"/><rect x="270" y="0" width="9" height="18" fill="#1c1c1c"/><rect x="279" y="0" width="9" height="18" fill="#1c1c1c"/><rect x="288" y="0" width="9" height="18" fill="#1c1c1c"/><rect x="297" y="0" width="9" height="18" fill="#1c1c1c"/><rect x="306" y="0" width="9" height="18" fill="#1c1c1c"/><rect x="315" y="0" width="9" height="18" fill="#1c1c1c"/><rect x="324" y="0" width="9" height="18" fill="#1c1c1c"/><rect x="333" y="0" width="9" height="18" fill="#1c1c1c"/><rect x="342" y="0" width="9" height="18" fill="#1c1c1c"/><rect x="351" y="0" width="9" height="18" fill="#1c1c1c"/><rect x="360" y="0" width="9" height="18" fill="#1c1c1c"/><rect x="369" y="0" width="9" height="18" fill="#1c1c1c"/><rect x="378" y="0" width="9" height="18" fill="#1c1c1c"/><rect x="387" y="0" width="9" height="18" fill="#1c1c1c"/><rect x="396" y="0" width="9" height="18" fill="#1c1c1c"/><rect x="405" y="0" width="9" height="18" fill="#1c1c1c"/><rect x="414" y="0" width="9" height="18" fill="#1c1c1c"/><rect x="423" y="0" width="9" height="18" fill="#1c1c1c"/><rect x="432" y="0" width="9" height="18" fill="#1c1c1c"/><rect x="441" y="0" width="9" height="18" fill="#1c1c1c"/><rect x="450" y="0" width="9" height="18" fill="#1c1c1c"/><rect x="459" y="0" width="9" height="18" fill="#1c1c1c"/><rect x="468" y="0" width="9" height="18" fill="#1c1c1c"/><rect x="477" y="0" width="9" height="18" fill="#1c1c1c"/><rect x="486" y="0" width="9" height="18" fill="#1c1c1c"/><rect x="495" y="0" width="9" height="18" fill="#1c1c1c"/><rect x="0" y="18" width="9" height="18" fill="#1c1c1c"/><text x="9" y="32" fill="#000000">C</text><text x="18" y="32" fill="#000000">a</text><text x="27" y="32" fill="#000000">p</text><text x="36" y="32" fill="#000000">s</text><text x="45" y="32" fill="#000000">u</text><text x="54" y="32" fill="#000000">l</text><text x="63" y="32" fill="#000000">e</text><text x="81" y="32" fill="#000000">p</text><text x="90" y="32" fill="#000000">a</text><text x="99" y="32" fill="#000000">n</text><text x="108" y="32" fill="#000000">e</text><text x="126" y="32" fill="#000000">c</text><text x="135" y="32" fill="#000000">o</text><text x="144" y="32" fill="#000000">n</text><text x="153" y="32" fill="#000000">t</text><text x="162" y="32" fill="#000000">e</text><text x="171" y="32" fill="#000000">n</text><text x="180" y="32" fill="#000000">t</text><text x="198" y="32" fill="#000000">r</text><text x="207" y="32" fill="#000000">e</text><text x="216" y="32" fill="#000000">m</text><text x="225" y="32" fill="#000000">a</text><text x="234" y="32" fill="#000000">i</text><text x="243" y="32" fill="#000000">n</text><text x="252" y="32" fill="#000000">s</text><text x="270" y="32" fill="#000000">v</text><text x="279" y="32" fill="#000000">i</text><text x="288" y="32" fill="#000000">s</text><text x="297" y="32" fill="#000000">i</text><text x="306" y="32" fill="#000000">b</text><text x="315" y="32" fill="#000000">l</text><text x="324" y="32" fill="#000000">e</text><text x="342" y="32" fill="#000000">b</text><text x="351" y="32" fill="#000000">e</text><text x="360" y="32" fill="#000000">h</text><text x="369" y="32" fill="#000000">i</text><text x="378" y="32" fill="#000000">n</text><text x="387" y="32" fill="#000000">d</text><text x="405" y="32" fill="#000000">t</text><text x="414" y="32" fill="#000000">h</text><text x="423" y="32" fill="#000000">e</text><text x="441" y="32" fill="#000000">t</text><text x="450" y="32" fill="#000000">o</text><text x="459" y="32" fill="#000000">a</text><text x="468" y="32" fill="#000000">s</text><text x="477" y="32" fill="#000000">t</text><text x="486" y="32" fill="#000000">.</text><rect x="495" y="18" width="9" height="18" fill="#1c1c1c"/><rect x="0" y="36" width="9" height="18" fill="#1c1c1c"/><text x="9" y="50" fill="#000000">T</text><text x="18" y="50" fill="#000000">h</text><text x="27" y="50" fill="#000000">e</text><text x="45" y="50" fill="#000000">f</text><text x="54" y="50" fill="#000000">o</text><text x="63" y="50" fill="#000000">o</text><text x="72" y="50" fill="#000000">t</text><text x="81" y="50" fill="#000000">e</text><text x="90" y="50" fill="#000000">r</text><text x="108" y="50" fill="#000000">r</text><text x="117" y="50" fill="#000000">o</text><text x="126" y="50" fill="#000000">w</text><text x="135" y="50" fill="#000000">s</text><text x="153" y="50" fill="#000000">b</text><text x="162" y="50" fill="#000000">e</text><text x="171" y="50" fill="#000000">l</text><text x="180" y="50" fill="#000000">o</text><text x="189" y="50" fill="#000000">w</text><text x="207" y="50" fill="#000000">a</text><text x="216" y="50" fill="#000000">r</text><text x="225" y="50" fill="#000000">e</text><text x="243" y="50" fill="#000000">r</text><text x="252" y="50" fill="#000000">e</text><text x="261" y="50" fill="#000000">s</text><text x="270" y="50" fill="#000000">e</text><text x="279" y="50" fill="#000000">r</text><text x="288" y="50" fill="#000000">v</text><rect x="297" y="36" width="9" height="18" fill="#005012"/><text x="297" y="50" fill="#00ff41">┌</text><rect x="306" y="36" width="9" height="18" fill="#005012"/><text x="306" y="50" fill="#00ff41">─</text><rect x="315" y="36" width="9" height="18" fill="#005012"/><text x="315" y="50" fill="#00ff41">─</text><rect x="324" y="36" width="9" height="18" fill="#005012"/><text x="324" y="50" fill="#00ff41">─</text><rect x="333" y="36" width="9" height="18" fill="#005012"/><text x="333" y="50" fill="#00ff41">─</text><rect x="342" y="36" width="9" height="18" fill="#005012"/><text x="342" y="50" fill="#00ff41">─</text><rect x="351" y="36" width="9" height="18" fill="#005012"/><text x="351" y="50" fill="#00ff41">─</text><rect x="360" y="36" width="9" height="18" fill="#005012"/><text x="360" y="50" fill="#00ff41">─</text><rect x="369" y="36" width="9" height="18" fill="#005012"/><text x="369" y="50" fill="#00ff41">─</text><rect x="378" y="36" width="9" height="18" fill="#005012"/><text x="378" y="50" fill="#00ff41">─</text><rect x="387" y="36" width="9" height="18" fill="#005012"/><text x="387" y="50" fill="#00ff41">─</text><rect x="396" y="36" width="9" height="18" fill="#005012"/><text x="396" y="50" fill="#00ff41">─</text><rect x="405" y="36" width="9" height="18" fill="#005012"/><text x="405" y="50" fill="#00ff41">─</text><rect x="414" y="36" width="9" height="18" fill="#005012"/><text x="414" y="50" fill="#00ff41">─</text><rect x="423" y="36" width="9" height="18" fill="#005012"/><text x="423" y="50" fill="#00ff41">─</text><rect x="432" y="36" width="9" height="18" fill="#005012"/><text x="432" y="50" fill="#00ff41">─</text><rect x="441" y="36" width="9" height="18" fill="#005012"/><text x="441" y="50" fill="#00ff41">─</text><rect x="450" y="36" width="9" height="18" fill="#005012"/><text x="450" y="50" fill="#00ff41">─</text><rect x="459" y="36" width="9" height="18" fill="#005012"/><text x="459" y="50" fill="#00ff41">─</text><rect x="468" y="36" width="9" height="18" fill="#005012"/><text x="468" y="50" fill="#00ff41">┐</text><text x="477" y="50" fill="#000000">i</text><text x="486" y="50" fill="#000000">o</text><rect x="495" y="36" width="9" height="18" fill="#1c1c1c"/><rect x="0" y="54" width="9" height="18" fill="#1c1c1c"/><rect x="297" y="54" width="9" height="18" fill="#005012"/><text x="297" y="68" fill="#00ff41">│</text><rect x="306" y="54" width="9" height="18" fill="#005012"/><text x="306" y="68" fill="#ffffff">S</text><rect x="315" y="54" width="9" height="18" fill="#005012"/><text x="315" y="68" fill="#ffffff">e</text><rect x="324" y="54" width="9" height="18" fill="#005012"/><text x="324" y="68" fill="#ffffff">l</text><rect x="333" y="54" width="9" height="18" fill="#005012"/><text x="333" y="68" fill="#ffffff">e</text><rect x="342" y="54" width="9" height="18" fill="#005012"/><text x="342" y="68" fill="#ffffff">c</text><rect x="351" y="54" width="9" height="18" fill="#005012"/><text x="351" y="68" fill="#ffffff">t</text><rect x="360" y="54" width="9" height="18" fill="#005012"/><text x="360" y="68" fill="#ffffff">i</text><rect x="369" y="54" width="9" height="18" fill="#005012"/><text x="369" y="68" fill="#ffffff">o</text><rect x="378" y="54" width="9" height="18" fill="#005012"/><text x="378" y="68" fill="#ffffff">n</text><rect x="387" y="54" width="9" height="18" fill="#005012"/><rect x="396" y="54" width="9" height="18" fill="#005012"/><text x="396" y="68" fill="#ffffff">c</text><rect x="405" y="54" width="9" height="18" fill="#005012"/><text x="405" y="68" fill="#ffffff">o</text><rect x="414" y="54" width="9" height="18" fill="#005012"/><text x="414" y="68" fill="#ffffff">p</text><rect x="423" y="54" width="9" height="18" fill="#005012"/><text x="423" y="68" fill="#ffffff">i</text><rect x="432" y="54" width="9" height="18" fill="#005012"/><text x="432" y="68" fill="#ffffff">e</text><rect x="441" y="54" width="9" height="18" fill="#005012"/><text x="441" y="68" fill="#ffffff">d</text><rect x="450" y="54" width="9" height="18" fill="#005012"/><rect x="459" y="54" width="9" height="18" fill="#005012"/><rect x="468" y="54" width="9" height="18" fill="#005012"/><text x="468" y="68" fill="#00ff41">│</text><rect x="495" y="54" width="9" height="18" fill="#1c1c1c"/><rect x="0" y="72" width="9" height="18" fill="#1c1c1c"/><text x="9" y="86" fill="#ffffff">C</text><text x="18" y="86" fill="#ffffff">t</text><text x="27" y="86" fill="#ffffff">r</text><text x="36" y="86" fill="#ffffff">l</text><text x="45" y="86" fill="#ffffff">-</text><text x="54" y="86" fill="#ffffff">\</text><text x="72" y="86" fill="#00ff41">m</text><text x="81" y="86" fill="#00ff41">e</text><text x="90" y="86" fill="#00ff41">n</text><text x="99" y="86" fill="#00ff41">u</text><text x="144" y="86" fill="#00ff41">c</text><text x="153" y="86" fill="#00ff41">l</text><text x="162" y="86" fill="#00ff41">i</text><text x="171" y="86" fill="#00ff41">c</text><text x="180" y="86" fill="#00ff41">k</text><text x="198" y="86" fill="#00ff41">f</text><text x="207" y="86" fill="#00ff41">o</text><text x="216" y="86" fill="#00ff41">c</text><text x="225" y="86" fill="#00ff41">u</text><text x="234" y="86" fill="#00ff41">s</text><text x="252" y="86" fill="#00ff41">p</text><text x="261" y="86" fill="#00ff41">a</text><text x="270" y="86" fill="#00ff41">n</text><text x="279" y="86" fill="#00ff41">e</text><rect x="297" y="72" width="9" height="18" fill="#005012"/><text x="297" y="86" fill="#00ff41">└</text><rect x="306" y="72" width="9" height="18" fill="#005012"/><text x="306" y="86" fill="#00ff41">─</text><rect x="315" y="72" width="9" height="18" fill="#005012"/><text x="315" y="86" fill="#00ff41">─</text><rect x="324" y="72" width="9" height="18" fill="#005012"/><text x="324" y="86" fill="#00ff41">─</text><rect x="333" y="72" width="9" height="18" fill="#005012"/><text x="333" y="86" fill="#00ff41">─</text><rect x="342" y="72" width="9" height="18" fill="#005012"/><text x="342" y="86" fill="#00ff41">─</text><rect x="351" y="72" width="9" height="18" fill="#005012"/><text x="351" y="86" fill="#00ff41">─</text><rect x="360" y="72" width="9" height="18" fill="#005012"/><text x="360" y="86" fill="#00ff41">─</text><rect x="369" y="72" width="9" height="18" fill="#005012"/><text x="369" y="86" fill="#00ff41">─</text><rect x="378" y="72" width="9" height="18" fill="#005012"/><text x="378" y="86" fill="#00ff41">─</text><rect x="387" y="72" width="9" height="18" fill="#005012"/><text x="387" y="86" fill="#00ff41">─</text><rect x="396" y="72" width="9" height="18" fill="#005012"/><text x="396" y="86" fill="#00ff41">─</text><rect x="405" y="72" width="9" height="18" fill="#005012"/><text x="405" y="86" fill="#00ff41">─</text><rect x="414" y="72" width="9" height="18" fill="#005012"/><text x="414" y="86" fill="#00ff41">─</text><rect x="423" y="72" width="9" height="18" fill="#005012"/><text x="423" y="86" fill="#00ff41">─</text><rect x="432" y="72" width="9" height="18" fill="#005012"/><text x="432" y="86" fill="#00ff41">─</text><rect x="441" y="72" width="9" height="18" fill="#005012"/><text x="441" y="86" fill="#00ff41">─</text><rect x="450" y="72" width="9" height="18" fill="#005012"/><text x="450" y="86" fill="#00ff41">─</text><rect x="459" y="72" width="9" height="18" fill="#005012"/><text x="459" y="86" fill="#00ff41">─</text><rect x="468" y="72" width="9" height="18" fill="#005012"/><text x="468" y="86" fill="#00ff41">┘</text><rect x="495" y="72" width="9" height="18" fill="#1c1c1c"/><rect x="0" y="90" width="9" height="18" fill="#1c1c1c"/><text x="9" y="104" fill="#000000">P</text><text x="18" y="104" fill="#000000">R</text><text x="36" y="104" fill="#000000">#</text><text x="45" y="104" fill="#000000">4</text><text x="54" y="104" fill="#000000">9</text><text x="63" y="104" fill="#000000">5</text><text x="81" y="104" fill="#000000">·</text><text x="99" y="104" fill="#000000">r</text><text x="108" y="104" fill="#000000">e</text><text x="117" y="104" fill="#000000">f</text><text x="126" y="104" fill="#000000">a</text><text x="135" y="104" fill="#000000">c</text><text x="144" y="104" fill="#000000">t</text><text x="153" y="104" fill="#000000">o</text><text x="162" y="104" fill="#000000">r</text><text x="171" y="104" fill="#000000">:</text><text x="189" y="104" fill="#000000">f</text><text x="198" y="104" fill="#000000">i</text><text x="207" y="104" fill="#000000">n</text><text x="216" y="104" fill="#000000">i</text><text x="225" y="104" fill="#000000">s</text><text x="234" y="104" fill="#000000">h</text><text x="252" y="104" fill="#000000">T</text><text x="261" y="104" fill="#000000">U</text><text x="270" y="104" fill="#000000">I</text><text x="288" y="104" fill="#000000">a</text><text x="297" y="104" fill="#000000">r</text><text x="306" y="104" fill="#000000">c</text><text x="315" y="104" fill="#000000">h</text><text x="324" y="104" fill="#000000">i</text><text x="333" y="104" fill="#000000">t</text><text x="342" y="104" fill="#000000">e</text><text x="351" y="104" fill="#000000">c</text><text x="360" y="104" fill="#000000">t</text><text x="369" y="104" fill="#000000">u</text><text x="378" y="104" fill="#000000">r</text><text x="387" y="104" fill="#000000">e</text><text x="405" y="104" fill="#000000">e</text><text x="414" y="104" fill="#000000">p</text><text x="423" y="104" fill="#000000">i</text><text x="432" y="104" fill="#000000">c</text><rect x="495" y="90" width="9" height="18" fill="#1c1c1c"/><rect x="0" y="108" width="9" height="18" fill="#1c1c1c"/><rect x="495" y="108" width="9" height="18" fill="#1c1c1c"/><rect x="0" y="126" width="9" height="18" fill="#1c1c1c"/><rect x="495" y="126" width="9" height="18" fill="#1c1c1c"/><rect x="0" y="144" width="9" height="18" fill="#1c1c1c"/><rect x="495" y="144" width="9" height="18" fill="#1c1c1c"/><rect x="0" y="162" width="9" height="18" fill="#1c1c1c"/><rect x="9" y="162" width="9" height="18" fill="#1c1c1c"/><rect x="18" y="162" width="9" height="18" fill="#1c1c1c"/><rect x="27" y="162" width="9" height="18" fill="#1c1c1c"/><rect x="36" y="162" width="9" height="18" fill="#1c1c1c"/><rect x="45" y="162" width="9" height="18" fill="#1c1c1c"/><rect x="54" y="162" width="9" height="18" fill="#1c1c1c"/><rect x="63" y="162" width="9" height="18" fill="#1c1c1c"/><rect x="72" y="162" width="9" height="18" fill="#1c1c1c"/><rect x="81" y="162" width="9" height="18" fill="#1c1c1c"/><rect x="90" y="162" width="9" height="18" fill="#1c1c1c"/><rect x="99" y="162" width="9" height="18" fill="#1c1c1c"/><rect x="108" y="162" width="9" height="18" fill="#1c1c1c"/><rect x="117" y="162" width="9" height="18" fill="#1c1c1c"/><rect x="126" y="162" width="9" height="18" fill="#1c1c1c"/><rect x="135" y="162" width="9" height="18" fill="#1c1c1c"/><rect x="144" y="162" width="9" height="18" fill="#1c1c1c"/><rect x="153" y="162" width="9" height="18" fill="#1c1c1c"/><rect x="162" y="162" width="9" height="18" fill="#1c1c1c"/><rect x="171" y="162" width="9" height="18" fill="#1c1c1c"/><rect x="180" y="162" width="9" height="18" fill="#1c1c1c"/><rect x="189" y="162" width="9" height="18" fill="#1c1c1c"/><rect x="198" y="162" width="9" height="18" fill="#1c1c1c"/><rect x="207" y="162" width="9" height="18" fill="#1c1c1c"/><rect x="216" y="162" width="9" height="18" fill="#1c1c1c"/><rect x="225" y="162" width="9" height="18" fill="#1c1c1c"/><rect x="234" y="162" width="9" height="18" fill="#1c1c1c"/><rect x="243" y="162" width="9" height="18" fill="#1c1c1c"/><rect x="252" y="162" width="9" height="18" fill="#1c1c1c"/><rect x="261" y="162" width="9" height="18" fill="#1c1c1c"/><rect x="270" y="162" width="9" height="18" fill="#1c1c1c"/><rect x="279" y="162" width="9" height="18" fill="#1c1c1c"/><rect x="288" y="162" width="9" height="18" fill="#1c1c1c"/><rect x="297" y="162" width="9" height="18" fill="#1c1c1c"/><rect x="306" y="162" width="9" height="18" fill="#1c1c1c"/><rect x="315" y="162" width="9" height="18" fill="#1c1c1c"/><rect x="324" y="162" width="9" height="18" fill="#1c1c1c"/><rect x="333" y="162" width="9" height="18" fill="#1c1c1c"/><rect x="342" y="162" width="9" height="18" fill="#1c1c1c"/><rect x="351" y="162" width="9" height="18" fill="#1c1c1c"/><rect x="360" y="162" width="9" height="18" fill="#1c1c1c"/><rect x="369" y="162" width="9" height="18" fill="#1c1c1c"/><rect x="378" y="162" width="9" height="18" fill="#1c1c1c"/><rect x="387" y="162" width="9" height="18" fill="#1c1c1c"/><rect x="396" y="162" width="9" height="18" fill="#1c1c1c"/><rect x="405" y="162" width="9" height="18" fill="#1c1c1c"/><rect x="414" y="162" width="9" height="18" fill="#1c1c1c"/><rect x="423" y="162" width="9" height="18" fill="#1c1c1c"/><rect x="432" y="162" width="9" height="18" fill="#1c1c1c"/><rect x="441" y="162" width="9" height="18" fill="#1c1c1c"/><rect x="450" y="162" width="9" height="18" fill="#1c1c1c"/><rect x="459" y="162" width="9" height="18" fill="#1c1c1c"/><rect x="468" y="162" width="9" height="18" fill="#1c1c1c"/><rect x="477" y="162" width="9" height="18" fill="#1c1c1c"/><rect x="486" y="162" width="9" height="18" fill="#1c1c1c"/><rect x="495" y="162" width="9" height="18" fill="#1c1c1c"/></g></svg>
