<svg xmlns="http://www.w3.org/2000/svg" width="288" height="144" viewBox="0 0 288 144" role="img" aria-label="Unicode detail table" style="background:#000000"><rect width="100%" height="100%" fill="#000000"/><g font-family="ui-monospace, SFMono-Regular, Menlo, Consolas, monospace" font-size="14"><rect x="0" y="0" width="9" height="18" fill="#1c1c1c"/><rect x="9" y="0" width="9" height="18" fill="#1c1c1c"/><rect x="18" y="0" width="9" height="18" fill="#1c1c1c"/><rect x="27" y="0" width="9" height="18" fill="#1c1c1c"/><rect x="36" y="0" width="9" height="18" fill="#1c1c1c"/><rect x="45" y="0" width="9" height="18" fill="#1c1c1c"/><rect x="54" y="0" width="9" height="18" fill="#1c1c1c"/><rect x="63" y="0" width="9" height="18" fill="#1c1c1c"/><rect x="72" y="0" width="9" height="18" fill="#1c1c1c"/><rect x="81" y="0" width="9" height="18" fill="#1c1c1c"/><rect x="90" y="0" width="9" height="18" fill="#1c1c1c"/><rect x="99" y="0" width="9" height="18" fill="#1c1c1c"/><rect x="108" y="0" width="9" height="18" fill="#1c1c1c"/><rect x="117" y="0" width="9" height="18" fill="#1c1c1c"/><rect x="126" y="0" width="9" height="18" fill="#1c1c1c"/><rect x="135" y="0" width="9" height="18" fill="#1c1c1c"/><rect x="144" y="0" width="9" height="18" fill="#1c1c1c"/><rect x="153" y="0" width="9" height="18" fill="#1c1c1c"/><rect x="162" y="0" width="9" height="18" fill="#1c1c1c"/><rect x="171" y="0" width="9" height="18" fill="#1c1c1c"/><rect x="180" y="0" width="9" height="18" fill="#1c1c1c"/><rect x="189" y="0" width="9" height="18" fill="#1c1c1c"/><rect x="198" y="0" width="9" height="18" fill="#1c1c1c"/><rect x="207" y="0" width="9" height="18" fill="#1c1c1c"/><rect x="216" y="0" width="9" height="18" fill="#1c1c1c"/><rect x="225" y="0" width="9" height="18" fill="#1c1c1c"/><rect x="234" y="0" width="9" height="18" fill="#1c1c1c"/><rect x="243" y="0" width="9" height="18" fill="#1c1c1c"/><rect x="252" y="0" width="9" height="18" fill="#1c1c1c"/><rect x="261" y="0" width="9" height="18" fill="#1c1c1c"/><rect x="270" y="0" width="9" height="18" fill="#1c1c1c"/><rect x="279" y="0" width="9" height="18" fill="#1c1c1c"/><rect x="0" y="18" width="9" height="18" fill="#1c1c1c"/><text x="27" y="32" fill="#008c1e">地</text><text x="45" y="32" fill="#008c1e">域</text><text x="108" y="32" fill="#505050">:</text><text x="126" y="32" fill="#00ff41">東</text><text x="144" y="32" fill="#00ff41">京</text><text x="171" y="32" fill="#00ff41">🇯🇵</text><rect x="279" y="18" width="9" height="18" fill="#1c1c1c"/><rect x="0" y="36" width="9" height="18" fill="#1c1c1c"/><text x="27" y="50" fill="#008c1e">状</text><text x="45" y="50" fill="#008c1e">態</text><text x="108" y="50" fill="#505050">:</text><text x="126" y="50" fill="#00c8c8">準</text><text x="144" y="50" fill="#00c8c8">備</text><text x="162" y="50" fill="#00c8c8">完</text><text x="180" y="50" fill="#00c8c8">了</text><text x="207" y="50" fill="#00c8c8">✅</text><text x="234" y="50" fill="#00c8c8">C</text><text x="243" y="50" fill="#00c8c8">a</text><text x="252" y="50" fill="#00c8c8">f</text><text x="261" y="50" fill="#00c8c8">é</text><rect x="279" y="36" width="9" height="18" fill="#1c1c1c"/><rect x="0" y="54" width="9" height="18" fill="#1c1c1c"/><text x="135" y="68" fill="#00c8c8">⧉</text><rect x="279" y="54" width="9" height="18" fill="#1c1c1c"/><rect x="0" y="72" width="9" height="18" fill="#1c1c1c"/><rect x="279" y="72" width="9" height="18" fill="#1c1c1c"/><rect x="0" y="90" width="9" height="18" fill="#1c1c1c"/><rect x="279" y="90" width="9" height="18" fill="#1c1c1c"/><rect x="0" y="108" width="9" height="18" fill="#1c1c1c"/><rect x="279" y="108" width="9" height="18" fill="#1c1c1c"/><rect x="0" y="126" width="9" height="18" fill="#1c1c1c"/><rect x="9" y="126" width="9" height="18" fill="#1c1c1c"/><rect x="18" y="126" width="9" height="18" fill="#1c1c1c"/><rect x="27" y="126" width="9" height="18" fill="#1c1c1c"/><rect x="36" y="126" width="9" height="18" fill="#1c1c1c"/><rect x="45" y="126" width="9" height="18" fill="#1c1c1c"/><rect x="54" y="126" width="9" height="18" fill="#1c1c1c"/><rect x="63" y="126" width="9" height="18" fill="#1c1c1c"/><rect x="72" y="126" width="9" height="18" fill="#1c1c1c"/><rect x="81" y="126" width="9" height="18" fill="#1c1c1c"/><rect x="90" y="126" width="9" height="18" fill="#1c1c1c"/><rect x="99" y="126" width="9" height="18" fill="#1c1c1c"/><rect x="108" y="126" width="9" height="18" fill="#1c1c1c"/><rect x="117" y="126" width="9" height="18" fill="#1c1c1c"/><rect x="126" y="126" width="9" height="18" fill="#1c1c1c"/><rect x="135" y="126" width="9" height="18" fill="#1c1c1c"/><rect x="144" y="126" width="9" height="18" fill="#1c1c1c"/><rect x="153" y="126" width="9" height="18" fill="#1c1c1c"/><rect x="162" y="126" width="9" height="18" fill="#1c1c1c"/><rect x="171" y="126" width="9" height="18" fill="#1c1c1c"/><rect x="180" y="126" width="9" height="18" fill="#1c1c1c"/><rect x="189" y="126" width="9" height="18" fill="#1c1c1c"/><rect x="198" y="126" width="9" height="18" fill="#1c1c1c"/><rect x="207" y="126" width="9" height="18" fill="#1c1c1c"/><rect x="216" y="126" width="9" height="18" fill="#1c1c1c"/><rect x="225" y="126" width="9" height="18" fill="#1c1c1c"/><rect x="234" y="126" width="9" height="18" fill="#1c1c1c"/><rect x="243" y="126" width="9" height="18" fill="#1c1c1c"/><rect x="252" y="126" width="9" height="18" fill="#1c1c1c"/><rect x="261" y="126" width="9" height="18" fill="#1c1c1c"/><rect x="270" y="126" width="9" height="18" fill="#1c1c1c"/><rect x="279" y="126" width="9" height="18" fill="#1c1c1c"/></g></svg>
