<svg xmlns="http://www.w3.org/2000/svg" width="504" height="126" viewBox="0 0 504 126" role="img" aria-label="Detail table" style="background:#000000"><rect width="100%" height="100%" fill="#000000"/><g font-family="ui-monospace, SFMono-Regular, Menlo, Consolas, monospace" font-size="14"><rect x="0" y="0" width="9" height="18" fill="#1c1c1c"/><rect x="9" y="0" width="9" height="18" fill="#1c1c1c"/><rect x="18" y="0" width="9" height="18" fill="#1c1c1c"/><rect x="27" y="0" width="9" height="18" fill="#1c1c1c"/><rect x="36" y="0" width="9" height="18" fill="#1c1c1c"/><rect x="45" y="0" width="9" height="18" fill="#1c1c1c"/><rect x="54" y="0" width="9" height="18" fill="#1c1c1c"/><rect x="63" y="0" width="9" height="18" fill="#1c1c1c"/><rect x="72" y="0" width="9" height="18" fill="#1c1c1c"/><rect x="81" y="0" width="9" height="18" fill="#1c1c1c"/><rect x="90" y="0" width="9" height="18" fill="#1c1c1c"/><rect x="99" y="0" width="9" height="18" fill="#1c1c1c"/><rect x="108" y="0" width="9" height="18" fill="#1c1c1c"/><rect x="117" y="0" width="9" height="18" fill="#1c1c1c"/><rect x="126" y="0" width="9" height="18" fill="#1c1c1c"/><rect x="135" y="0" width="9" height="18" fill="#1c1c1c"/><rect x="144" y="0" width="9" height="18" fill="#1c1c1c"/><rect x="153" y="0" width="9" height="18" fill="#1c1c1c"/><rect x="162" y="0" width="9" height="18" fill="#1c1c1c"/><rect x="171" y="0" width="9" height="18" fill="#1c1c1c"/><rect x="180" y="0" width="9" height="18" fill="#1c1c1c"/><rect x="189" y="0" width="9" height="18" fill="#1c1c1c"/><rect x="198" y="0" width="9" height="18" fill="#1c1c1c"/><rect x="207" y="0" width="9" height="18" fill="#1c1c1c"/><rect x="216" y="0" width="9" height="18" fill="#1c1c1c"/><rect x="225" y="0" width="9" height="18" fill="#1c1c1c"/><rect x="234" y="0" width="9" height="18" fill="#1c1c1c"/><rect x="243" y="0" width="9" height="18" fill="#1c1c1c"/><rect x="252" y="0" width="9" height="18" fill="#1c1c1c"/><rect x="261" y="0" width="9" height="18" fill="#1c1c1c"/><rect x="270" y="0" width="9" height="18" fill="#1c1c1c"/><rect x="279" y="0" width="9" height="18" fill="#1c1c1c"/><rect x="288" y="0" width="9" height="18" fill="#1c1c1c"/><rect x="297" y="0" width="9" height="18" fill="#1c1c1c"/><rect x="306" y="0" width="9" height="18" fill="#1c1c1c"/><rect x="315" y="0" width="9" height="18" fill="#1c1c1c"/><rect x="324" y="0" width="9" height="18" fill="#1c1c1c"/><rect x="333" y="0" width="9" height="18" fill="#1c1c1c"/><rect x="342" y="0" width="9" height="18" fill="#1c1c1c"/><rect x="351" y="0" width="9" height="18" fill="#1c1c1c"/><rect x="360" y="0" width="9" height="18" fill="#1c1c1c"/><rect x="369" y="0" width="9" height="18" fill="#1c1c1c"/><rect x="378" y="0" width="9" height="18" fill="#1c1c1c"/><rect x="387" y="0" width="9" height="18" fill="#1c1c1c"/><rect x="396" y="0" width="9" height="18" fill="#1c1c1c"/><rect x="405" y="0" width="9" height="18" fill="#1c1c1c"/><rect x="414" y="0" width="9" height="18" fill="#1c1c1c"/><rect x="423" y="0" width="9" height="18" fill="#1c1c1c"/><rect x="432" y="0" width="9" height="18" fill="#1c1c1c"/><rect x="441" y="0" width="9" height="18" fill="#1c1c1c"/><rect x="450" y="0" width="9" height="18" fill="#1c1c1c"/><rect x="459" y="0" width="9" height="18" fill="#1c1c1c"/><rect x="468" y="0" width="9" height="18" fill="#1c1c1c"/><rect x="477" y="0" width="9" height="18" fill="#1c1c1c"/><rect x="486" y="0" width="9" height="18" fill="#1c1c1c"/><rect x="495" y="0" width="9" height="18" fill="#1c1c1c"/><rect x="0" y="18" width="9" height="18" fill="#1c1c1c"/><text x="9" y="32" fill="#000000">S</text><text x="18" y="32" fill="#000000">t</text><text x="27" y="32" fill="#000000">a</text><text x="36" y="32" fill="#000000">t</text><text x="45" y="32" fill="#000000">e</text><text x="135" y="32" fill="#000000">R</text><text x="144" y="32" fill="#000000">e</text><text x="153" y="32" fill="#000000">a</text><text x="162" y="32" fill="#000000">d</text><text x="171" y="32" fill="#000000">y</text><rect x="495" y="18" width="9" height="18" fill="#1c1c1c"/><rect x="0" y="36" width="9" height="18" fill="#1c1c1c"/><text x="9" y="50" fill="#000000">R</text><text x="18" y="50" fill="#000000">e</text><text x="27" y="50" fill="#000000">f</text><text x="36" y="50" fill="#000000">e</text><text x="45" y="50" fill="#000000">r</text><text x="54" y="50" fill="#000000">e</text><text x="63" y="50" fill="#000000">n</text><text x="72" y="50" fill="#000000">c</text><text x="81" y="50" fill="#000000">e</text><text x="135" y="50" fill="#000000">h</text><text x="144" y="50" fill="#000000">t</text><text x="153" y="50" fill="#000000">t</text><text x="162" y="50" fill="#000000">p</text><text x="171" y="50" fill="#000000">s</text><text x="180" y="50" fill="#000000">:</text><text x="189" y="50" fill="#000000">/</text><text x="198" y="50" fill="#000000">/</text><text x="207" y="50" fill="#000000">e</text><text x="216" y="50" fill="#000000">x</text><text x="225" y="50" fill="#000000">a</text><text x="234" y="50" fill="#000000">m</text><text x="243" y="50" fill="#000000">p</text><text x="252" y="50" fill="#000000">l</text><text x="261" y="50" fill="#000000">e</text><text x="270" y="50" fill="#000000">.</text><text x="279" y="50" fill="#000000">i</text><text x="288" y="50" fill="#000000">n</text><text x="297" y="50" fill="#000000">v</text><text x="306" y="50" fill="#000000">a</text><text x="315" y="50" fill="#000000">l</text><text x="324" y="50" fill="#000000">i</text><text x="333" y="50" fill="#000000">d</text><rect x="495" y="36" width="9" height="18" fill="#1c1c1c"/><rect x="0" y="54" width="9" height="18" fill="#1c1c1c"/><rect x="495" y="54" width="9" height="18" fill="#1c1c1c"/><rect x="0" y="72" width="9" height="18" fill="#1c1c1c"/><rect x="495" y="72" width="9" height="18" fill="#1c1c1c"/><rect x="0" y="90" width="9" height="18" fill="#1c1c1c"/><rect x="495" y="90" width="9" height="18" fill="#1c1c1c"/><rect x="0" y="108" width="9" height="18" fill="#1c1c1c"/><rect x="9" y="108" width="9" height="18" fill="#1c1c1c"/><rect x="18" y="108" width="9" height="18" fill="#1c1c1c"/><rect x="27" y="108" width="9" height="18" fill="#1c1c1c"/><rect x="36" y="108" width="9" height="18" fill="#1c1c1c"/><rect x="45" y="108" width="9" height="18" fill="#1c1c1c"/><rect x="54" y="108" width="9" height="18" fill="#1c1c1c"/><rect x="63" y="108" width="9" height="18" fill="#1c1c1c"/><rect x="72" y="108" width="9" height="18" fill="#1c1c1c"/><rect x="81" y="108" width="9" height="18" fill="#1c1c1c"/><rect x="90" y="108" width="9" height="18" fill="#1c1c1c"/><rect x="99" y="108" width="9" height="18" fill="#1c1c1c"/><rect x="108" y="108" width="9" height="18" fill="#1c1c1c"/><rect x="117" y="108" width="9" height="18" fill="#1c1c1c"/><rect x="126" y="108" width="9" height="18" fill="#1c1c1c"/><rect x="135" y="108" width="9" height="18" fill="#1c1c1c"/><rect x="144" y="108" width="9" height="18" fill="#1c1c1c"/><rect x="153" y="108" width="9" height="18" fill="#1c1c1c"/><rect x="162" y="108" width="9" height="18" fill="#1c1c1c"/><rect x="171" y="108" width="9" height="18" fill="#1c1c1c"/><rect x="180" y="108" width="9" height="18" fill="#1c1c1c"/><rect x="189" y="108" width="9" height="18" fill="#1c1c1c"/><rect x="198" y="108" width="9" height="18" fill="#1c1c1c"/><rect x="207" y="108" width="9" height="18" fill="#1c1c1c"/><rect x="216" y="108" width="9" height="18" fill="#1c1c1c"/><rect x="225" y="108" width="9" height="18" fill="#1c1c1c"/><rect x="234" y="108" width="9" height="18" fill="#1c1c1c"/><rect x="243" y="108" width="9" height="18" fill="#1c1c1c"/><rect x="252" y="108" width="9" height="18" fill="#1c1c1c"/><rect x="261" y="108" width="9" height="18" fill="#1c1c1c"/><rect x="270" y="108" width="9" height="18" fill="#1c1c1c"/><rect x="279" y="108" width="9" height="18" fill="#1c1c1c"/><rect x="288" y="108" width="9" height="18" fill="#1c1c1c"/><rect x="297" y="108" width="9" height="18" fill="#1c1c1c"/><rect x="306" y="108" width="9" height="18" fill="#1c1c1c"/><rect x="315" y="108" width="9" height="18" fill="#1c1c1c"/><rect x="324" y="108" width="9" height="18" fill="#1c1c1c"/><rect x="333" y="108" width="9" height="18" fill="#1c1c1c"/><rect x="342" y="108" width="9" height="18" fill="#1c1c1c"/><rect x="351" y="108" width="9" height="18" fill="#1c1c1c"/><rect x="360" y="108" width="9" height="18" fill="#1c1c1c"/><rect x="369" y="108" width="9" height="18" fill="#1c1c1c"/><rect x="378" y="108" width="9" height="18" fill="#1c1c1c"/><rect x="387" y="108" width="9" height="18" fill="#1c1c1c"/><rect x="396" y="108" width="9" height="18" fill="#1c1c1c"/><rect x="405" y="108" width="9" height="18" fill="#1c1c1c"/><rect x="414" y="108" width="9" height="18" fill="#1c1c1c"/><rect x="423" y="108" width="9" height="18" fill="#1c1c1c"/><rect x="432" y="108" width="9" height="18" fill="#1c1c1c"/><rect x="441" y="108" width="9" height="18" fill="#1c1c1c"/><rect x="450" y="108" width="9" height="18" fill="#1c1c1c"/><rect x="459" y="108" width="9" height="18" fill="#1c1c1c"/><rect x="468" y="108" width="9" height="18" fill="#1c1c1c"/><rect x="477" y="108" width="9" height="18" fill="#1c1c1c"/><rect x="486" y="108" width="9" height="18" fill="#1c1c1c"/><rect x="495" y="108" width="9" height="18" fill="#1c1c1c"/></g></svg>
