<svg xmlns="http://www.w3.org/2000/svg" width="198" height="162" viewBox="0 0 198 162" role="img" aria-label="Narrow dialog" style="background:#000000"><rect width="100%" height="100%" fill="#000000"/><g font-family="ui-monospace, SFMono-Regular, Menlo, Consolas, monospace" font-size="14"><rect x="0" y="0" width="9" height="18" fill="#1c1c1c"/><rect x="9" y="0" width="9" height="18" fill="#1c1c1c"/><rect x="18" y="0" width="9" height="18" fill="#1c1c1c"/><rect x="27" y="0" width="9" height="18" fill="#1c1c1c"/><rect x="36" y="0" width="9" height="18" fill="#1c1c1c"/><rect x="45" y="0" width="9" height="18" fill="#1c1c1c"/><rect x="54" y="0" width="9" height="18" fill="#1c1c1c"/><rect x="63" y="0" width="9" height="18" fill="#1c1c1c"/><rect x="72" y="0" width="9" height="18" fill="#1c1c1c"/><rect x="81" y="0" width="9" height="18" fill="#1c1c1c"/><rect x="90" y="0" width="9" height="18" fill="#1c1c1c"/><rect x="99" y="0" width="9" height="18" fill="#1c1c1c"/><rect x="108" y="0" width="9" height="18" fill="#1c1c1c"/><rect x="117" y="0" width="9" height="18" fill="#1c1c1c"/><rect x="126" y="0" width="9" height="18" fill="#1c1c1c"/><rect x="135" y="0" width="9" height="18" fill="#1c1c1c"/><rect x="144" y="0" width="9" height="18" fill="#1c1c1c"/><rect x="153" y="0" width="9" height="18" fill="#1c1c1c"/><rect x="162" y="0" width="9" height="18" fill="#1c1c1c"/><rect x="171" y="0" width="9" height="18" fill="#1c1c1c"/><rect x="180" y="0" width="9" height="18" fill="#1c1c1c"/><rect x="189" y="0" width="9" height="18" fill="#1c1c1c"/><rect x="0" y="18" width="9" height="18" fill="#1c1c1c"/><text x="9" y="32" fill="#00ff41">┌</text><text x="27" y="32" fill="#ffffff">N</text><text x="36" y="32" fill="#ffffff">o</text><text x="45" y="32" fill="#ffffff">t</text><text x="54" y="32" fill="#ffffff">i</text><text x="63" y="32" fill="#ffffff">c</text><text x="72" y="32" fill="#ffffff">e</text><text x="90" y="32" fill="#00ff41">─</text><text x="99" y="32" fill="#00ff41">─</text><text x="108" y="32" fill="#00ff41">─</text><text x="117" y="32" fill="#00ff41">─</text><text x="126" y="32" fill="#00ff41">─</text><text x="135" y="32" fill="#00ff41">─</text><text x="144" y="32" fill="#00ff41">─</text><text x="153" y="32" fill="#00ff41">─</text><text x="162" y="32" fill="#00ff41">─</text><text x="171" y="32" fill="#00ff41">─</text><text x="180" y="32" fill="#00ff41">┐</text><rect x="189" y="18" width="9" height="18" fill="#1c1c1c"/><rect x="0" y="36" width="9" height="18" fill="#1c1c1c"/><text x="9" y="50" fill="#00ff41">│</text><text x="18" y="50" fill="#ffffff">T</text><text x="27" y="50" fill="#ffffff">h</text><text x="36" y="50" fill="#ffffff">e</text><text x="54" y="50" fill="#ffffff">o</text><text x="63" y="50" fill="#ffffff">p</text><text x="72" y="50" fill="#ffffff">e</text><text x="81" y="50" fill="#ffffff">r</text><text x="90" y="50" fill="#ffffff">a</text><text x="99" y="50" fill="#ffffff">t</text><text x="108" y="50" fill="#ffffff">i</text><text x="117" y="50" fill="#ffffff">o</text><text x="126" y="50" fill="#ffffff">n</text><text x="144" y="50" fill="#ffffff">c</text><text x="153" y="50" fill="#ffffff">o</text><text x="162" y="50" fill="#ffffff">m</text><text x="171" y="50" fill="#ffffff">p</text><text x="180" y="50" fill="#00ff41">│</text><rect x="189" y="36" width="9" height="18" fill="#1c1c1c"/><rect x="0" y="54" width="9" height="18" fill="#1c1c1c"/><text x="9" y="68" fill="#00ff41">│</text><text x="180" y="68" fill="#00ff41">│</text><rect x="189" y="54" width="9" height="18" fill="#1c1c1c"/><rect x="0" y="72" width="9" height="18" fill="#1c1c1c"/><text x="9" y="86" fill="#00ff41">│</text><text x="180" y="86" fill="#00ff41">│</text><rect x="189" y="72" width="9" height="18" fill="#1c1c1c"/><rect x="0" y="90" width="9" height="18" fill="#1c1c1c"/><text x="9" y="104" fill="#00ff41">│</text><text x="180" y="104" fill="#00ff41">│</text><rect x="189" y="90" width="9" height="18" fill="#1c1c1c"/><rect x="0" y="108" width="9" height="18" fill="#1c1c1c"/><text x="9" y="122" fill="#00ff41">│</text><text x="180" y="122" fill="#00ff41">│</text><rect x="189" y="108" width="9" height="18" fill="#1c1c1c"/><rect x="0" y="126" width="9" height="18" fill="#1c1c1c"/><text x="9" y="140" fill="#00ff41">└</text><text x="18" y="140" fill="#00ff41">─</text><text x="27" y="140" fill="#00ff41">─</text><text x="36" y="140" fill="#00ff41">─</text><text x="45" y="140" fill="#00ff41">─</text><text x="54" y="140" fill="#00ff41">─</text><text x="63" y="140" fill="#00ff41">─</text><text x="72" y="140" fill="#00ff41">─</text><text x="81" y="140" fill="#00ff41">─</text><text x="90" y="140" fill="#00ff41">─</text><text x="99" y="140" fill="#00ff41">─</text><text x="108" y="140" fill="#00ff41">─</text><text x="117" y="140" fill="#00ff41">─</text><text x="126" y="140" fill="#00ff41">─</text><text x="135" y="140" fill="#00ff41">─</text><text x="144" y="140" fill="#00ff41">─</text><text x="153" y="140" fill="#00ff41">─</text><text x="162" y="140" fill="#00ff41">─</text><text x="171" y="140" fill="#00ff41">─</text><text x="180" y="140" fill="#00ff41">┘</text><rect x="189" y="126" width="9" height="18" fill="#1c1c1c"/><rect x="0" y="144" width="9" height="18" fill="#1c1c1c"/><rect x="9" y="144" width="9" height="18" fill="#1c1c1c"/><rect x="18" y="144" width="9" height="18" fill="#1c1c1c"/><rect x="27" y="144" width="9" height="18" fill="#1c1c1c"/><rect x="36" y="144" width="9" height="18" fill="#1c1c1c"/><rect x="45" y="144" width="9" height="18" fill="#1c1c1c"/><rect x="54" y="144" width="9" height="18" fill="#1c1c1c"/><rect x="63" y="144" width="9" height="18" fill="#1c1c1c"/><rect x="72" y="144" width="9" height="18" fill="#1c1c1c"/><rect x="81" y="144" width="9" height="18" fill="#1c1c1c"/><rect x="90" y="144" width="9" height="18" fill="#1c1c1c"/><rect x="99" y="144" width="9" height="18" fill="#1c1c1c"/><rect x="108" y="144" width="9" height="18" fill="#1c1c1c"/><rect x="117" y="144" width="9" height="18" fill="#1c1c1c"/><rect x="126" y="144" width="9" height="18" fill="#1c1c1c"/><rect x="135" y="144" width="9" height="18" fill="#1c1c1c"/><rect x="144" y="144" width="9" height="18" fill="#1c1c1c"/><rect x="153" y="144" width="9" height="18" fill="#1c1c1c"/><rect x="162" y="144" width="9" height="18" fill="#1c1c1c"/><rect x="171" y="144" width="9" height="18" fill="#1c1c1c"/><rect x="180" y="144" width="9" height="18" fill="#1c1c1c"/><rect x="189" y="144" width="9" height="18" fill="#1c1c1c"/></g></svg>
