<svg xmlns="http://www.w3.org/2000/svg" width="234" height="252" viewBox="0 0 234 252" role="img" aria-label="Narrow form" style="background:#000000"><rect width="100%" height="100%" fill="#000000"/><g font-family="ui-monospace, SFMono-Regular, Menlo, Consolas, monospace" font-size="14"><rect x="0" y="0" width="9" height="18" fill="#1c1c1c"/><rect x="9" y="0" width="9" height="18" fill="#1c1c1c"/><rect x="18" y="0" width="9" height="18" fill="#1c1c1c"/><rect x="27" y="0" width="9" height="18" fill="#1c1c1c"/><rect x="36" y="0" width="9" height="18" fill="#1c1c1c"/><rect x="45" y="0" width="9" height="18" fill="#1c1c1c"/><rect x="54" y="0" width="9" height="18" fill="#1c1c1c"/><rect x="63" y="0" width="9" height="18" fill="#1c1c1c"/><rect x="72" y="0" width="9" height="18" fill="#1c1c1c"/><rect x="81" y="0" width="9" height="18" fill="#1c1c1c"/><rect x="90" y="0" width="9" height="18" fill="#1c1c1c"/><rect x="99" y="0" width="9" height="18" fill="#1c1c1c"/><rect x="108" y="0" width="9" height="18" fill="#1c1c1c"/><rect x="117" y="0" width="9" height="18" fill="#1c1c1c"/><rect x="126" y="0" width="9" height="18" fill="#1c1c1c"/><rect x="135" y="0" width="9" height="18" fill="#1c1c1c"/><rect x="144" y="0" width="9" height="18" fill="#1c1c1c"/><rect x="153" y="0" width="9" height="18" fill="#1c1c1c"/><rect x="162" y="0" width="9" height="18" fill="#1c1c1c"/><rect x="171" y="0" width="9" height="18" fill="#1c1c1c"/><rect x="180" y="0" width="9" height="18" fill="#1c1c1c"/><rect x="189" y="0" width="9" height="18" fill="#1c1c1c"/><rect x="198" y="0" width="9" height="18" fill="#1c1c1c"/><rect x="207" y="0" width="9" height="18" fill="#1c1c1c"/><rect x="216" y="0" width="9" height="18" fill="#1c1c1c"/><rect x="225" y="0" width="9" height="18" fill="#1c1c1c"/><rect x="0" y="18" width="9" height="18" fill="#1c1c1c"/><text x="9" y="32" fill="#ffffff">G</text><text x="18" y="32" fill="#ffffff">e</text><text x="27" y="32" fill="#ffffff">n</text><text x="36" y="32" fill="#ffffff">e</text><text x="45" y="32" fill="#ffffff">r</text><text x="54" y="32" fill="#ffffff">a</text><text x="63" y="32" fill="#ffffff">l</text><text x="216" y="32" fill="#00ff41">█</text><rect x="225" y="18" width="9" height="18" fill="#1c1c1c"/><rect x="0" y="36" width="9" height="18" fill="#1c1c1c"/><text x="216" y="50" fill="#00ff41">█</text><rect x="225" y="36" width="9" height="18" fill="#1c1c1c"/><rect x="0" y="54" width="9" height="18" fill="#1c1c1c"/><text x="9" y="68" fill="#ffffff">N</text><text x="18" y="68" fill="#ffffff">a</text><text x="27" y="68" fill="#ffffff">m</text><text x="36" y="68" fill="#ffffff">e</text><text x="207" y="68" fill="#00ff41">*</text><text x="216" y="68" fill="#00ff41">█</text><rect x="225" y="54" width="9" height="18" fill="#1c1c1c"/><rect x="0" y="72" width="9" height="18" fill="#1c1c1c"/><rect x="9" y="72" width="9" height="18" fill="#141816"/><text x="9" y="86" fill="#00ff41">E</text><rect x="18" y="72" width="9" height="18" fill="#141816"/><text x="18" y="86" fill="#00ff41">x</text><rect x="27" y="72" width="9" height="18" fill="#141816"/><text x="27" y="86" fill="#00ff41">a</text><rect x="36" y="72" width="9" height="18" fill="#141816"/><text x="36" y="86" fill="#00ff41">m</text><rect x="45" y="72" width="9" height="18" fill="#141816"/><text x="45" y="86" fill="#00ff41">p</text><rect x="54" y="72" width="9" height="18" fill="#141816"/><text x="54" y="86" fill="#00ff41">l</text><rect x="63" y="72" width="9" height="18" fill="#141816"/><text x="63" y="86" fill="#00ff41">e</text><rect x="72" y="72" width="9" height="18" fill="#141816"/><rect x="81" y="72" width="9" height="18" fill="#141816"/><text x="81" y="86" fill="#00ff41">p</text><rect x="90" y="72" width="9" height="18" fill="#141816"/><text x="90" y="86" fill="#00ff41">r</text><rect x="99" y="72" width="9" height="18" fill="#141816"/><text x="99" y="86" fill="#00ff41">o</text><rect x="108" y="72" width="9" height="18" fill="#141816"/><text x="108" y="86" fill="#00ff41">f</text><rect x="117" y="72" width="9" height="18" fill="#141816"/><text x="117" y="86" fill="#00ff41">i</text><rect x="126" y="72" width="9" height="18" fill="#141816"/><text x="126" y="86" fill="#00ff41">l</text><rect x="135" y="72" width="9" height="18" fill="#141816"/><text x="135" y="86" fill="#00ff41">e</text><rect x="144" y="72" width="9" height="18" fill="#141816"/><rect x="153" y="72" width="9" height="18" fill="#141816"/><rect x="162" y="72" width="9" height="18" fill="#141816"/><rect x="171" y="72" width="9" height="18" fill="#141816"/><rect x="180" y="72" width="9" height="18" fill="#141816"/><rect x="189" y="72" width="9" height="18" fill="#141816"/><rect x="198" y="72" width="9" height="18" fill="#141816"/><rect x="207" y="72" width="9" height="18" fill="#141816"/><text x="216" y="86" fill="#00ff41">█</text><rect x="225" y="72" width="9" height="18" fill="#1c1c1c"/><rect x="0" y="90" width="9" height="18" fill="#1c1c1c"/><text x="9" y="104" fill="#008c1e">A</text><text x="27" y="104" fill="#008c1e">r</text><text x="36" y="104" fill="#008c1e">e</text><text x="45" y="104" fill="#008c1e">c</text><text x="54" y="104" fill="#008c1e">o</text><text x="63" y="104" fill="#008c1e">g</text><text x="72" y="104" fill="#008c1e">n</text><text x="81" y="104" fill="#008c1e">i</text><text x="90" y="104" fill="#008c1e">z</text><text x="99" y="104" fill="#008c1e">a</text><text x="108" y="104" fill="#008c1e">b</text><text x="117" y="104" fill="#008c1e">l</text><text x="126" y="104" fill="#008c1e">e</text><text x="144" y="104" fill="#008c1e">d</text><text x="153" y="104" fill="#008c1e">i</text><text x="162" y="104" fill="#008c1e">s</text><text x="171" y="104" fill="#008c1e">p</text><text x="180" y="104" fill="#008c1e">l</text><text x="189" y="104" fill="#008c1e">a</text><text x="198" y="104" fill="#008c1e">y</text><text x="216" y="104" fill="#00ff41">█</text><rect x="225" y="90" width="9" height="18" fill="#1c1c1c"/><rect x="0" y="108" width="9" height="18" fill="#1c1c1c"/><text x="216" y="122" fill="#00ff41">█</text><rect x="225" y="108" width="9" height="18" fill="#1c1c1c"/><rect x="0" y="126" width="9" height="18" fill="#1c1c1c"/><text x="9" y="140" fill="#ffffff">E</text><text x="18" y="140" fill="#ffffff">n</text><text x="27" y="140" fill="#ffffff">d</text><text x="36" y="140" fill="#ffffff">p</text><text x="45" y="140" fill="#ffffff">o</text><text x="54" y="140" fill="#ffffff">i</text><text x="63" y="140" fill="#ffffff">n</text><text x="72" y="140" fill="#ffffff">t</text><text x="207" y="140" fill="#00ff41">*</text><text x="216" y="140" fill="#00ff41">█</text><rect x="225" y="126" width="9" height="18" fill="#1c1c1c"/><rect x="0" y="144" width="9" height="18" fill="#1c1c1c"/><rect x="9" y="144" width="9" height="18" fill="#141816"/><text x="9" y="158" fill="#ff5e7a">l</text><rect x="18" y="144" width="9" height="18" fill="#141816"/><text x="18" y="158" fill="#ff5e7a">o</text><rect x="27" y="144" width="9" height="18" fill="#141816"/><text x="27" y="158" fill="#ff5e7a">c</text><rect x="36" y="144" width="9" height="18" fill="#141816"/><text x="36" y="158" fill="#ff5e7a">a</text><rect x="45" y="144" width="9" height="18" fill="#141816"/><text x="45" y="158" fill="#ff5e7a">l</text><rect x="54" y="144" width="9" height="18" fill="#141816"/><text x="54" y="158" fill="#ff5e7a">h</text><rect x="63" y="144" width="9" height="18" fill="#141816"/><text x="63" y="158" fill="#ff5e7a">o</text><rect x="72" y="144" width="9" height="18" fill="#141816"/><text x="72" y="158" fill="#ff5e7a">s</text><rect x="81" y="144" width="9" height="18" fill="#141816"/><text x="81" y="158" fill="#ff5e7a">t</text><rect x="90" y="144" width="9" height="18" fill="#141816"/><rect x="99" y="144" width="9" height="18" fill="#141816"/><rect x="108" y="144" width="9" height="18" fill="#141816"/><rect x="117" y="144" width="9" height="18" fill="#141816"/><rect x="126" y="144" width="9" height="18" fill="#141816"/><rect x="135" y="144" width="9" height="18" fill="#141816"/><rect x="144" y="144" width="9" height="18" fill="#141816"/><rect x="153" y="144" width="9" height="18" fill="#141816"/><rect x="162" y="144" width="9" height="18" fill="#141816"/><rect x="171" y="144" width="9" height="18" fill="#141816"/><rect x="180" y="144" width="9" height="18" fill="#141816"/><rect x="189" y="144" width="9" height="18" fill="#141816"/><rect x="198" y="144" width="9" height="18" fill="#141816"/><rect x="207" y="144" width="9" height="18" fill="#141816"/><text x="216" y="158" fill="#00ff41">█</text><rect x="225" y="144" width="9" height="18" fill="#1c1c1c"/><rect x="0" y="162" width="9" height="18" fill="#1c1c1c"/><text x="9" y="176" fill="#ff5e7a">E</text><text x="18" y="176" fill="#ff5e7a">n</text><text x="27" y="176" fill="#ff5e7a">t</text><text x="36" y="176" fill="#ff5e7a">e</text><text x="45" y="176" fill="#ff5e7a">r</text><text x="63" y="176" fill="#ff5e7a">a</text><text x="81" y="176" fill="#ff5e7a">r</text><text x="90" y="176" fill="#ff5e7a">e</text><text x="99" y="176" fill="#ff5e7a">a</text><text x="108" y="176" fill="#ff5e7a">c</text><text x="117" y="176" fill="#ff5e7a">h</text><text x="126" y="176" fill="#ff5e7a">a</text><text x="135" y="176" fill="#ff5e7a">b</text><text x="144" y="176" fill="#ff5e7a">l</text><text x="153" y="176" fill="#ff5e7a">e</text><text x="171" y="176" fill="#ff5e7a">a</text><text x="180" y="176" fill="#ff5e7a">d</text><text x="189" y="176" fill="#ff5e7a">d</text><text x="198" y="176" fill="#ff5e7a">r</text><text x="207" y="176" fill="#ff5e7a">e</text><text x="216" y="176" fill="#00ff41">█</text><rect x="225" y="162" width="9" height="18" fill="#1c1c1c"/><rect x="0" y="180" width="9" height="18" fill="#1c1c1c"/><text x="216" y="194" fill="#00ff41">█</text><rect x="225" y="180" width="9" height="18" fill="#1c1c1c"/><rect x="0" y="198" width="9" height="18" fill="#1c1c1c"/><text x="9" y="212" fill="#505050">M</text><text x="18" y="212" fill="#505050">a</text><text x="27" y="212" fill="#505050">n</text><text x="36" y="212" fill="#505050">a</text><text x="45" y="212" fill="#505050">g</text><text x="54" y="212" fill="#505050">e</text><text x="63" y="212" fill="#505050">d</text><text x="81" y="212" fill="#505050">m</text><text x="90" y="212" fill="#505050">o</text><text x="99" y="212" fill="#505050">d</text><text x="108" y="212" fill="#505050">e</text><text x="216" y="212" fill="#00ff41">█</text><rect x="225" y="198" width="9" height="18" fill="#1c1c1c"/><rect x="0" y="216" width="9" height="18" fill="#1c1c1c"/><rect x="9" y="216" width="9" height="18" fill="#141816"/><text x="9" y="230" fill="#505050">U</text><rect x="18" y="216" width="9" height="18" fill="#141816"/><text x="18" y="230" fill="#505050">n</text><rect x="27" y="216" width="9" height="18" fill="#141816"/><text x="27" y="230" fill="#505050">a</text><rect x="36" y="216" width="9" height="18" fill="#141816"/><text x="36" y="230" fill="#505050">v</text><rect x="45" y="216" width="9" height="18" fill="#141816"/><text x="45" y="230" fill="#505050">a</text><rect x="54" y="216" width="9" height="18" fill="#141816"/><text x="54" y="230" fill="#505050">i</text><rect x="63" y="216" width="9" height="18" fill="#141816"/><text x="63" y="230" fill="#505050">l</text><rect x="72" y="216" width="9" height="18" fill="#141816"/><text x="72" y="230" fill="#505050">a</text><rect x="81" y="216" width="9" height="18" fill="#141816"/><text x="81" y="230" fill="#505050">b</text><rect x="90" y="216" width="9" height="18" fill="#141816"/><text x="90" y="230" fill="#505050">l</text><rect x="99" y="216" width="9" height="18" fill="#141816"/><text x="99" y="230" fill="#505050">e</text><rect x="108" y="216" width="9" height="18" fill="#141816"/><rect x="117" y="216" width="9" height="18" fill="#141816"/><rect x="126" y="216" width="9" height="18" fill="#141816"/><rect x="135" y="216" width="9" height="18" fill="#141816"/><rect x="144" y="216" width="9" height="18" fill="#141816"/><rect x="153" y="216" width="9" height="18" fill="#141816"/><rect x="162" y="216" width="9" height="18" fill="#141816"/><rect x="171" y="216" width="9" height="18" fill="#141816"/><rect x="180" y="216" width="9" height="18" fill="#141816"/><rect x="189" y="216" width="9" height="18" fill="#141816"/><rect x="198" y="216" width="9" height="18" fill="#141816"/><rect x="207" y="216" width="9" height="18" fill="#141816"/><text x="207" y="230" fill="#505050">⊘</text><text x="216" y="230" fill="#005012">│</text><rect x="225" y="216" width="9" height="18" fill="#1c1c1c"/><rect x="0" y="234" width="9" height="18" fill="#1c1c1c"/><rect x="9" y="234" width="9" height="18" fill="#1c1c1c"/><rect x="18" y="234" width="9" height="18" fill="#1c1c1c"/><rect x="27" y="234" width="9" height="18" fill="#1c1c1c"/><rect x="36" y="234" width="9" height="18" fill="#1c1c1c"/><rect x="45" y="234" width="9" height="18" fill="#1c1c1c"/><rect x="54" y="234" width="9" height="18" fill="#1c1c1c"/><rect x="63" y="234" width="9" height="18" fill="#1c1c1c"/><rect x="72" y="234" width="9" height="18" fill="#1c1c1c"/><rect x="81" y="234" width="9" height="18" fill="#1c1c1c"/><rect x="90" y="234" width="9" height="18" fill="#1c1c1c"/><rect x="99" y="234" width="9" height="18" fill="#1c1c1c"/><rect x="108" y="234" width="9" height="18" fill="#1c1c1c"/><rect x="117" y="234" width="9" height="18" fill="#1c1c1c"/><rect x="126" y="234" width="9" height="18" fill="#1c1c1c"/><rect x="135" y="234" width="9" height="18" fill="#1c1c1c"/><rect x="144" y="234" width="9" height="18" fill="#1c1c1c"/><rect x="153" y="234" width="9" height="18" fill="#1c1c1c"/><rect x="162" y="234" width="9" height="18" fill="#1c1c1c"/><rect x="171" y="234" width="9" height="18" fill="#1c1c1c"/><rect x="180" y="234" width="9" height="18" fill="#1c1c1c"/><rect x="189" y="234" width="9" height="18" fill="#1c1c1c"/><rect x="198" y="234" width="9" height="18" fill="#1c1c1c"/><rect x="207" y="234" width="9" height="18" fill="#1c1c1c"/><rect x="216" y="234" width="9" height="18" fill="#1c1c1c"/><rect x="225" y="234" width="9" height="18" fill="#1c1c1c"/></g></svg>
