<svg xmlns="http://www.w3.org/2000/svg" width="342" height="180" viewBox="0 0 342 180" role="img" aria-label="Histogram" style="background:#000000"><rect width="100%" height="100%" fill="#000000"/><g font-family="ui-monospace, SFMono-Regular, Menlo, Consolas, monospace" font-size="14"><rect x="0" y="0" width="9" height="18" fill="#1c1c1c"/><rect x="9" y="0" width="9" height="18" fill="#1c1c1c"/><rect x="18" y="0" width="9" height="18" fill="#1c1c1c"/><rect x="27" y="0" width="9" height="18" fill="#1c1c1c"/><rect x="36" y="0" width="9" height="18" fill="#1c1c1c"/><rect x="45" y="0" width="9" height="18" fill="#1c1c1c"/><rect x="54" y="0" width="9" height="18" fill="#1c1c1c"/><rect x="63" y="0" width="9" height="18" fill="#1c1c1c"/><rect x="72" y="0" width="9" height="18" fill="#1c1c1c"/><rect x="81" y="0" width="9" height="18" fill="#1c1c1c"/><rect x="90" y="0" width="9" height="18" fill="#1c1c1c"/><rect x="99" y="0" width="9" height="18" fill="#1c1c1c"/><rect x="108" y="0" width="9" height="18" fill="#1c1c1c"/><rect x="117" y="0" width="9" height="18" fill="#1c1c1c"/><rect x="126" y="0" width="9" height="18" fill="#1c1c1c"/><rect x="135" y="0" width="9" height="18" fill="#1c1c1c"/><rect x="144" y="0" width="9" height="18" fill="#1c1c1c"/><rect x="153" y="0" width="9" height="18" fill="#1c1c1c"/><rect x="162" y="0" width="9" height="18" fill="#1c1c1c"/><rect x="171" y="0" width="9" height="18" fill="#1c1c1c"/><rect x="180" y="0" width="9" height="18" fill="#1c1c1c"/><rect x="189" y="0" width="9" height="18" fill="#1c1c1c"/><rect x="198" y="0" width="9" height="18" fill="#1c1c1c"/><rect x="207" y="0" width="9" height="18" fill="#1c1c1c"/><rect x="216" y="0" width="9" height="18" fill="#1c1c1c"/><rect x="225" y="0" width="9" height="18" fill="#1c1c1c"/><rect x="234" y="0" width="9" height="18" fill="#1c1c1c"/><rect x="243" y="0" width="9" height="18" fill="#1c1c1c"/><rect x="252" y="0" width="9" height="18" fill="#1c1c1c"/><rect x="261" y="0" width="9" height="18" fill="#1c1c1c"/><rect x="270" y="0" width="9" height="18" fill="#1c1c1c"/><rect x="279" y="0" width="9" height="18" fill="#1c1c1c"/><rect x="288" y="0" width="9" height="18" fill="#1c1c1c"/><rect x="297" y="0" width="9" height="18" fill="#1c1c1c"/><rect x="306" y="0" width="9" height="18" fill="#1c1c1c"/><rect x="315" y="0" width="9" height="18" fill="#1c1c1c"/><rect x="324" y="0" width="9" height="18" fill="#1c1c1c"/><rect x="333" y="0" width="9" height="18" fill="#1c1c1c"/><rect x="0" y="18" width="9" height="18" fill="#1c1c1c"/><text x="9" y="32" fill="#ffffff">l</text><text x="18" y="32" fill="#ffffff">a</text><text x="27" y="32" fill="#ffffff">t</text><text x="36" y="32" fill="#ffffff">e</text><text x="45" y="32" fill="#ffffff">n</text><text x="54" y="32" fill="#ffffff">c</text><text x="63" y="32" fill="#ffffff">y</text><rect x="333" y="18" width="9" height="18" fill="#1c1c1c"/><rect x="0" y="36" width="9" height="18" fill="#1c1c1c"/><text x="135" y="50" fill="#ffffff">█</text><rect x="333" y="36" width="9" height="18" fill="#1c1c1c"/><rect x="0" y="54" width="9" height="18" fill="#1c1c1c"/><text x="135" y="68" fill="#ffffff">█</text><rect x="333" y="54" width="9" height="18" fill="#1c1c1c"/><rect x="0" y="72" width="9" height="18" fill="#1c1c1c"/><text x="135" y="86" fill="#ffffff">█</text><rect x="333" y="72" width="9" height="18" fill="#1c1c1c"/><rect x="0" y="90" width="9" height="18" fill="#1c1c1c"/><text x="72" y="104" fill="#00ff41">█</text><text x="135" y="104" fill="#ffffff">█</text><text x="198" y="104" fill="#00ff41">█</text><rect x="333" y="90" width="9" height="18" fill="#1c1c1c"/><rect x="0" y="108" width="9" height="18" fill="#1c1c1c"/><text x="72" y="122" fill="#00ff41">█</text><text x="135" y="122" fill="#ffffff">█</text><text x="198" y="122" fill="#00ff41">█</text><text x="261" y="122" fill="#00ff41">█</text><rect x="333" y="108" width="9" height="18" fill="#1c1c1c"/><rect x="0" y="126" width="9" height="18" fill="#1c1c1c"/><text x="9" y="140" fill="#00ff41">█</text><text x="72" y="140" fill="#00ff41">█</text><text x="135" y="140" fill="#ffffff">█</text><text x="198" y="140" fill="#00ff41">█</text><text x="261" y="140" fill="#00ff41">█</text><rect x="333" y="126" width="9" height="18" fill="#1c1c1c"/><rect x="0" y="144" width="9" height="18" fill="#1c1c1c"/><text x="9" y="158" fill="#505050">0</text><text x="72" y="158" fill="#505050">1</text><text x="135" y="158" fill="#505050">2</text><text x="198" y="158" fill="#505050">3</text><text x="261" y="158" fill="#505050">4</text><rect x="333" y="144" width="9" height="18" fill="#1c1c1c"/><rect x="0" y="162" width="9" height="18" fill="#1c1c1c"/><rect x="9" y="162" width="9" height="18" fill="#1c1c1c"/><rect x="18" y="162" width="9" height="18" fill="#1c1c1c"/><rect x="27" y="162" width="9" height="18" fill="#1c1c1c"/><rect x="36" y="162" width="9" height="18" fill="#1c1c1c"/><rect x="45" y="162" width="9" height="18" fill="#1c1c1c"/><rect x="54" y="162" width="9" height="18" fill="#1c1c1c"/><rect x="63" y="162" width="9" height="18" fill="#1c1c1c"/><rect x="72" y="162" width="9" height="18" fill="#1c1c1c"/><rect x="81" y="162" width="9" height="18" fill="#1c1c1c"/><rect x="90" y="162" width="9" height="18" fill="#1c1c1c"/><rect x="99" y="162" width="9" height="18" fill="#1c1c1c"/><rect x="108" y="162" width="9" height="18" fill="#1c1c1c"/><rect x="117" y="162" width="9" height="18" fill="#1c1c1c"/><rect x="126" y="162" width="9" height="18" fill="#1c1c1c"/><rect x="135" y="162" width="9" height="18" fill="#1c1c1c"/><rect x="144" y="162" width="9" height="18" fill="#1c1c1c"/><rect x="153" y="162" width="9" height="18" fill="#1c1c1c"/><rect x="162" y="162" width="9" height="18" fill="#1c1c1c"/><rect x="171" y="162" width="9" height="18" fill="#1c1c1c"/><rect x="180" y="162" width="9" height="18" fill="#1c1c1c"/><rect x="189" y="162" width="9" height="18" fill="#1c1c1c"/><rect x="198" y="162" width="9" height="18" fill="#1c1c1c"/><rect x="207" y="162" width="9" height="18" fill="#1c1c1c"/><rect x="216" y="162" width="9" height="18" fill="#1c1c1c"/><rect x="225" y="162" width="9" height="18" fill="#1c1c1c"/><rect x="234" y="162" width="9" height="18" fill="#1c1c1c"/><rect x="243" y="162" width="9" height="18" fill="#1c1c1c"/><rect x="252" y="162" width="9" height="18" fill="#1c1c1c"/><rect x="261" y="162" width="9" height="18" fill="#1c1c1c"/><rect x="270" y="162" width="9" height="18" fill="#1c1c1c"/><rect x="279" y="162" width="9" height="18" fill="#1c1c1c"/><rect x="288" y="162" width="9" height="18" fill="#1c1c1c"/><rect x="297" y="162" width="9" height="18" fill="#1c1c1c"/><rect x="306" y="162" width="9" height="18" fill="#1c1c1c"/><rect x="315" y="162" width="9" height="18" fill="#1c1c1c"/><rect x="324" y="162" width="9" height="18" fill="#1c1c1c"/><rect x="333" y="162" width="9" height="18" fill="#1c1c1c"/></g></svg>
