<svg xmlns="http://www.w3.org/2000/svg" width="396" height="144" viewBox="0 0 396 144" role="img" aria-label="List" style="background:#000000"><rect width="100%" height="100%" fill="#000000"/><g font-family="ui-monospace, SFMono-Regular, Menlo, Consolas, monospace" font-size="14"><rect x="0" y="0" width="9" height="18" fill="#1c1c1c"/><rect x="9" y="0" width="9" height="18" fill="#1c1c1c"/><rect x="18" y="0" width="9" height="18" fill="#1c1c1c"/><rect x="27" y="0" width="9" height="18" fill="#1c1c1c"/><rect x="36" y="0" width="9" height="18" fill="#1c1c1c"/><rect x="45" y="0" width="9" height="18" fill="#1c1c1c"/><rect x="54" y="0" width="9" height="18" fill="#1c1c1c"/><rect x="63" y="0" width="9" height="18" fill="#1c1c1c"/><rect x="72" y="0" width="9" height="18" fill="#1c1c1c"/><rect x="81" y="0" width="9" height="18" fill="#1c1c1c"/><rect x="90" y="0" width="9" height="18" fill="#1c1c1c"/><rect x="99" y="0" width="9" height="18" fill="#1c1c1c"/><rect x="108" y="0" width="9" height="18" fill="#1c1c1c"/><rect x="117" y="0" width="9" height="18" fill="#1c1c1c"/><rect x="126" y="0" width="9" height="18" fill="#1c1c1c"/><rect x="135" y="0" width="9" height="18" fill="#1c1c1c"/><rect x="144" y="0" width="9" height="18" fill="#1c1c1c"/><rect x="153" y="0" width="9" height="18" fill="#1c1c1c"/><rect x="162" y="0" width="9" height="18" fill="#1c1c1c"/><rect x="171" y="0" width="9" height="18" fill="#1c1c1c"/><rect x="180" y="0" width="9" height="18" fill="#1c1c1c"/><rect x="189" y="0" width="9" height="18" fill="#1c1c1c"/><rect x="198" y="0" width="9" height="18" fill="#1c1c1c"/><rect x="207" y="0" width="9" height="18" fill="#1c1c1c"/><rect x="216" y="0" width="9" height="18" fill="#1c1c1c"/><rect x="225" y="0" width="9" height="18" fill="#1c1c1c"/><rect x="234" y="0" width="9" height="18" fill="#1c1c1c"/><rect x="243" y="0" width="9" height="18" fill="#1c1c1c"/><rect x="252" y="0" width="9" height="18" fill="#1c1c1c"/><rect x="261" y="0" width="9" height="18" fill="#1c1c1c"/><rect x="270" y="0" width="9" height="18" fill="#1c1c1c"/><rect x="279" y="0" width="9" height="18" fill="#1c1c1c"/><rect x="288" y="0" width="9" height="18" fill="#1c1c1c"/><rect x="297" y="0" width="9" height="18" fill="#1c1c1c"/><rect x="306" y="0" width="9" height="18" fill="#1c1c1c"/><rect x="315" y="0" width="9" height="18" fill="#1c1c1c"/><rect x="324" y="0" width="9" height="18" fill="#1c1c1c"/><rect x="333" y="0" width="9" height="18" fill="#1c1c1c"/><rect x="342" y="0" width="9" height="18" fill="#1c1c1c"/><rect x="351" y="0" width="9" height="18" fill="#1c1c1c"/><rect x="360" y="0" width="9" height="18" fill="#1c1c1c"/><rect x="369" y="0" width="9" height="18" fill="#1c1c1c"/><rect x="378" y="0" width="9" height="18" fill="#1c1c1c"/><rect x="387" y="0" width="9" height="18" fill="#1c1c1c"/><rect x="0" y="18" width="9" height="18" fill="#1c1c1c"/><text x="9" y="32" fill="#ffffff">─</text><text x="27" y="32" fill="#ffffff">W</text><text x="36" y="32" fill="#ffffff">o</text><text x="45" y="32" fill="#ffffff">r</text><text x="54" y="32" fill="#ffffff">k</text><text x="63" y="32" fill="#ffffff">s</text><text x="72" y="32" fill="#ffffff">p</text><text x="81" y="32" fill="#ffffff">a</text><text x="90" y="32" fill="#ffffff">c</text><text x="99" y="32" fill="#ffffff">e</text><rect x="387" y="18" width="9" height="18" fill="#1c1c1c"/><rect x="0" y="36" width="9" height="18" fill="#1c1c1c"/><text x="27" y="50" fill="#ffffff">A</text><text x="36" y="50" fill="#ffffff">l</text><text x="45" y="50" fill="#ffffff">p</text><text x="54" y="50" fill="#ffffff">h</text><text x="63" y="50" fill="#ffffff">a</text><rect x="387" y="36" width="9" height="18" fill="#1c1c1c"/><rect x="0" y="54" width="9" height="18" fill="#1c1c1c"/><rect x="9" y="54" width="9" height="18" fill="#00ff41"/><text x="9" y="68" fill="#000000">▸</text><rect x="18" y="54" width="9" height="18" fill="#00ff41"/><rect x="27" y="54" width="9" height="18" fill="#00ff41"/><text x="27" y="68" fill="#000000">B</text><rect x="36" y="54" width="9" height="18" fill="#00ff41"/><text x="36" y="68" fill="#000000">e</text><rect x="45" y="54" width="9" height="18" fill="#00ff41"/><text x="45" y="68" fill="#000000">t</text><rect x="54" y="54" width="9" height="18" fill="#00ff41"/><text x="54" y="68" fill="#000000">a</text><rect x="63" y="54" width="9" height="18" fill="#00ff41"/><rect x="72" y="54" width="9" height="18" fill="#00ff41"/><rect x="81" y="54" width="9" height="18" fill="#00ff41"/><rect x="90" y="54" width="9" height="18" fill="#00ff41"/><rect x="99" y="54" width="9" height="18" fill="#00ff41"/><rect x="108" y="54" width="9" height="18" fill="#00ff41"/><rect x="117" y="54" width="9" height="18" fill="#00ff41"/><rect x="126" y="54" width="9" height="18" fill="#00ff41"/><rect x="135" y="54" width="9" height="18" fill="#00ff41"/><rect x="144" y="54" width="9" height="18" fill="#00ff41"/><rect x="153" y="54" width="9" height="18" fill="#00ff41"/><rect x="162" y="54" width="9" height="18" fill="#00ff41"/><rect x="171" y="54" width="9" height="18" fill="#00ff41"/><rect x="180" y="54" width="9" height="18" fill="#00ff41"/><rect x="189" y="54" width="9" height="18" fill="#00ff41"/><rect x="198" y="54" width="9" height="18" fill="#00ff41"/><rect x="207" y="54" width="9" height="18" fill="#00ff41"/><rect x="216" y="54" width="9" height="18" fill="#00ff41"/><rect x="225" y="54" width="9" height="18" fill="#00ff41"/><rect x="234" y="54" width="9" height="18" fill="#00ff41"/><rect x="243" y="54" width="9" height="18" fill="#00ff41"/><rect x="252" y="54" width="9" height="18" fill="#00ff41"/><rect x="261" y="54" width="9" height="18" fill="#00ff41"/><rect x="270" y="54" width="9" height="18" fill="#00ff41"/><rect x="279" y="54" width="9" height="18" fill="#00ff41"/><rect x="288" y="54" width="9" height="18" fill="#00ff41"/><rect x="297" y="54" width="9" height="18" fill="#00ff41"/><rect x="306" y="54" width="9" height="18" fill="#00ff41"/><rect x="315" y="54" width="9" height="18" fill="#00ff41"/><rect x="324" y="54" width="9" height="18" fill="#00ff41"/><rect x="333" y="54" width="9" height="18" fill="#00ff41"/><rect x="342" y="54" width="9" height="18" fill="#00ff41"/><rect x="351" y="54" width="9" height="18" fill="#00ff41"/><rect x="360" y="54" width="9" height="18" fill="#00ff41"/><rect x="369" y="54" width="9" height="18" fill="#00ff41"/><rect x="378" y="54" width="9" height="18" fill="#00ff41"/><rect x="387" y="54" width="9" height="18" fill="#1c1c1c"/><rect x="0" y="72" width="9" height="18" fill="#1c1c1c"/><text x="27" y="86" fill="#505050">G</text><text x="36" y="86" fill="#505050">a</text><text x="45" y="86" fill="#505050">m</text><text x="54" y="86" fill="#505050">m</text><text x="63" y="86" fill="#505050">a</text><rect x="387" y="72" width="9" height="18" fill="#1c1c1c"/><rect x="0" y="90" width="9" height="18" fill="#1c1c1c"/><rect x="387" y="90" width="9" height="18" fill="#1c1c1c"/><rect x="0" y="108" width="9" height="18" fill="#1c1c1c"/><rect x="387" y="108" width="9" height="18" fill="#1c1c1c"/><rect x="0" y="126" width="9" height="18" fill="#1c1c1c"/><rect x="9" y="126" width="9" height="18" fill="#1c1c1c"/><rect x="18" y="126" width="9" height="18" fill="#1c1c1c"/><rect x="27" y="126" width="9" height="18" fill="#1c1c1c"/><rect x="36" y="126" width="9" height="18" fill="#1c1c1c"/><rect x="45" y="126" width="9" height="18" fill="#1c1c1c"/><rect x="54" y="126" width="9" height="18" fill="#1c1c1c"/><rect x="63" y="126" width="9" height="18" fill="#1c1c1c"/><rect x="72" y="126" width="9" height="18" fill="#1c1c1c"/><rect x="81" y="126" width="9" height="18" fill="#1c1c1c"/><rect x="90" y="126" width="9" height="18" fill="#1c1c1c"/><rect x="99" y="126" width="9" height="18" fill="#1c1c1c"/><rect x="108" y="126" width="9" height="18" fill="#1c1c1c"/><rect x="117" y="126" width="9" height="18" fill="#1c1c1c"/><rect x="126" y="126" width="9" height="18" fill="#1c1c1c"/><rect x="135" y="126" width="9" height="18" fill="#1c1c1c"/><rect x="144" y="126" width="9" height="18" fill="#1c1c1c"/><rect x="153" y="126" width="9" height="18" fill="#1c1c1c"/><rect x="162" y="126" width="9" height="18" fill="#1c1c1c"/><rect x="171" y="126" width="9" height="18" fill="#1c1c1c"/><rect x="180" y="126" width="9" height="18" fill="#1c1c1c"/><rect x="189" y="126" width="9" height="18" fill="#1c1c1c"/><rect x="198" y="126" width="9" height="18" fill="#1c1c1c"/><rect x="207" y="126" width="9" height="18" fill="#1c1c1c"/><rect x="216" y="126" width="9" height="18" fill="#1c1c1c"/><rect x="225" y="126" width="9" height="18" fill="#1c1c1c"/><rect x="234" y="126" width="9" height="18" fill="#1c1c1c"/><rect x="243" y="126" width="9" height="18" fill="#1c1c1c"/><rect x="252" y="126" width="9" height="18" fill="#1c1c1c"/><rect x="261" y="126" width="9" height="18" fill="#1c1c1c"/><rect x="270" y="126" width="9" height="18" fill="#1c1c1c"/><rect x="279" y="126" width="9" height="18" fill="#1c1c1c"/><rect x="288" y="126" width="9" height="18" fill="#1c1c1c"/><rect x="297" y="126" width="9" height="18" fill="#1c1c1c"/><rect x="306" y="126" width="9" height="18" fill="#1c1c1c"/><rect x="315" y="126" width="9" height="18" fill="#1c1c1c"/><rect x="324" y="126" width="9" height="18" fill="#1c1c1c"/><rect x="333" y="126" width="9" height="18" fill="#1c1c1c"/><rect x="342" y="126" width="9" height="18" fill="#1c1c1c"/><rect x="351" y="126" width="9" height="18" fill="#1c1c1c"/><rect x="360" y="126" width="9" height="18" fill="#1c1c1c"/><rect x="369" y="126" width="9" height="18" fill="#1c1c1c"/><rect x="378" y="126" width="9" height="18" fill="#1c1c1c"/><rect x="387" y="126" width="9" height="18" fill="#1c1c1c"/></g></svg>
