<svg xmlns="http://www.w3.org/2000/svg" width="270" height="126" viewBox="0 0 270 126" role="img" aria-label="Unicode list" style="background:#000000"><rect width="100%" height="100%" fill="#000000"/><g font-family="ui-monospace, SFMono-Regular, Menlo, Consolas, monospace" font-size="14"><rect x="0" y="0" width="9" height="18" fill="#1c1c1c"/><rect x="9" y="0" width="9" height="18" fill="#1c1c1c"/><rect x="18" y="0" width="9" height="18" fill="#1c1c1c"/><rect x="27" y="0" width="9" height="18" fill="#1c1c1c"/><rect x="36" y="0" width="9" height="18" fill="#1c1c1c"/><rect x="45" y="0" width="9" height="18" fill="#1c1c1c"/><rect x="54" y="0" width="9" height="18" fill="#1c1c1c"/><rect x="63" y="0" width="9" height="18" fill="#1c1c1c"/><rect x="72" y="0" width="9" height="18" fill="#1c1c1c"/><rect x="81" y="0" width="9" height="18" fill="#1c1c1c"/><rect x="90" y="0" width="9" height="18" fill="#1c1c1c"/><rect x="99" y="0" width="9" height="18" fill="#1c1c1c"/><rect x="108" y="0" width="9" height="18" fill="#1c1c1c"/><rect x="117" y="0" width="9" height="18" fill="#1c1c1c"/><rect x="126" y="0" width="9" height="18" fill="#1c1c1c"/><rect x="135" y="0" width="9" height="18" fill="#1c1c1c"/><rect x="144" y="0" width="9" height="18" fill="#1c1c1c"/><rect x="153" y="0" width="9" height="18" fill="#1c1c1c"/><rect x="162" y="0" width="9" height="18" fill="#1c1c1c"/><rect x="171" y="0" width="9" height="18" fill="#1c1c1c"/><rect x="180" y="0" width="9" height="18" fill="#1c1c1c"/><rect x="189" y="0" width="9" height="18" fill="#1c1c1c"/><rect x="198" y="0" width="9" height="18" fill="#1c1c1c"/><rect x="207" y="0" width="9" height="18" fill="#1c1c1c"/><rect x="216" y="0" width="9" height="18" fill="#1c1c1c"/><rect x="225" y="0" width="9" height="18" fill="#1c1c1c"/><rect x="234" y="0" width="9" height="18" fill="#1c1c1c"/><rect x="243" y="0" width="9" height="18" fill="#1c1c1c"/><rect x="252" y="0" width="9" height="18" fill="#1c1c1c"/><rect x="261" y="0" width="9" height="18" fill="#1c1c1c"/><rect x="0" y="18" width="9" height="18" fill="#1c1c1c"/><rect x="9" y="18" width="9" height="18" fill="#00ff41"/><text x="9" y="32" fill="#000000">▸</text><rect x="18" y="18" width="9" height="18" fill="#00ff41"/><rect x="27" y="18" width="9" height="18" fill="#00ff41"/><text x="27" y="32" fill="#000000">東</text><rect x="45" y="18" width="9" height="18" fill="#00ff41"/><text x="45" y="32" fill="#000000">京</text><rect x="63" y="18" width="9" height="18" fill="#00ff41"/><rect x="72" y="18" width="9" height="18" fill="#00ff41"/><text x="72" y="32" fill="#000000">設</text><rect x="90" y="18" width="9" height="18" fill="#00ff41"/><text x="90" y="32" fill="#000000">定</text><rect x="108" y="18" width="9" height="18" fill="#00ff41"/><rect x="117" y="18" width="9" height="18" fill="#00ff41"/><rect x="126" y="18" width="9" height="18" fill="#00ff41"/><rect x="135" y="18" width="9" height="18" fill="#00ff41"/><rect x="144" y="18" width="9" height="18" fill="#00ff41"/><rect x="153" y="18" width="9" height="18" fill="#00ff41"/><rect x="162" y="18" width="9" height="18" fill="#00ff41"/><rect x="171" y="18" width="9" height="18" fill="#00ff41"/><rect x="180" y="18" width="9" height="18" fill="#00ff41"/><rect x="189" y="18" width="9" height="18" fill="#00ff41"/><rect x="198" y="18" width="9" height="18" fill="#00ff41"/><rect x="207" y="18" width="9" height="18" fill="#00ff41"/><text x="207" y="32" fill="#000000">日</text><rect x="225" y="18" width="9" height="18" fill="#00ff41"/><text x="225" y="32" fill="#000000">本</text><rect x="243" y="18" width="9" height="18" fill="#00ff41"/><text x="243" y="32" fill="#000000">語</text><rect x="261" y="18" width="9" height="18" fill="#1c1c1c"/><rect x="0" y="36" width="9" height="18" fill="#1c1c1c"/><text x="27" y="50" fill="#ffffff">🧪</text><text x="54" y="50" fill="#ffffff">L</text><text x="63" y="50" fill="#ffffff">a</text><text x="72" y="50" fill="#ffffff">b</text><text x="81" y="50" fill="#ffffff">o</text><text x="90" y="50" fill="#ffffff">r</text><text x="99" y="50" fill="#ffffff">a</text><text x="108" y="50" fill="#ffffff">t</text><text x="117" y="50" fill="#ffffff">o</text><text x="126" y="50" fill="#ffffff">r</text><text x="135" y="50" fill="#ffffff">y</text><text x="243" y="50" fill="#ffffff">✅</text><rect x="261" y="36" width="9" height="18" fill="#1c1c1c"/><rect x="0" y="54" width="9" height="18" fill="#1c1c1c"/><text x="27" y="68" fill="#ffffff">C</text><text x="36" y="68" fill="#ffffff">a</text><text x="45" y="68" fill="#ffffff">f</text><text x="54" y="68" fill="#ffffff">é</text><text x="72" y="68" fill="#ffffff">p</text><text x="81" y="68" fill="#ffffff">r</text><text x="90" y="68" fill="#ffffff">o</text><text x="99" y="68" fill="#ffffff">f</text><text x="108" y="68" fill="#ffffff">i</text><text x="117" y="68" fill="#ffffff">l</text><text x="126" y="68" fill="#ffffff">e</text><text x="252" y="68" fill="#ffffff">é</text><rect x="261" y="54" width="9" height="18" fill="#1c1c1c"/><rect x="0" y="72" width="9" height="18" fill="#1c1c1c"/><rect x="261" y="72" width="9" height="18" fill="#1c1c1c"/><rect x="0" y="90" width="9" height="18" fill="#1c1c1c"/><rect x="261" y="90" width="9" height="18" fill="#1c1c1c"/><rect x="0" y="108" width="9" height="18" fill="#1c1c1c"/><rect x="9" y="108" width="9" height="18" fill="#1c1c1c"/><rect x="18" y="108" width="9" height="18" fill="#1c1c1c"/><rect x="27" y="108" width="9" height="18" fill="#1c1c1c"/><rect x="36" y="108" width="9" height="18" fill="#1c1c1c"/><rect x="45" y="108" width="9" height="18" fill="#1c1c1c"/><rect x="54" y="108" width="9" height="18" fill="#1c1c1c"/><rect x="63" y="108" width="9" height="18" fill="#1c1c1c"/><rect x="72" y="108" width="9" height="18" fill="#1c1c1c"/><rect x="81" y="108" width="9" height="18" fill="#1c1c1c"/><rect x="90" y="108" width="9" height="18" fill="#1c1c1c"/><rect x="99" y="108" width="9" height="18" fill="#1c1c1c"/><rect x="108" y="108" width="9" height="18" fill="#1c1c1c"/><rect x="117" y="108" width="9" height="18" fill="#1c1c1c"/><rect x="126" y="108" width="9" height="18" fill="#1c1c1c"/><rect x="135" y="108" width="9" height="18" fill="#1c1c1c"/><rect x="144" y="108" width="9" height="18" fill="#1c1c1c"/><rect x="153" y="108" width="9" height="18" fill="#1c1c1c"/><rect x="162" y="108" width="9" height="18" fill="#1c1c1c"/><rect x="171" y="108" width="9" height="18" fill="#1c1c1c"/><rect x="180" y="108" width="9" height="18" fill="#1c1c1c"/><rect x="189" y="108" width="9" height="18" fill="#1c1c1c"/><rect x="198" y="108" width="9" height="18" fill="#1c1c1c"/><rect x="207" y="108" width="9" height="18" fill="#1c1c1c"/><rect x="216" y="108" width="9" height="18" fill="#1c1c1c"/><rect x="225" y="108" width="9" height="18" fill="#1c1c1c"/><rect x="234" y="108" width="9" height="18" fill="#1c1c1c"/><rect x="243" y="108" width="9" height="18" fill="#1c1c1c"/><rect x="252" y="108" width="9" height="18" fill="#1c1c1c"/><rect x="261" y="108" width="9" height="18" fill="#1c1c1c"/></g></svg>
