<svg xmlns="http://www.w3.org/2000/svg" width="144" height="144" viewBox="0 0 144 144" role="img" aria-label="Narrow list" style="background:#000000"><rect width="100%" height="100%" fill="#000000"/><g font-family="ui-monospace, SFMono-Regular, Menlo, Consolas, monospace" font-size="14"><rect x="0" y="0" width="9" height="18" fill="#1c1c1c"/><rect x="9" y="0" width="9" height="18" fill="#1c1c1c"/><rect x="18" y="0" width="9" height="18" fill="#1c1c1c"/><rect x="27" y="0" width="9" height="18" fill="#1c1c1c"/><rect x="36" y="0" width="9" height="18" fill="#1c1c1c"/><rect x="45" y="0" width="9" height="18" fill="#1c1c1c"/><rect x="54" y="0" width="9" height="18" fill="#1c1c1c"/><rect x="63" y="0" width="9" height="18" fill="#1c1c1c"/><rect x="72" y="0" width="9" height="18" fill="#1c1c1c"/><rect x="81" y="0" width="9" height="18" fill="#1c1c1c"/><rect x="90" y="0" width="9" height="18" fill="#1c1c1c"/><rect x="99" y="0" width="9" height="18" fill="#1c1c1c"/><rect x="108" y="0" width="9" height="18" fill="#1c1c1c"/><rect x="117" y="0" width="9" height="18" fill="#1c1c1c"/><rect x="126" y="0" width="9" height="18" fill="#1c1c1c"/><rect x="135" y="0" width="9" height="18" fill="#1c1c1c"/><rect x="0" y="18" width="9" height="18" fill="#1c1c1c"/><text x="9" y="32" fill="#ffffff">─</text><text x="54" y="32" fill="#ffffff">3</text><text x="72" y="32" fill="#ffffff">e</text><text x="81" y="32" fill="#ffffff">n</text><text x="90" y="32" fill="#ffffff">t</text><text x="99" y="32" fill="#ffffff">r</text><text x="108" y="32" fill="#ffffff">i</text><text x="117" y="32" fill="#ffffff">e</text><text x="126" y="32" fill="#ffffff">s</text><rect x="135" y="18" width="9" height="18" fill="#1c1c1c"/><rect x="0" y="36" width="9" height="18" fill="#1c1c1c"/><text x="27" y="50" fill="#00ff41">[</text><text x="36" y="50" fill="#00ff41">x</text><text x="45" y="50" fill="#00ff41">]</text><text x="90" y="50" fill="#00ff41">1</text><text x="99" y="50" fill="#00ff41">2</text><text x="117" y="50" fill="#00ff41">m</text><text x="126" y="50" fill="#00ff41">s</text><rect x="135" y="36" width="9" height="18" fill="#1c1c1c"/><rect x="0" y="54" width="9" height="18" fill="#1c1c1c"/><rect x="9" y="54" width="9" height="18" fill="#00ff41"/><text x="9" y="68" fill="#000000">▸</text><rect x="18" y="54" width="9" height="18" fill="#00ff41"/><rect x="27" y="54" width="9" height="18" fill="#00ff41"/><text x="27" y="68" fill="#000000">[</text><rect x="36" y="54" width="9" height="18" fill="#00ff41"/><rect x="45" y="54" width="9" height="18" fill="#00ff41"/><text x="45" y="68" fill="#000000">]</text><rect x="54" y="54" width="9" height="18" fill="#00ff41"/><rect x="63" y="54" width="9" height="18" fill="#00ff41"/><rect x="72" y="54" width="9" height="18" fill="#00ff41"/><rect x="81" y="54" width="9" height="18" fill="#00ff41"/><rect x="90" y="54" width="9" height="18" fill="#00ff41"/><text x="90" y="68" fill="#000000">2</text><rect x="99" y="54" width="9" height="18" fill="#00ff41"/><text x="99" y="68" fill="#000000">8</text><rect x="108" y="54" width="9" height="18" fill="#00ff41"/><rect x="117" y="54" width="9" height="18" fill="#00ff41"/><text x="117" y="68" fill="#000000">m</text><rect x="126" y="54" width="9" height="18" fill="#00ff41"/><text x="126" y="68" fill="#000000">s</text><rect x="135" y="54" width="9" height="18" fill="#1c1c1c"/><rect x="0" y="72" width="9" height="18" fill="#1c1c1c"/><text x="27" y="86" fill="#505050">[</text><text x="45" y="86" fill="#505050">]</text><rect x="135" y="72" width="9" height="18" fill="#1c1c1c"/><rect x="0" y="90" width="9" height="18" fill="#1c1c1c"/><rect x="135" y="90" width="9" height="18" fill="#1c1c1c"/><rect x="0" y="108" width="9" height="18" fill="#1c1c1c"/><rect x="135" y="108" width="9" height="18" fill="#1c1c1c"/><rect x="0" y="126" width="9" height="18" fill="#1c1c1c"/><rect x="9" y="126" width="9" height="18" fill="#1c1c1c"/><rect x="18" y="126" width="9" height="18" fill="#1c1c1c"/><rect x="27" y="126" width="9" height="18" fill="#1c1c1c"/><rect x="36" y="126" width="9" height="18" fill="#1c1c1c"/><rect x="45" y="126" width="9" height="18" fill="#1c1c1c"/><rect x="54" y="126" width="9" height="18" fill="#1c1c1c"/><rect x="63" y="126" width="9" height="18" fill="#1c1c1c"/><rect x="72" y="126" width="9" height="18" fill="#1c1c1c"/><rect x="81" y="126" width="9" height="18" fill="#1c1c1c"/><rect x="90" y="126" width="9" height="18" fill="#1c1c1c"/><rect x="99" y="126" width="9" height="18" fill="#1c1c1c"/><rect x="108" y="126" width="9" height="18" fill="#1c1c1c"/><rect x="117" y="126" width="9" height="18" fill="#1c1c1c"/><rect x="126" y="126" width="9" height="18" fill="#1c1c1c"/><rect x="135" y="126" width="9" height="18" fill="#1c1c1c"/></g></svg>
