<svg xmlns="http://www.w3.org/2000/svg" width="180" height="90" viewBox="0 0 180 90" role="img" aria-label="Narrow LoadingView" style="background:#000000"><rect width="100%" height="100%" fill="#000000"/><g font-family="ui-monospace, SFMono-Regular, Menlo, Consolas, monospace" font-size="14"><rect x="0" y="0" width="9" height="18" fill="#1c1c1c"/><rect x="9" y="0" width="9" height="18" fill="#1c1c1c"/><rect x="18" y="0" width="9" height="18" fill="#1c1c1c"/><rect x="27" y="0" width="9" height="18" fill="#1c1c1c"/><rect x="36" y="0" width="9" height="18" fill="#1c1c1c"/><rect x="45" y="0" width="9" height="18" fill="#1c1c1c"/><rect x="54" y="0" width="9" height="18" fill="#1c1c1c"/><rect x="63" y="0" width="9" height="18" fill="#1c1c1c"/><rect x="72" y="0" width="9" height="18" fill="#1c1c1c"/><rect x="81" y="0" width="9" height="18" fill="#1c1c1c"/><rect x="90" y="0" width="9" height="18" fill="#1c1c1c"/><rect x="99" y="0" width="9" height="18" fill="#1c1c1c"/><rect x="108" y="0" width="9" height="18" fill="#1c1c1c"/><rect x="117" y="0" width="9" height="18" fill="#1c1c1c"/><rect x="126" y="0" width="9" height="18" fill="#1c1c1c"/><rect x="135" y="0" width="9" height="18" fill="#1c1c1c"/><rect x="144" y="0" width="9" height="18" fill="#1c1c1c"/><rect x="153" y="0" width="9" height="18" fill="#1c1c1c"/><rect x="162" y="0" width="9" height="18" fill="#1c1c1c"/><rect x="171" y="0" width="9" height="18" fill="#1c1c1c"/><rect x="0" y="18" width="9" height="18" fill="#1c1c1c"/><rect x="171" y="18" width="9" height="18" fill="#1c1c1c"/><rect x="0" y="36" width="9" height="18" fill="#1c1c1c"/><text x="45" y="50" fill="#00b4b4">⠋</text><text x="63" y="50" fill="#00b4b4">L</text><text x="72" y="50" fill="#00b4b4">o</text><text x="81" y="50" fill="#00b4b4">a</text><text x="90" y="50" fill="#00b4b4">d</text><text x="99" y="50" fill="#00b4b4">i</text><text x="108" y="50" fill="#00b4b4">n</text><text x="117" y="50" fill="#00b4b4">g</text><text x="126" y="50" fill="#00b4b4">…</text><rect x="171" y="36" width="9" height="18" fill="#1c1c1c"/><rect x="0" y="54" width="9" height="18" fill="#1c1c1c"/><rect x="171" y="54" width="9" height="18" fill="#1c1c1c"/><rect x="0" y="72" width="9" height="18" fill="#1c1c1c"/><rect x="9" y="72" width="9" height="18" fill="#1c1c1c"/><rect x="18" y="72" width="9" height="18" fill="#1c1c1c"/><rect x="27" y="72" width="9" height="18" fill="#1c1c1c"/><rect x="36" y="72" width="9" height="18" fill="#1c1c1c"/><rect x="45" y="72" width="9" height="18" fill="#1c1c1c"/><rect x="54" y="72" width="9" height="18" fill="#1c1c1c"/><rect x="63" y="72" width="9" height="18" fill="#1c1c1c"/><rect x="72" y="72" width="9" height="18" fill="#1c1c1c"/><rect x="81" y="72" width="9" height="18" fill="#1c1c1c"/><rect x="90" y="72" width="9" height="18" fill="#1c1c1c"/><rect x="99" y="72" width="9" height="18" fill="#1c1c1c"/><rect x="108" y="72" width="9" height="18" fill="#1c1c1c"/><rect x="117" y="72" width="9" height="18" fill="#1c1c1c"/><rect x="126" y="72" width="9" height="18" fill="#1c1c1c"/><rect x="135" y="72" width="9" height="18" fill="#1c1c1c"/><rect x="144" y="72" width="9" height="18" fill="#1c1c1c"/><rect x="153" y="72" width="9" height="18" fill="#1c1c1c"/><rect x="162" y="72" width="9" height="18" fill="#1c1c1c"/><rect x="171" y="72" width="9" height="18" fill="#1c1c1c"/></g></svg>
