<svg xmlns="http://www.w3.org/2000/svg" width="666" height="288" viewBox="0 0 666 288" role="img" aria-label="MenuBar open cascade" style="background:#000000"><rect width="100%" height="100%" fill="#000000"/><g font-family="ui-monospace, SFMono-Regular, Menlo, Consolas, monospace" font-size="14"><rect x="0" y="0" width="9" height="18" fill="#1c1c1c"/><rect x="9" y="0" width="9" height="18" fill="#1c1c1c"/><rect x="18" y="0" width="9" height="18" fill="#1c1c1c"/><rect x="27" y="0" width="9" height="18" fill="#1c1c1c"/><rect x="36" y="0" width="9" height="18" fill="#1c1c1c"/><rect x="45" y="0" width="9" height="18" fill="#1c1c1c"/><rect x="54" y="0" width="9" height="18" fill="#1c1c1c"/><rect x="63" y="0" width="9" height="18" fill="#1c1c1c"/><rect x="72" y="0" width="9" height="18" fill="#1c1c1c"/><rect x="81" y="0" width="9" height="18" fill="#1c1c1c"/><rect x="90" y="0" width="9" height="18" fill="#1c1c1c"/><rect x="99" y="0" width="9" height="18" fill="#1c1c1c"/><rect x="108" y="0" width="9" height="18" fill="#1c1c1c"/><rect x="117" y="0" width="9" height="18" fill="#1c1c1c"/><rect x="126" y="0" width="9" height="18" fill="#1c1c1c"/><rect x="135" y="0" width="9" height="18" fill="#1c1c1c"/><rect x="144" y="0" width="9" height="18" fill="#1c1c1c"/><rect x="153" y="0" width="9" height="18" fill="#1c1c1c"/><rect x="162" y="0" width="9" height="18" fill="#1c1c1c"/><rect x="171" y="0" width="9" height="18" fill="#1c1c1c"/><rect x="180" y="0" width="9" height="18" fill="#1c1c1c"/><rect x="189" y="0" width="9" height="18" fill="#1c1c1c"/><rect x="198" y="0" width="9" height="18" fill="#1c1c1c"/><rect x="207" y="0" width="9" height="18" fill="#1c1c1c"/><rect x="216" y="0" width="9" height="18" fill="#1c1c1c"/><rect x="225" y="0" width="9" height="18" fill="#1c1c1c"/><rect x="234" y="0" width="9" height="18" fill="#1c1c1c"/><rect x="243" y="0" width="9" height="18" fill="#1c1c1c"/><rect x="252" y="0" width="9" height="18" fill="#1c1c1c"/><rect x="261" y="0" width="9" height="18" fill="#1c1c1c"/><rect x="270" y="0" width="9" height="18" fill="#1c1c1c"/><rect x="279" y="0" width="9" height="18" fill="#1c1c1c"/><rect x="288" y="0" width="9" height="18" fill="#1c1c1c"/><rect x="297" y="0" width="9" height="18" fill="#1c1c1c"/><rect x="306" y="0" width="9" height="18" fill="#1c1c1c"/><rect x="315" y="0" width="9" height="18" fill="#1c1c1c"/><rect x="324" y="0" width="9" height="18" fill="#1c1c1c"/><rect x="333" y="0" width="9" height="18" fill="#1c1c1c"/><rect x="342" y="0" width="9" height="18" fill="#1c1c1c"/><rect x="351" y="0" width="9" height="18" fill="#1c1c1c"/><rect x="360" y="0" width="9" height="18" fill="#1c1c1c"/><rect x="369" y="0" width="9" height="18" fill="#1c1c1c"/><rect x="378" y="0" width="9" height="18" fill="#1c1c1c"/><rect x="387" y="0" width="9" height="18" fill="#1c1c1c"/><rect x="396" y="0" width="9" height="18" fill="#1c1c1c"/><rect x="405" y="0" width="9" height="18" fill="#1c1c1c"/><rect x="414" y="0" width="9" height="18" fill="#1c1c1c"/><rect x="423" y="0" width="9" height="18" fill="#1c1c1c"/><rect x="432" y="0" width="9" height="18" fill="#1c1c1c"/><rect x="441" y="0" width="9" height="18" fill="#1c1c1c"/><rect x="450" y="0" width="9" height="18" fill="#1c1c1c"/><rect x="459" y="0" width="9" height="18" fill="#1c1c1c"/><rect x="468" y="0" width="9" height="18" fill="#1c1c1c"/><rect x="477" y="0" width="9" height="18" fill="#1c1c1c"/><rect x="486" y="0" width="9" height="18" fill="#1c1c1c"/><rect x="495" y="0" width="9" height="18" fill="#1c1c1c"/><rect x="504" y="0" width="9" height="18" fill="#1c1c1c"/><rect x="513" y="0" width="9" height="18" fill="#1c1c1c"/><rect x="522" y="0" width="9" height="18" fill="#1c1c1c"/><rect x="531" y="0" width="9" height="18" fill="#1c1c1c"/><rect x="540" y="0" width="9" height="18" fill="#1c1c1c"/><rect x="549" y="0" width="9" height="18" fill="#1c1c1c"/><rect x="558" y="0" width="9" height="18" fill="#1c1c1c"/><rect x="567" y="0" width="9" height="18" fill="#1c1c1c"/><rect x="576" y="0" width="9" height="18" fill="#1c1c1c"/><rect x="585" y="0" width="9" height="18" fill="#1c1c1c"/><rect x="594" y="0" width="9" height="18" fill="#1c1c1c"/><rect x="603" y="0" width="9" height="18" fill="#1c1c1c"/><rect x="612" y="0" width="9" height="18" fill="#1c1c1c"/><rect x="621" y="0" width="9" height="18" fill="#1c1c1c"/><rect x="630" y="0" width="9" height="18" fill="#1c1c1c"/><rect x="639" y="0" width="9" height="18" fill="#1c1c1c"/><rect x="648" y="0" width="9" height="18" fill="#1c1c1c"/><rect x="657" y="0" width="9" height="18" fill="#1c1c1c"/><rect x="0" y="18" width="9" height="18" fill="#1c1c1c"/><rect x="9" y="18" width="9" height="18" fill="#00ff41"/><rect x="18" y="18" width="9" height="18" fill="#00ff41"/><text x="18" y="32" fill="#000000">(</text><rect x="27" y="18" width="9" height="18" fill="#00ff41"/><text x="27" y="32" fill="#000000">F</text><rect x="36" y="18" width="9" height="18" fill="#00ff41"/><text x="36" y="32" fill="#000000">)</text><rect x="45" y="18" width="9" height="18" fill="#00ff41"/><text x="45" y="32" fill="#000000">i</text><rect x="54" y="18" width="9" height="18" fill="#00ff41"/><text x="54" y="32" fill="#000000">l</text><rect x="63" y="18" width="9" height="18" fill="#00ff41"/><text x="63" y="32" fill="#000000">e</text><rect x="72" y="18" width="9" height="18" fill="#00ff41"/><text x="90" y="32" fill="#ffffff">(</text><text x="99" y="32" fill="#ffffff">E</text><text x="108" y="32" fill="#ffffff">)</text><text x="117" y="32" fill="#ffffff">d</text><text x="126" y="32" fill="#ffffff">i</text><text x="135" y="32" fill="#ffffff">t</text><text x="162" y="32" fill="#ffffff">(</text><text x="171" y="32" fill="#ffffff">V</text><text x="180" y="32" fill="#ffffff">)</text><text x="189" y="32" fill="#ffffff">i</text><text x="198" y="32" fill="#ffffff">e</text><text x="207" y="32" fill="#ffffff">w</text><text x="234" y="32" fill="#ffffff">(</text><text x="243" y="32" fill="#ffffff">H</text><text x="252" y="32" fill="#ffffff">)</text><text x="261" y="32" fill="#ffffff">e</text><text x="270" y="32" fill="#ffffff">l</text><text x="279" y="32" fill="#ffffff">p</text><rect x="657" y="18" width="9" height="18" fill="#1c1c1c"/><rect x="0" y="36" width="9" height="18" fill="#1c1c1c"/><text x="9" y="50" fill="#00ff41">┌</text><text x="18" y="50" fill="#00ff41">─</text><text x="27" y="50" fill="#00ff41">─</text><text x="36" y="50" fill="#00ff41">─</text><text x="45" y="50" fill="#00ff41">─</text><text x="54" y="50" fill="#00ff41">─</text><text x="63" y="50" fill="#00ff41">─</text><text x="72" y="50" fill="#00ff41">─</text><text x="81" y="50" fill="#00ff41">─</text><text x="90" y="50" fill="#00ff41">─</text><text x="99" y="50" fill="#00ff41">─</text><text x="108" y="50" fill="#00ff41">─</text><text x="117" y="50" fill="#00ff41">─</text><text x="126" y="50" fill="#00ff41">─</text><text x="135" y="50" fill="#00ff41">─</text><text x="144" y="50" fill="#00ff41">─</text><text x="153" y="50" fill="#00ff41">─</text><text x="162" y="50" fill="#00ff41">─</text><text x="171" y="50" fill="#00ff41">┐</text><rect x="657" y="36" width="9" height="18" fill="#1c1c1c"/><rect x="0" y="54" width="9" height="18" fill="#1c1c1c"/><text x="9" y="68" fill="#00ff41">│</text><rect x="18" y="54" width="9" height="18" fill="#00ff41"/><text x="18" y="68" fill="#000000">›</text><rect x="27" y="54" width="9" height="18" fill="#00ff41"/><rect x="36" y="54" width="9" height="18" fill="#00ff41"/><text x="36" y="68" fill="#000000">(</text><rect x="45" y="54" width="9" height="18" fill="#00ff41"/><text x="45" y="68" fill="#000000">N</text><rect x="54" y="54" width="9" height="18" fill="#00ff41"/><text x="54" y="68" fill="#000000">)</text><rect x="63" y="54" width="9" height="18" fill="#00ff41"/><text x="63" y="68" fill="#000000">e</text><rect x="72" y="54" width="9" height="18" fill="#00ff41"/><text x="72" y="68" fill="#000000">w</text><rect x="81" y="54" width="9" height="18" fill="#00ff41"/><rect x="90" y="54" width="9" height="18" fill="#00ff41"/><rect x="99" y="54" width="9" height="18" fill="#00ff41"/><rect x="108" y="54" width="9" height="18" fill="#00ff41"/><rect x="117" y="54" width="9" height="18" fill="#00ff41"/><text x="117" y="68" fill="#000000">C</text><rect x="126" y="54" width="9" height="18" fill="#00ff41"/><text x="126" y="68" fill="#000000">t</text><rect x="135" y="54" width="9" height="18" fill="#00ff41"/><text x="135" y="68" fill="#000000">r</text><rect x="144" y="54" width="9" height="18" fill="#00ff41"/><text x="144" y="68" fill="#000000">l</text><rect x="153" y="54" width="9" height="18" fill="#00ff41"/><text x="153" y="68" fill="#000000">+</text><rect x="162" y="54" width="9" height="18" fill="#00ff41"/><text x="162" y="68" fill="#000000">N</text><text x="171" y="68" fill="#00ff41">│</text><rect x="657" y="54" width="9" height="18" fill="#1c1c1c"/><rect x="0" y="72" width="9" height="18" fill="#1c1c1c"/><text x="9" y="86" fill="#00ff41">│</text><text x="36" y="86" fill="#ffffff">(</text><text x="45" y="86" fill="#ffffff">O</text><text x="54" y="86" fill="#ffffff">)</text><text x="63" y="86" fill="#ffffff">p</text><text x="72" y="86" fill="#ffffff">e</text><text x="81" y="86" fill="#ffffff">n</text><text x="90" y="86" fill="#ffffff">…</text><text x="117" y="86" fill="#ffffff">C</text><text x="126" y="86" fill="#ffffff">t</text><text x="135" y="86" fill="#ffffff">r</text><text x="144" y="86" fill="#ffffff">l</text><text x="153" y="86" fill="#ffffff">+</text><text x="162" y="86" fill="#ffffff">O</text><text x="171" y="86" fill="#00ff41">│</text><rect x="657" y="72" width="9" height="18" fill="#1c1c1c"/><rect x="0" y="90" width="9" height="18" fill="#1c1c1c"/><text x="9" y="104" fill="#00ff41">│</text><text x="18" y="104" fill="#505050">─</text><text x="27" y="104" fill="#505050">─</text><text x="36" y="104" fill="#505050">─</text><text x="45" y="104" fill="#505050">─</text><text x="54" y="104" fill="#505050">─</text><text x="63" y="104" fill="#505050">─</text><text x="72" y="104" fill="#505050">─</text><text x="81" y="104" fill="#505050">─</text><text x="90" y="104" fill="#505050">─</text><text x="99" y="104" fill="#505050">─</text><text x="108" y="104" fill="#505050">─</text><text x="117" y="104" fill="#505050">─</text><text x="126" y="104" fill="#505050">─</text><text x="135" y="104" fill="#505050">─</text><text x="144" y="104" fill="#505050">─</text><text x="153" y="104" fill="#505050">─</text><text x="162" y="104" fill="#505050">─</text><text x="171" y="104" fill="#00ff41">│</text><rect x="657" y="90" width="9" height="18" fill="#1c1c1c"/><rect x="0" y="108" width="9" height="18" fill="#1c1c1c"/><text x="9" y="122" fill="#00ff41">│</text><text x="18" y="122" fill="#008c1e">R</text><text x="27" y="122" fill="#008c1e">e</text><text x="36" y="122" fill="#008c1e">c</text><text x="45" y="122" fill="#008c1e">e</text><text x="54" y="122" fill="#008c1e">n</text><text x="63" y="122" fill="#008c1e">t</text><text x="171" y="122" fill="#00ff41">│</text><rect x="657" y="108" width="9" height="18" fill="#1c1c1c"/><rect x="0" y="126" width="9" height="18" fill="#1c1c1c"/><text x="9" y="140" fill="#00ff41">│</text><text x="36" y="140" fill="#ffffff">n</text><text x="45" y="140" fill="#ffffff">o</text><text x="54" y="140" fill="#ffffff">t</text><text x="63" y="140" fill="#ffffff">e</text><text x="72" y="140" fill="#ffffff">s</text><text x="81" y="140" fill="#ffffff">.</text><text x="90" y="140" fill="#ffffff">m</text><text x="99" y="140" fill="#ffffff">d</text><text x="171" y="140" fill="#00ff41">│</text><rect x="657" y="126" width="9" height="18" fill="#1c1c1c"/><rect x="0" y="144" width="9" height="18" fill="#1c1c1c"/><text x="9" y="158" fill="#00ff41">│</text><text x="36" y="158" fill="#ffffff">m</text><text x="45" y="158" fill="#ffffff">a</text><text x="54" y="158" fill="#ffffff">i</text><text x="63" y="158" fill="#ffffff">n</text><text x="72" y="158" fill="#ffffff">.</text><text x="81" y="158" fill="#ffffff">r</text><text x="90" y="158" fill="#ffffff">s</text><text x="171" y="158" fill="#00ff41">│</text><rect x="657" y="144" width="9" height="18" fill="#1c1c1c"/><rect x="0" y="162" width="9" height="18" fill="#1c1c1c"/><text x="9" y="176" fill="#00ff41">│</text><text x="18" y="176" fill="#505050">─</text><text x="27" y="176" fill="#505050">─</text><text x="36" y="176" fill="#505050">─</text><text x="45" y="176" fill="#505050">─</text><text x="54" y="176" fill="#505050">─</text><text x="63" y="176" fill="#505050">─</text><text x="72" y="176" fill="#505050">─</text><text x="81" y="176" fill="#505050">─</text><text x="90" y="176" fill="#505050">─</text><text x="99" y="176" fill="#505050">─</text><text x="108" y="176" fill="#505050">─</text><text x="117" y="176" fill="#505050">─</text><text x="126" y="176" fill="#505050">─</text><text x="135" y="176" fill="#505050">─</text><text x="144" y="176" fill="#505050">─</text><text x="153" y="176" fill="#505050">─</text><text x="162" y="176" fill="#505050">─</text><text x="171" y="176" fill="#00ff41">│</text><rect x="657" y="162" width="9" height="18" fill="#1c1c1c"/><rect x="0" y="180" width="9" height="18" fill="#1c1c1c"/><text x="9" y="194" fill="#00ff41">│</text><text x="36" y="194" fill="#ffffff">(</text><text x="45" y="194" fill="#ffffff">E</text><text x="54" y="194" fill="#ffffff">)</text><text x="63" y="194" fill="#ffffff">x</text><text x="72" y="194" fill="#ffffff">p</text><text x="81" y="194" fill="#ffffff">o</text><text x="90" y="194" fill="#ffffff">r</text><text x="99" y="194" fill="#ffffff">t</text><text x="117" y="194" fill="#ffffff">›</text><text x="171" y="194" fill="#00ff41">│</text><rect x="657" y="180" width="9" height="18" fill="#1c1c1c"/><rect x="0" y="198" width="9" height="18" fill="#1c1c1c"/><text x="9" y="212" fill="#00ff41">│</text><text x="18" y="212" fill="#505050">─</text><text x="27" y="212" fill="#505050">─</text><text x="36" y="212" fill="#505050">─</text><text x="45" y="212" fill="#505050">─</text><text x="54" y="212" fill="#505050">─</text><text x="63" y="212" fill="#505050">─</text><text x="72" y="212" fill="#505050">─</text><text x="81" y="212" fill="#505050">─</text><text x="90" y="212" fill="#505050">─</text><text x="99" y="212" fill="#505050">─</text><text x="108" y="212" fill="#505050">─</text><text x="117" y="212" fill="#505050">─</text><text x="126" y="212" fill="#505050">─</text><text x="135" y="212" fill="#505050">─</text><text x="144" y="212" fill="#505050">─</text><text x="153" y="212" fill="#505050">─</text><text x="162" y="212" fill="#505050">─</text><text x="171" y="212" fill="#00ff41">│</text><rect x="657" y="198" width="9" height="18" fill="#1c1c1c"/><rect x="0" y="216" width="9" height="18" fill="#1c1c1c"/><text x="9" y="230" fill="#00ff41">│</text><text x="36" y="230" fill="#ffffff">(</text><text x="45" y="230" fill="#ffffff">Q</text><text x="54" y="230" fill="#ffffff">)</text><text x="63" y="230" fill="#ffffff">u</text><text x="72" y="230" fill="#ffffff">i</text><text x="81" y="230" fill="#ffffff">t</text><text x="117" y="230" fill="#ffffff">C</text><text x="126" y="230" fill="#ffffff">t</text><text x="135" y="230" fill="#ffffff">r</text><text x="144" y="230" fill="#ffffff">l</text><text x="153" y="230" fill="#ffffff">+</text><text x="162" y="230" fill="#ffffff">Q</text><text x="171" y="230" fill="#00ff41">│</text><rect x="657" y="216" width="9" height="18" fill="#1c1c1c"/><rect x="0" y="234" width="9" height="18" fill="#1c1c1c"/><text x="9" y="248" fill="#00ff41">└</text><text x="18" y="248" fill="#00ff41">─</text><text x="27" y="248" fill="#00ff41">─</text><text x="36" y="248" fill="#00ff41">─</text><text x="45" y="248" fill="#00ff41">─</text><text x="54" y="248" fill="#00ff41">─</text><text x="63" y="248" fill="#00ff41">─</text><text x="72" y="248" fill="#00ff41">─</text><text x="81" y="248" fill="#00ff41">─</text><text x="90" y="248" fill="#00ff41">─</text><text x="99" y="248" fill="#00ff41">─</text><text x="108" y="248" fill="#00ff41">─</text><text x="117" y="248" fill="#00ff41">─</text><text x="126" y="248" fill="#00ff41">─</text><text x="135" y="248" fill="#00ff41">─</text><text x="144" y="248" fill="#00ff41">─</text><text x="153" y="248" fill="#00ff41">─</text><text x="162" y="248" fill="#00ff41">─</text><text x="171" y="248" fill="#00ff41">┘</text><rect x="657" y="234" width="9" height="18" fill="#1c1c1c"/><rect x="0" y="252" width="9" height="18" fill="#1c1c1c"/><rect x="657" y="252" width="9" height="18" fill="#1c1c1c"/><rect x="0" y="270" width="9" height="18" fill="#1c1c1c"/><rect x="9" y="270" width="9" height="18" fill="#1c1c1c"/><rect x="18" y="270" width="9" height="18" fill="#1c1c1c"/><rect x="27" y="270" width="9" height="18" fill="#1c1c1c"/><rect x="36" y="270" width="9" height="18" fill="#1c1c1c"/><rect x="45" y="270" width="9" height="18" fill="#1c1c1c"/><rect x="54" y="270" width="9" height="18" fill="#1c1c1c"/><rect x="63" y="270" width="9" height="18" fill="#1c1c1c"/><rect x="72" y="270" width="9" height="18" fill="#1c1c1c"/><rect x="81" y="270" width="9" height="18" fill="#1c1c1c"/><rect x="90" y="270" width="9" height="18" fill="#1c1c1c"/><rect x="99" y="270" width="9" height="18" fill="#1c1c1c"/><rect x="108" y="270" width="9" height="18" fill="#1c1c1c"/><rect x="117" y="270" width="9" height="18" fill="#1c1c1c"/><rect x="126" y="270" width="9" height="18" fill="#1c1c1c"/><rect x="135" y="270" width="9" height="18" fill="#1c1c1c"/><rect x="144" y="270" width="9" height="18" fill="#1c1c1c"/><rect x="153" y="270" width="9" height="18" fill="#1c1c1c"/><rect x="162" y="270" width="9" height="18" fill="#1c1c1c"/><rect x="171" y="270" width="9" height="18" fill="#1c1c1c"/><rect x="180" y="270" width="9" height="18" fill="#1c1c1c"/><rect x="189" y="270" width="9" height="18" fill="#1c1c1c"/><rect x="198" y="270" width="9" height="18" fill="#1c1c1c"/><rect x="207" y="270" width="9" height="18" fill="#1c1c1c"/><rect x="216" y="270" width="9" height="18" fill="#1c1c1c"/><rect x="225" y="270" width="9" height="18" fill="#1c1c1c"/><rect x="234" y="270" width="9" height="18" fill="#1c1c1c"/><rect x="243" y="270" width="9" height="18" fill="#1c1c1c"/><rect x="252" y="270" width="9" height="18" fill="#1c1c1c"/><rect x="261" y="270" width="9" height="18" fill="#1c1c1c"/><rect x="270" y="270" width="9" height="18" fill="#1c1c1c"/><rect x="279" y="270" width="9" height="18" fill="#1c1c1c"/><rect x="288" y="270" width="9" height="18" fill="#1c1c1c"/><rect x="297" y="270" width="9" height="18" fill="#1c1c1c"/><rect x="306" y="270" width="9" height="18" fill="#1c1c1c"/><rect x="315" y="270" width="9" height="18" fill="#1c1c1c"/><rect x="324" y="270" width="9" height="18" fill="#1c1c1c"/><rect x="333" y="270" width="9" height="18" fill="#1c1c1c"/><rect x="342" y="270" width="9" height="18" fill="#1c1c1c"/><rect x="351" y="270" width="9" height="18" fill="#1c1c1c"/><rect x="360" y="270" width="9" height="18" fill="#1c1c1c"/><rect x="369" y="270" width="9" height="18" fill="#1c1c1c"/><rect x="378" y="270" width="9" height="18" fill="#1c1c1c"/><rect x="387" y="270" width="9" height="18" fill="#1c1c1c"/><rect x="396" y="270" width="9" height="18" fill="#1c1c1c"/><rect x="405" y="270" width="9" height="18" fill="#1c1c1c"/><rect x="414" y="270" width="9" height="18" fill="#1c1c1c"/><rect x="423" y="270" width="9" height="18" fill="#1c1c1c"/><rect x="432" y="270" width="9" height="18" fill="#1c1c1c"/><rect x="441" y="270" width="9" height="18" fill="#1c1c1c"/><rect x="450" y="270" width="9" height="18" fill="#1c1c1c"/><rect x="459" y="270" width="9" height="18" fill="#1c1c1c"/><rect x="468" y="270" width="9" height="18" fill="#1c1c1c"/><rect x="477" y="270" width="9" height="18" fill="#1c1c1c"/><rect x="486" y="270" width="9" height="18" fill="#1c1c1c"/><rect x="495" y="270" width="9" height="18" fill="#1c1c1c"/><rect x="504" y="270" width="9" height="18" fill="#1c1c1c"/><rect x="513" y="270" width="9" height="18" fill="#1c1c1c"/><rect x="522" y="270" width="9" height="18" fill="#1c1c1c"/><rect x="531" y="270" width="9" height="18" fill="#1c1c1c"/><rect x="540" y="270" width="9" height="18" fill="#1c1c1c"/><rect x="549" y="270" width="9" height="18" fill="#1c1c1c"/><rect x="558" y="270" width="9" height="18" fill="#1c1c1c"/><rect x="567" y="270" width="9" height="18" fill="#1c1c1c"/><rect x="576" y="270" width="9" height="18" fill="#1c1c1c"/><rect x="585" y="270" width="9" height="18" fill="#1c1c1c"/><rect x="594" y="270" width="9" height="18" fill="#1c1c1c"/><rect x="603" y="270" width="9" height="18" fill="#1c1c1c"/><rect x="612" y="270" width="9" height="18" fill="#1c1c1c"/><rect x="621" y="270" width="9" height="18" fill="#1c1c1c"/><rect x="630" y="270" width="9" height="18" fill="#1c1c1c"/><rect x="639" y="270" width="9" height="18" fill="#1c1c1c"/><rect x="648" y="270" width="9" height="18" fill="#1c1c1c"/><rect x="657" y="270" width="9" height="18" fill="#1c1c1c"/></g></svg>
