<svg xmlns="http://www.w3.org/2000/svg" width="180" height="180" viewBox="0 0 180 180" role="img" aria-label="Narrow Menu" style="background:#000000"><rect width="100%" height="100%" fill="#000000"/><g font-family="ui-monospace, SFMono-Regular, Menlo, Consolas, monospace" font-size="14"><rect x="0" y="0" width="9" height="18" fill="#1c1c1c"/><rect x="9" y="0" width="9" height="18" fill="#1c1c1c"/><rect x="18" y="0" width="9" height="18" fill="#1c1c1c"/><rect x="27" y="0" width="9" height="18" fill="#1c1c1c"/><rect x="36" y="0" width="9" height="18" fill="#1c1c1c"/><rect x="45" y="0" width="9" height="18" fill="#1c1c1c"/><rect x="54" y="0" width="9" height="18" fill="#1c1c1c"/><rect x="63" y="0" width="9" height="18" fill="#1c1c1c"/><rect x="72" y="0" width="9" height="18" fill="#1c1c1c"/><rect x="81" y="0" width="9" height="18" fill="#1c1c1c"/><rect x="90" y="0" width="9" height="18" fill="#1c1c1c"/><rect x="99" y="0" width="9" height="18" fill="#1c1c1c"/><rect x="108" y="0" width="9" height="18" fill="#1c1c1c"/><rect x="117" y="0" width="9" height="18" fill="#1c1c1c"/><rect x="126" y="0" width="9" height="18" fill="#1c1c1c"/><rect x="135" y="0" width="9" height="18" fill="#1c1c1c"/><rect x="144" y="0" width="9" height="18" fill="#1c1c1c"/><rect x="153" y="0" width="9" height="18" fill="#1c1c1c"/><rect x="162" y="0" width="9" height="18" fill="#1c1c1c"/><rect x="171" y="0" width="9" height="18" fill="#1c1c1c"/><rect x="0" y="18" width="9" height="18" fill="#1c1c1c"/><rect x="9" y="18" width="9" height="18" fill="#00ff41"/><text x="9" y="32" fill="#000000">O</text><rect x="18" y="18" width="9" height="18" fill="#00ff41"/><text x="18" y="32" fill="#000000">p</text><rect x="27" y="18" width="9" height="18" fill="#00ff41"/><text x="27" y="32" fill="#000000">e</text><rect x="36" y="18" width="9" height="18" fill="#00ff41"/><text x="36" y="32" fill="#000000">n</text><rect x="171" y="18" width="9" height="18" fill="#1c1c1c"/><rect x="0" y="36" width="9" height="18" fill="#1c1c1c"/><text x="9" y="50" fill="#505050">D</text><text x="18" y="50" fill="#505050">i</text><text x="27" y="50" fill="#505050">s</text><text x="36" y="50" fill="#505050">a</text><text x="45" y="50" fill="#505050">b</text><text x="54" y="50" fill="#505050">l</text><text x="63" y="50" fill="#505050">e</text><text x="72" y="50" fill="#505050">d</text><rect x="171" y="36" width="9" height="18" fill="#1c1c1c"/><rect x="0" y="54" width="9" height="18" fill="#1c1c1c"/><text x="9" y="68" fill="#ffffff">S</text><text x="18" y="68" fill="#ffffff">a</text><text x="27" y="68" fill="#ffffff">v</text><text x="36" y="68" fill="#ffffff">e</text><rect x="171" y="54" width="9" height="18" fill="#1c1c1c"/><rect x="0" y="72" width="9" height="18" fill="#1c1c1c"/><rect x="171" y="72" width="9" height="18" fill="#1c1c1c"/><rect x="0" y="90" width="9" height="18" fill="#1c1c1c"/><rect x="171" y="90" width="9" height="18" fill="#1c1c1c"/><rect x="0" y="108" width="9" height="18" fill="#1c1c1c"/><rect x="171" y="108" width="9" height="18" fill="#1c1c1c"/><rect x="0" y="126" width="9" height="18" fill="#1c1c1c"/><rect x="171" y="126" width="9" height="18" fill="#1c1c1c"/><rect x="0" y="144" width="9" height="18" fill="#1c1c1c"/><rect x="171" y="144" width="9" height="18" fill="#1c1c1c"/><rect x="0" y="162" width="9" height="18" fill="#1c1c1c"/><rect x="9" y="162" width="9" height="18" fill="#1c1c1c"/><rect x="18" y="162" width="9" height="18" fill="#1c1c1c"/><rect x="27" y="162" width="9" height="18" fill="#1c1c1c"/><rect x="36" y="162" width="9" height="18" fill="#1c1c1c"/><rect x="45" y="162" width="9" height="18" fill="#1c1c1c"/><rect x="54" y="162" width="9" height="18" fill="#1c1c1c"/><rect x="63" y="162" width="9" height="18" fill="#1c1c1c"/><rect x="72" y="162" width="9" height="18" fill="#1c1c1c"/><rect x="81" y="162" width="9" height="18" fill="#1c1c1c"/><rect x="90" y="162" width="9" height="18" fill="#1c1c1c"/><rect x="99" y="162" width="9" height="18" fill="#1c1c1c"/><rect x="108" y="162" width="9" height="18" fill="#1c1c1c"/><rect x="117" y="162" width="9" height="18" fill="#1c1c1c"/><rect x="126" y="162" width="9" height="18" fill="#1c1c1c"/><rect x="135" y="162" width="9" height="18" fill="#1c1c1c"/><rect x="144" y="162" width="9" height="18" fill="#1c1c1c"/><rect x="153" y="162" width="9" height="18" fill="#1c1c1c"/><rect x="162" y="162" width="9" height="18" fill="#1c1c1c"/><rect x="171" y="162" width="9" height="18" fill="#1c1c1c"/></g></svg>
