<svg xmlns="http://www.w3.org/2000/svg" width="450" height="144" viewBox="0 0 450 144" role="img" aria-label="Object inspector flat" style="background:#000000"><rect width="100%" height="100%" fill="#000000"/><g font-family="ui-monospace, SFMono-Regular, Menlo, Consolas, monospace" font-size="14"><rect x="0" y="0" width="9" height="18" fill="#1c1c1c"/><rect x="9" y="0" width="9" height="18" fill="#1c1c1c"/><rect x="18" y="0" width="9" height="18" fill="#1c1c1c"/><rect x="27" y="0" width="9" height="18" fill="#1c1c1c"/><rect x="36" y="0" width="9" height="18" fill="#1c1c1c"/><rect x="45" y="0" width="9" height="18" fill="#1c1c1c"/><rect x="54" y="0" width="9" height="18" fill="#1c1c1c"/><rect x="63" y="0" width="9" height="18" fill="#1c1c1c"/><rect x="72" y="0" width="9" height="18" fill="#1c1c1c"/><rect x="81" y="0" width="9" height="18" fill="#1c1c1c"/><rect x="90" y="0" width="9" height="18" fill="#1c1c1c"/><rect x="99" y="0" width="9" height="18" fill="#1c1c1c"/><rect x="108" y="0" width="9" height="18" fill="#1c1c1c"/><rect x="117" y="0" width="9" height="18" fill="#1c1c1c"/><rect x="126" y="0" width="9" height="18" fill="#1c1c1c"/><rect x="135" y="0" width="9" height="18" fill="#1c1c1c"/><rect x="144" y="0" width="9" height="18" fill="#1c1c1c"/><rect x="153" y="0" width="9" height="18" fill="#1c1c1c"/><rect x="162" y="0" width="9" height="18" fill="#1c1c1c"/><rect x="171" y="0" width="9" height="18" fill="#1c1c1c"/><rect x="180" y="0" width="9" height="18" fill="#1c1c1c"/><rect x="189" y="0" width="9" height="18" fill="#1c1c1c"/><rect x="198" y="0" width="9" height="18" fill="#1c1c1c"/><rect x="207" y="0" width="9" height="18" fill="#1c1c1c"/><rect x="216" y="0" width="9" height="18" fill="#1c1c1c"/><rect x="225" y="0" width="9" height="18" fill="#1c1c1c"/><rect x="234" y="0" width="9" height="18" fill="#1c1c1c"/><rect x="243" y="0" width="9" height="18" fill="#1c1c1c"/><rect x="252" y="0" width="9" height="18" fill="#1c1c1c"/><rect x="261" y="0" width="9" height="18" fill="#1c1c1c"/><rect x="270" y="0" width="9" height="18" fill="#1c1c1c"/><rect x="279" y="0" width="9" height="18" fill="#1c1c1c"/><rect x="288" y="0" width="9" height="18" fill="#1c1c1c"/><rect x="297" y="0" width="9" height="18" fill="#1c1c1c"/><rect x="306" y="0" width="9" height="18" fill="#1c1c1c"/><rect x="315" y="0" width="9" height="18" fill="#1c1c1c"/><rect x="324" y="0" width="9" height="18" fill="#1c1c1c"/><rect x="333" y="0" width="9" height="18" fill="#1c1c1c"/><rect x="342" y="0" width="9" height="18" fill="#1c1c1c"/><rect x="351" y="0" width="9" height="18" fill="#1c1c1c"/><rect x="360" y="0" width="9" height="18" fill="#1c1c1c"/><rect x="369" y="0" width="9" height="18" fill="#1c1c1c"/><rect x="378" y="0" width="9" height="18" fill="#1c1c1c"/><rect x="387" y="0" width="9" height="18" fill="#1c1c1c"/><rect x="396" y="0" width="9" height="18" fill="#1c1c1c"/><rect x="405" y="0" width="9" height="18" fill="#1c1c1c"/><rect x="414" y="0" width="9" height="18" fill="#1c1c1c"/><rect x="423" y="0" width="9" height="18" fill="#1c1c1c"/><rect x="432" y="0" width="9" height="18" fill="#1c1c1c"/><rect x="441" y="0" width="9" height="18" fill="#1c1c1c"/><rect x="0" y="18" width="9" height="18" fill="#1c1c1c"/><text x="45" y="32" fill="#ffffff">i</text><text x="54" y="32" fill="#ffffff">d</text><text x="63" y="32" fill="#ffffff">:</text><text x="81" y="32" fill="#ffffff">p</text><text x="90" y="32" fill="#ffffff">o</text><text x="99" y="32" fill="#ffffff">d</text><text x="108" y="32" fill="#ffffff">-</text><text x="117" y="32" fill="#ffffff">7</text><text x="126" y="32" fill="#ffffff">f</text><text x="135" y="32" fill="#ffffff">3</text><text x="144" y="32" fill="#ffffff">a</text><text x="171" y="32" fill="#ffffff">&lt;</text><text x="180" y="32" fill="#ffffff">s</text><text x="189" y="32" fill="#ffffff">t</text><text x="198" y="32" fill="#ffffff">r</text><text x="207" y="32" fill="#ffffff">i</text><text x="216" y="32" fill="#ffffff">n</text><text x="225" y="32" fill="#ffffff">g</text><text x="234" y="32" fill="#ffffff">&gt;</text><rect x="441" y="18" width="9" height="18" fill="#1c1c1c"/><rect x="0" y="36" width="9" height="18" fill="#1c1c1c"/><text x="9" y="50" fill="#00ff41">›</text><rect x="45" y="36" width="9" height="18" fill="#00ff41"/><text x="45" y="50" fill="#000000">n</text><rect x="54" y="36" width="9" height="18" fill="#00ff41"/><text x="54" y="50" fill="#000000">a</text><rect x="63" y="36" width="9" height="18" fill="#00ff41"/><text x="63" y="50" fill="#000000">m</text><rect x="72" y="36" width="9" height="18" fill="#00ff41"/><text x="72" y="50" fill="#000000">e</text><rect x="81" y="36" width="9" height="18" fill="#00ff41"/><text x="81" y="50" fill="#000000">:</text><rect x="90" y="36" width="9" height="18" fill="#00ff41"/><rect x="99" y="36" width="9" height="18" fill="#00ff41"/><text x="99" y="50" fill="#000000">a</text><rect x="108" y="36" width="9" height="18" fill="#00ff41"/><text x="108" y="50" fill="#000000">p</text><rect x="117" y="36" width="9" height="18" fill="#00ff41"/><text x="117" y="50" fill="#000000">i</text><rect x="126" y="36" width="9" height="18" fill="#00ff41"/><text x="126" y="50" fill="#000000">-</text><rect x="135" y="36" width="9" height="18" fill="#00ff41"/><text x="135" y="50" fill="#000000">g</text><rect x="144" y="36" width="9" height="18" fill="#00ff41"/><text x="144" y="50" fill="#000000">a</text><rect x="153" y="36" width="9" height="18" fill="#00ff41"/><text x="153" y="50" fill="#000000">t</text><rect x="162" y="36" width="9" height="18" fill="#00ff41"/><text x="162" y="50" fill="#000000">e</text><rect x="171" y="36" width="9" height="18" fill="#00ff41"/><text x="171" y="50" fill="#000000">w</text><rect x="180" y="36" width="9" height="18" fill="#00ff41"/><text x="180" y="50" fill="#000000">a</text><rect x="189" y="36" width="9" height="18" fill="#00ff41"/><text x="189" y="50" fill="#000000">y</text><rect x="198" y="36" width="9" height="18" fill="#00ff41"/><rect x="207" y="36" width="9" height="18" fill="#00ff41"/><rect x="216" y="36" width="9" height="18" fill="#00ff41"/><text x="216" y="50" fill="#000000">&lt;</text><rect x="225" y="36" width="9" height="18" fill="#00ff41"/><text x="225" y="50" fill="#000000">s</text><rect x="234" y="36" width="9" height="18" fill="#00ff41"/><text x="234" y="50" fill="#000000">t</text><rect x="243" y="36" width="9" height="18" fill="#00ff41"/><text x="243" y="50" fill="#000000">r</text><rect x="252" y="36" width="9" height="18" fill="#00ff41"/><text x="252" y="50" fill="#000000">i</text><rect x="261" y="36" width="9" height="18" fill="#00ff41"/><text x="261" y="50" fill="#000000">n</text><rect x="270" y="36" width="9" height="18" fill="#00ff41"/><text x="270" y="50" fill="#000000">g</text><rect x="279" y="36" width="9" height="18" fill="#00ff41"/><text x="279" y="50" fill="#000000">&gt;</text><rect x="441" y="36" width="9" height="18" fill="#1c1c1c"/><rect x="0" y="54" width="9" height="18" fill="#1c1c1c"/><text x="45" y="68" fill="#ffffff">s</text><text x="54" y="68" fill="#ffffff">t</text><text x="63" y="68" fill="#ffffff">a</text><text x="72" y="68" fill="#ffffff">t</text><text x="81" y="68" fill="#ffffff">u</text><text x="90" y="68" fill="#ffffff">s</text><text x="99" y="68" fill="#ffffff">:</text><text x="117" y="68" fill="#ffffff">R</text><text x="126" y="68" fill="#ffffff">u</text><text x="135" y="68" fill="#ffffff">n</text><text x="144" y="68" fill="#ffffff">n</text><text x="153" y="68" fill="#ffffff">i</text><text x="162" y="68" fill="#ffffff">n</text><text x="171" y="68" fill="#ffffff">g</text><text x="198" y="68" fill="#ffffff">&lt;</text><text x="207" y="68" fill="#ffffff">s</text><text x="216" y="68" fill="#ffffff">t</text><text x="225" y="68" fill="#ffffff">r</text><text x="234" y="68" fill="#ffffff">i</text><text x="243" y="68" fill="#ffffff">n</text><text x="252" y="68" fill="#ffffff">g</text><text x="261" y="68" fill="#ffffff">&gt;</text><rect x="441" y="54" width="9" height="18" fill="#1c1c1c"/><rect x="0" y="72" width="9" height="18" fill="#1c1c1c"/><text x="45" y="86" fill="#ffffff">r</text><text x="54" y="86" fill="#ffffff">e</text><text x="63" y="86" fill="#ffffff">s</text><text x="72" y="86" fill="#ffffff">t</text><text x="81" y="86" fill="#ffffff">a</text><text x="90" y="86" fill="#ffffff">r</text><text x="99" y="86" fill="#ffffff">t</text><text x="108" y="86" fill="#ffffff">s</text><text x="117" y="86" fill="#ffffff">:</text><text x="135" y="86" fill="#ffffff">0</text><text x="162" y="86" fill="#ffffff">&lt;</text><text x="171" y="86" fill="#ffffff">n</text><text x="180" y="86" fill="#ffffff">u</text><text x="189" y="86" fill="#ffffff">m</text><text x="198" y="86" fill="#ffffff">b</text><text x="207" y="86" fill="#ffffff">e</text><text x="216" y="86" fill="#ffffff">r</text><text x="225" y="86" fill="#ffffff">&gt;</text><rect x="441" y="72" width="9" height="18" fill="#1c1c1c"/><rect x="0" y="90" width="9" height="18" fill="#1c1c1c"/><rect x="441" y="90" width="9" height="18" fill="#1c1c1c"/><rect x="0" y="108" width="9" height="18" fill="#1c1c1c"/><text x="9" y="122" fill="#008c1e">m</text><text x="18" y="122" fill="#008c1e">o</text><text x="27" y="122" fill="#008c1e">d</text><text x="36" y="122" fill="#008c1e">e</text><text x="45" y="122" fill="#008c1e">:</text><text x="54" y="122" fill="#008c1e">v</text><text x="63" y="122" fill="#008c1e">i</text><text x="72" y="122" fill="#008c1e">e</text><text x="81" y="122" fill="#008c1e">w</text><text x="99" y="122" fill="#008c1e">·</text><text x="117" y="122" fill="#008c1e">c</text><text x="135" y="122" fill="#008c1e">v</text><text x="144" y="122" fill="#008c1e">a</text><text x="153" y="122" fill="#008c1e">l</text><text x="162" y="122" fill="#008c1e">u</text><text x="171" y="122" fill="#008c1e">e</text><text x="189" y="122" fill="#008c1e">·</text><text x="207" y="122" fill="#008c1e">y</text><text x="225" y="122" fill="#008c1e">p</text><text x="234" y="122" fill="#008c1e">a</text><text x="243" y="122" fill="#008c1e">t</text><text x="252" y="122" fill="#008c1e">h</text><text x="270" y="122" fill="#008c1e">·</text><text x="288" y="122" fill="#008c1e">e</text><text x="306" y="122" fill="#008c1e">e</text><text x="315" y="122" fill="#008c1e">d</text><text x="324" y="122" fill="#008c1e">i</text><text x="333" y="122" fill="#008c1e">t</text><text x="351" y="122" fill="#008c1e">·</text><text x="369" y="122" fill="#008c1e">r</text><text x="387" y="122" fill="#008c1e">s</text><text x="396" y="122" fill="#008c1e">e</text><text x="405" y="122" fill="#008c1e">c</text><text x="414" y="122" fill="#008c1e">r</text><text x="423" y="122" fill="#008c1e">e</text><text x="432" y="122" fill="#008c1e">t</text><rect x="441" y="108" width="9" height="18" fill="#1c1c1c"/><rect x="0" y="126" width="9" height="18" fill="#1c1c1c"/><rect x="9" y="126" width="9" height="18" fill="#1c1c1c"/><rect x="18" y="126" width="9" height="18" fill="#1c1c1c"/><rect x="27" y="126" width="9" height="18" fill="#1c1c1c"/><rect x="36" y="126" width="9" height="18" fill="#1c1c1c"/><rect x="45" y="126" width="9" height="18" fill="#1c1c1c"/><rect x="54" y="126" width="9" height="18" fill="#1c1c1c"/><rect x="63" y="126" width="9" height="18" fill="#1c1c1c"/><rect x="72" y="126" width="9" height="18" fill="#1c1c1c"/><rect x="81" y="126" width="9" height="18" fill="#1c1c1c"/><rect x="90" y="126" width="9" height="18" fill="#1c1c1c"/><rect x="99" y="126" width="9" height="18" fill="#1c1c1c"/><rect x="108" y="126" width="9" height="18" fill="#1c1c1c"/><rect x="117" y="126" width="9" height="18" fill="#1c1c1c"/><rect x="126" y="126" width="9" height="18" fill="#1c1c1c"/><rect x="135" y="126" width="9" height="18" fill="#1c1c1c"/><rect x="144" y="126" width="9" height="18" fill="#1c1c1c"/><rect x="153" y="126" width="9" height="18" fill="#1c1c1c"/><rect x="162" y="126" width="9" height="18" fill="#1c1c1c"/><rect x="171" y="126" width="9" height="18" fill="#1c1c1c"/><rect x="180" y="126" width="9" height="18" fill="#1c1c1c"/><rect x="189" y="126" width="9" height="18" fill="#1c1c1c"/><rect x="198" y="126" width="9" height="18" fill="#1c1c1c"/><rect x="207" y="126" width="9" height="18" fill="#1c1c1c"/><rect x="216" y="126" width="9" height="18" fill="#1c1c1c"/><rect x="225" y="126" width="9" height="18" fill="#1c1c1c"/><rect x="234" y="126" width="9" height="18" fill="#1c1c1c"/><rect x="243" y="126" width="9" height="18" fill="#1c1c1c"/><rect x="252" y="126" width="9" height="18" fill="#1c1c1c"/><rect x="261" y="126" width="9" height="18" fill="#1c1c1c"/><rect x="270" y="126" width="9" height="18" fill="#1c1c1c"/><rect x="279" y="126" width="9" height="18" fill="#1c1c1c"/><rect x="288" y="126" width="9" height="18" fill="#1c1c1c"/><rect x="297" y="126" width="9" height="18" fill="#1c1c1c"/><rect x="306" y="126" width="9" height="18" fill="#1c1c1c"/><rect x="315" y="126" width="9" height="18" fill="#1c1c1c"/><rect x="324" y="126" width="9" height="18" fill="#1c1c1c"/><rect x="333" y="126" width="9" height="18" fill="#1c1c1c"/><rect x="342" y="126" width="9" height="18" fill="#1c1c1c"/><rect x="351" y="126" width="9" height="18" fill="#1c1c1c"/><rect x="360" y="126" width="9" height="18" fill="#1c1c1c"/><rect x="369" y="126" width="9" height="18" fill="#1c1c1c"/><rect x="378" y="126" width="9" height="18" fill="#1c1c1c"/><rect x="387" y="126" width="9" height="18" fill="#1c1c1c"/><rect x="396" y="126" width="9" height="18" fill="#1c1c1c"/><rect x="405" y="126" width="9" height="18" fill="#1c1c1c"/><rect x="414" y="126" width="9" height="18" fill="#1c1c1c"/><rect x="423" y="126" width="9" height="18" fill="#1c1c1c"/><rect x="432" y="126" width="9" height="18" fill="#1c1c1c"/><rect x="441" y="126" width="9" height="18" fill="#1c1c1c"/></g></svg>
