<svg xmlns="http://www.w3.org/2000/svg" width="288" height="108" viewBox="0 0 288 108" role="img" aria-label="Empty picker" style="background:#000000"><rect width="100%" height="100%" fill="#000000"/><g font-family="ui-monospace, SFMono-Regular, Menlo, Consolas, monospace" font-size="14"><rect x="0" y="0" width="9" height="18" fill="#1c1c1c"/><rect x="9" y="0" width="9" height="18" fill="#1c1c1c"/><rect x="18" y="0" width="9" height="18" fill="#1c1c1c"/><rect x="27" y="0" width="9" height="18" fill="#1c1c1c"/><rect x="36" y="0" width="9" height="18" fill="#1c1c1c"/><rect x="45" y="0" width="9" height="18" fill="#1c1c1c"/><rect x="54" y="0" width="9" height="18" fill="#1c1c1c"/><rect x="63" y="0" width="9" height="18" fill="#1c1c1c"/><rect x="72" y="0" width="9" height="18" fill="#1c1c1c"/><rect x="81" y="0" width="9" height="18" fill="#1c1c1c"/><rect x="90" y="0" width="9" height="18" fill="#1c1c1c"/><rect x="99" y="0" width="9" height="18" fill="#1c1c1c"/><rect x="108" y="0" width="9" height="18" fill="#1c1c1c"/><rect x="117" y="0" width="9" height="18" fill="#1c1c1c"/><rect x="126" y="0" width="9" height="18" fill="#1c1c1c"/><rect x="135" y="0" width="9" height="18" fill="#1c1c1c"/><rect x="144" y="0" width="9" height="18" fill="#1c1c1c"/><rect x="153" y="0" width="9" height="18" fill="#1c1c1c"/><rect x="162" y="0" width="9" height="18" fill="#1c1c1c"/><rect x="171" y="0" width="9" height="18" fill="#1c1c1c"/><rect x="180" y="0" width="9" height="18" fill="#1c1c1c"/><rect x="189" y="0" width="9" height="18" fill="#1c1c1c"/><rect x="198" y="0" width="9" height="18" fill="#1c1c1c"/><rect x="207" y="0" width="9" height="18" fill="#1c1c1c"/><rect x="216" y="0" width="9" height="18" fill="#1c1c1c"/><rect x="225" y="0" width="9" height="18" fill="#1c1c1c"/><rect x="234" y="0" width="9" height="18" fill="#1c1c1c"/><rect x="243" y="0" width="9" height="18" fill="#1c1c1c"/><rect x="252" y="0" width="9" height="18" fill="#1c1c1c"/><rect x="261" y="0" width="9" height="18" fill="#1c1c1c"/><rect x="270" y="0" width="9" height="18" fill="#1c1c1c"/><rect x="279" y="0" width="9" height="18" fill="#1c1c1c"/><rect x="0" y="18" width="9" height="18" fill="#1c1c1c"/><rect x="9" y="18" width="9" height="18" fill="#141816"/><text x="9" y="32" fill="#00ff41">T</text><rect x="18" y="18" width="9" height="18" fill="#141816"/><text x="18" y="32" fill="#008c1e">y</text><rect x="27" y="18" width="9" height="18" fill="#141816"/><text x="27" y="32" fill="#008c1e">p</text><rect x="36" y="18" width="9" height="18" fill="#141816"/><text x="36" y="32" fill="#008c1e">e</text><rect x="45" y="18" width="9" height="18" fill="#141816"/><rect x="54" y="18" width="9" height="18" fill="#141816"/><text x="54" y="32" fill="#008c1e">t</text><rect x="63" y="18" width="9" height="18" fill="#141816"/><text x="63" y="32" fill="#008c1e">o</text><rect x="72" y="18" width="9" height="18" fill="#141816"/><rect x="81" y="18" width="9" height="18" fill="#141816"/><text x="81" y="32" fill="#008c1e">f</text><rect x="90" y="18" width="9" height="18" fill="#141816"/><text x="90" y="32" fill="#008c1e">i</text><rect x="99" y="18" width="9" height="18" fill="#141816"/><text x="99" y="32" fill="#008c1e">l</text><rect x="108" y="18" width="9" height="18" fill="#141816"/><text x="108" y="32" fill="#008c1e">t</text><rect x="117" y="18" width="9" height="18" fill="#141816"/><text x="117" y="32" fill="#008c1e">e</text><rect x="126" y="18" width="9" height="18" fill="#141816"/><text x="126" y="32" fill="#008c1e">r</text><rect x="135" y="18" width="9" height="18" fill="#141816"/><rect x="144" y="18" width="9" height="18" fill="#141816"/><rect x="153" y="18" width="9" height="18" fill="#141816"/><rect x="162" y="18" width="9" height="18" fill="#141816"/><rect x="171" y="18" width="9" height="18" fill="#141816"/><rect x="180" y="18" width="9" height="18" fill="#141816"/><rect x="189" y="18" width="9" height="18" fill="#141816"/><rect x="198" y="18" width="9" height="18" fill="#141816"/><rect x="207" y="18" width="9" height="18" fill="#141816"/><rect x="216" y="18" width="9" height="18" fill="#141816"/><rect x="225" y="18" width="9" height="18" fill="#141816"/><rect x="234" y="18" width="9" height="18" fill="#141816"/><rect x="243" y="18" width="9" height="18" fill="#141816"/><rect x="252" y="18" width="9" height="18" fill="#141816"/><rect x="261" y="18" width="9" height="18" fill="#141816"/><rect x="270" y="18" width="9" height="18" fill="#141816"/><rect x="279" y="18" width="9" height="18" fill="#1c1c1c"/><rect x="0" y="36" width="9" height="18" fill="#1c1c1c"/><text x="9" y="50" fill="#008c1e">N</text><text x="18" y="50" fill="#008c1e">o</text><text x="36" y="50" fill="#008c1e">m</text><text x="45" y="50" fill="#008c1e">a</text><text x="54" y="50" fill="#008c1e">t</text><text x="63" y="50" fill="#008c1e">c</text><text x="72" y="50" fill="#008c1e">h</text><text x="81" y="50" fill="#008c1e">e</text><text x="90" y="50" fill="#008c1e">s</text><rect x="279" y="36" width="9" height="18" fill="#1c1c1c"/><rect x="0" y="54" width="9" height="18" fill="#1c1c1c"/><rect x="279" y="54" width="9" height="18" fill="#1c1c1c"/><rect x="0" y="72" width="9" height="18" fill="#1c1c1c"/><rect x="279" y="72" width="9" height="18" fill="#1c1c1c"/><rect x="0" y="90" width="9" height="18" fill="#1c1c1c"/><rect x="9" y="90" width="9" height="18" fill="#1c1c1c"/><rect x="18" y="90" width="9" height="18" fill="#1c1c1c"/><rect x="27" y="90" width="9" height="18" fill="#1c1c1c"/><rect x="36" y="90" width="9" height="18" fill="#1c1c1c"/><rect x="45" y="90" width="9" height="18" fill="#1c1c1c"/><rect x="54" y="90" width="9" height="18" fill="#1c1c1c"/><rect x="63" y="90" width="9" height="18" fill="#1c1c1c"/><rect x="72" y="90" width="9" height="18" fill="#1c1c1c"/><rect x="81" y="90" width="9" height="18" fill="#1c1c1c"/><rect x="90" y="90" width="9" height="18" fill="#1c1c1c"/><rect x="99" y="90" width="9" height="18" fill="#1c1c1c"/><rect x="108" y="90" width="9" height="18" fill="#1c1c1c"/><rect x="117" y="90" width="9" height="18" fill="#1c1c1c"/><rect x="126" y="90" width="9" height="18" fill="#1c1c1c"/><rect x="135" y="90" width="9" height="18" fill="#1c1c1c"/><rect x="144" y="90" width="9" height="18" fill="#1c1c1c"/><rect x="153" y="90" width="9" height="18" fill="#1c1c1c"/><rect x="162" y="90" width="9" height="18" fill="#1c1c1c"/><rect x="171" y="90" width="9" height="18" fill="#1c1c1c"/><rect x="180" y="90" width="9" height="18" fill="#1c1c1c"/><rect x="189" y="90" width="9" height="18" fill="#1c1c1c"/><rect x="198" y="90" width="9" height="18" fill="#1c1c1c"/><rect x="207" y="90" width="9" height="18" fill="#1c1c1c"/><rect x="216" y="90" width="9" height="18" fill="#1c1c1c"/><rect x="225" y="90" width="9" height="18" fill="#1c1c1c"/><rect x="234" y="90" width="9" height="18" fill="#1c1c1c"/><rect x="243" y="90" width="9" height="18" fill="#1c1c1c"/><rect x="252" y="90" width="9" height="18" fill="#1c1c1c"/><rect x="261" y="90" width="9" height="18" fill="#1c1c1c"/><rect x="270" y="90" width="9" height="18" fill="#1c1c1c"/><rect x="279" y="90" width="9" height="18" fill="#1c1c1c"/></g></svg>
