<svg xmlns="http://www.w3.org/2000/svg" width="216" height="126" viewBox="0 0 216 126" role="img" aria-label="Narrow Unicode picker" style="background:#000000"><rect width="100%" height="100%" fill="#000000"/><g font-family="ui-monospace, SFMono-Regular, Menlo, Consolas, monospace" font-size="14"><rect x="0" y="0" width="9" height="18" fill="#1c1c1c"/><rect x="9" y="0" width="9" height="18" fill="#1c1c1c"/><rect x="18" y="0" width="9" height="18" fill="#1c1c1c"/><rect x="27" y="0" width="9" height="18" fill="#1c1c1c"/><rect x="36" y="0" width="9" height="18" fill="#1c1c1c"/><rect x="45" y="0" width="9" height="18" fill="#1c1c1c"/><rect x="54" y="0" width="9" height="18" fill="#1c1c1c"/><rect x="63" y="0" width="9" height="18" fill="#1c1c1c"/><rect x="72" y="0" width="9" height="18" fill="#1c1c1c"/><rect x="81" y="0" width="9" height="18" fill="#1c1c1c"/><rect x="90" y="0" width="9" height="18" fill="#1c1c1c"/><rect x="99" y="0" width="9" height="18" fill="#1c1c1c"/><rect x="108" y="0" width="9" height="18" fill="#1c1c1c"/><rect x="117" y="0" width="9" height="18" fill="#1c1c1c"/><rect x="126" y="0" width="9" height="18" fill="#1c1c1c"/><rect x="135" y="0" width="9" height="18" fill="#1c1c1c"/><rect x="144" y="0" width="9" height="18" fill="#1c1c1c"/><rect x="153" y="0" width="9" height="18" fill="#1c1c1c"/><rect x="162" y="0" width="9" height="18" fill="#1c1c1c"/><rect x="171" y="0" width="9" height="18" fill="#1c1c1c"/><rect x="180" y="0" width="9" height="18" fill="#1c1c1c"/><rect x="189" y="0" width="9" height="18" fill="#1c1c1c"/><rect x="198" y="0" width="9" height="18" fill="#1c1c1c"/><rect x="207" y="0" width="9" height="18" fill="#1c1c1c"/><rect x="0" y="18" width="9" height="18" fill="#1c1c1c"/><rect x="9" y="18" width="9" height="18" fill="#141816"/><text x="9" y="32" fill="#ffffff">東</text><rect x="27" y="18" width="9" height="18" fill="#141816"/><rect x="36" y="18" width="9" height="18" fill="#141816"/><rect x="45" y="18" width="9" height="18" fill="#141816"/><rect x="54" y="18" width="9" height="18" fill="#141816"/><rect x="63" y="18" width="9" height="18" fill="#141816"/><rect x="72" y="18" width="9" height="18" fill="#141816"/><rect x="81" y="18" width="9" height="18" fill="#141816"/><rect x="90" y="18" width="9" height="18" fill="#141816"/><rect x="99" y="18" width="9" height="18" fill="#141816"/><rect x="108" y="18" width="9" height="18" fill="#141816"/><rect x="117" y="18" width="9" height="18" fill="#141816"/><rect x="126" y="18" width="9" height="18" fill="#141816"/><rect x="135" y="18" width="9" height="18" fill="#141816"/><rect x="144" y="18" width="9" height="18" fill="#141816"/><rect x="153" y="18" width="9" height="18" fill="#141816"/><rect x="162" y="18" width="9" height="18" fill="#141816"/><rect x="171" y="18" width="9" height="18" fill="#141816"/><rect x="180" y="18" width="9" height="18" fill="#141816"/><rect x="189" y="18" width="9" height="18" fill="#141816"/><rect x="198" y="18" width="9" height="18" fill="#141816"/><rect x="207" y="18" width="9" height="18" fill="#1c1c1c"/><rect x="0" y="36" width="9" height="18" fill="#1c1c1c"/><rect x="9" y="36" width="9" height="18" fill="#00ff41"/><text x="9" y="50" fill="#000000">▸</text><rect x="18" y="36" width="9" height="18" fill="#00ff41"/><rect x="27" y="36" width="9" height="18" fill="#00ff41"/><text x="27" y="50" fill="#000000">東</text><rect x="45" y="36" width="9" height="18" fill="#00ff41"/><text x="45" y="50" fill="#000000">京</text><rect x="63" y="36" width="9" height="18" fill="#00ff41"/><text x="63" y="50" fill="#000000">デ</text><rect x="81" y="36" width="9" height="18" fill="#00ff41"/><text x="81" y="50" fill="#000000">プ</text><rect x="99" y="36" width="9" height="18" fill="#00ff41"/><text x="99" y="50" fill="#000000">ロ</text><rect x="117" y="36" width="9" height="18" fill="#00ff41"/><text x="117" y="50" fill="#000000">イ</text><rect x="135" y="36" width="9" height="18" fill="#00ff41"/><rect x="144" y="36" width="9" height="18" fill="#00ff41"/><text x="144" y="50" fill="#000000">🧪</text><rect x="162" y="36" width="9" height="18" fill="#00ff41"/><rect x="171" y="36" width="9" height="18" fill="#00ff41"/><text x="171" y="50" fill="#000000">操</text><rect x="189" y="36" width="9" height="18" fill="#00ff41"/><text x="189" y="50" fill="#000000">作</text><rect x="207" y="36" width="9" height="18" fill="#1c1c1c"/><rect x="0" y="54" width="9" height="18" fill="#1c1c1c"/><text x="27" y="68" fill="#ffffff">C</text><text x="36" y="68" fill="#ffffff">a</text><text x="45" y="68" fill="#ffffff">f</text><text x="54" y="68" fill="#ffffff">é</text><text x="72" y="68" fill="#ffffff">l</text><text x="81" y="68" fill="#ffffff">o</text><text x="90" y="68" fill="#ffffff">g</text><text x="99" y="68" fill="#ffffff">s</text><text x="171" y="68" fill="#ffffff">表</text><text x="189" y="68" fill="#ffffff">示</text><rect x="207" y="54" width="9" height="18" fill="#1c1c1c"/><rect x="0" y="72" width="9" height="18" fill="#1c1c1c"/><rect x="207" y="72" width="9" height="18" fill="#1c1c1c"/><rect x="0" y="90" width="9" height="18" fill="#1c1c1c"/><rect x="207" y="90" width="9" height="18" fill="#1c1c1c"/><rect x="0" y="108" width="9" height="18" fill="#1c1c1c"/><rect x="9" y="108" width="9" height="18" fill="#1c1c1c"/><rect x="18" y="108" width="9" height="18" fill="#1c1c1c"/><rect x="27" y="108" width="9" height="18" fill="#1c1c1c"/><rect x="36" y="108" width="9" height="18" fill="#1c1c1c"/><rect x="45" y="108" width="9" height="18" fill="#1c1c1c"/><rect x="54" y="108" width="9" height="18" fill="#1c1c1c"/><rect x="63" y="108" width="9" height="18" fill="#1c1c1c"/><rect x="72" y="108" width="9" height="18" fill="#1c1c1c"/><rect x="81" y="108" width="9" height="18" fill="#1c1c1c"/><rect x="90" y="108" width="9" height="18" fill="#1c1c1c"/><rect x="99" y="108" width="9" height="18" fill="#1c1c1c"/><rect x="108" y="108" width="9" height="18" fill="#1c1c1c"/><rect x="117" y="108" width="9" height="18" fill="#1c1c1c"/><rect x="126" y="108" width="9" height="18" fill="#1c1c1c"/><rect x="135" y="108" width="9" height="18" fill="#1c1c1c"/><rect x="144" y="108" width="9" height="18" fill="#1c1c1c"/><rect x="153" y="108" width="9" height="18" fill="#1c1c1c"/><rect x="162" y="108" width="9" height="18" fill="#1c1c1c"/><rect x="171" y="108" width="9" height="18" fill="#1c1c1c"/><rect x="180" y="108" width="9" height="18" fill="#1c1c1c"/><rect x="189" y="108" width="9" height="18" fill="#1c1c1c"/><rect x="198" y="108" width="9" height="18" fill="#1c1c1c"/><rect x="207" y="108" width="9" height="18" fill="#1c1c1c"/></g></svg>
