<svg xmlns="http://www.w3.org/2000/svg" width="324" height="72" viewBox="0 0 324 72" role="img" aria-label="Unicode progress labels" style="background:#000000"><rect width="100%" height="100%" fill="#000000"/><g font-family="ui-monospace, SFMono-Regular, Menlo, Consolas, monospace" font-size="14"><rect x="0" y="0" width="9" height="18" fill="#1c1c1c"/><rect x="9" y="0" width="9" height="18" fill="#1c1c1c"/><rect x="18" y="0" width="9" height="18" fill="#1c1c1c"/><rect x="27" y="0" width="9" height="18" fill="#1c1c1c"/><rect x="36" y="0" width="9" height="18" fill="#1c1c1c"/><rect x="45" y="0" width="9" height="18" fill="#1c1c1c"/><rect x="54" y="0" width="9" height="18" fill="#1c1c1c"/><rect x="63" y="0" width="9" height="18" fill="#1c1c1c"/><rect x="72" y="0" width="9" height="18" fill="#1c1c1c"/><rect x="81" y="0" width="9" height="18" fill="#1c1c1c"/><rect x="90" y="0" width="9" height="18" fill="#1c1c1c"/><rect x="99" y="0" width="9" height="18" fill="#1c1c1c"/><rect x="108" y="0" width="9" height="18" fill="#1c1c1c"/><rect x="117" y="0" width="9" height="18" fill="#1c1c1c"/><rect x="126" y="0" width="9" height="18" fill="#1c1c1c"/><rect x="135" y="0" width="9" height="18" fill="#1c1c1c"/><rect x="144" y="0" width="9" height="18" fill="#1c1c1c"/><rect x="153" y="0" width="9" height="18" fill="#1c1c1c"/><rect x="162" y="0" width="9" height="18" fill="#1c1c1c"/><rect x="171" y="0" width="9" height="18" fill="#1c1c1c"/><rect x="180" y="0" width="9" height="18" fill="#1c1c1c"/><rect x="189" y="0" width="9" height="18" fill="#1c1c1c"/><rect x="198" y="0" width="9" height="18" fill="#1c1c1c"/><rect x="207" y="0" width="9" height="18" fill="#1c1c1c"/><rect x="216" y="0" width="9" height="18" fill="#1c1c1c"/><rect x="225" y="0" width="9" height="18" fill="#1c1c1c"/><rect x="234" y="0" width="9" height="18" fill="#1c1c1c"/><rect x="243" y="0" width="9" height="18" fill="#1c1c1c"/><rect x="252" y="0" width="9" height="18" fill="#1c1c1c"/><rect x="261" y="0" width="9" height="18" fill="#1c1c1c"/><rect x="270" y="0" width="9" height="18" fill="#1c1c1c"/><rect x="279" y="0" width="9" height="18" fill="#1c1c1c"/><rect x="288" y="0" width="9" height="18" fill="#1c1c1c"/><rect x="297" y="0" width="9" height="18" fill="#1c1c1c"/><rect x="306" y="0" width="9" height="18" fill="#1c1c1c"/><rect x="315" y="0" width="9" height="18" fill="#1c1c1c"/><rect x="0" y="18" width="9" height="18" fill="#1c1c1c"/><text x="9" y="32" fill="#008c1e">東</text><text x="27" y="32" fill="#008c1e">京</text><text x="45" y="32" fill="#008c1e">を</text><text x="63" y="32" fill="#008c1e">処</text><text x="81" y="32" fill="#008c1e">理</text><text x="99" y="32" fill="#008c1e">中</text><text x="126" y="32" fill="#008c1e">🪨</text><text x="153" y="32" fill="#00ff41">█</text><text x="162" y="32" fill="#00ff41">█</text><text x="171" y="32" fill="#00ff41">█</text><text x="180" y="32" fill="#00ff41">█</text><text x="189" y="32" fill="#00ff41">█</text><text x="198" y="32" fill="#00ff41">█</text><text x="207" y="32" fill="#00ff41">█</text><text x="216" y="32" fill="#008c1e">░</text><text x="225" y="32" fill="#008c1e">░</text><text x="234" y="32" fill="#008c1e">░</text><text x="243" y="32" fill="#008c1e">░</text><text x="252" y="32" fill="#008c1e">░</text><text x="261" y="32" fill="#008c1e">░</text><text x="288" y="32" fill="#ffffff">5</text><text x="297" y="32" fill="#ffffff">0</text><text x="306" y="32" fill="#ffffff">%</text><rect x="315" y="18" width="9" height="18" fill="#1c1c1c"/><rect x="0" y="36" width="9" height="18" fill="#1c1c1c"/><text x="9" y="50" fill="#00ff41">⠦</text><text x="27" y="50" fill="#008c1e">検</text><text x="45" y="50" fill="#008c1e">証</text><text x="63" y="50" fill="#008c1e">中</text><text x="90" y="50" fill="#008c1e">✓</text><rect x="315" y="36" width="9" height="18" fill="#1c1c1c"/><rect x="0" y="54" width="9" height="18" fill="#1c1c1c"/><rect x="9" y="54" width="9" height="18" fill="#1c1c1c"/><rect x="18" y="54" width="9" height="18" fill="#1c1c1c"/><rect x="27" y="54" width="9" height="18" fill="#1c1c1c"/><rect x="36" y="54" width="9" height="18" fill="#1c1c1c"/><rect x="45" y="54" width="9" height="18" fill="#1c1c1c"/><rect x="54" y="54" width="9" height="18" fill="#1c1c1c"/><rect x="63" y="54" width="9" height="18" fill="#1c1c1c"/><rect x="72" y="54" width="9" height="18" fill="#1c1c1c"/><rect x="81" y="54" width="9" height="18" fill="#1c1c1c"/><rect x="90" y="54" width="9" height="18" fill="#1c1c1c"/><rect x="99" y="54" width="9" height="18" fill="#1c1c1c"/><rect x="108" y="54" width="9" height="18" fill="#1c1c1c"/><rect x="117" y="54" width="9" height="18" fill="#1c1c1c"/><rect x="126" y="54" width="9" height="18" fill="#1c1c1c"/><rect x="135" y="54" width="9" height="18" fill="#1c1c1c"/><rect x="144" y="54" width="9" height="18" fill="#1c1c1c"/><rect x="153" y="54" width="9" height="18" fill="#1c1c1c"/><rect x="162" y="54" width="9" height="18" fill="#1c1c1c"/><rect x="171" y="54" width="9" height="18" fill="#1c1c1c"/><rect x="180" y="54" width="9" height="18" fill="#1c1c1c"/><rect x="189" y="54" width="9" height="18" fill="#1c1c1c"/><rect x="198" y="54" width="9" height="18" fill="#1c1c1c"/><rect x="207" y="54" width="9" height="18" fill="#1c1c1c"/><rect x="216" y="54" width="9" height="18" fill="#1c1c1c"/><rect x="225" y="54" width="9" height="18" fill="#1c1c1c"/><rect x="234" y="54" width="9" height="18" fill="#1c1c1c"/><rect x="243" y="54" width="9" height="18" fill="#1c1c1c"/><rect x="252" y="54" width="9" height="18" fill="#1c1c1c"/><rect x="261" y="54" width="9" height="18" fill="#1c1c1c"/><rect x="270" y="54" width="9" height="18" fill="#1c1c1c"/><rect x="279" y="54" width="9" height="18" fill="#1c1c1c"/><rect x="288" y="54" width="9" height="18" fill="#1c1c1c"/><rect x="297" y="54" width="9" height="18" fill="#1c1c1c"/><rect x="306" y="54" width="9" height="18" fill="#1c1c1c"/><rect x="315" y="54" width="9" height="18" fill="#1c1c1c"/></g></svg>
