<svg xmlns="http://www.w3.org/2000/svg" width="558" height="252" viewBox="0 0 558 252" role="img" aria-label="ResultGrid wide schema" style="background:#000000"><rect width="100%" height="100%" fill="#000000"/><g font-family="ui-monospace, SFMono-Regular, Menlo, Consolas, monospace" font-size="14"><rect x="0" y="0" width="9" height="18" fill="#1c1c1c"/><rect x="9" y="0" width="9" height="18" fill="#1c1c1c"/><rect x="18" y="0" width="9" height="18" fill="#1c1c1c"/><rect x="27" y="0" width="9" height="18" fill="#1c1c1c"/><rect x="36" y="0" width="9" height="18" fill="#1c1c1c"/><rect x="45" y="0" width="9" height="18" fill="#1c1c1c"/><rect x="54" y="0" width="9" height="18" fill="#1c1c1c"/><rect x="63" y="0" width="9" height="18" fill="#1c1c1c"/><rect x="72" y="0" width="9" height="18" fill="#1c1c1c"/><rect x="81" y="0" width="9" height="18" fill="#1c1c1c"/><rect x="90" y="0" width="9" height="18" fill="#1c1c1c"/><rect x="99" y="0" width="9" height="18" fill="#1c1c1c"/><rect x="108" y="0" width="9" height="18" fill="#1c1c1c"/><rect x="117" y="0" width="9" height="18" fill="#1c1c1c"/><rect x="126" y="0" width="9" height="18" fill="#1c1c1c"/><rect x="135" y="0" width="9" height="18" fill="#1c1c1c"/><rect x="144" y="0" width="9" height="18" fill="#1c1c1c"/><rect x="153" y="0" width="9" height="18" fill="#1c1c1c"/><rect x="162" y="0" width="9" height="18" fill="#1c1c1c"/><rect x="171" y="0" width="9" height="18" fill="#1c1c1c"/><rect x="180" y="0" width="9" height="18" fill="#1c1c1c"/><rect x="189" y="0" width="9" height="18" fill="#1c1c1c"/><rect x="198" y="0" width="9" height="18" fill="#1c1c1c"/><rect x="207" y="0" width="9" height="18" fill="#1c1c1c"/><rect x="216" y="0" width="9" height="18" fill="#1c1c1c"/><rect x="225" y="0" width="9" height="18" fill="#1c1c1c"/><rect x="234" y="0" width="9" height="18" fill="#1c1c1c"/><rect x="243" y="0" width="9" height="18" fill="#1c1c1c"/><rect x="252" y="0" width="9" height="18" fill="#1c1c1c"/><rect x="261" y="0" width="9" height="18" fill="#1c1c1c"/><rect x="270" y="0" width="9" height="18" fill="#1c1c1c"/><rect x="279" y="0" width="9" height="18" fill="#1c1c1c"/><rect x="288" y="0" width="9" height="18" fill="#1c1c1c"/><rect x="297" y="0" width="9" height="18" fill="#1c1c1c"/><rect x="306" y="0" width="9" height="18" fill="#1c1c1c"/><rect x="315" y="0" width="9" height="18" fill="#1c1c1c"/><rect x="324" y="0" width="9" height="18" fill="#1c1c1c"/><rect x="333" y="0" width="9" height="18" fill="#1c1c1c"/><rect x="342" y="0" width="9" height="18" fill="#1c1c1c"/><rect x="351" y="0" width="9" height="18" fill="#1c1c1c"/><rect x="360" y="0" width="9" height="18" fill="#1c1c1c"/><rect x="369" y="0" width="9" height="18" fill="#1c1c1c"/><rect x="378" y="0" width="9" height="18" fill="#1c1c1c"/><rect x="387" y="0" width="9" height="18" fill="#1c1c1c"/><rect x="396" y="0" width="9" height="18" fill="#1c1c1c"/><rect x="405" y="0" width="9" height="18" fill="#1c1c1c"/><rect x="414" y="0" width="9" height="18" fill="#1c1c1c"/><rect x="423" y="0" width="9" height="18" fill="#1c1c1c"/><rect x="432" y="0" width="9" height="18" fill="#1c1c1c"/><rect x="441" y="0" width="9" height="18" fill="#1c1c1c"/><rect x="450" y="0" width="9" height="18" fill="#1c1c1c"/><rect x="459" y="0" width="9" height="18" fill="#1c1c1c"/><rect x="468" y="0" width="9" height="18" fill="#1c1c1c"/><rect x="477" y="0" width="9" height="18" fill="#1c1c1c"/><rect x="486" y="0" width="9" height="18" fill="#1c1c1c"/><rect x="495" y="0" width="9" height="18" fill="#1c1c1c"/><rect x="504" y="0" width="9" height="18" fill="#1c1c1c"/><rect x="513" y="0" width="9" height="18" fill="#1c1c1c"/><rect x="522" y="0" width="9" height="18" fill="#1c1c1c"/><rect x="531" y="0" width="9" height="18" fill="#1c1c1c"/><rect x="540" y="0" width="9" height="18" fill="#1c1c1c"/><rect x="549" y="0" width="9" height="18" fill="#1c1c1c"/><rect x="0" y="18" width="9" height="18" fill="#1c1c1c"/><text x="9" y="32" fill="#ffffff">w</text><text x="18" y="32" fill="#ffffff">i</text><text x="27" y="32" fill="#ffffff">d</text><text x="36" y="32" fill="#ffffff">e</text><text x="54" y="32" fill="#ffffff">·</text><text x="72" y="32" fill="#ffffff">1</text><text x="90" y="32" fill="#ffffff">r</text><text x="99" y="32" fill="#ffffff">o</text><text x="108" y="32" fill="#ffffff">w</text><text x="117" y="32" fill="#ffffff">s</text><text x="135" y="32" fill="#ffffff">·</text><text x="153" y="32" fill="#ffffff">1</text><text x="162" y="32" fill="#ffffff">3</text><text x="180" y="32" fill="#ffffff">c</text><text x="189" y="32" fill="#ffffff">o</text><text x="198" y="32" fill="#ffffff">l</text><text x="207" y="32" fill="#ffffff">s</text><text x="225" y="32" fill="#ffffff">·</text><text x="243" y="32" fill="#ffffff">1</text><text x="252" y="32" fill="#ffffff">m</text><text x="261" y="32" fill="#ffffff">s</text><rect x="549" y="18" width="9" height="18" fill="#1c1c1c"/><rect x="0" y="36" width="9" height="18" fill="#1c1c1c"/><text x="9" y="50" fill="#008c1e">R</text><text x="18" y="50" fill="#008c1e">e</text><text x="27" y="50" fill="#008c1e">f</text><text x="36" y="50" fill="#008c1e">r</text><text x="45" y="50" fill="#008c1e">e</text><text x="54" y="50" fill="#008c1e">s</text><text x="63" y="50" fill="#008c1e">h</text><text x="81" y="50" fill="#008c1e">·</text><text x="99" y="50" fill="#008c1e">E</text><text x="108" y="50" fill="#008c1e">x</text><text x="117" y="50" fill="#008c1e">p</text><text x="126" y="50" fill="#008c1e">o</text><text x="135" y="50" fill="#008c1e">r</text><text x="144" y="50" fill="#008c1e">t</text><rect x="549" y="36" width="9" height="18" fill="#1c1c1c"/><rect x="0" y="54" width="9" height="18" fill="#1c1c1c"/><text x="27" y="68" fill="#ffffff">C</text><text x="36" y="68" fill="#ffffff">0</text><text x="72" y="68" fill="#505050">│</text><text x="81" y="68" fill="#ffffff">I</text><text x="90" y="68" fill="#ffffff">D</text><text x="117" y="68" fill="#505050">│</text><text x="126" y="68" fill="#ffffff">C</text><text x="135" y="68" fill="#ffffff">1</text><text x="216" y="68" fill="#505050">│</text><text x="225" y="68" fill="#ffffff">C</text><text x="234" y="68" fill="#ffffff">2</text><text x="315" y="68" fill="#505050">│</text><text x="324" y="68" fill="#ffffff">C</text><text x="333" y="68" fill="#ffffff">3</text><text x="369" y="68" fill="#505050">│</text><text x="378" y="68" fill="#ffffff">C</text><text x="387" y="68" fill="#505050">│</text><text x="396" y="68" fill="#ffffff">C</text><text x="405" y="68" fill="#505050">│</text><text x="414" y="68" fill="#ffffff">C</text><text x="423" y="68" fill="#505050">│</text><text x="432" y="68" fill="#ffffff">C</text><text x="441" y="68" fill="#505050">│</text><text x="450" y="68" fill="#ffffff">C</text><text x="459" y="68" fill="#505050">│</text><text x="468" y="68" fill="#ffffff">C</text><text x="477" y="68" fill="#505050">│</text><text x="486" y="68" fill="#ffffff">C</text><text x="495" y="68" fill="#505050">│</text><text x="504" y="68" fill="#ffffff">C</text><rect x="549" y="54" width="9" height="18" fill="#1c1c1c"/><rect x="0" y="72" width="9" height="18" fill="#1c1c1c"/><text x="9" y="86" fill="#00ff41">›</text><text x="27" y="86" fill="#00ff41">a</text><text x="72" y="86" fill="#505050">│</text><text x="81" y="86" fill="#00ff41">1</text><text x="117" y="86" fill="#505050">│</text><text x="126" y="86" fill="#00ff41">b</text><text x="216" y="86" fill="#505050">│</text><text x="225" y="86" fill="#00ff41">c</text><text x="315" y="86" fill="#505050">│</text><text x="324" y="86" fill="#00ff41">d</text><text x="369" y="86" fill="#505050">│</text><text x="378" y="86" fill="#00ff41">e</text><text x="387" y="86" fill="#505050">│</text><text x="396" y="86" fill="#00ff41">f</text><text x="405" y="86" fill="#505050">│</text><text x="414" y="86" fill="#00ff41">g</text><text x="423" y="86" fill="#505050">│</text><text x="432" y="86" fill="#00ff41">h</text><text x="441" y="86" fill="#505050">│</text><text x="450" y="86" fill="#00ff41">i</text><text x="459" y="86" fill="#505050">│</text><text x="468" y="86" fill="#00ff41">j</text><text x="477" y="86" fill="#505050">│</text><text x="486" y="86" fill="#00ff41">k</text><text x="495" y="86" fill="#505050">│</text><text x="504" y="86" fill="#00ff41">l</text><rect x="549" y="72" width="9" height="18" fill="#1c1c1c"/><rect x="0" y="90" width="9" height="18" fill="#1c1c1c"/><rect x="549" y="90" width="9" height="18" fill="#1c1c1c"/><rect x="0" y="108" width="9" height="18" fill="#1c1c1c"/><rect x="549" y="108" width="9" height="18" fill="#1c1c1c"/><rect x="0" y="126" width="9" height="18" fill="#1c1c1c"/><rect x="549" y="126" width="9" height="18" fill="#1c1c1c"/><rect x="0" y="144" width="9" height="18" fill="#1c1c1c"/><rect x="549" y="144" width="9" height="18" fill="#1c1c1c"/><rect x="0" y="162" width="9" height="18" fill="#1c1c1c"/><rect x="549" y="162" width="9" height="18" fill="#1c1c1c"/><rect x="0" y="180" width="9" height="18" fill="#1c1c1c"/><rect x="549" y="180" width="9" height="18" fill="#1c1c1c"/><rect x="0" y="198" width="9" height="18" fill="#1c1c1c"/><rect x="549" y="198" width="9" height="18" fill="#1c1c1c"/><rect x="0" y="216" width="9" height="18" fill="#1c1c1c"/><text x="9" y="230" fill="#008c1e">1</text><text x="27" y="230" fill="#008c1e">r</text><text x="36" y="230" fill="#008c1e">o</text><text x="45" y="230" fill="#008c1e">w</text><text x="54" y="230" fill="#008c1e">s</text><text x="72" y="230" fill="#008c1e">·</text><text x="90" y="230" fill="#008c1e">n</text><text x="99" y="230" fill="#008c1e">a</text><text x="108" y="230" fill="#008c1e">v</text><text x="117" y="230" fill="#008c1e">:</text><text x="126" y="230" fill="#008c1e">c</text><text x="135" y="230" fill="#008c1e">e</text><text x="144" y="230" fill="#008c1e">l</text><text x="153" y="230" fill="#008c1e">l</text><rect x="549" y="216" width="9" height="18" fill="#1c1c1c"/><rect x="0" y="234" width="9" height="18" fill="#1c1c1c"/><rect x="9" y="234" width="9" height="18" fill="#1c1c1c"/><rect x="18" y="234" width="9" height="18" fill="#1c1c1c"/><rect x="27" y="234" width="9" height="18" fill="#1c1c1c"/><rect x="36" y="234" width="9" height="18" fill="#1c1c1c"/><rect x="45" y="234" width="9" height="18" fill="#1c1c1c"/><rect x="54" y="234" width="9" height="18" fill="#1c1c1c"/><rect x="63" y="234" width="9" height="18" fill="#1c1c1c"/><rect x="72" y="234" width="9" height="18" fill="#1c1c1c"/><rect x="81" y="234" width="9" height="18" fill="#1c1c1c"/><rect x="90" y="234" width="9" height="18" fill="#1c1c1c"/><rect x="99" y="234" width="9" height="18" fill="#1c1c1c"/><rect x="108" y="234" width="9" height="18" fill="#1c1c1c"/><rect x="117" y="234" width="9" height="18" fill="#1c1c1c"/><rect x="126" y="234" width="9" height="18" fill="#1c1c1c"/><rect x="135" y="234" width="9" height="18" fill="#1c1c1c"/><rect x="144" y="234" width="9" height="18" fill="#1c1c1c"/><rect x="153" y="234" width="9" height="18" fill="#1c1c1c"/><rect x="162" y="234" width="9" height="18" fill="#1c1c1c"/><rect x="171" y="234" width="9" height="18" fill="#1c1c1c"/><rect x="180" y="234" width="9" height="18" fill="#1c1c1c"/><rect x="189" y="234" width="9" height="18" fill="#1c1c1c"/><rect x="198" y="234" width="9" height="18" fill="#1c1c1c"/><rect x="207" y="234" width="9" height="18" fill="#1c1c1c"/><rect x="216" y="234" width="9" height="18" fill="#1c1c1c"/><rect x="225" y="234" width="9" height="18" fill="#1c1c1c"/><rect x="234" y="234" width="9" height="18" fill="#1c1c1c"/><rect x="243" y="234" width="9" height="18" fill="#1c1c1c"/><rect x="252" y="234" width="9" height="18" fill="#1c1c1c"/><rect x="261" y="234" width="9" height="18" fill="#1c1c1c"/><rect x="270" y="234" width="9" height="18" fill="#1c1c1c"/><rect x="279" y="234" width="9" height="18" fill="#1c1c1c"/><rect x="288" y="234" width="9" height="18" fill="#1c1c1c"/><rect x="297" y="234" width="9" height="18" fill="#1c1c1c"/><rect x="306" y="234" width="9" height="18" fill="#1c1c1c"/><rect x="315" y="234" width="9" height="18" fill="#1c1c1c"/><rect x="324" y="234" width="9" height="18" fill="#1c1c1c"/><rect x="333" y="234" width="9" height="18" fill="#1c1c1c"/><rect x="342" y="234" width="9" height="18" fill="#1c1c1c"/><rect x="351" y="234" width="9" height="18" fill="#1c1c1c"/><rect x="360" y="234" width="9" height="18" fill="#1c1c1c"/><rect x="369" y="234" width="9" height="18" fill="#1c1c1c"/><rect x="378" y="234" width="9" height="18" fill="#1c1c1c"/><rect x="387" y="234" width="9" height="18" fill="#1c1c1c"/><rect x="396" y="234" width="9" height="18" fill="#1c1c1c"/><rect x="405" y="234" width="9" height="18" fill="#1c1c1c"/><rect x="414" y="234" width="9" height="18" fill="#1c1c1c"/><rect x="423" y="234" width="9" height="18" fill="#1c1c1c"/><rect x="432" y="234" width="9" height="18" fill="#1c1c1c"/><rect x="441" y="234" width="9" height="18" fill="#1c1c1c"/><rect x="450" y="234" width="9" height="18" fill="#1c1c1c"/><rect x="459" y="234" width="9" height="18" fill="#1c1c1c"/><rect x="468" y="234" width="9" height="18" fill="#1c1c1c"/><rect x="477" y="234" width="9" height="18" fill="#1c1c1c"/><rect x="486" y="234" width="9" height="18" fill="#1c1c1c"/><rect x="495" y="234" width="9" height="18" fill="#1c1c1c"/><rect x="504" y="234" width="9" height="18" fill="#1c1c1c"/><rect x="513" y="234" width="9" height="18" fill="#1c1c1c"/><rect x="522" y="234" width="9" height="18" fill="#1c1c1c"/><rect x="531" y="234" width="9" height="18" fill="#1c1c1c"/><rect x="540" y="234" width="9" height="18" fill="#1c1c1c"/><rect x="549" y="234" width="9" height="18" fill="#1c1c1c"/></g></svg>
