<svg xmlns="http://www.w3.org/2000/svg" width="162" height="126" viewBox="0 0 162 126" role="img" aria-label="Stack narrow overflow" style="background:#000000"><rect width="100%" height="100%" fill="#000000"/><g font-family="ui-monospace, SFMono-Regular, Menlo, Consolas, monospace" font-size="14"><rect x="0" y="0" width="9" height="18" fill="#1c1c1c"/><rect x="9" y="0" width="9" height="18" fill="#1c1c1c"/><rect x="18" y="0" width="9" height="18" fill="#1c1c1c"/><rect x="27" y="0" width="9" height="18" fill="#1c1c1c"/><rect x="36" y="0" width="9" height="18" fill="#1c1c1c"/><rect x="45" y="0" width="9" height="18" fill="#1c1c1c"/><rect x="54" y="0" width="9" height="18" fill="#1c1c1c"/><rect x="63" y="0" width="9" height="18" fill="#1c1c1c"/><rect x="72" y="0" width="9" height="18" fill="#1c1c1c"/><rect x="81" y="0" width="9" height="18" fill="#1c1c1c"/><rect x="90" y="0" width="9" height="18" fill="#1c1c1c"/><rect x="99" y="0" width="9" height="18" fill="#1c1c1c"/><rect x="108" y="0" width="9" height="18" fill="#1c1c1c"/><rect x="117" y="0" width="9" height="18" fill="#1c1c1c"/><rect x="126" y="0" width="9" height="18" fill="#1c1c1c"/><rect x="135" y="0" width="9" height="18" fill="#1c1c1c"/><rect x="144" y="0" width="9" height="18" fill="#1c1c1c"/><rect x="153" y="0" width="9" height="18" fill="#1c1c1c"/><rect x="0" y="18" width="9" height="18" fill="#1c1c1c"/><text x="9" y="32" fill="#505050">┌</text><text x="27" y="32" fill="#ffffff">1</text><text x="45" y="32" fill="#505050">─</text><text x="54" y="32" fill="#505050">─</text><text x="63" y="32" fill="#505050">─</text><text x="72" y="32" fill="#505050">─</text><text x="81" y="32" fill="#505050">─</text><text x="90" y="32" fill="#505050">─</text><text x="99" y="32" fill="#505050">─</text><text x="108" y="32" fill="#505050">─</text><text x="117" y="32" fill="#505050">─</text><text x="126" y="32" fill="#505050">─</text><text x="135" y="32" fill="#505050">─</text><text x="144" y="32" fill="#505050">┐</text><rect x="153" y="18" width="9" height="18" fill="#1c1c1c"/><rect x="0" y="36" width="9" height="18" fill="#1c1c1c"/><text x="9" y="50" fill="#505050">└</text><text x="18" y="50" fill="#505050">─</text><text x="27" y="50" fill="#505050">─</text><text x="36" y="50" fill="#505050">─</text><text x="45" y="50" fill="#505050">─</text><text x="54" y="50" fill="#505050">─</text><text x="63" y="50" fill="#505050">─</text><text x="72" y="50" fill="#505050">─</text><text x="81" y="50" fill="#505050">─</text><text x="90" y="50" fill="#505050">─</text><text x="99" y="50" fill="#505050">─</text><text x="108" y="50" fill="#505050">─</text><text x="117" y="50" fill="#505050">─</text><text x="126" y="50" fill="#505050">─</text><text x="135" y="50" fill="#505050">─</text><text x="144" y="50" fill="#505050">┘</text><rect x="153" y="36" width="9" height="18" fill="#1c1c1c"/><rect x="0" y="54" width="9" height="18" fill="#1c1c1c"/><text x="9" y="68" fill="#505050">┌</text><text x="27" y="68" fill="#ffffff">2</text><text x="45" y="68" fill="#505050">─</text><text x="54" y="68" fill="#505050">─</text><text x="63" y="68" fill="#505050">─</text><text x="72" y="68" fill="#505050">─</text><text x="81" y="68" fill="#505050">─</text><text x="90" y="68" fill="#505050">─</text><text x="99" y="68" fill="#505050">─</text><text x="108" y="68" fill="#505050">─</text><text x="117" y="68" fill="#505050">─</text><text x="126" y="68" fill="#505050">─</text><text x="135" y="68" fill="#505050">─</text><text x="144" y="68" fill="#505050">┐</text><rect x="153" y="54" width="9" height="18" fill="#1c1c1c"/><rect x="0" y="72" width="9" height="18" fill="#1c1c1c"/><text x="9" y="86" fill="#505050">│</text><text x="144" y="86" fill="#505050">│</text><rect x="153" y="72" width="9" height="18" fill="#1c1c1c"/><rect x="0" y="90" width="9" height="18" fill="#1c1c1c"/><text x="9" y="104" fill="#ffd85e">o</text><text x="18" y="104" fill="#ffd85e">v</text><text x="27" y="104" fill="#ffd85e">e</text><text x="36" y="104" fill="#ffd85e">r</text><text x="45" y="104" fill="#ffd85e">f</text><text x="54" y="104" fill="#ffd85e">l</text><text x="63" y="104" fill="#ffd85e">o</text><text x="72" y="104" fill="#ffd85e">w</text><text x="81" y="104" fill="#505050">─</text><text x="90" y="104" fill="#505050">─</text><text x="99" y="104" fill="#505050">─</text><text x="108" y="104" fill="#505050">─</text><text x="117" y="104" fill="#505050">─</text><text x="126" y="104" fill="#505050">─</text><text x="135" y="104" fill="#505050">─</text><text x="144" y="104" fill="#505050">┘</text><rect x="153" y="90" width="9" height="18" fill="#1c1c1c"/><rect x="0" y="108" width="9" height="18" fill="#1c1c1c"/><rect x="9" y="108" width="9" height="18" fill="#1c1c1c"/><rect x="18" y="108" width="9" height="18" fill="#1c1c1c"/><rect x="27" y="108" width="9" height="18" fill="#1c1c1c"/><rect x="36" y="108" width="9" height="18" fill="#1c1c1c"/><rect x="45" y="108" width="9" height="18" fill="#1c1c1c"/><rect x="54" y="108" width="9" height="18" fill="#1c1c1c"/><rect x="63" y="108" width="9" height="18" fill="#1c1c1c"/><rect x="72" y="108" width="9" height="18" fill="#1c1c1c"/><rect x="81" y="108" width="9" height="18" fill="#1c1c1c"/><rect x="90" y="108" width="9" height="18" fill="#1c1c1c"/><rect x="99" y="108" width="9" height="18" fill="#1c1c1c"/><rect x="108" y="108" width="9" height="18" fill="#1c1c1c"/><rect x="117" y="108" width="9" height="18" fill="#1c1c1c"/><rect x="126" y="108" width="9" height="18" fill="#1c1c1c"/><rect x="135" y="108" width="9" height="18" fill="#1c1c1c"/><rect x="144" y="108" width="9" height="18" fill="#1c1c1c"/><rect x="153" y="108" width="9" height="18" fill="#1c1c1c"/></g></svg>
