<svg xmlns="http://www.w3.org/2000/svg" width="558" height="54" viewBox="0 0 558 54" role="img" aria-label="Status bar" style="background:#000000"><rect width="100%" height="100%" fill="#000000"/><g font-family="ui-monospace, SFMono-Regular, Menlo, Consolas, monospace" font-size="14"><rect x="0" y="0" width="9" height="18" fill="#1c1c1c"/><rect x="9" y="0" width="9" height="18" fill="#1c1c1c"/><rect x="18" y="0" width="9" height="18" fill="#1c1c1c"/><rect x="27" y="0" width="9" height="18" fill="#1c1c1c"/><rect x="36" y="0" width="9" height="18" fill="#1c1c1c"/><rect x="45" y="0" width="9" height="18" fill="#1c1c1c"/><rect x="54" y="0" width="9" height="18" fill="#1c1c1c"/><rect x="63" y="0" width="9" height="18" fill="#1c1c1c"/><rect x="72" y="0" width="9" height="18" fill="#1c1c1c"/><rect x="81" y="0" width="9" height="18" fill="#1c1c1c"/><rect x="90" y="0" width="9" height="18" fill="#1c1c1c"/><rect x="99" y="0" width="9" height="18" fill="#1c1c1c"/><rect x="108" y="0" width="9" height="18" fill="#1c1c1c"/><rect x="117" y="0" width="9" height="18" fill="#1c1c1c"/><rect x="126" y="0" width="9" height="18" fill="#1c1c1c"/><rect x="135" y="0" width="9" height="18" fill="#1c1c1c"/><rect x="144" y="0" width="9" height="18" fill="#1c1c1c"/><rect x="153" y="0" width="9" height="18" fill="#1c1c1c"/><rect x="162" y="0" width="9" height="18" fill="#1c1c1c"/><rect x="171" y="0" width="9" height="18" fill="#1c1c1c"/><rect x="180" y="0" width="9" height="18" fill="#1c1c1c"/><rect x="189" y="0" width="9" height="18" fill="#1c1c1c"/><rect x="198" y="0" width="9" height="18" fill="#1c1c1c"/><rect x="207" y="0" width="9" height="18" fill="#1c1c1c"/><rect x="216" y="0" width="9" height="18" fill="#1c1c1c"/><rect x="225" y="0" width="9" height="18" fill="#1c1c1c"/><rect x="234" y="0" width="9" height="18" fill="#1c1c1c"/><rect x="243" y="0" width="9" height="18" fill="#1c1c1c"/><rect x="252" y="0" width="9" height="18" fill="#1c1c1c"/><rect x="261" y="0" width="9" height="18" fill="#1c1c1c"/><rect x="270" y="0" width="9" height="18" fill="#1c1c1c"/><rect x="279" y="0" width="9" height="18" fill="#1c1c1c"/><rect x="288" y="0" width="9" height="18" fill="#1c1c1c"/><rect x="297" y="0" width="9" height="18" fill="#1c1c1c"/><rect x="306" y="0" width="9" height="18" fill="#1c1c1c"/><rect x="315" y="0" width="9" height="18" fill="#1c1c1c"/><rect x="324" y="0" width="9" height="18" fill="#1c1c1c"/><rect x="333" y="0" width="9" height="18" fill="#1c1c1c"/><rect x="342" y="0" width="9" height="18" fill="#1c1c1c"/><rect x="351" y="0" width="9" height="18" fill="#1c1c1c"/><rect x="360" y="0" width="9" height="18" fill="#1c1c1c"/><rect x="369" y="0" width="9" height="18" fill="#1c1c1c"/><rect x="378" y="0" width="9" height="18" fill="#1c1c1c"/><rect x="387" y="0" width="9" height="18" fill="#1c1c1c"/><rect x="396" y="0" width="9" height="18" fill="#1c1c1c"/><rect x="405" y="0" width="9" height="18" fill="#1c1c1c"/><rect x="414" y="0" width="9" height="18" fill="#1c1c1c"/><rect x="423" y="0" width="9" height="18" fill="#1c1c1c"/><rect x="432" y="0" width="9" height="18" fill="#1c1c1c"/><rect x="441" y="0" width="9" height="18" fill="#1c1c1c"/><rect x="450" y="0" width="9" height="18" fill="#1c1c1c"/><rect x="459" y="0" width="9" height="18" fill="#1c1c1c"/><rect x="468" y="0" width="9" height="18" fill="#1c1c1c"/><rect x="477" y="0" width="9" height="18" fill="#1c1c1c"/><rect x="486" y="0" width="9" height="18" fill="#1c1c1c"/><rect x="495" y="0" width="9" height="18" fill="#1c1c1c"/><rect x="504" y="0" width="9" height="18" fill="#1c1c1c"/><rect x="513" y="0" width="9" height="18" fill="#1c1c1c"/><rect x="522" y="0" width="9" height="18" fill="#1c1c1c"/><rect x="531" y="0" width="9" height="18" fill="#1c1c1c"/><rect x="540" y="0" width="9" height="18" fill="#1c1c1c"/><rect x="549" y="0" width="9" height="18" fill="#1c1c1c"/><rect x="0" y="18" width="9" height="18" fill="#1c1c1c"/><text x="18" y="32" fill="#ffffff">R</text><text x="27" y="32" fill="#ffffff">e</text><text x="36" y="32" fill="#ffffff">a</text><text x="45" y="32" fill="#ffffff">d</text><text x="54" y="32" fill="#ffffff">y</text><text x="504" y="32" fill="#ffffff">3</text><text x="513" y="32" fill="#ffffff">/</text><text x="522" y="32" fill="#ffffff">1</text><text x="531" y="32" fill="#ffffff">2</text><rect x="549" y="18" width="9" height="18" fill="#1c1c1c"/><rect x="0" y="36" width="9" height="18" fill="#1c1c1c"/><rect x="9" y="36" width="9" height="18" fill="#1c1c1c"/><rect x="18" y="36" width="9" height="18" fill="#1c1c1c"/><rect x="27" y="36" width="9" height="18" fill="#1c1c1c"/><rect x="36" y="36" width="9" height="18" fill="#1c1c1c"/><rect x="45" y="36" width="9" height="18" fill="#1c1c1c"/><rect x="54" y="36" width="9" height="18" fill="#1c1c1c"/><rect x="63" y="36" width="9" height="18" fill="#1c1c1c"/><rect x="72" y="36" width="9" height="18" fill="#1c1c1c"/><rect x="81" y="36" width="9" height="18" fill="#1c1c1c"/><rect x="90" y="36" width="9" height="18" fill="#1c1c1c"/><rect x="99" y="36" width="9" height="18" fill="#1c1c1c"/><rect x="108" y="36" width="9" height="18" fill="#1c1c1c"/><rect x="117" y="36" width="9" height="18" fill="#1c1c1c"/><rect x="126" y="36" width="9" height="18" fill="#1c1c1c"/><rect x="135" y="36" width="9" height="18" fill="#1c1c1c"/><rect x="144" y="36" width="9" height="18" fill="#1c1c1c"/><rect x="153" y="36" width="9" height="18" fill="#1c1c1c"/><rect x="162" y="36" width="9" height="18" fill="#1c1c1c"/><rect x="171" y="36" width="9" height="18" fill="#1c1c1c"/><rect x="180" y="36" width="9" height="18" fill="#1c1c1c"/><rect x="189" y="36" width="9" height="18" fill="#1c1c1c"/><rect x="198" y="36" width="9" height="18" fill="#1c1c1c"/><rect x="207" y="36" width="9" height="18" fill="#1c1c1c"/><rect x="216" y="36" width="9" height="18" fill="#1c1c1c"/><rect x="225" y="36" width="9" height="18" fill="#1c1c1c"/><rect x="234" y="36" width="9" height="18" fill="#1c1c1c"/><rect x="243" y="36" width="9" height="18" fill="#1c1c1c"/><rect x="252" y="36" width="9" height="18" fill="#1c1c1c"/><rect x="261" y="36" width="9" height="18" fill="#1c1c1c"/><rect x="270" y="36" width="9" height="18" fill="#1c1c1c"/><rect x="279" y="36" width="9" height="18" fill="#1c1c1c"/><rect x="288" y="36" width="9" height="18" fill="#1c1c1c"/><rect x="297" y="36" width="9" height="18" fill="#1c1c1c"/><rect x="306" y="36" width="9" height="18" fill="#1c1c1c"/><rect x="315" y="36" width="9" height="18" fill="#1c1c1c"/><rect x="324" y="36" width="9" height="18" fill="#1c1c1c"/><rect x="333" y="36" width="9" height="18" fill="#1c1c1c"/><rect x="342" y="36" width="9" height="18" fill="#1c1c1c"/><rect x="351" y="36" width="9" height="18" fill="#1c1c1c"/><rect x="360" y="36" width="9" height="18" fill="#1c1c1c"/><rect x="369" y="36" width="9" height="18" fill="#1c1c1c"/><rect x="378" y="36" width="9" height="18" fill="#1c1c1c"/><rect x="387" y="36" width="9" height="18" fill="#1c1c1c"/><rect x="396" y="36" width="9" height="18" fill="#1c1c1c"/><rect x="405" y="36" width="9" height="18" fill="#1c1c1c"/><rect x="414" y="36" width="9" height="18" fill="#1c1c1c"/><rect x="423" y="36" width="9" height="18" fill="#1c1c1c"/><rect x="432" y="36" width="9" height="18" fill="#1c1c1c"/><rect x="441" y="36" width="9" height="18" fill="#1c1c1c"/><rect x="450" y="36" width="9" height="18" fill="#1c1c1c"/><rect x="459" y="36" width="9" height="18" fill="#1c1c1c"/><rect x="468" y="36" width="9" height="18" fill="#1c1c1c"/><rect x="477" y="36" width="9" height="18" fill="#1c1c1c"/><rect x="486" y="36" width="9" height="18" fill="#1c1c1c"/><rect x="495" y="36" width="9" height="18" fill="#1c1c1c"/><rect x="504" y="36" width="9" height="18" fill="#1c1c1c"/><rect x="513" y="36" width="9" height="18" fill="#1c1c1c"/><rect x="522" y="36" width="9" height="18" fill="#1c1c1c"/><rect x="531" y="36" width="9" height="18" fill="#1c1c1c"/><rect x="540" y="36" width="9" height="18" fill="#1c1c1c"/><rect x="549" y="36" width="9" height="18" fill="#1c1c1c"/></g></svg>
