<svg xmlns="http://www.w3.org/2000/svg" width="198" height="54" viewBox="0 0 198 54" role="img" aria-label="Narrow status bar" style="background:#000000"><rect width="100%" height="100%" fill="#000000"/><g font-family="ui-monospace, SFMono-Regular, Menlo, Consolas, monospace" font-size="14"><rect x="0" y="0" width="9" height="18" fill="#1c1c1c"/><rect x="9" y="0" width="9" height="18" fill="#1c1c1c"/><rect x="18" y="0" width="9" height="18" fill="#1c1c1c"/><rect x="27" y="0" width="9" height="18" fill="#1c1c1c"/><rect x="36" y="0" width="9" height="18" fill="#1c1c1c"/><rect x="45" y="0" width="9" height="18" fill="#1c1c1c"/><rect x="54" y="0" width="9" height="18" fill="#1c1c1c"/><rect x="63" y="0" width="9" height="18" fill="#1c1c1c"/><rect x="72" y="0" width="9" height="18" fill="#1c1c1c"/><rect x="81" y="0" width="9" height="18" fill="#1c1c1c"/><rect x="90" y="0" width="9" height="18" fill="#1c1c1c"/><rect x="99" y="0" width="9" height="18" fill="#1c1c1c"/><rect x="108" y="0" width="9" height="18" fill="#1c1c1c"/><rect x="117" y="0" width="9" height="18" fill="#1c1c1c"/><rect x="126" y="0" width="9" height="18" fill="#1c1c1c"/><rect x="135" y="0" width="9" height="18" fill="#1c1c1c"/><rect x="144" y="0" width="9" height="18" fill="#1c1c1c"/><rect x="153" y="0" width="9" height="18" fill="#1c1c1c"/><rect x="162" y="0" width="9" height="18" fill="#1c1c1c"/><rect x="171" y="0" width="9" height="18" fill="#1c1c1c"/><rect x="180" y="0" width="9" height="18" fill="#1c1c1c"/><rect x="189" y="0" width="9" height="18" fill="#1c1c1c"/><rect x="0" y="18" width="9" height="18" fill="#1c1c1c"/><text x="18" y="32" fill="#ffffff">R</text><text x="27" y="32" fill="#ffffff">e</text><text x="36" y="32" fill="#ffffff">a</text><text x="45" y="32" fill="#ffffff">d</text><text x="54" y="32" fill="#ffffff">y</text><text x="144" y="32" fill="#ffffff">3</text><text x="153" y="32" fill="#ffffff">/</text><text x="162" y="32" fill="#ffffff">1</text><text x="171" y="32" fill="#ffffff">2</text><rect x="189" y="18" width="9" height="18" fill="#1c1c1c"/><rect x="0" y="36" width="9" height="18" fill="#1c1c1c"/><rect x="9" y="36" width="9" height="18" fill="#1c1c1c"/><rect x="18" y="36" width="9" height="18" fill="#1c1c1c"/><rect x="27" y="36" width="9" height="18" fill="#1c1c1c"/><rect x="36" y="36" width="9" height="18" fill="#1c1c1c"/><rect x="45" y="36" width="9" height="18" fill="#1c1c1c"/><rect x="54" y="36" width="9" height="18" fill="#1c1c1c"/><rect x="63" y="36" width="9" height="18" fill="#1c1c1c"/><rect x="72" y="36" width="9" height="18" fill="#1c1c1c"/><rect x="81" y="36" width="9" height="18" fill="#1c1c1c"/><rect x="90" y="36" width="9" height="18" fill="#1c1c1c"/><rect x="99" y="36" width="9" height="18" fill="#1c1c1c"/><rect x="108" y="36" width="9" height="18" fill="#1c1c1c"/><rect x="117" y="36" width="9" height="18" fill="#1c1c1c"/><rect x="126" y="36" width="9" height="18" fill="#1c1c1c"/><rect x="135" y="36" width="9" height="18" fill="#1c1c1c"/><rect x="144" y="36" width="9" height="18" fill="#1c1c1c"/><rect x="153" y="36" width="9" height="18" fill="#1c1c1c"/><rect x="162" y="36" width="9" height="18" fill="#1c1c1c"/><rect x="171" y="36" width="9" height="18" fill="#1c1c1c"/><rect x="180" y="36" width="9" height="18" fill="#1c1c1c"/><rect x="189" y="36" width="9" height="18" fill="#1c1c1c"/></g></svg>
