<svg xmlns="http://www.w3.org/2000/svg" width="198" height="144" viewBox="0 0 198 144" role="img" aria-label="Narrow table" style="background:#000000"><rect width="100%" height="100%" fill="#000000"/><g font-family="ui-monospace, SFMono-Regular, Menlo, Consolas, monospace" font-size="14"><rect x="0" y="0" width="9" height="18" fill="#1c1c1c"/><rect x="9" y="0" width="9" height="18" fill="#1c1c1c"/><rect x="18" y="0" width="9" height="18" fill="#1c1c1c"/><rect x="27" y="0" width="9" height="18" fill="#1c1c1c"/><rect x="36" y="0" width="9" height="18" fill="#1c1c1c"/><rect x="45" y="0" width="9" height="18" fill="#1c1c1c"/><rect x="54" y="0" width="9" height="18" fill="#1c1c1c"/><rect x="63" y="0" width="9" height="18" fill="#1c1c1c"/><rect x="72" y="0" width="9" height="18" fill="#1c1c1c"/><rect x="81" y="0" width="9" height="18" fill="#1c1c1c"/><rect x="90" y="0" width="9" height="18" fill="#1c1c1c"/><rect x="99" y="0" width="9" height="18" fill="#1c1c1c"/><rect x="108" y="0" width="9" height="18" fill="#1c1c1c"/><rect x="117" y="0" width="9" height="18" fill="#1c1c1c"/><rect x="126" y="0" width="9" height="18" fill="#1c1c1c"/><rect x="135" y="0" width="9" height="18" fill="#1c1c1c"/><rect x="144" y="0" width="9" height="18" fill="#1c1c1c"/><rect x="153" y="0" width="9" height="18" fill="#1c1c1c"/><rect x="162" y="0" width="9" height="18" fill="#1c1c1c"/><rect x="171" y="0" width="9" height="18" fill="#1c1c1c"/><rect x="180" y="0" width="9" height="18" fill="#1c1c1c"/><rect x="189" y="0" width="9" height="18" fill="#1c1c1c"/><rect x="0" y="18" width="9" height="18" fill="#1c1c1c"/><text x="63" y="32" fill="#ffffff">P</text><text x="72" y="32" fill="#ffffff">I</text><text x="81" y="32" fill="#ffffff">D</text><text x="153" y="32" fill="#ffffff">C</text><text x="162" y="32" fill="#ffffff">P</text><text x="171" y="32" fill="#ffffff">U</text><rect x="189" y="18" width="9" height="18" fill="#1c1c1c"/><rect x="0" y="36" width="9" height="18" fill="#1c1c1c"/><text x="63" y="50" fill="#ffffff">1</text><text x="72" y="50" fill="#ffffff">0</text><text x="81" y="50" fill="#ffffff">1</text><text x="135" y="50" fill="#ffffff">8</text><text x="144" y="50" fill="#ffffff">2</text><text x="153" y="50" fill="#ffffff">.</text><text x="162" y="50" fill="#ffffff">4</text><text x="171" y="50" fill="#ffffff">%</text><rect x="189" y="36" width="9" height="18" fill="#1c1c1c"/><rect x="0" y="54" width="9" height="18" fill="#1c1c1c"/><text x="63" y="68" fill="#ffffff">2</text><text x="72" y="68" fill="#ffffff">0</text><text x="81" y="68" fill="#ffffff">8</text><text x="135" y="68" fill="#ffffff">3</text><text x="144" y="68" fill="#ffffff">1</text><text x="153" y="68" fill="#ffffff">.</text><text x="162" y="68" fill="#ffffff">0</text><text x="171" y="68" fill="#ffffff">%</text><rect x="189" y="54" width="9" height="18" fill="#1c1c1c"/><rect x="0" y="72" width="9" height="18" fill="#1c1c1c"/><text x="63" y="86" fill="#ffffff">3</text><text x="72" y="86" fill="#ffffff">1</text><text x="81" y="86" fill="#ffffff">7</text><text x="135" y="86" fill="#ffffff">1</text><text x="144" y="86" fill="#ffffff">7</text><text x="153" y="86" fill="#ffffff">.</text><text x="162" y="86" fill="#ffffff">8</text><text x="171" y="86" fill="#ffffff">%</text><rect x="189" y="72" width="9" height="18" fill="#1c1c1c"/><rect x="0" y="90" width="9" height="18" fill="#1c1c1c"/><rect x="9" y="90" width="9" height="18" fill="#00ff41"/><text x="9" y="104" fill="#000000">▸</text><rect x="18" y="90" width="9" height="18" fill="#00ff41"/><rect x="27" y="90" width="9" height="18" fill="#00ff41"/><rect x="36" y="90" width="9" height="18" fill="#00ff41"/><rect x="45" y="90" width="9" height="18" fill="#00ff41"/><rect x="54" y="90" width="9" height="18" fill="#00ff41"/><rect x="63" y="90" width="9" height="18" fill="#00ff41"/><text x="63" y="104" fill="#000000">4</text><rect x="72" y="90" width="9" height="18" fill="#00ff41"/><text x="72" y="104" fill="#000000">2</text><rect x="81" y="90" width="9" height="18" fill="#00ff41"/><text x="81" y="104" fill="#000000">2</text><rect x="108" y="90" width="9" height="18" fill="#00ff41"/><rect x="117" y="90" width="9" height="18" fill="#00ff41"/><rect x="126" y="90" width="9" height="18" fill="#00ff41"/><rect x="135" y="90" width="9" height="18" fill="#00ff41"/><rect x="144" y="90" width="9" height="18" fill="#00ff41"/><text x="144" y="104" fill="#000000">9</text><rect x="153" y="90" width="9" height="18" fill="#00ff41"/><text x="153" y="104" fill="#000000">.</text><rect x="162" y="90" width="9" height="18" fill="#00ff41"/><text x="162" y="104" fill="#000000">2</text><rect x="171" y="90" width="9" height="18" fill="#00ff41"/><text x="171" y="104" fill="#000000">%</text><rect x="189" y="90" width="9" height="18" fill="#1c1c1c"/><rect x="0" y="108" width="9" height="18" fill="#1c1c1c"/><text x="63" y="122" fill="#ffffff">5</text><text x="72" y="122" fill="#ffffff">0</text><text x="81" y="122" fill="#ffffff">9</text><text x="144" y="122" fill="#ffffff">4</text><text x="153" y="122" fill="#ffffff">.</text><text x="162" y="122" fill="#ffffff">4</text><text x="171" y="122" fill="#ffffff">%</text><rect x="189" y="108" width="9" height="18" fill="#1c1c1c"/><rect x="0" y="126" width="9" height="18" fill="#1c1c1c"/><rect x="9" y="126" width="9" height="18" fill="#1c1c1c"/><rect x="18" y="126" width="9" height="18" fill="#1c1c1c"/><rect x="27" y="126" width="9" height="18" fill="#1c1c1c"/><rect x="36" y="126" width="9" height="18" fill="#1c1c1c"/><rect x="45" y="126" width="9" height="18" fill="#1c1c1c"/><rect x="54" y="126" width="9" height="18" fill="#1c1c1c"/><rect x="63" y="126" width="9" height="18" fill="#1c1c1c"/><rect x="72" y="126" width="9" height="18" fill="#1c1c1c"/><rect x="81" y="126" width="9" height="18" fill="#1c1c1c"/><rect x="90" y="126" width="9" height="18" fill="#1c1c1c"/><rect x="99" y="126" width="9" height="18" fill="#1c1c1c"/><rect x="108" y="126" width="9" height="18" fill="#1c1c1c"/><rect x="117" y="126" width="9" height="18" fill="#1c1c1c"/><rect x="126" y="126" width="9" height="18" fill="#1c1c1c"/><rect x="135" y="126" width="9" height="18" fill="#1c1c1c"/><rect x="144" y="126" width="9" height="18" fill="#1c1c1c"/><rect x="153" y="126" width="9" height="18" fill="#1c1c1c"/><rect x="162" y="126" width="9" height="18" fill="#1c1c1c"/><rect x="171" y="126" width="9" height="18" fill="#1c1c1c"/><rect x="180" y="126" width="9" height="18" fill="#1c1c1c"/><rect x="189" y="126" width="9" height="18" fill="#1c1c1c"/></g></svg>
