<svg xmlns="http://www.w3.org/2000/svg" width="396" height="90" viewBox="0 0 396 90" role="img" aria-label="Empty table" style="background:#000000"><rect width="100%" height="100%" fill="#000000"/><g font-family="ui-monospace, SFMono-Regular, Menlo, Consolas, monospace" font-size="14"><rect x="0" y="0" width="9" height="18" fill="#1c1c1c"/><rect x="9" y="0" width="9" height="18" fill="#1c1c1c"/><rect x="18" y="0" width="9" height="18" fill="#1c1c1c"/><rect x="27" y="0" width="9" height="18" fill="#1c1c1c"/><rect x="36" y="0" width="9" height="18" fill="#1c1c1c"/><rect x="45" y="0" width="9" height="18" fill="#1c1c1c"/><rect x="54" y="0" width="9" height="18" fill="#1c1c1c"/><rect x="63" y="0" width="9" height="18" fill="#1c1c1c"/><rect x="72" y="0" width="9" height="18" fill="#1c1c1c"/><rect x="81" y="0" width="9" height="18" fill="#1c1c1c"/><rect x="90" y="0" width="9" height="18" fill="#1c1c1c"/><rect x="99" y="0" width="9" height="18" fill="#1c1c1c"/><rect x="108" y="0" width="9" height="18" fill="#1c1c1c"/><rect x="117" y="0" width="9" height="18" fill="#1c1c1c"/><rect x="126" y="0" width="9" height="18" fill="#1c1c1c"/><rect x="135" y="0" width="9" height="18" fill="#1c1c1c"/><rect x="144" y="0" width="9" height="18" fill="#1c1c1c"/><rect x="153" y="0" width="9" height="18" fill="#1c1c1c"/><rect x="162" y="0" width="9" height="18" fill="#1c1c1c"/><rect x="171" y="0" width="9" height="18" fill="#1c1c1c"/><rect x="180" y="0" width="9" height="18" fill="#1c1c1c"/><rect x="189" y="0" width="9" height="18" fill="#1c1c1c"/><rect x="198" y="0" width="9" height="18" fill="#1c1c1c"/><rect x="207" y="0" width="9" height="18" fill="#1c1c1c"/><rect x="216" y="0" width="9" height="18" fill="#1c1c1c"/><rect x="225" y="0" width="9" height="18" fill="#1c1c1c"/><rect x="234" y="0" width="9" height="18" fill="#1c1c1c"/><rect x="243" y="0" width="9" height="18" fill="#1c1c1c"/><rect x="252" y="0" width="9" height="18" fill="#1c1c1c"/><rect x="261" y="0" width="9" height="18" fill="#1c1c1c"/><rect x="270" y="0" width="9" height="18" fill="#1c1c1c"/><rect x="279" y="0" width="9" height="18" fill="#1c1c1c"/><rect x="288" y="0" width="9" height="18" fill="#1c1c1c"/><rect x="297" y="0" width="9" height="18" fill="#1c1c1c"/><rect x="306" y="0" width="9" height="18" fill="#1c1c1c"/><rect x="315" y="0" width="9" height="18" fill="#1c1c1c"/><rect x="324" y="0" width="9" height="18" fill="#1c1c1c"/><rect x="333" y="0" width="9" height="18" fill="#1c1c1c"/><rect x="342" y="0" width="9" height="18" fill="#1c1c1c"/><rect x="351" y="0" width="9" height="18" fill="#1c1c1c"/><rect x="360" y="0" width="9" height="18" fill="#1c1c1c"/><rect x="369" y="0" width="9" height="18" fill="#1c1c1c"/><rect x="378" y="0" width="9" height="18" fill="#1c1c1c"/><rect x="387" y="0" width="9" height="18" fill="#1c1c1c"/><rect x="0" y="18" width="9" height="18" fill="#1c1c1c"/><text x="63" y="32" fill="#ffffff">P</text><text x="72" y="32" fill="#ffffff">I</text><text x="81" y="32" fill="#ffffff">D</text><text x="108" y="32" fill="#ffffff">P</text><text x="117" y="32" fill="#ffffff">r</text><text x="126" y="32" fill="#ffffff">o</text><text x="135" y="32" fill="#ffffff">c</text><text x="144" y="32" fill="#ffffff">e</text><text x="189" y="32" fill="#ffffff">R</text><text x="198" y="32" fill="#ffffff">e</text><text x="207" y="32" fill="#ffffff">g</text><text x="216" y="32" fill="#ffffff">i</text><text x="225" y="32" fill="#ffffff">o</text><text x="234" y="32" fill="#ffffff">n</text><text x="324" y="32" fill="#ffffff">C</text><text x="333" y="32" fill="#ffffff">P</text><text x="342" y="32" fill="#ffffff">U</text><text x="369" y="32" fill="#ffffff">S</text><text x="378" y="32" fill="#ffffff">t</text><rect x="387" y="18" width="9" height="18" fill="#1c1c1c"/><rect x="0" y="36" width="9" height="18" fill="#1c1c1c"/><rect x="387" y="36" width="9" height="18" fill="#1c1c1c"/><rect x="0" y="54" width="9" height="18" fill="#1c1c1c"/><rect x="387" y="54" width="9" height="18" fill="#1c1c1c"/><rect x="0" y="72" width="9" height="18" fill="#1c1c1c"/><rect x="9" y="72" width="9" height="18" fill="#1c1c1c"/><rect x="18" y="72" width="9" height="18" fill="#1c1c1c"/><rect x="27" y="72" width="9" height="18" fill="#1c1c1c"/><rect x="36" y="72" width="9" height="18" fill="#1c1c1c"/><rect x="45" y="72" width="9" height="18" fill="#1c1c1c"/><rect x="54" y="72" width="9" height="18" fill="#1c1c1c"/><rect x="63" y="72" width="9" height="18" fill="#1c1c1c"/><rect x="72" y="72" width="9" height="18" fill="#1c1c1c"/><rect x="81" y="72" width="9" height="18" fill="#1c1c1c"/><rect x="90" y="72" width="9" height="18" fill="#1c1c1c"/><rect x="99" y="72" width="9" height="18" fill="#1c1c1c"/><rect x="108" y="72" width="9" height="18" fill="#1c1c1c"/><rect x="117" y="72" width="9" height="18" fill="#1c1c1c"/><rect x="126" y="72" width="9" height="18" fill="#1c1c1c"/><rect x="135" y="72" width="9" height="18" fill="#1c1c1c"/><rect x="144" y="72" width="9" height="18" fill="#1c1c1c"/><rect x="153" y="72" width="9" height="18" fill="#1c1c1c"/><rect x="162" y="72" width="9" height="18" fill="#1c1c1c"/><rect x="171" y="72" width="9" height="18" fill="#1c1c1c"/><rect x="180" y="72" width="9" height="18" fill="#1c1c1c"/><rect x="189" y="72" width="9" height="18" fill="#1c1c1c"/><rect x="198" y="72" width="9" height="18" fill="#1c1c1c"/><rect x="207" y="72" width="9" height="18" fill="#1c1c1c"/><rect x="216" y="72" width="9" height="18" fill="#1c1c1c"/><rect x="225" y="72" width="9" height="18" fill="#1c1c1c"/><rect x="234" y="72" width="9" height="18" fill="#1c1c1c"/><rect x="243" y="72" width="9" height="18" fill="#1c1c1c"/><rect x="252" y="72" width="9" height="18" fill="#1c1c1c"/><rect x="261" y="72" width="9" height="18" fill="#1c1c1c"/><rect x="270" y="72" width="9" height="18" fill="#1c1c1c"/><rect x="279" y="72" width="9" height="18" fill="#1c1c1c"/><rect x="288" y="72" width="9" height="18" fill="#1c1c1c"/><rect x="297" y="72" width="9" height="18" fill="#1c1c1c"/><rect x="306" y="72" width="9" height="18" fill="#1c1c1c"/><rect x="315" y="72" width="9" height="18" fill="#1c1c1c"/><rect x="324" y="72" width="9" height="18" fill="#1c1c1c"/><rect x="333" y="72" width="9" height="18" fill="#1c1c1c"/><rect x="342" y="72" width="9" height="18" fill="#1c1c1c"/><rect x="351" y="72" width="9" height="18" fill="#1c1c1c"/><rect x="360" y="72" width="9" height="18" fill="#1c1c1c"/><rect x="369" y="72" width="9" height="18" fill="#1c1c1c"/><rect x="378" y="72" width="9" height="18" fill="#1c1c1c"/><rect x="387" y="72" width="9" height="18" fill="#1c1c1c"/></g></svg>
