<svg xmlns="http://www.w3.org/2000/svg" width="486" height="144" viewBox="0 0 486 144" role="img" aria-label="Disabled table row" style="background:#000000"><rect width="100%" height="100%" fill="#000000"/><g font-family="ui-monospace, SFMono-Regular, Menlo, Consolas, monospace" font-size="14"><rect x="0" y="0" width="9" height="18" fill="#1c1c1c"/><rect x="9" y="0" width="9" height="18" fill="#1c1c1c"/><rect x="18" y="0" width="9" height="18" fill="#1c1c1c"/><rect x="27" y="0" width="9" height="18" fill="#1c1c1c"/><rect x="36" y="0" width="9" height="18" fill="#1c1c1c"/><rect x="45" y="0" width="9" height="18" fill="#1c1c1c"/><rect x="54" y="0" width="9" height="18" fill="#1c1c1c"/><rect x="63" y="0" width="9" height="18" fill="#1c1c1c"/><rect x="72" y="0" width="9" height="18" fill="#1c1c1c"/><rect x="81" y="0" width="9" height="18" fill="#1c1c1c"/><rect x="90" y="0" width="9" height="18" fill="#1c1c1c"/><rect x="99" y="0" width="9" height="18" fill="#1c1c1c"/><rect x="108" y="0" width="9" height="18" fill="#1c1c1c"/><rect x="117" y="0" width="9" height="18" fill="#1c1c1c"/><rect x="126" y="0" width="9" height="18" fill="#1c1c1c"/><rect x="135" y="0" width="9" height="18" fill="#1c1c1c"/><rect x="144" y="0" width="9" height="18" fill="#1c1c1c"/><rect x="153" y="0" width="9" height="18" fill="#1c1c1c"/><rect x="162" y="0" width="9" height="18" fill="#1c1c1c"/><rect x="171" y="0" width="9" height="18" fill="#1c1c1c"/><rect x="180" y="0" width="9" height="18" fill="#1c1c1c"/><rect x="189" y="0" width="9" height="18" fill="#1c1c1c"/><rect x="198" y="0" width="9" height="18" fill="#1c1c1c"/><rect x="207" y="0" width="9" height="18" fill="#1c1c1c"/><rect x="216" y="0" width="9" height="18" fill="#1c1c1c"/><rect x="225" y="0" width="9" height="18" fill="#1c1c1c"/><rect x="234" y="0" width="9" height="18" fill="#1c1c1c"/><rect x="243" y="0" width="9" height="18" fill="#1c1c1c"/><rect x="252" y="0" width="9" height="18" fill="#1c1c1c"/><rect x="261" y="0" width="9" height="18" fill="#1c1c1c"/><rect x="270" y="0" width="9" height="18" fill="#1c1c1c"/><rect x="279" y="0" width="9" height="18" fill="#1c1c1c"/><rect x="288" y="0" width="9" height="18" fill="#1c1c1c"/><rect x="297" y="0" width="9" height="18" fill="#1c1c1c"/><rect x="306" y="0" width="9" height="18" fill="#1c1c1c"/><rect x="315" y="0" width="9" height="18" fill="#1c1c1c"/><rect x="324" y="0" width="9" height="18" fill="#1c1c1c"/><rect x="333" y="0" width="9" height="18" fill="#1c1c1c"/><rect x="342" y="0" width="9" height="18" fill="#1c1c1c"/><rect x="351" y="0" width="9" height="18" fill="#1c1c1c"/><rect x="360" y="0" width="9" height="18" fill="#1c1c1c"/><rect x="369" y="0" width="9" height="18" fill="#1c1c1c"/><rect x="378" y="0" width="9" height="18" fill="#1c1c1c"/><rect x="387" y="0" width="9" height="18" fill="#1c1c1c"/><rect x="396" y="0" width="9" height="18" fill="#1c1c1c"/><rect x="405" y="0" width="9" height="18" fill="#1c1c1c"/><rect x="414" y="0" width="9" height="18" fill="#1c1c1c"/><rect x="423" y="0" width="9" height="18" fill="#1c1c1c"/><rect x="432" y="0" width="9" height="18" fill="#1c1c1c"/><rect x="441" y="0" width="9" height="18" fill="#1c1c1c"/><rect x="450" y="0" width="9" height="18" fill="#1c1c1c"/><rect x="459" y="0" width="9" height="18" fill="#1c1c1c"/><rect x="468" y="0" width="9" height="18" fill="#1c1c1c"/><rect x="477" y="0" width="9" height="18" fill="#1c1c1c"/><rect x="0" y="18" width="9" height="18" fill="#1c1c1c"/><text x="63" y="32" fill="#ffffff">P</text><text x="72" y="32" fill="#ffffff">I</text><text x="81" y="32" fill="#ffffff">D</text><text x="108" y="32" fill="#ffffff">P</text><text x="117" y="32" fill="#ffffff">r</text><text x="126" y="32" fill="#ffffff">o</text><text x="135" y="32" fill="#ffffff">c</text><text x="144" y="32" fill="#ffffff">e</text><text x="153" y="32" fill="#ffffff">s</text><text x="162" y="32" fill="#ffffff">s</text><text x="252" y="32" fill="#ffffff">R</text><text x="261" y="32" fill="#ffffff">e</text><text x="270" y="32" fill="#ffffff">g</text><text x="279" y="32" fill="#ffffff">i</text><text x="288" y="32" fill="#ffffff">o</text><text x="297" y="32" fill="#ffffff">n</text><text x="387" y="32" fill="#ffffff">C</text><text x="396" y="32" fill="#ffffff">P</text><text x="405" y="32" fill="#ffffff">U</text><text x="432" y="32" fill="#ffffff">S</text><text x="441" y="32" fill="#ffffff">t</text><text x="450" y="32" fill="#ffffff">a</text><text x="459" y="32" fill="#ffffff">t</text><text x="468" y="32" fill="#ffffff">e</text><rect x="477" y="18" width="9" height="18" fill="#1c1c1c"/><rect x="0" y="36" width="9" height="18" fill="#1c1c1c"/><text x="63" y="50" fill="#ffffff">1</text><text x="72" y="50" fill="#ffffff">0</text><text x="81" y="50" fill="#ffffff">1</text><text x="108" y="50" fill="#00ff41">t</text><text x="117" y="50" fill="#00ff41">e</text><text x="126" y="50" fill="#00ff41">r</text><text x="135" y="50" fill="#00ff41">m</text><text x="144" y="50" fill="#00ff41">r</text><text x="153" y="50" fill="#00ff41">o</text><text x="162" y="50" fill="#00ff41">c</text><text x="171" y="50" fill="#00ff41">k</text><text x="234" y="50" fill="#ffffff">東</text><text x="252" y="50" fill="#ffffff">京</text><text x="270" y="50" fill="#ffffff">🧪</text><text x="288" y="50" fill="#ffffff">a</text><text x="297" y="50" fill="#ffffff">l</text><text x="306" y="50" fill="#ffffff">p</text><text x="315" y="50" fill="#ffffff">h</text><text x="369" y="50" fill="#ffffff">8</text><text x="378" y="50" fill="#ffffff">2</text><text x="387" y="50" fill="#ffffff">.</text><text x="396" y="50" fill="#ffffff">4</text><text x="405" y="50" fill="#ffffff">%</text><text x="441" y="50" fill="#ffffff">r</text><text x="450" y="50" fill="#ffffff">u</text><text x="459" y="50" fill="#ffffff">n</text><rect x="477" y="36" width="9" height="18" fill="#1c1c1c"/><rect x="0" y="54" width="9" height="18" fill="#1c1c1c"/><rect x="9" y="54" width="9" height="18" fill="#00ff41"/><text x="9" y="68" fill="#000000">▸</text><rect x="18" y="54" width="9" height="18" fill="#00ff41"/><rect x="27" y="54" width="9" height="18" fill="#00ff41"/><rect x="36" y="54" width="9" height="18" fill="#00ff41"/><rect x="45" y="54" width="9" height="18" fill="#00ff41"/><rect x="54" y="54" width="9" height="18" fill="#00ff41"/><rect x="63" y="54" width="9" height="18" fill="#00ff41"/><text x="63" y="68" fill="#000000">2</text><rect x="72" y="54" width="9" height="18" fill="#00ff41"/><text x="72" y="68" fill="#000000">0</text><rect x="81" y="54" width="9" height="18" fill="#00ff41"/><text x="81" y="68" fill="#000000">8</text><rect x="108" y="54" width="9" height="18" fill="#00ff41"/><text x="108" y="68" fill="#000000">c</text><rect x="117" y="54" width="9" height="18" fill="#00ff41"/><text x="117" y="68" fill="#000000">a</text><rect x="126" y="54" width="9" height="18" fill="#00ff41"/><text x="126" y="68" fill="#000000">r</text><rect x="135" y="54" width="9" height="18" fill="#00ff41"/><text x="135" y="68" fill="#000000">g</text><rect x="144" y="54" width="9" height="18" fill="#00ff41"/><text x="144" y="68" fill="#000000">o</text><rect x="153" y="54" width="9" height="18" fill="#00ff41"/><text x="153" y="68" fill="#000000">-</text><rect x="162" y="54" width="9" height="18" fill="#00ff41"/><text x="162" y="68" fill="#000000">n</text><rect x="171" y="54" width="9" height="18" fill="#00ff41"/><text x="171" y="68" fill="#000000">e</text><rect x="180" y="54" width="9" height="18" fill="#00ff41"/><text x="180" y="68" fill="#000000">x</text><rect x="189" y="54" width="9" height="18" fill="#00ff41"/><text x="189" y="68" fill="#000000">t</text><rect x="198" y="54" width="9" height="18" fill="#00ff41"/><text x="198" y="68" fill="#000000">e</text><rect x="207" y="54" width="9" height="18" fill="#00ff41"/><text x="207" y="68" fill="#000000">s</text><rect x="234" y="54" width="9" height="18" fill="#00ff41"/><rect x="243" y="54" width="9" height="18" fill="#00ff41"/><text x="243" y="68" fill="#000000">e</text><rect x="252" y="54" width="9" height="18" fill="#00ff41"/><text x="252" y="68" fill="#000000">u</text><rect x="261" y="54" width="9" height="18" fill="#00ff41"/><text x="261" y="68" fill="#000000">-</text><rect x="270" y="54" width="9" height="18" fill="#00ff41"/><text x="270" y="68" fill="#000000">w</text><rect x="279" y="54" width="9" height="18" fill="#00ff41"/><text x="279" y="68" fill="#000000">e</text><rect x="288" y="54" width="9" height="18" fill="#00ff41"/><text x="288" y="68" fill="#000000">s</text><rect x="297" y="54" width="9" height="18" fill="#00ff41"/><text x="297" y="68" fill="#000000">t</text><rect x="306" y="54" width="9" height="18" fill="#00ff41"/><rect x="315" y="54" width="9" height="18" fill="#00ff41"/><rect x="342" y="54" width="9" height="18" fill="#00ff41"/><rect x="351" y="54" width="9" height="18" fill="#00ff41"/><rect x="360" y="54" width="9" height="18" fill="#00ff41"/><rect x="369" y="54" width="9" height="18" fill="#00ff41"/><text x="369" y="68" fill="#000000">3</text><rect x="378" y="54" width="9" height="18" fill="#00ff41"/><text x="378" y="68" fill="#000000">1</text><rect x="387" y="54" width="9" height="18" fill="#00ff41"/><text x="387" y="68" fill="#000000">.</text><rect x="396" y="54" width="9" height="18" fill="#00ff41"/><text x="396" y="68" fill="#000000">0</text><rect x="405" y="54" width="9" height="18" fill="#00ff41"/><text x="405" y="68" fill="#000000">%</text><rect x="432" y="54" width="9" height="18" fill="#00ff41"/><rect x="441" y="54" width="9" height="18" fill="#00ff41"/><text x="441" y="68" fill="#000000">r</text><rect x="450" y="54" width="9" height="18" fill="#00ff41"/><text x="450" y="68" fill="#000000">u</text><rect x="459" y="54" width="9" height="18" fill="#00ff41"/><text x="459" y="68" fill="#000000">n</text><rect x="468" y="54" width="9" height="18" fill="#00ff41"/><rect x="477" y="54" width="9" height="18" fill="#1c1c1c"/><rect x="0" y="72" width="9" height="18" fill="#1c1c1c"/><text x="63" y="86" fill="#505050">3</text><text x="72" y="86" fill="#505050">1</text><text x="81" y="86" fill="#505050">7</text><text x="108" y="86" fill="#505050">r</text><text x="117" y="86" fill="#505050">u</text><text x="126" y="86" fill="#505050">s</text><text x="135" y="86" fill="#505050">t</text><text x="144" y="86" fill="#505050">-</text><text x="153" y="86" fill="#505050">a</text><text x="162" y="86" fill="#505050">n</text><text x="171" y="86" fill="#505050">a</text><text x="180" y="86" fill="#505050">l</text><text x="189" y="86" fill="#505050">y</text><text x="198" y="86" fill="#505050">z</text><text x="207" y="86" fill="#505050">e</text><text x="252" y="86" fill="#505050">l</text><text x="261" y="86" fill="#505050">o</text><text x="270" y="86" fill="#505050">c</text><text x="279" y="86" fill="#505050">a</text><text x="288" y="86" fill="#505050">l</text><text x="369" y="86" fill="#505050">1</text><text x="378" y="86" fill="#505050">7</text><text x="387" y="86" fill="#505050">.</text><text x="396" y="86" fill="#505050">8</text><text x="405" y="86" fill="#505050">%</text><text x="432" y="86" fill="#505050">i</text><text x="441" y="86" fill="#505050">d</text><text x="450" y="86" fill="#505050">l</text><text x="459" y="86" fill="#505050">e</text><rect x="477" y="72" width="9" height="18" fill="#1c1c1c"/><rect x="0" y="90" width="9" height="18" fill="#1c1c1c"/><text x="63" y="104" fill="#ffffff">4</text><text x="72" y="104" fill="#ffffff">2</text><text x="81" y="104" fill="#ffffff">2</text><text x="108" y="104" fill="#ffffff">b</text><text x="117" y="104" fill="#ffffff">u</text><text x="126" y="104" fill="#ffffff">n</text><text x="135" y="104" fill="#ffffff">-</text><text x="144" y="104" fill="#ffffff">d</text><text x="153" y="104" fill="#ffffff">o</text><text x="162" y="104" fill="#ffffff">c</text><text x="171" y="104" fill="#ffffff">s</text><text x="243" y="104" fill="#ffffff">u</text><text x="252" y="104" fill="#ffffff">s</text><text x="261" y="104" fill="#ffffff">-</text><text x="270" y="104" fill="#ffffff">e</text><text x="279" y="104" fill="#ffffff">a</text><text x="288" y="104" fill="#ffffff">s</text><text x="297" y="104" fill="#ffffff">t</text><text x="378" y="104" fill="#ffffff">9</text><text x="387" y="104" fill="#ffffff">.</text><text x="396" y="104" fill="#ffffff">2</text><text x="405" y="104" fill="#ffffff">%</text><text x="432" y="104" fill="#ffffff">w</text><text x="441" y="104" fill="#ffffff">a</text><text x="450" y="104" fill="#ffffff">i</text><text x="459" y="104" fill="#ffffff">t</text><rect x="477" y="90" width="9" height="18" fill="#1c1c1c"/><rect x="0" y="108" width="9" height="18" fill="#1c1c1c"/><text x="63" y="122" fill="#ffffff">5</text><text x="72" y="122" fill="#ffffff">0</text><text x="81" y="122" fill="#ffffff">9</text><text x="108" y="122" fill="#ffffff">s</text><text x="117" y="122" fill="#ffffff">h</text><text x="126" y="122" fill="#ffffff">e</text><text x="135" y="122" fill="#ffffff">l</text><text x="144" y="122" fill="#ffffff">l</text><text x="261" y="122" fill="#ffffff">東</text><text x="279" y="122" fill="#ffffff">京</text><text x="378" y="122" fill="#ffffff">4</text><text x="387" y="122" fill="#ffffff">.</text><text x="396" y="122" fill="#ffffff">4</text><text x="405" y="122" fill="#ffffff">%</text><text x="432" y="122" fill="#ffffff">d</text><text x="441" y="122" fill="#ffffff">o</text><text x="450" y="122" fill="#ffffff">n</text><text x="459" y="122" fill="#ffffff">e</text><rect x="477" y="108" width="9" height="18" fill="#1c1c1c"/><rect x="0" y="126" width="9" height="18" fill="#1c1c1c"/><rect x="9" y="126" width="9" height="18" fill="#1c1c1c"/><rect x="18" y="126" width="9" height="18" fill="#1c1c1c"/><rect x="27" y="126" width="9" height="18" fill="#1c1c1c"/><rect x="36" y="126" width="9" height="18" fill="#1c1c1c"/><rect x="45" y="126" width="9" height="18" fill="#1c1c1c"/><rect x="54" y="126" width="9" height="18" fill="#1c1c1c"/><rect x="63" y="126" width="9" height="18" fill="#1c1c1c"/><rect x="72" y="126" width="9" height="18" fill="#1c1c1c"/><rect x="81" y="126" width="9" height="18" fill="#1c1c1c"/><rect x="90" y="126" width="9" height="18" fill="#1c1c1c"/><rect x="99" y="126" width="9" height="18" fill="#1c1c1c"/><rect x="108" y="126" width="9" height="18" fill="#1c1c1c"/><rect x="117" y="126" width="9" height="18" fill="#1c1c1c"/><rect x="126" y="126" width="9" height="18" fill="#1c1c1c"/><rect x="135" y="126" width="9" height="18" fill="#1c1c1c"/><rect x="144" y="126" width="9" height="18" fill="#1c1c1c"/><rect x="153" y="126" width="9" height="18" fill="#1c1c1c"/><rect x="162" y="126" width="9" height="18" fill="#1c1c1c"/><rect x="171" y="126" width="9" height="18" fill="#1c1c1c"/><rect x="180" y="126" width="9" height="18" fill="#1c1c1c"/><rect x="189" y="126" width="9" height="18" fill="#1c1c1c"/><rect x="198" y="126" width="9" height="18" fill="#1c1c1c"/><rect x="207" y="126" width="9" height="18" fill="#1c1c1c"/><rect x="216" y="126" width="9" height="18" fill="#1c1c1c"/><rect x="225" y="126" width="9" height="18" fill="#1c1c1c"/><rect x="234" y="126" width="9" height="18" fill="#1c1c1c"/><rect x="243" y="126" width="9" height="18" fill="#1c1c1c"/><rect x="252" y="126" width="9" height="18" fill="#1c1c1c"/><rect x="261" y="126" width="9" height="18" fill="#1c1c1c"/><rect x="270" y="126" width="9" height="18" fill="#1c1c1c"/><rect x="279" y="126" width="9" height="18" fill="#1c1c1c"/><rect x="288" y="126" width="9" height="18" fill="#1c1c1c"/><rect x="297" y="126" width="9" height="18" fill="#1c1c1c"/><rect x="306" y="126" width="9" height="18" fill="#1c1c1c"/><rect x="315" y="126" width="9" height="18" fill="#1c1c1c"/><rect x="324" y="126" width="9" height="18" fill="#1c1c1c"/><rect x="333" y="126" width="9" height="18" fill="#1c1c1c"/><rect x="342" y="126" width="9" height="18" fill="#1c1c1c"/><rect x="351" y="126" width="9" height="18" fill="#1c1c1c"/><rect x="360" y="126" width="9" height="18" fill="#1c1c1c"/><rect x="369" y="126" width="9" height="18" fill="#1c1c1c"/><rect x="378" y="126" width="9" height="18" fill="#1c1c1c"/><rect x="387" y="126" width="9" height="18" fill="#1c1c1c"/><rect x="396" y="126" width="9" height="18" fill="#1c1c1c"/><rect x="405" y="126" width="9" height="18" fill="#1c1c1c"/><rect x="414" y="126" width="9" height="18" fill="#1c1c1c"/><rect x="423" y="126" width="9" height="18" fill="#1c1c1c"/><rect x="432" y="126" width="9" height="18" fill="#1c1c1c"/><rect x="441" y="126" width="9" height="18" fill="#1c1c1c"/><rect x="450" y="126" width="9" height="18" fill="#1c1c1c"/><rect x="459" y="126" width="9" height="18" fill="#1c1c1c"/><rect x="468" y="126" width="9" height="18" fill="#1c1c1c"/><rect x="477" y="126" width="9" height="18" fill="#1c1c1c"/></g></svg>
