<svg xmlns="http://www.w3.org/2000/svg" width="630" height="180" viewBox="0 0 630 180" role="img" aria-label="Data table" style="background:#000000"><rect width="100%" height="100%" fill="#000000"/><g font-family="ui-monospace, SFMono-Regular, Menlo, Consolas, monospace" font-size="14"><rect x="0" y="0" width="9" height="18" fill="#1c1c1c"/><rect x="9" y="0" width="9" height="18" fill="#1c1c1c"/><rect x="18" y="0" width="9" height="18" fill="#1c1c1c"/><rect x="27" y="0" width="9" height="18" fill="#1c1c1c"/><rect x="36" y="0" width="9" height="18" fill="#1c1c1c"/><rect x="45" y="0" width="9" height="18" fill="#1c1c1c"/><rect x="54" y="0" width="9" height="18" fill="#1c1c1c"/><rect x="63" y="0" width="9" height="18" fill="#1c1c1c"/><rect x="72" y="0" width="9" height="18" fill="#1c1c1c"/><rect x="81" y="0" width="9" height="18" fill="#1c1c1c"/><rect x="90" y="0" width="9" height="18" fill="#1c1c1c"/><rect x="99" y="0" width="9" height="18" fill="#1c1c1c"/><rect x="108" y="0" width="9" height="18" fill="#1c1c1c"/><rect x="117" y="0" width="9" height="18" fill="#1c1c1c"/><rect x="126" y="0" width="9" height="18" fill="#1c1c1c"/><rect x="135" y="0" width="9" height="18" fill="#1c1c1c"/><rect x="144" y="0" width="9" height="18" fill="#1c1c1c"/><rect x="153" y="0" width="9" height="18" fill="#1c1c1c"/><rect x="162" y="0" width="9" height="18" fill="#1c1c1c"/><rect x="171" y="0" width="9" height="18" fill="#1c1c1c"/><rect x="180" y="0" width="9" height="18" fill="#1c1c1c"/><rect x="189" y="0" width="9" height="18" fill="#1c1c1c"/><rect x="198" y="0" width="9" height="18" fill="#1c1c1c"/><rect x="207" y="0" width="9" height="18" fill="#1c1c1c"/><rect x="216" y="0" width="9" height="18" fill="#1c1c1c"/><rect x="225" y="0" width="9" height="18" fill="#1c1c1c"/><rect x="234" y="0" width="9" height="18" fill="#1c1c1c"/><rect x="243" y="0" width="9" height="18" fill="#1c1c1c"/><rect x="252" y="0" width="9" height="18" fill="#1c1c1c"/><rect x="261" y="0" width="9" height="18" fill="#1c1c1c"/><rect x="270" y="0" width="9" height="18" fill="#1c1c1c"/><rect x="279" y="0" width="9" height="18" fill="#1c1c1c"/><rect x="288" y="0" width="9" height="18" fill="#1c1c1c"/><rect x="297" y="0" width="9" height="18" fill="#1c1c1c"/><rect x="306" y="0" width="9" height="18" fill="#1c1c1c"/><rect x="315" y="0" width="9" height="18" fill="#1c1c1c"/><rect x="324" y="0" width="9" height="18" fill="#1c1c1c"/><rect x="333" y="0" width="9" height="18" fill="#1c1c1c"/><rect x="342" y="0" width="9" height="18" fill="#1c1c1c"/><rect x="351" y="0" width="9" height="18" fill="#1c1c1c"/><rect x="360" y="0" width="9" height="18" fill="#1c1c1c"/><rect x="369" y="0" width="9" height="18" fill="#1c1c1c"/><rect x="378" y="0" width="9" height="18" fill="#1c1c1c"/><rect x="387" y="0" width="9" height="18" fill="#1c1c1c"/><rect x="396" y="0" width="9" height="18" fill="#1c1c1c"/><rect x="405" y="0" width="9" height="18" fill="#1c1c1c"/><rect x="414" y="0" width="9" height="18" fill="#1c1c1c"/><rect x="423" y="0" width="9" height="18" fill="#1c1c1c"/><rect x="432" y="0" width="9" height="18" fill="#1c1c1c"/><rect x="441" y="0" width="9" height="18" fill="#1c1c1c"/><rect x="450" y="0" width="9" height="18" fill="#1c1c1c"/><rect x="459" y="0" width="9" height="18" fill="#1c1c1c"/><rect x="468" y="0" width="9" height="18" fill="#1c1c1c"/><rect x="477" y="0" width="9" height="18" fill="#1c1c1c"/><rect x="486" y="0" width="9" height="18" fill="#1c1c1c"/><rect x="495" y="0" width="9" height="18" fill="#1c1c1c"/><rect x="504" y="0" width="9" height="18" fill="#1c1c1c"/><rect x="513" y="0" width="9" height="18" fill="#1c1c1c"/><rect x="522" y="0" width="9" height="18" fill="#1c1c1c"/><rect x="531" y="0" width="9" height="18" fill="#1c1c1c"/><rect x="540" y="0" width="9" height="18" fill="#1c1c1c"/><rect x="549" y="0" width="9" height="18" fill="#1c1c1c"/><rect x="558" y="0" width="9" height="18" fill="#1c1c1c"/><rect x="567" y="0" width="9" height="18" fill="#1c1c1c"/><rect x="576" y="0" width="9" height="18" fill="#1c1c1c"/><rect x="585" y="0" width="9" height="18" fill="#1c1c1c"/><rect x="594" y="0" width="9" height="18" fill="#1c1c1c"/><rect x="603" y="0" width="9" height="18" fill="#1c1c1c"/><rect x="612" y="0" width="9" height="18" fill="#1c1c1c"/><rect x="621" y="0" width="9" height="18" fill="#1c1c1c"/><rect x="0" y="18" width="9" height="18" fill="#1c1c1c"/><text x="63" y="32" fill="#ffffff">P</text><text x="72" y="32" fill="#ffffff">I</text><text x="81" y="32" fill="#ffffff">D</text><text x="108" y="32" fill="#ffffff">P</text><text x="117" y="32" fill="#ffffff">r</text><text x="126" y="32" fill="#ffffff">o</text><text x="135" y="32" fill="#ffffff">c</text><text x="144" y="32" fill="#ffffff">e</text><text x="153" y="32" fill="#ffffff">s</text><text x="162" y="32" fill="#ffffff">s</text><text x="342" y="32" fill="#ffffff">R</text><text x="351" y="32" fill="#ffffff">e</text><text x="360" y="32" fill="#ffffff">g</text><text x="369" y="32" fill="#ffffff">i</text><text x="378" y="32" fill="#ffffff">o</text><text x="387" y="32" fill="#ffffff">n</text><text x="477" y="32" fill="#ffffff">C</text><text x="486" y="32" fill="#ffffff">P</text><text x="495" y="32" fill="#ffffff">U</text><text x="549" y="32" fill="#ffffff">S</text><text x="558" y="32" fill="#ffffff">t</text><text x="567" y="32" fill="#ffffff">a</text><text x="576" y="32" fill="#ffffff">t</text><text x="585" y="32" fill="#ffffff">e</text><rect x="621" y="18" width="9" height="18" fill="#1c1c1c"/><rect x="0" y="36" width="9" height="18" fill="#1c1c1c"/><text x="63" y="50" fill="#ffffff">1</text><text x="72" y="50" fill="#ffffff">0</text><text x="81" y="50" fill="#ffffff">1</text><text x="108" y="50" fill="#00ff41">t</text><text x="117" y="50" fill="#00ff41">e</text><text x="126" y="50" fill="#00ff41">r</text><text x="135" y="50" fill="#00ff41">m</text><text x="144" y="50" fill="#00ff41">r</text><text x="153" y="50" fill="#00ff41">o</text><text x="162" y="50" fill="#00ff41">c</text><text x="171" y="50" fill="#00ff41">k</text><text x="324" y="50" fill="#ffffff">東</text><text x="342" y="50" fill="#ffffff">京</text><text x="360" y="50" fill="#ffffff">🧪</text><text x="378" y="50" fill="#ffffff">a</text><text x="387" y="50" fill="#ffffff">l</text><text x="396" y="50" fill="#ffffff">p</text><text x="405" y="50" fill="#ffffff">h</text><text x="459" y="50" fill="#ffffff">8</text><text x="468" y="50" fill="#ffffff">2</text><text x="477" y="50" fill="#ffffff">.</text><text x="486" y="50" fill="#ffffff">4</text><text x="495" y="50" fill="#ffffff">%</text><text x="558" y="50" fill="#ffffff">r</text><text x="567" y="50" fill="#ffffff">u</text><text x="576" y="50" fill="#ffffff">n</text><rect x="621" y="36" width="9" height="18" fill="#1c1c1c"/><rect x="0" y="54" width="9" height="18" fill="#1c1c1c"/><text x="63" y="68" fill="#ffffff">2</text><text x="72" y="68" fill="#ffffff">0</text><text x="81" y="68" fill="#ffffff">8</text><text x="108" y="68" fill="#ffffff">c</text><text x="117" y="68" fill="#ffffff">a</text><text x="126" y="68" fill="#ffffff">r</text><text x="135" y="68" fill="#ffffff">g</text><text x="144" y="68" fill="#ffffff">o</text><text x="153" y="68" fill="#ffffff">-</text><text x="162" y="68" fill="#ffffff">n</text><text x="171" y="68" fill="#ffffff">e</text><text x="180" y="68" fill="#ffffff">x</text><text x="189" y="68" fill="#ffffff">t</text><text x="198" y="68" fill="#ffffff">e</text><text x="207" y="68" fill="#ffffff">s</text><text x="216" y="68" fill="#ffffff">t</text><text x="333" y="68" fill="#ffffff">e</text><text x="342" y="68" fill="#ffffff">u</text><text x="351" y="68" fill="#ffffff">-</text><text x="360" y="68" fill="#ffffff">w</text><text x="369" y="68" fill="#ffffff">e</text><text x="378" y="68" fill="#ffffff">s</text><text x="387" y="68" fill="#ffffff">t</text><text x="459" y="68" fill="#ffffff">3</text><text x="468" y="68" fill="#ffffff">1</text><text x="477" y="68" fill="#ffffff">.</text><text x="486" y="68" fill="#ffffff">0</text><text x="495" y="68" fill="#ffffff">%</text><text x="558" y="68" fill="#ffffff">r</text><text x="567" y="68" fill="#ffffff">u</text><text x="576" y="68" fill="#ffffff">n</text><rect x="621" y="54" width="9" height="18" fill="#1c1c1c"/><rect x="0" y="72" width="9" height="18" fill="#1c1c1c"/><text x="63" y="86" fill="#ffffff">3</text><text x="72" y="86" fill="#ffffff">1</text><text x="81" y="86" fill="#ffffff">7</text><text x="108" y="86" fill="#ffffff">r</text><text x="117" y="86" fill="#ffffff">u</text><text x="126" y="86" fill="#ffffff">s</text><text x="135" y="86" fill="#ffffff">t</text><text x="144" y="86" fill="#ffffff">-</text><text x="153" y="86" fill="#ffffff">a</text><text x="162" y="86" fill="#ffffff">n</text><text x="171" y="86" fill="#ffffff">a</text><text x="180" y="86" fill="#ffffff">l</text><text x="189" y="86" fill="#ffffff">y</text><text x="198" y="86" fill="#ffffff">z</text><text x="207" y="86" fill="#ffffff">e</text><text x="216" y="86" fill="#ffffff">r</text><text x="342" y="86" fill="#ffffff">l</text><text x="351" y="86" fill="#ffffff">o</text><text x="360" y="86" fill="#ffffff">c</text><text x="369" y="86" fill="#ffffff">a</text><text x="378" y="86" fill="#ffffff">l</text><text x="459" y="86" fill="#ffffff">1</text><text x="468" y="86" fill="#ffffff">7</text><text x="477" y="86" fill="#ffffff">.</text><text x="486" y="86" fill="#ffffff">8</text><text x="495" y="86" fill="#ffffff">%</text><text x="549" y="86" fill="#ffffff">i</text><text x="558" y="86" fill="#ffffff">d</text><text x="567" y="86" fill="#ffffff">l</text><text x="576" y="86" fill="#ffffff">e</text><rect x="621" y="72" width="9" height="18" fill="#1c1c1c"/><rect x="0" y="90" width="9" height="18" fill="#1c1c1c"/><rect x="9" y="90" width="9" height="18" fill="#00ff41"/><text x="9" y="104" fill="#000000">▸</text><rect x="18" y="90" width="9" height="18" fill="#00ff41"/><rect x="27" y="90" width="9" height="18" fill="#00ff41"/><rect x="36" y="90" width="9" height="18" fill="#00ff41"/><rect x="45" y="90" width="9" height="18" fill="#00ff41"/><rect x="54" y="90" width="9" height="18" fill="#00ff41"/><rect x="63" y="90" width="9" height="18" fill="#00ff41"/><text x="63" y="104" fill="#000000">4</text><rect x="72" y="90" width="9" height="18" fill="#00ff41"/><text x="72" y="104" fill="#000000">2</text><rect x="81" y="90" width="9" height="18" fill="#00ff41"/><text x="81" y="104" fill="#000000">2</text><rect x="108" y="90" width="9" height="18" fill="#00ff41"/><text x="108" y="104" fill="#000000">b</text><rect x="117" y="90" width="9" height="18" fill="#00ff41"/><text x="117" y="104" fill="#000000">u</text><rect x="126" y="90" width="9" height="18" fill="#00ff41"/><text x="126" y="104" fill="#000000">n</text><rect x="135" y="90" width="9" height="18" fill="#00ff41"/><text x="135" y="104" fill="#000000">-</text><rect x="144" y="90" width="9" height="18" fill="#00ff41"/><text x="144" y="104" fill="#000000">d</text><rect x="153" y="90" width="9" height="18" fill="#00ff41"/><text x="153" y="104" fill="#000000">o</text><rect x="162" y="90" width="9" height="18" fill="#00ff41"/><text x="162" y="104" fill="#000000">c</text><rect x="171" y="90" width="9" height="18" fill="#00ff41"/><text x="171" y="104" fill="#000000">s</text><rect x="180" y="90" width="9" height="18" fill="#00ff41"/><rect x="189" y="90" width="9" height="18" fill="#00ff41"/><rect x="198" y="90" width="9" height="18" fill="#00ff41"/><rect x="207" y="90" width="9" height="18" fill="#00ff41"/><rect x="216" y="90" width="9" height="18" fill="#00ff41"/><rect x="225" y="90" width="9" height="18" fill="#00ff41"/><rect x="234" y="90" width="9" height="18" fill="#00ff41"/><rect x="243" y="90" width="9" height="18" fill="#00ff41"/><rect x="252" y="90" width="9" height="18" fill="#00ff41"/><rect x="261" y="90" width="9" height="18" fill="#00ff41"/><rect x="270" y="90" width="9" height="18" fill="#00ff41"/><rect x="279" y="90" width="9" height="18" fill="#00ff41"/><rect x="288" y="90" width="9" height="18" fill="#00ff41"/><rect x="297" y="90" width="9" height="18" fill="#00ff41"/><rect x="324" y="90" width="9" height="18" fill="#00ff41"/><rect x="333" y="90" width="9" height="18" fill="#00ff41"/><text x="333" y="104" fill="#000000">u</text><rect x="342" y="90" width="9" height="18" fill="#00ff41"/><text x="342" y="104" fill="#000000">s</text><rect x="351" y="90" width="9" height="18" fill="#00ff41"/><text x="351" y="104" fill="#000000">-</text><rect x="360" y="90" width="9" height="18" fill="#00ff41"/><text x="360" y="104" fill="#000000">e</text><rect x="369" y="90" width="9" height="18" fill="#00ff41"/><text x="369" y="104" fill="#000000">a</text><rect x="378" y="90" width="9" height="18" fill="#00ff41"/><text x="378" y="104" fill="#000000">s</text><rect x="387" y="90" width="9" height="18" fill="#00ff41"/><text x="387" y="104" fill="#000000">t</text><rect x="396" y="90" width="9" height="18" fill="#00ff41"/><rect x="405" y="90" width="9" height="18" fill="#00ff41"/><rect x="432" y="90" width="9" height="18" fill="#00ff41"/><rect x="441" y="90" width="9" height="18" fill="#00ff41"/><rect x="450" y="90" width="9" height="18" fill="#00ff41"/><rect x="459" y="90" width="9" height="18" fill="#00ff41"/><rect x="468" y="90" width="9" height="18" fill="#00ff41"/><text x="468" y="104" fill="#000000">9</text><rect x="477" y="90" width="9" height="18" fill="#00ff41"/><text x="477" y="104" fill="#000000">.</text><rect x="486" y="90" width="9" height="18" fill="#00ff41"/><text x="486" y="104" fill="#000000">2</text><rect x="495" y="90" width="9" height="18" fill="#00ff41"/><text x="495" y="104" fill="#000000">%</text><rect x="522" y="90" width="9" height="18" fill="#00ff41"/><rect x="531" y="90" width="9" height="18" fill="#00ff41"/><rect x="540" y="90" width="9" height="18" fill="#00ff41"/><rect x="549" y="90" width="9" height="18" fill="#00ff41"/><text x="549" y="104" fill="#000000">w</text><rect x="558" y="90" width="9" height="18" fill="#00ff41"/><text x="558" y="104" fill="#000000">a</text><rect x="567" y="90" width="9" height="18" fill="#00ff41"/><text x="567" y="104" fill="#000000">i</text><rect x="576" y="90" width="9" height="18" fill="#00ff41"/><text x="576" y="104" fill="#000000">t</text><rect x="585" y="90" width="9" height="18" fill="#00ff41"/><rect x="594" y="90" width="9" height="18" fill="#00ff41"/><rect x="603" y="90" width="9" height="18" fill="#00ff41"/><rect x="612" y="90" width="9" height="18" fill="#00ff41"/><rect x="621" y="90" width="9" height="18" fill="#1c1c1c"/><rect x="0" y="108" width="9" height="18" fill="#1c1c1c"/><text x="63" y="122" fill="#ffffff">5</text><text x="72" y="122" fill="#ffffff">0</text><text x="81" y="122" fill="#ffffff">9</text><text x="108" y="122" fill="#ffffff">s</text><text x="117" y="122" fill="#ffffff">h</text><text x="126" y="122" fill="#ffffff">e</text><text x="135" y="122" fill="#ffffff">l</text><text x="144" y="122" fill="#ffffff">l</text><text x="351" y="122" fill="#ffffff">東</text><text x="369" y="122" fill="#ffffff">京</text><text x="468" y="122" fill="#ffffff">4</text><text x="477" y="122" fill="#ffffff">.</text><text x="486" y="122" fill="#ffffff">4</text><text x="495" y="122" fill="#ffffff">%</text><text x="549" y="122" fill="#ffffff">d</text><text x="558" y="122" fill="#ffffff">o</text><text x="567" y="122" fill="#ffffff">n</text><text x="576" y="122" fill="#ffffff">e</text><rect x="621" y="108" width="9" height="18" fill="#1c1c1c"/><rect x="0" y="126" width="9" height="18" fill="#1c1c1c"/><text x="63" y="140" fill="#ffffff">6</text><text x="72" y="140" fill="#ffffff">1</text><text x="81" y="140" fill="#ffffff">2</text><text x="108" y="140" fill="#ffffff">i</text><text x="117" y="140" fill="#ffffff">n</text><text x="126" y="140" fill="#ffffff">d</text><text x="135" y="140" fill="#ffffff">e</text><text x="144" y="140" fill="#ffffff">x</text><text x="153" y="140" fill="#ffffff">e</text><text x="162" y="140" fill="#ffffff">r</text><text x="333" y="140" fill="#ffffff">a</text><text x="342" y="140" fill="#ffffff">p</text><text x="351" y="140" fill="#ffffff">-</text><text x="360" y="140" fill="#ffffff">s</text><text x="369" y="140" fill="#ffffff">o</text><text x="378" y="140" fill="#ffffff">u</text><text x="387" y="140" fill="#ffffff">t</text><text x="396" y="140" fill="#ffffff">h</text><text x="468" y="140" fill="#ffffff">2</text><text x="477" y="140" fill="#ffffff">.</text><text x="486" y="140" fill="#ffffff">7</text><text x="495" y="140" fill="#ffffff">%</text><text x="549" y="140" fill="#ffffff">i</text><text x="558" y="140" fill="#ffffff">d</text><text x="567" y="140" fill="#ffffff">l</text><text x="576" y="140" fill="#ffffff">e</text><rect x="621" y="126" width="9" height="18" fill="#1c1c1c"/><rect x="0" y="144" width="9" height="18" fill="#1c1c1c"/><text x="63" y="158" fill="#ffffff">7</text><text x="72" y="158" fill="#ffffff">3</text><text x="81" y="158" fill="#ffffff">4</text><text x="108" y="158" fill="#ffffff">p</text><text x="117" y="158" fill="#ffffff">r</text><text x="126" y="158" fill="#ffffff">e</text><text x="135" y="158" fill="#ffffff">v</text><text x="144" y="158" fill="#ffffff">i</text><text x="153" y="158" fill="#ffffff">e</text><text x="162" y="158" fill="#ffffff">w</text><text x="171" y="158" fill="#ffffff">-</text><text x="180" y="158" fill="#ffffff">w</text><text x="189" y="158" fill="#ffffff">o</text><text x="198" y="158" fill="#ffffff">r</text><text x="207" y="158" fill="#ffffff">k</text><text x="216" y="158" fill="#ffffff">e</text><text x="225" y="158" fill="#ffffff">r</text><text x="333" y="158" fill="#ffffff">e</text><text x="342" y="158" fill="#ffffff">u</text><text x="351" y="158" fill="#ffffff">-</text><text x="360" y="158" fill="#ffffff">n</text><text x="369" y="158" fill="#ffffff">o</text><text x="378" y="158" fill="#ffffff">r</text><text x="387" y="158" fill="#ffffff">t</text><text x="396" y="158" fill="#ffffff">h</text><text x="468" y="158" fill="#ffffff">1</text><text x="477" y="158" fill="#ffffff">.</text><text x="486" y="158" fill="#ffffff">8</text><text x="495" y="158" fill="#ffffff">%</text><text x="558" y="158" fill="#ffffff">r</text><text x="567" y="158" fill="#ffffff">u</text><text x="576" y="158" fill="#ffffff">n</text><rect x="621" y="144" width="9" height="18" fill="#1c1c1c"/><rect x="0" y="162" width="9" height="18" fill="#1c1c1c"/><rect x="9" y="162" width="9" height="18" fill="#1c1c1c"/><rect x="18" y="162" width="9" height="18" fill="#1c1c1c"/><rect x="27" y="162" width="9" height="18" fill="#1c1c1c"/><rect x="36" y="162" width="9" height="18" fill="#1c1c1c"/><rect x="45" y="162" width="9" height="18" fill="#1c1c1c"/><rect x="54" y="162" width="9" height="18" fill="#1c1c1c"/><rect x="63" y="162" width="9" height="18" fill="#1c1c1c"/><rect x="72" y="162" width="9" height="18" fill="#1c1c1c"/><rect x="81" y="162" width="9" height="18" fill="#1c1c1c"/><rect x="90" y="162" width="9" height="18" fill="#1c1c1c"/><rect x="99" y="162" width="9" height="18" fill="#1c1c1c"/><rect x="108" y="162" width="9" height="18" fill="#1c1c1c"/><rect x="117" y="162" width="9" height="18" fill="#1c1c1c"/><rect x="126" y="162" width="9" height="18" fill="#1c1c1c"/><rect x="135" y="162" width="9" height="18" fill="#1c1c1c"/><rect x="144" y="162" width="9" height="18" fill="#1c1c1c"/><rect x="153" y="162" width="9" height="18" fill="#1c1c1c"/><rect x="162" y="162" width="9" height="18" fill="#1c1c1c"/><rect x="171" y="162" width="9" height="18" fill="#1c1c1c"/><rect x="180" y="162" width="9" height="18" fill="#1c1c1c"/><rect x="189" y="162" width="9" height="18" fill="#1c1c1c"/><rect x="198" y="162" width="9" height="18" fill="#1c1c1c"/><rect x="207" y="162" width="9" height="18" fill="#1c1c1c"/><rect x="216" y="162" width="9" height="18" fill="#1c1c1c"/><rect x="225" y="162" width="9" height="18" fill="#1c1c1c"/><rect x="234" y="162" width="9" height="18" fill="#1c1c1c"/><rect x="243" y="162" width="9" height="18" fill="#1c1c1c"/><rect x="252" y="162" width="9" height="18" fill="#1c1c1c"/><rect x="261" y="162" width="9" height="18" fill="#1c1c1c"/><rect x="270" y="162" width="9" height="18" fill="#1c1c1c"/><rect x="279" y="162" width="9" height="18" fill="#1c1c1c"/><rect x="288" y="162" width="9" height="18" fill="#1c1c1c"/><rect x="297" y="162" width="9" height="18" fill="#1c1c1c"/><rect x="306" y="162" width="9" height="18" fill="#1c1c1c"/><rect x="315" y="162" width="9" height="18" fill="#1c1c1c"/><rect x="324" y="162" width="9" height="18" fill="#1c1c1c"/><rect x="333" y="162" width="9" height="18" fill="#1c1c1c"/><rect x="342" y="162" width="9" height="18" fill="#1c1c1c"/><rect x="351" y="162" width="9" height="18" fill="#1c1c1c"/><rect x="360" y="162" width="9" height="18" fill="#1c1c1c"/><rect x="369" y="162" width="9" height="18" fill="#1c1c1c"/><rect x="378" y="162" width="9" height="18" fill="#1c1c1c"/><rect x="387" y="162" width="9" height="18" fill="#1c1c1c"/><rect x="396" y="162" width="9" height="18" fill="#1c1c1c"/><rect x="405" y="162" width="9" height="18" fill="#1c1c1c"/><rect x="414" y="162" width="9" height="18" fill="#1c1c1c"/><rect x="423" y="162" width="9" height="18" fill="#1c1c1c"/><rect x="432" y="162" width="9" height="18" fill="#1c1c1c"/><rect x="441" y="162" width="9" height="18" fill="#1c1c1c"/><rect x="450" y="162" width="9" height="18" fill="#1c1c1c"/><rect x="459" y="162" width="9" height="18" fill="#1c1c1c"/><rect x="468" y="162" width="9" height="18" fill="#1c1c1c"/><rect x="477" y="162" width="9" height="18" fill="#1c1c1c"/><rect x="486" y="162" width="9" height="18" fill="#1c1c1c"/><rect x="495" y="162" width="9" height="18" fill="#1c1c1c"/><rect x="504" y="162" width="9" height="18" fill="#1c1c1c"/><rect x="513" y="162" width="9" height="18" fill="#1c1c1c"/><rect x="522" y="162" width="9" height="18" fill="#1c1c1c"/><rect x="531" y="162" width="9" height="18" fill="#1c1c1c"/><rect x="540" y="162" width="9" height="18" fill="#1c1c1c"/><rect x="549" y="162" width="9" height="18" fill="#1c1c1c"/><rect x="558" y="162" width="9" height="18" fill="#1c1c1c"/><rect x="567" y="162" width="9" height="18" fill="#1c1c1c"/><rect x="576" y="162" width="9" height="18" fill="#1c1c1c"/><rect x="585" y="162" width="9" height="18" fill="#1c1c1c"/><rect x="594" y="162" width="9" height="18" fill="#1c1c1c"/><rect x="603" y="162" width="9" height="18" fill="#1c1c1c"/><rect x="612" y="162" width="9" height="18" fill="#1c1c1c"/><rect x="621" y="162" width="9" height="18" fill="#1c1c1c"/></g></svg>
