<svg xmlns="http://www.w3.org/2000/svg" width="162" height="72" viewBox="0 0 162 72" role="img" aria-label="Narrow tabs" style="background:#000000"><rect width="100%" height="100%" fill="#000000"/><g font-family="ui-monospace, SFMono-Regular, Menlo, Consolas, monospace" font-size="14"><rect x="0" y="0" width="9" height="18" fill="#1c1c1c"/><rect x="9" y="0" width="9" height="18" fill="#1c1c1c"/><rect x="18" y="0" width="9" height="18" fill="#1c1c1c"/><rect x="27" y="0" width="9" height="18" fill="#1c1c1c"/><rect x="36" y="0" width="9" height="18" fill="#1c1c1c"/><rect x="45" y="0" width="9" height="18" fill="#1c1c1c"/><rect x="54" y="0" width="9" height="18" fill="#1c1c1c"/><rect x="63" y="0" width="9" height="18" fill="#1c1c1c"/><rect x="72" y="0" width="9" height="18" fill="#1c1c1c"/><rect x="81" y="0" width="9" height="18" fill="#1c1c1c"/><rect x="90" y="0" width="9" height="18" fill="#1c1c1c"/><rect x="99" y="0" width="9" height="18" fill="#1c1c1c"/><rect x="108" y="0" width="9" height="18" fill="#1c1c1c"/><rect x="117" y="0" width="9" height="18" fill="#1c1c1c"/><rect x="126" y="0" width="9" height="18" fill="#1c1c1c"/><rect x="135" y="0" width="9" height="18" fill="#1c1c1c"/><rect x="144" y="0" width="9" height="18" fill="#1c1c1c"/><rect x="153" y="0" width="9" height="18" fill="#1c1c1c"/><rect x="0" y="18" width="9" height="18" fill="#1c1c1c"/><rect x="9" y="18" width="9" height="18" fill="#2a2a2a"/><rect x="18" y="18" width="9" height="18" fill="#2a2a2a"/><text x="18" y="32" fill="#00ff41">●</text><rect x="27" y="18" width="9" height="18" fill="#2a2a2a"/><rect x="36" y="18" width="9" height="18" fill="#2a2a2a"/><text x="36" y="32" fill="#ffffff">O</text><rect x="45" y="18" width="9" height="18" fill="#2a2a2a"/><text x="45" y="32" fill="#ffffff">v</text><rect x="54" y="18" width="9" height="18" fill="#2a2a2a"/><text x="54" y="32" fill="#ffffff">e</text><rect x="63" y="18" width="9" height="18" fill="#2a2a2a"/><text x="63" y="32" fill="#ffffff">r</text><rect x="72" y="18" width="9" height="18" fill="#2a2a2a"/><text x="72" y="32" fill="#ffffff">v</text><rect x="81" y="18" width="9" height="18" fill="#2a2a2a"/><text x="81" y="32" fill="#ffffff">i</text><rect x="90" y="18" width="9" height="18" fill="#2a2a2a"/><text x="90" y="32" fill="#ffffff">e</text><rect x="99" y="18" width="9" height="18" fill="#2a2a2a"/><text x="99" y="32" fill="#ffffff">w</text><rect x="108" y="18" width="9" height="18" fill="#2a2a2a"/><rect x="126" y="18" width="9" height="18" fill="#1e1e1e"/><rect x="135" y="18" width="9" height="18" fill="#1e1e1e"/><text x="135" y="32" fill="#ffffff">D</text><rect x="144" y="18" width="9" height="18" fill="#1e1e1e"/><text x="144" y="32" fill="#ffffff">e</text><rect x="153" y="18" width="9" height="18" fill="#1c1c1c"/><rect x="0" y="36" width="9" height="18" fill="#1c1c1c"/><text x="9" y="50" fill="#00ff41">━</text><text x="18" y="50" fill="#00ff41">━</text><text x="27" y="50" fill="#00ff41">━</text><text x="36" y="50" fill="#00ff41">━</text><text x="45" y="50" fill="#00ff41">━</text><text x="54" y="50" fill="#00ff41">━</text><text x="63" y="50" fill="#00ff41">━</text><text x="72" y="50" fill="#00ff41">━</text><text x="81" y="50" fill="#00ff41">━</text><text x="90" y="50" fill="#00ff41">━</text><text x="99" y="50" fill="#00ff41">━</text><text x="108" y="50" fill="#00ff41">━</text><rect x="153" y="36" width="9" height="18" fill="#1c1c1c"/><rect x="0" y="54" width="9" height="18" fill="#1c1c1c"/><rect x="9" y="54" width="9" height="18" fill="#1c1c1c"/><rect x="18" y="54" width="9" height="18" fill="#1c1c1c"/><rect x="27" y="54" width="9" height="18" fill="#1c1c1c"/><rect x="36" y="54" width="9" height="18" fill="#1c1c1c"/><rect x="45" y="54" width="9" height="18" fill="#1c1c1c"/><rect x="54" y="54" width="9" height="18" fill="#1c1c1c"/><rect x="63" y="54" width="9" height="18" fill="#1c1c1c"/><rect x="72" y="54" width="9" height="18" fill="#1c1c1c"/><rect x="81" y="54" width="9" height="18" fill="#1c1c1c"/><rect x="90" y="54" width="9" height="18" fill="#1c1c1c"/><rect x="99" y="54" width="9" height="18" fill="#1c1c1c"/><rect x="108" y="54" width="9" height="18" fill="#1c1c1c"/><rect x="117" y="54" width="9" height="18" fill="#1c1c1c"/><rect x="126" y="54" width="9" height="18" fill="#1c1c1c"/><rect x="135" y="54" width="9" height="18" fill="#1c1c1c"/><rect x="144" y="54" width="9" height="18" fill="#1c1c1c"/><rect x="153" y="54" width="9" height="18" fill="#1c1c1c"/></g></svg>
