<svg xmlns="http://www.w3.org/2000/svg" width="324" height="108" viewBox="0 0 324 108" role="img" aria-label="Toast" style="background:#000000"><rect width="100%" height="100%" fill="#000000"/><g font-family="ui-monospace, SFMono-Regular, Menlo, Consolas, monospace" font-size="14"><rect x="0" y="0" width="9" height="18" fill="#1c1c1c"/><rect x="9" y="0" width="9" height="18" fill="#1c1c1c"/><rect x="18" y="0" width="9" height="18" fill="#1c1c1c"/><rect x="27" y="0" width="9" height="18" fill="#1c1c1c"/><rect x="36" y="0" width="9" height="18" fill="#1c1c1c"/><rect x="45" y="0" width="9" height="18" fill="#1c1c1c"/><rect x="54" y="0" width="9" height="18" fill="#1c1c1c"/><rect x="63" y="0" width="9" height="18" fill="#1c1c1c"/><rect x="72" y="0" width="9" height="18" fill="#1c1c1c"/><rect x="81" y="0" width="9" height="18" fill="#1c1c1c"/><rect x="90" y="0" width="9" height="18" fill="#1c1c1c"/><rect x="99" y="0" width="9" height="18" fill="#1c1c1c"/><rect x="108" y="0" width="9" height="18" fill="#1c1c1c"/><rect x="117" y="0" width="9" height="18" fill="#1c1c1c"/><rect x="126" y="0" width="9" height="18" fill="#1c1c1c"/><rect x="135" y="0" width="9" height="18" fill="#1c1c1c"/><rect x="144" y="0" width="9" height="18" fill="#1c1c1c"/><rect x="153" y="0" width="9" height="18" fill="#1c1c1c"/><rect x="162" y="0" width="9" height="18" fill="#1c1c1c"/><rect x="171" y="0" width="9" height="18" fill="#1c1c1c"/><rect x="180" y="0" width="9" height="18" fill="#1c1c1c"/><rect x="189" y="0" width="9" height="18" fill="#1c1c1c"/><rect x="198" y="0" width="9" height="18" fill="#1c1c1c"/><rect x="207" y="0" width="9" height="18" fill="#1c1c1c"/><rect x="216" y="0" width="9" height="18" fill="#1c1c1c"/><rect x="225" y="0" width="9" height="18" fill="#1c1c1c"/><rect x="234" y="0" width="9" height="18" fill="#1c1c1c"/><rect x="243" y="0" width="9" height="18" fill="#1c1c1c"/><rect x="252" y="0" width="9" height="18" fill="#1c1c1c"/><rect x="261" y="0" width="9" height="18" fill="#1c1c1c"/><rect x="270" y="0" width="9" height="18" fill="#1c1c1c"/><rect x="279" y="0" width="9" height="18" fill="#1c1c1c"/><rect x="288" y="0" width="9" height="18" fill="#1c1c1c"/><rect x="297" y="0" width="9" height="18" fill="#1c1c1c"/><rect x="306" y="0" width="9" height="18" fill="#1c1c1c"/><rect x="315" y="0" width="9" height="18" fill="#1c1c1c"/><rect x="0" y="18" width="9" height="18" fill="#1c1c1c"/><rect x="315" y="18" width="9" height="18" fill="#1c1c1c"/><rect x="0" y="36" width="9" height="18" fill="#1c1c1c"/><text x="198" y="50" fill="#00ff41">┌</text><text x="207" y="50" fill="#00ff41">─</text><text x="216" y="50" fill="#00ff41">─</text><text x="225" y="50" fill="#00ff41">─</text><text x="234" y="50" fill="#00ff41">─</text><text x="243" y="50" fill="#00ff41">─</text><text x="252" y="50" fill="#00ff41">─</text><text x="261" y="50" fill="#00ff41">─</text><text x="270" y="50" fill="#00ff41">─</text><text x="279" y="50" fill="#00ff41">─</text><text x="288" y="50" fill="#00ff41">┐</text><rect x="315" y="36" width="9" height="18" fill="#1c1c1c"/><rect x="0" y="54" width="9" height="18" fill="#1c1c1c"/><text x="198" y="68" fill="#00ff41">│</text><text x="207" y="68" fill="#ffffff">U</text><text x="216" y="68" fill="#ffffff">p</text><text x="225" y="68" fill="#ffffff">d</text><text x="234" y="68" fill="#ffffff">a</text><text x="243" y="68" fill="#ffffff">t</text><text x="252" y="68" fill="#ffffff">e</text><text x="261" y="68" fill="#ffffff">d</text><text x="288" y="68" fill="#00ff41">│</text><rect x="315" y="54" width="9" height="18" fill="#1c1c1c"/><rect x="0" y="72" width="9" height="18" fill="#1c1c1c"/><text x="198" y="86" fill="#00ff41">└</text><text x="207" y="86" fill="#00ff41">─</text><text x="216" y="86" fill="#00ff41">─</text><text x="225" y="86" fill="#00ff41">─</text><text x="234" y="86" fill="#00ff41">─</text><text x="243" y="86" fill="#00ff41">─</text><text x="252" y="86" fill="#00ff41">─</text><text x="261" y="86" fill="#00ff41">─</text><text x="270" y="86" fill="#00ff41">─</text><text x="279" y="86" fill="#00ff41">─</text><text x="288" y="86" fill="#00ff41">┘</text><rect x="315" y="72" width="9" height="18" fill="#1c1c1c"/><rect x="0" y="90" width="9" height="18" fill="#1c1c1c"/><rect x="9" y="90" width="9" height="18" fill="#1c1c1c"/><rect x="18" y="90" width="9" height="18" fill="#1c1c1c"/><rect x="27" y="90" width="9" height="18" fill="#1c1c1c"/><rect x="36" y="90" width="9" height="18" fill="#1c1c1c"/><rect x="45" y="90" width="9" height="18" fill="#1c1c1c"/><rect x="54" y="90" width="9" height="18" fill="#1c1c1c"/><rect x="63" y="90" width="9" height="18" fill="#1c1c1c"/><rect x="72" y="90" width="9" height="18" fill="#1c1c1c"/><rect x="81" y="90" width="9" height="18" fill="#1c1c1c"/><rect x="90" y="90" width="9" height="18" fill="#1c1c1c"/><rect x="99" y="90" width="9" height="18" fill="#1c1c1c"/><rect x="108" y="90" width="9" height="18" fill="#1c1c1c"/><rect x="117" y="90" width="9" height="18" fill="#1c1c1c"/><rect x="126" y="90" width="9" height="18" fill="#1c1c1c"/><rect x="135" y="90" width="9" height="18" fill="#1c1c1c"/><rect x="144" y="90" width="9" height="18" fill="#1c1c1c"/><rect x="153" y="90" width="9" height="18" fill="#1c1c1c"/><rect x="162" y="90" width="9" height="18" fill="#1c1c1c"/><rect x="171" y="90" width="9" height="18" fill="#1c1c1c"/><rect x="180" y="90" width="9" height="18" fill="#1c1c1c"/><rect x="189" y="90" width="9" height="18" fill="#1c1c1c"/><rect x="198" y="90" width="9" height="18" fill="#1c1c1c"/><rect x="207" y="90" width="9" height="18" fill="#1c1c1c"/><rect x="216" y="90" width="9" height="18" fill="#1c1c1c"/><rect x="225" y="90" width="9" height="18" fill="#1c1c1c"/><rect x="234" y="90" width="9" height="18" fill="#1c1c1c"/><rect x="243" y="90" width="9" height="18" fill="#1c1c1c"/><rect x="252" y="90" width="9" height="18" fill="#1c1c1c"/><rect x="261" y="90" width="9" height="18" fill="#1c1c1c"/><rect x="270" y="90" width="9" height="18" fill="#1c1c1c"/><rect x="279" y="90" width="9" height="18" fill="#1c1c1c"/><rect x="288" y="90" width="9" height="18" fill="#1c1c1c"/><rect x="297" y="90" width="9" height="18" fill="#1c1c1c"/><rect x="306" y="90" width="9" height="18" fill="#1c1c1c"/><rect x="315" y="90" width="9" height="18" fill="#1c1c1c"/></g></svg>
