<svg xmlns="http://www.w3.org/2000/svg" width="270" height="180" viewBox="0 0 270 180" role="img" aria-label="Virtual grid narrow" style="background:#000000"><rect width="100%" height="100%" fill="#000000"/><g font-family="ui-monospace, SFMono-Regular, Menlo, Consolas, monospace" font-size="14"><rect x="0" y="0" width="9" height="18" fill="#1c1c1c"/><rect x="9" y="0" width="9" height="18" fill="#1c1c1c"/><rect x="18" y="0" width="9" height="18" fill="#1c1c1c"/><rect x="27" y="0" width="9" height="18" fill="#1c1c1c"/><rect x="36" y="0" width="9" height="18" fill="#1c1c1c"/><rect x="45" y="0" width="9" height="18" fill="#1c1c1c"/><rect x="54" y="0" width="9" height="18" fill="#1c1c1c"/><rect x="63" y="0" width="9" height="18" fill="#1c1c1c"/><rect x="72" y="0" width="9" height="18" fill="#1c1c1c"/><rect x="81" y="0" width="9" height="18" fill="#1c1c1c"/><rect x="90" y="0" width="9" height="18" fill="#1c1c1c"/><rect x="99" y="0" width="9" height="18" fill="#1c1c1c"/><rect x="108" y="0" width="9" height="18" fill="#1c1c1c"/><rect x="117" y="0" width="9" height="18" fill="#1c1c1c"/><rect x="126" y="0" width="9" height="18" fill="#1c1c1c"/><rect x="135" y="0" width="9" height="18" fill="#1c1c1c"/><rect x="144" y="0" width="9" height="18" fill="#1c1c1c"/><rect x="153" y="0" width="9" height="18" fill="#1c1c1c"/><rect x="162" y="0" width="9" height="18" fill="#1c1c1c"/><rect x="171" y="0" width="9" height="18" fill="#1c1c1c"/><rect x="180" y="0" width="9" height="18" fill="#1c1c1c"/><rect x="189" y="0" width="9" height="18" fill="#1c1c1c"/><rect x="198" y="0" width="9" height="18" fill="#1c1c1c"/><rect x="207" y="0" width="9" height="18" fill="#1c1c1c"/><rect x="216" y="0" width="9" height="18" fill="#1c1c1c"/><rect x="225" y="0" width="9" height="18" fill="#1c1c1c"/><rect x="234" y="0" width="9" height="18" fill="#1c1c1c"/><rect x="243" y="0" width="9" height="18" fill="#1c1c1c"/><rect x="252" y="0" width="9" height="18" fill="#1c1c1c"/><rect x="261" y="0" width="9" height="18" fill="#1c1c1c"/><rect x="0" y="18" width="9" height="18" fill="#1c1c1c"/><text x="9" y="32" fill="#008c1e">#</text><text x="63" y="32" fill="#008c1e">i</text><text x="72" y="32" fill="#008c1e">d</text><text x="135" y="32" fill="#008c1e">n</text><text x="144" y="32" fill="#008c1e">a</text><text x="153" y="32" fill="#008c1e">m</text><text x="162" y="32" fill="#008c1e">e</text><rect x="261" y="18" width="9" height="18" fill="#1c1c1c"/><rect x="0" y="36" width="9" height="18" fill="#1c1c1c"/><text x="9" y="50" fill="#008c1e">0</text><text x="63" y="50" fill="#00ff41">0</text><text x="135" y="50" fill="#ffffff">a</text><text x="144" y="50" fill="#ffffff">l</text><text x="153" y="50" fill="#ffffff">p</text><text x="162" y="50" fill="#ffffff">h</text><text x="171" y="50" fill="#ffffff">a</text><rect x="261" y="36" width="9" height="18" fill="#1c1c1c"/><rect x="0" y="54" width="9" height="18" fill="#1c1c1c"/><text x="9" y="68" fill="#008c1e">1</text><text x="63" y="68" fill="#ffffff">1</text><text x="135" y="68" fill="#ffffff">b</text><text x="144" y="68" fill="#ffffff">e</text><text x="153" y="68" fill="#ffffff">t</text><text x="162" y="68" fill="#ffffff">a</text><rect x="261" y="54" width="9" height="18" fill="#1c1c1c"/><rect x="0" y="72" width="9" height="18" fill="#1c1c1c"/><text x="9" y="86" fill="#008c1e">2</text><text x="63" y="86" fill="#ffffff">2</text><text x="135" y="86" fill="#ffffff">g</text><text x="144" y="86" fill="#ffffff">a</text><text x="153" y="86" fill="#ffffff">m</text><text x="162" y="86" fill="#ffffff">m</text><text x="171" y="86" fill="#ffffff">a</text><rect x="261" y="72" width="9" height="18" fill="#1c1c1c"/><rect x="0" y="90" width="9" height="18" fill="#1c1c1c"/><text x="9" y="104" fill="#008c1e">3</text><text x="63" y="104" fill="#ffffff">3</text><text x="135" y="104" fill="#ffffff">d</text><text x="144" y="104" fill="#ffffff">e</text><text x="153" y="104" fill="#ffffff">l</text><text x="162" y="104" fill="#ffffff">t</text><text x="171" y="104" fill="#ffffff">a</text><rect x="261" y="90" width="9" height="18" fill="#1c1c1c"/><rect x="0" y="108" width="9" height="18" fill="#1c1c1c"/><text x="9" y="122" fill="#008c1e">4</text><text x="63" y="122" fill="#ffffff">4</text><text x="135" y="122" fill="#ffffff">e</text><text x="144" y="122" fill="#ffffff">p</text><text x="153" y="122" fill="#ffffff">s</text><rect x="261" y="108" width="9" height="18" fill="#1c1c1c"/><rect x="0" y="126" width="9" height="18" fill="#1c1c1c"/><text x="9" y="140" fill="#008c1e">5</text><text x="63" y="140" fill="#ffffff">5</text><text x="135" y="140" fill="#ffffff">z</text><text x="144" y="140" fill="#ffffff">e</text><text x="153" y="140" fill="#ffffff">t</text><text x="162" y="140" fill="#ffffff">a</text><rect x="261" y="126" width="9" height="18" fill="#1c1c1c"/><rect x="0" y="144" width="9" height="18" fill="#1c1c1c"/><text x="9" y="158" fill="#008c1e">6</text><text x="63" y="158" fill="#008c1e">…</text><text x="135" y="158" fill="#008c1e">…</text><rect x="261" y="144" width="9" height="18" fill="#1c1c1c"/><rect x="0" y="162" width="9" height="18" fill="#1c1c1c"/><rect x="9" y="162" width="9" height="18" fill="#1c1c1c"/><rect x="18" y="162" width="9" height="18" fill="#1c1c1c"/><rect x="27" y="162" width="9" height="18" fill="#1c1c1c"/><rect x="36" y="162" width="9" height="18" fill="#1c1c1c"/><rect x="45" y="162" width="9" height="18" fill="#1c1c1c"/><rect x="54" y="162" width="9" height="18" fill="#1c1c1c"/><rect x="63" y="162" width="9" height="18" fill="#1c1c1c"/><rect x="72" y="162" width="9" height="18" fill="#1c1c1c"/><rect x="81" y="162" width="9" height="18" fill="#1c1c1c"/><rect x="90" y="162" width="9" height="18" fill="#1c1c1c"/><rect x="99" y="162" width="9" height="18" fill="#1c1c1c"/><rect x="108" y="162" width="9" height="18" fill="#1c1c1c"/><rect x="117" y="162" width="9" height="18" fill="#1c1c1c"/><rect x="126" y="162" width="9" height="18" fill="#1c1c1c"/><rect x="135" y="162" width="9" height="18" fill="#1c1c1c"/><rect x="144" y="162" width="9" height="18" fill="#1c1c1c"/><rect x="153" y="162" width="9" height="18" fill="#1c1c1c"/><rect x="162" y="162" width="9" height="18" fill="#1c1c1c"/><rect x="171" y="162" width="9" height="18" fill="#1c1c1c"/><rect x="180" y="162" width="9" height="18" fill="#1c1c1c"/><rect x="189" y="162" width="9" height="18" fill="#1c1c1c"/><rect x="198" y="162" width="9" height="18" fill="#1c1c1c"/><rect x="207" y="162" width="9" height="18" fill="#1c1c1c"/><rect x="216" y="162" width="9" height="18" fill="#1c1c1c"/><rect x="225" y="162" width="9" height="18" fill="#1c1c1c"/><rect x="234" y="162" width="9" height="18" fill="#1c1c1c"/><rect x="243" y="162" width="9" height="18" fill="#1c1c1c"/><rect x="252" y="162" width="9" height="18" fill="#1c1c1c"/><rect x="261" y="162" width="9" height="18" fill="#1c1c1c"/></g></svg>
