<svg xmlns="http://www.w3.org/2000/svg" width="450" height="72" viewBox="0 0 450 72" role="img" aria-label="Action bar" style="background:#000000"><rect width="100%" height="100%" fill="#000000"/><g font-family="ui-monospace, SFMono-Regular, Menlo, Consolas, monospace" font-size="14"><rect x="0" y="0" width="9" height="18" fill="#1c1c1c"/><rect x="9" y="0" width="9" height="18" fill="#1c1c1c"/><rect x="18" y="0" width="9" height="18" fill="#1c1c1c"/><rect x="27" y="0" width="9" height="18" fill="#1c1c1c"/><rect x="36" y="0" width="9" height="18" fill="#1c1c1c"/><rect x="45" y="0" width="9" height="18" fill="#1c1c1c"/><rect x="54" y="0" width="9" height="18" fill="#1c1c1c"/><rect x="63" y="0" width="9" height="18" fill="#1c1c1c"/><rect x="72" y="0" width="9" height="18" fill="#1c1c1c"/><rect x="81" y="0" width="9" height="18" fill="#1c1c1c"/><rect x="90" y="0" width="9" height="18" fill="#1c1c1c"/><rect x="99" y="0" width="9" height="18" fill="#1c1c1c"/><rect x="108" y="0" width="9" height="18" fill="#1c1c1c"/><rect x="117" y="0" width="9" height="18" fill="#1c1c1c"/><rect x="126" y="0" width="9" height="18" fill="#1c1c1c"/><rect x="135" y="0" width="9" height="18" fill="#1c1c1c"/><rect x="144" y="0" width="9" height="18" fill="#1c1c1c"/><rect x="153" y="0" width="9" height="18" fill="#1c1c1c"/><rect x="162" y="0" width="9" height="18" fill="#1c1c1c"/><rect x="171" y="0" width="9" height="18" fill="#1c1c1c"/><rect x="180" y="0" width="9" height="18" fill="#1c1c1c"/><rect x="189" y="0" width="9" height="18" fill="#1c1c1c"/><rect x="198" y="0" width="9" height="18" fill="#1c1c1c"/><rect x="207" y="0" width="9" height="18" fill="#1c1c1c"/><rect x="216" y="0" width="9" height="18" fill="#1c1c1c"/><rect x="225" y="0" width="9" height="18" fill="#1c1c1c"/><rect x="234" y="0" width="9" height="18" fill="#1c1c1c"/><rect x="243" y="0" width="9" height="18" fill="#1c1c1c"/><rect x="252" y="0" width="9" height="18" fill="#1c1c1c"/><rect x="261" y="0" width="9" height="18" fill="#1c1c1c"/><rect x="270" y="0" width="9" height="18" fill="#1c1c1c"/><rect x="279" y="0" width="9" height="18" fill="#1c1c1c"/><rect x="288" y="0" width="9" height="18" fill="#1c1c1c"/><rect x="297" y="0" width="9" height="18" fill="#1c1c1c"/><rect x="306" y="0" width="9" height="18" fill="#1c1c1c"/><rect x="315" y="0" width="9" height="18" fill="#1c1c1c"/><rect x="324" y="0" width="9" height="18" fill="#1c1c1c"/><rect x="333" y="0" width="9" height="18" fill="#1c1c1c"/><rect x="342" y="0" width="9" height="18" fill="#1c1c1c"/><rect x="351" y="0" width="9" height="18" fill="#1c1c1c"/><rect x="360" y="0" width="9" height="18" fill="#1c1c1c"/><rect x="369" y="0" width="9" height="18" fill="#1c1c1c"/><rect x="378" y="0" width="9" height="18" fill="#1c1c1c"/><rect x="387" y="0" width="9" height="18" fill="#1c1c1c"/><rect x="396" y="0" width="9" height="18" fill="#1c1c1c"/><rect x="405" y="0" width="9" height="18" fill="#1c1c1c"/><rect x="414" y="0" width="9" height="18" fill="#1c1c1c"/><rect x="423" y="0" width="9" height="18" fill="#1c1c1c"/><rect x="432" y="0" width="9" height="18" fill="#1c1c1c"/><rect x="441" y="0" width="9" height="18" fill="#1c1c1c"/><rect x="0" y="18" width="9" height="18" fill="#1c1c1c"/><text x="18" y="32" fill="#000000">A</text><text x="27" y="32" fill="#000000">c</text><text x="36" y="32" fill="#000000">c</text><text x="45" y="32" fill="#000000">e</text><text x="54" y="32" fill="#000000">p</text><text x="63" y="32" fill="#000000">t</text><text x="108" y="32" fill="#000000">C</text><text x="117" y="32" fill="#000000">a</text><text x="126" y="32" fill="#000000">n</text><text x="135" y="32" fill="#000000">c</text><text x="144" y="32" fill="#000000">e</text><text x="153" y="32" fill="#000000">l</text><rect x="441" y="18" width="9" height="18" fill="#1c1c1c"/><rect x="0" y="36" width="9" height="18" fill="#1c1c1c"/><rect x="441" y="36" width="9" height="18" fill="#1c1c1c"/><rect x="0" y="54" width="9" height="18" fill="#1c1c1c"/><rect x="9" y="54" width="9" height="18" fill="#1c1c1c"/><rect x="18" y="54" width="9" height="18" fill="#1c1c1c"/><rect x="27" y="54" width="9" height="18" fill="#1c1c1c"/><rect x="36" y="54" width="9" height="18" fill="#1c1c1c"/><rect x="45" y="54" width="9" height="18" fill="#1c1c1c"/><rect x="54" y="54" width="9" height="18" fill="#1c1c1c"/><rect x="63" y="54" width="9" height="18" fill="#1c1c1c"/><rect x="72" y="54" width="9" height="18" fill="#1c1c1c"/><rect x="81" y="54" width="9" height="18" fill="#1c1c1c"/><rect x="90" y="54" width="9" height="18" fill="#1c1c1c"/><rect x="99" y="54" width="9" height="18" fill="#1c1c1c"/><rect x="108" y="54" width="9" height="18" fill="#1c1c1c"/><rect x="117" y="54" width="9" height="18" fill="#1c1c1c"/><rect x="126" y="54" width="9" height="18" fill="#1c1c1c"/><rect x="135" y="54" width="9" height="18" fill="#1c1c1c"/><rect x="144" y="54" width="9" height="18" fill="#1c1c1c"/><rect x="153" y="54" width="9" height="18" fill="#1c1c1c"/><rect x="162" y="54" width="9" height="18" fill="#1c1c1c"/><rect x="171" y="54" width="9" height="18" fill="#1c1c1c"/><rect x="180" y="54" width="9" height="18" fill="#1c1c1c"/><rect x="189" y="54" width="9" height="18" fill="#1c1c1c"/><rect x="198" y="54" width="9" height="18" fill="#1c1c1c"/><rect x="207" y="54" width="9" height="18" fill="#1c1c1c"/><rect x="216" y="54" width="9" height="18" fill="#1c1c1c"/><rect x="225" y="54" width="9" height="18" fill="#1c1c1c"/><rect x="234" y="54" width="9" height="18" fill="#1c1c1c"/><rect x="243" y="54" width="9" height="18" fill="#1c1c1c"/><rect x="252" y="54" width="9" height="18" fill="#1c1c1c"/><rect x="261" y="54" width="9" height="18" fill="#1c1c1c"/><rect x="270" y="54" width="9" height="18" fill="#1c1c1c"/><rect x="279" y="54" width="9" height="18" fill="#1c1c1c"/><rect x="288" y="54" width="9" height="18" fill="#1c1c1c"/><rect x="297" y="54" width="9" height="18" fill="#1c1c1c"/><rect x="306" y="54" width="9" height="18" fill="#1c1c1c"/><rect x="315" y="54" width="9" height="18" fill="#1c1c1c"/><rect x="324" y="54" width="9" height="18" fill="#1c1c1c"/><rect x="333" y="54" width="9" height="18" fill="#1c1c1c"/><rect x="342" y="54" width="9" height="18" fill="#1c1c1c"/><rect x="351" y="54" width="9" height="18" fill="#1c1c1c"/><rect x="360" y="54" width="9" height="18" fill="#1c1c1c"/><rect x="369" y="54" width="9" height="18" fill="#1c1c1c"/><rect x="378" y="54" width="9" height="18" fill="#1c1c1c"/><rect x="387" y="54" width="9" height="18" fill="#1c1c1c"/><rect x="396" y="54" width="9" height="18" fill="#1c1c1c"/><rect x="405" y="54" width="9" height="18" fill="#1c1c1c"/><rect x="414" y="54" width="9" height="18" fill="#1c1c1c"/><rect x="423" y="54" width="9" height="18" fill="#1c1c1c"/><rect x="432" y="54" width="9" height="18" fill="#1c1c1c"/><rect x="441" y="54" width="9" height="18" fill="#1c1c1c"/></g></svg>
